<svg xmlns="http://www.w3.org/2000/svg" viewBox="0 0 512 452.12"><defs><style>.a{fill:#e8edee;}.b{fill:#ffa939;}.c{fill:#b3babe;}.d{fill:#ce852e;}.e{fill:#ba752b;}.f{fill:#515151;}.g{fill:#595959;}</style></defs><path class="a" d="M73.27,363.81a22,22,0,0,1-1-7.15q.09-91.1.09-182.2c2.78-1.86,6.08-1.27,9.18-1.28q81,0,161.89,0,102.5,0,205,0c3.11,0,6.41-.58,9.19,1.28q0,94.69,0,189.39c-5.2,20.22-21.11,31.12-45.5,31.13q-147.92,0-295.83,0c-19.27,0-33-7.85-41.47-22.5C73.21,369.76,72.26,366.88,73.27,363.81Z"/><path class="b" d="M414.65,65.06c23.64,0,42.82,15.94,43,36,.11,18.2-.07,36.4-.13,54.61-2.59,1.91-5.74,1.2-8.66,1.2q-140.71.06-281.42,0-43.63,0-87.28,0c-2.6,0-5.41.55-7.66-1.21,0-18.91-.53-37.83,0-56.73S92.61,65.1,115.26,65.06a3.33,3.33,0,0,1,1.59,3c.08,10.83.72,21.65-.32,32.46-1.31,2.36-2.28,1.49-3-.29s.08-3.65-.73-5.43c-6.32,4.72-10,17.23-4.07,27s15.38,15.1,28.62,14.83c12.81-.26,22-5.58,27.2-15.32,5.27-10,3.32-19.45-5-27.85-1.19-1.19-2.56-2.26-3-3.87-.84-7-.38-14.09-.31-21.13a3.67,3.67,0,0,1,1.61-3.4H372.17a3.33,3.33,0,0,1,1.59,3c.08,10.82.71,21.65-.33,32.46-1.31,2.36-2.27,1.49-3-.29s.09-3.65-.73-5.43c-6.32,4.72-9.94,17.23-4.07,27s15.39,15.1,28.63,14.83c12.8-.26,22-5.58,27.19-15.32,5.27-10,3.32-19.45-5.05-27.85-1.18-1.19-2.55-2.26-3-3.87-.84-7-.37-14.09-.31-21.13A3.69,3.69,0,0,1,414.65,65.06Z"/><path class="c" d="M73.27,363.81c1.41,12.59,16.78,26.43,32.07,29a71.88,71.88,0,0,0,11.91.89c98.07,0,196.13-.22,294.19.14,21.78.08,40.25-11.44,45-28.17a8.2,8.2,0,0,1,1.1-1.81c-.19,6.11.63,12.21-.76,18.32-3.93,17.3-20.7,29.52-41.31,29.53q-150.48.07-301,0c-23.58,0-42.2-16-42.15-36.22C72.37,371.61,71.08,367.59,73.27,363.81Z"/><path class="d" d="M457.58,174.46c-1.17,0-2.34.1-3.51.1H75.84c-1.16,0-2.33-.06-3.5-.1q0-8.91.1-17.83c1.72-.87,3.6-.43,5.4-.43q187.13,0,374.24,0c1.8,0,3.68-.44,5.4.43Q457.53,165.54,457.58,174.46Z"/><path class="c" d="M157.74,65.06q.13,12.85.26,25.7c2,9.53,2.54,18.81-7.38,25.8-6.58,4.63-14.14,5.56-22.06,3-7.56-2.4-12.13-7.26-14.06-13.91a4,4,0,0,1,.54-4.08q.12-18.28.23-36.56c0-6.27,0-12.54.09-18.81.16-9.93,9.64-17.94,21.14-17.95s21,8,21.15,17.94C157.75,52.51,157.72,58.79,157.74,65.06Z"/><path class="c" d="M414.65,65.06l.25,25.7c1.58,7.68,2.53,15.31-3.45,22.09a22.88,22.88,0,0,1-20.93,7.78c-9.35-1.19-15.65-6-18.73-13.68-.7-1.75-1.22-3.59.15-5.34q.12-18.27.23-36.55c0-6.41,0-12.82.09-19.22.15-9.89,9.79-17.75,21.4-17.54s20.74,7.79,20.89,17.54C414.66,52.24,414.62,58.65,414.65,65.06Z"/><path class="e" d="M457.48,156.63h-385v-.92h385Z"/><path class="d" d="M371.94,101.61c2.39,15.67,20.07,23.27,33.86,14.47,5.64-3.6,8.84-8.45,8.85-14.64,0-3.56.17-7.12.25-10.68,13.24,8.87,14.64,28.52.71,39.7-13.28,10.67-34.51,9.84-46.85-2.19-10.64-10.36-9.68-28.59,2.17-36.22C372.12,95.25,370.5,98.59,371.94,101.61Z"/><path class="d" d="M115,101.62c1.91,13.39,14,20.88,28,17.27,8.22-2.14,14.33-8.8,14.69-16.18.19-4,.21-8,.31-11.95,13.23,8.87,14.63,28.52.7,39.7-13.28,10.67-34.51,9.84-46.85-2.19-10.63-10.36-9.67-28.61,2.18-36.22C115.22,95.25,113.58,98.59,115,101.62Z"/><path class="f" d="M208.89,127.84a3.79,3.79,0,0,1-2.37-.69,4.4,4.4,0,0,1-1.4-2.16l-9.3-26.13a3.07,3.07,0,0,1,.21-3A3.31,3.31,0,0,1,199,94.68a3.6,3.6,0,0,1,2.35.69,4.43,4.43,0,0,1,1.28,2.16l7.55,22.58h-2l8-22.58a4.72,4.72,0,0,1,1.34-2.16,3.25,3.25,0,0,1,2.16-.69,3,3,0,0,1,2.07.69,4.92,4.92,0,0,1,1.28,2.2l7.69,22.54H229l7.68-22.58a4.71,4.71,0,0,1,1.33-2.16,3.4,3.4,0,0,1,2.25-.69,3,3,0,0,1,2.63,1.21,3.13,3.13,0,0,1,.18,3L233.77,125a5.27,5.27,0,0,1-1.45,2.16,3.57,3.57,0,0,1-2.32.69,3.79,3.79,0,0,1-2.37-.69,4.47,4.47,0,0,1-1.4-2.16L219,104.43h1.11L212.66,125a5,5,0,0,1-1.4,2.16A3.68,3.68,0,0,1,208.89,127.84Z"/><path class="f" d="M252.17,127.47a3.77,3.77,0,0,1-2.76-1,3.83,3.83,0,0,1-1-2.81V98.82a3.81,3.81,0,0,1,1-2.81,3.77,3.77,0,0,1,2.76-1h16.06a2.82,2.82,0,0,1,2.09.72,2.76,2.76,0,0,1,.71,2,2.5,2.5,0,0,1-2.8,2.81H255.3v7.59h11.91a2.86,2.86,0,0,1,2.12.71A2.92,2.92,0,0,1,270,111a2.48,2.48,0,0,1-2.81,2.76H255.3v8.14h12.93a2.5,2.5,0,0,1,2.8,2.8,2.49,2.49,0,0,1-2.8,2.76Z"/><path class="f" d="M280,127.47a3.77,3.77,0,0,1-2.76-1,3.83,3.83,0,0,1-1-2.81V98.82a3.81,3.81,0,0,1,1-2.81A3.77,3.77,0,0,1,280,95h16.06a2.82,2.82,0,0,1,2.09.72,2.76,2.76,0,0,1,.71,2,2.5,2.5,0,0,1-2.8,2.81H283.13v7.59H295a2.86,2.86,0,0,1,2.12.71,2.92,2.92,0,0,1,.69,2.1,2.48,2.48,0,0,1-2.81,2.76H283.13v8.14h12.93a2.5,2.5,0,0,1,2.8,2.8,2.49,2.49,0,0,1-2.8,2.76Z"/><path class="f" d="M307.65,127.84a3.47,3.47,0,0,1-2.62-.94,3.68,3.68,0,0,1-.92-2.69V98.26A3.57,3.57,0,0,1,305,95.6a3.5,3.5,0,0,1,2.62-.92,3.22,3.22,0,0,1,3.59,3.58v10.91h.09l12.23-12.79a6.18,6.18,0,0,1,1.66-1.27,4.27,4.27,0,0,1,1.93-.43,2.93,2.93,0,0,1,2.33.82,2.58,2.58,0,0,1,.62,1.94,3.18,3.18,0,0,1-1,2L316.8,112l.05-3,12.83,13.71a3.37,3.37,0,0,1,1.13,2.32,2.6,2.6,0,0,1-.78,2,3.29,3.29,0,0,1-2.37.78,3.6,3.6,0,0,1-2.12-.55,14.61,14.61,0,0,1-1.79-1.56l-12.42-13.07h-.09v11.55a3.75,3.75,0,0,1-.9,2.69A3.55,3.55,0,0,1,307.65,127.84Z"/><path class="g" d="M262.33,354.27q-25.66,0-39.22-19.4t-13.55-55.33q0-24.23,6.06-40.76t17.86-24.94q11.81-8.42,28.85-8.42,25.86,0,39.31,18.89t13.45,55q0,24-6,40.76t-17.76,25.46Q279.57,354.27,262.33,354.27Zm0-21.56q13.95,0,20.63-12.93t6.67-40.45q0-27.51-6.67-39.93T262.33,227q-13.75,0-20.53,12.42T235,279.33q0,27.53,6.78,40.45T262.33,332.71Z"/></svg>
