<?xml version="1.0" encoding="utf-8"?>
<!-- Generator: Adobe Illustrator 26.5.0, SVG Export Plug-In . SVG Version: 6.00 Build 0)  -->
<svg version="1.1" id="Layer_8" xmlns="http://www.w3.org/2000/svg" xmlns:xlink="http://www.w3.org/1999/xlink" x="0px" y="0px"
	 viewBox="0 0 512 452.1" style="enable-background:new 0 0 512 452.1;" xml:space="preserve">
<style type="text/css">
	.st0{fill:#595959;}
	.st1{fill:#CE852E;}
	.st2{fill:#BC782E;}
	.st3{fill:#FFFFFF;}
	.st4{font-family:'ArialMT';}
	.st5{font-size:50px;}
	.st6{letter-spacing:-1;}
	.st7{fill:#821717;}
</style>
<g>
	<path class="st0" d="M132.3,393.5c-6.7,0.1-13.3,0.1-20,0.2c-6.3,0.1-11.7,2.1-15.9,6c-1.8,1.6-2,2.9-0.1,4.6
		c4.1,3.8,9.2,5.8,15.4,6.1c1.4,0.1,2.9,0,4.3,0c99.2,0,198.5,0,297.7,0c11.2,0,19.2-3.4,23.2-12.5c1.6,15.6,2,22.9-14.7,29.1H106.6
		c-7.4-2.7-13.3-6.6-14.8-13.5c-0.6-3-0.4-6.2-0.4-9.3c0-119.2,0-238.4,0-357.6c0-8.9,5.8-14.3,15.2-17.7h25.8
		C132.3,150.4,132.3,272,132.3,393.5L132.3,393.5z"/>
	<path class="st1" d="M132.3,28.8h289c12.1,3.3,16.4,10.3,16.4,20.5c-0.2,108.2-0.2,216.4,0,324.6c0,10.8-8,19.6-24.1,19.5
		c-92-0.3-184-0.2-276-0.2c-1.7,0-3.5-0.1-5.2-0.2C132.3,271.7,132.3,150.3,132.3,28.8L132.3,28.8z"/>
	<path class="st2" d="M436.6,44.8c0,9.1-0.2,219.3,0,328.9c0,10.9-8,19.9-24.1,19.8c-92-0.3-184-0.2-276-0.2c-1.7,0-5.2-0.2-5.2-0.2
		S436.6,35.8,436.6,44.8L436.6,44.8z"/>
</g>
<text transform="matrix(1 0 0 1 232.42 198.72)" class="st3 st4 st5 st6">P</text>
<text transform="matrix(1 0 0 1 264.82 198.72)" class="st3 st4 st5">o</text>
<text transform="matrix(1 0 0 1 294.22 198.72)" class="st3 st4 st5">s</text>
<text transform="matrix(1 0 0 1 318.32 198.72)" class="st3 st4 st5">t</text>
<text transform="matrix(1 0 0 1 161.75 258.72)" class="st3 st4 st5">Immersion</text>
<polygon class="st7" points="368.3,28.8 368.3,97.1 391.2,77.5 414.2,97.3 414.2,28.8 "/>
</svg>
