<svg xmlns="http://www.w3.org/2000/svg" xmlns:xlink="http://www.w3.org/1999/xlink" viewBox="0 0 512 452.12"><defs><style>.cls-1{fill:none;}.cls-2{fill:#008cba;}.cls-3{clip-path:url(#clip-path);}.cls-4{fill:#f0f1f1;}.cls-5{fill:#fff;}.cls-6{fill:#3e3e3f;}.cls-7{fill:#5b5c5f;}.cls-8{clip-path:url(#clip-path-5);}.cls-9{fill:#e2e4e5;}.cls-10{fill:#ffa939;}</style><clipPath id="clip-path"><rect class="cls-1" x="62.32" y="49.68" width="387.52" height="387.52"/></clipPath><clipPath id="clip-path-5"><polygon class="cls-1" points="62.32 49.68 435.69 69.44 449.84 437.2 62.32 437.2 62.32 49.68"/></clipPath></defs><g id="Layer_5" data-name="Layer 5"><rect class="cls-2" x="63.48" y="65.13" width="385.04" height="346.68" rx="33.19"/></g><g id="Layer_7" data-name="Layer 7"><g class="cls-3"><path class="cls-4" d="M340.63,243.44a14.09,14.09,0,0,0-14.09-14.09H185.62a14.09,14.09,0,0,0-14.09,14.09V335h169.1Z"/></g><g class="cls-3"><path class="cls-5" d="M143.35,335v7.05a48.12,48.12,0,0,0,34,14.09H334.79a48.12,48.12,0,0,0,34-14.09V335Z"/></g><g class="cls-3"><rect class="cls-6" x="185.62" y="243.44" width="140.91" height="91.59"/></g><g class="cls-3"><polygon class="cls-7" points="185.62 334.75 276.93 243.44 185.62 243.44 185.62 334.75"/></g><g class="cls-8"><rect class="cls-9" x="238.46" y="335.03" width="35.23" height="7.05"/></g><path class="cls-10" d="M225.84,193.19a6.48,6.48,0,0,0,6.48,6.48h38.89l19.44,19.44V199.67h6.48a6.48,6.48,0,0,0,6.48-6.48V141.35a6.48,6.48,0,0,0-6.48-6.48H232.32a6.48,6.48,0,0,0-6.48,6.48Z"/><path class="cls-4" d="M277.69,180.23a6.48,6.48,0,0,1-6.48,6.48H232.32l-19.44,19.44V186.71H206.4a6.48,6.48,0,0,1-6.48-6.48V128.39a6.48,6.48,0,0,1,6.48-6.48h64.81a6.48,6.48,0,0,1,6.48,6.48Z"/><path class="cls-5" d="M276.61,124.82a6.47,6.47,0,0,0-5.4-2.91H206.4a6.48,6.48,0,0,0-6.48,6.48v51.84a6.48,6.48,0,0,0,6.48,6.48h6.48v1.84Z"/></g></svg>