<svg xmlns="http://www.w3.org/2000/svg" viewBox="0 0 512 452.12"><defs><style>.cls-1{fill:#e8edee;}.cls-2{fill:#ffa939;}.cls-3{fill:#b3babe;}.cls-4{fill:#ce852e;}.cls-5{fill:#ba752b;}.cls-6{font-size:46px;fill:#515151;}.cls-6,.cls-7{font-family:ArialRoundedMTBold, Arial Rounded MT Bold;}.cls-7{font-size:205.31px;fill:#595959;}</style></defs><g id="Layer_22" data-name="Layer 22"><path class="cls-1" d="M64.45,363.88a22.54,22.54,0,0,1-1-7.15q.1-91.1.1-182.2c2.78-1.86,6.07-1.27,9.18-1.28q80.94,0,161.89,0,102.48,0,205,0c3.11,0,6.4-.58,9.19,1.28l0,189.39c-5.19,20.22-21.1,31.12-45.5,31.12q-147.92,0-295.82,0c-19.27,0-33-7.85-41.47-22.51C64.4,369.83,63.45,367,64.45,363.88Z"/><path class="cls-2" d="M405.83,65.13c23.64,0,42.83,15.94,42.95,36,.12,18.21-.07,36.41-.12,54.62-2.59,1.91-5.75,1.2-8.67,1.2q-140.7.06-281.41,0-43.64,0-87.28,0c-2.61,0-5.41.55-7.67-1.21,0-18.91-.52-37.83,0-56.73S83.8,65.17,106.45,65.13a3.32,3.32,0,0,1,1.59,3c.08,10.82.71,21.65-.33,32.45-1.31,2.37-2.27,1.5-3-.28s.09-3.65-.73-5.43c-6.32,4.72-9.94,17.23-4.07,27S115.26,137,128.5,136.7c12.8-.26,22-5.58,27.19-15.33,5.27-10,3.32-19.45-5-27.84-1.19-1.19-2.56-2.26-3-3.87-.84-7-.38-14.09-.31-21.13a3.67,3.67,0,0,1,1.61-3.4H363.36a3.33,3.33,0,0,1,1.58,3c.09,10.82.72,21.65-.32,32.45-1.31,2.36-2.27,1.5-3-.28s.09-3.65-.73-5.43c-6.32,4.71-9.94,17.23-4.07,27S372.16,137,385.4,136.7c12.81-.26,22-5.58,27.2-15.33,5.27-10,3.32-19.45-5.05-27.84-1.19-1.19-2.56-2.26-3-3.87-.84-7-.38-14.09-.31-21.13A3.67,3.67,0,0,1,405.83,65.13Z"/><path class="cls-3" d="M64.45,363.88c1.42,12.59,16.78,26.43,32.08,29a71.88,71.88,0,0,0,11.91.89c98.06,0,196.13-.22,294.19.14,21.78.08,40.25-11.44,45-28.17a8.14,8.14,0,0,1,1.09-1.81c-.18,6.11.64,12.21-.75,18.32-3.93,17.3-20.7,29.52-41.31,29.53q-150.48.06-301,0c-23.58,0-42.2-16-42.15-36.22C63.56,371.68,62.27,367.66,64.45,363.88Z"/><path class="cls-4" d="M448.77,174.53c-1.17,0-2.34.1-3.51.1H67c-1.17,0-2.34-.07-3.5-.1q0-8.91.1-17.83c1.71-.87,3.6-.44,5.4-.44q187.11,0,374.24,0c1.8,0,3.68-.43,5.4.44Q448.72,165.61,448.77,174.53Z"/><path class="cls-3" d="M148.93,65.13q.12,12.86.26,25.7c2,9.53,2.53,18.81-7.38,25.79-6.58,4.64-14.14,5.57-22.06,3.06-7.56-2.4-12.14-7.26-14.07-13.91a4,4,0,0,1,.55-4.08q.1-18.28.22-36.56c0-6.27,0-12.54.09-18.81.16-9.93,9.65-17.94,21.15-17.95s21,8,21.15,17.94C148.94,52.58,148.9,58.86,148.93,65.13Z"/><path class="cls-3" d="M405.83,65.13l.26,25.7c1.58,7.68,2.53,15.31-3.45,22.09a22.88,22.88,0,0,1-20.93,7.78c-9.36-1.19-15.65-6-18.73-13.68-.7-1.75-1.22-3.59.15-5.34q.12-18.27.23-36.55c0-6.41,0-12.82.09-19.22.15-9.89,9.79-17.75,21.39-17.54s20.75,7.79,20.9,17.54C405.84,52.31,405.81,58.72,405.83,65.13Z"/><path class="cls-5" d="M448.67,156.7h-385v-.92h385Z"/><path class="cls-4" d="M363.13,101.68C365.51,117.35,383.2,125,397,116.14c5.63-3.6,8.83-8.44,8.85-14.63,0-3.56.16-7.12.25-10.68,13.23,8.87,14.63,28.52.71,39.7-13.28,10.67-34.51,9.84-46.85-2.19-10.64-10.36-9.68-28.59,2.17-36.22C363.31,95.32,361.68,98.66,363.13,101.68Z"/><path class="cls-4" d="M106.23,101.69c1.91,13.39,14,20.87,28,17.27,8.23-2.14,14.34-8.8,14.69-16.18.2-4,.22-8,.32-12,13.23,8.87,14.63,28.52.7,39.7-13.28,10.67-34.51,9.84-46.85-2.19C92.41,118,93.37,99.73,105.22,92.12,106.41,95.32,104.77,98.66,106.23,101.69Z"/><text class="cls-6" transform="translate(184.85 128.23)">WEEK</text><text class="cls-7" transform="translate(191.92 355.37)">5</text></g></svg>