<svg xmlns="http://www.w3.org/2000/svg" viewBox="0 0 512 452.12"><defs><style>.a{fill:#e8edee;}.b{fill:#ffa939;}.c{fill:#b3babe;}.d{fill:#ce852e;}.e{fill:#ba752b;}.f{fill:#515151;}.g{fill:#595959;}</style></defs><path class="a" d="M64.45,363.87a22.44,22.44,0,0,1-1-7.14q.09-91.11.09-182.2c2.79-1.86,6.08-1.28,9.19-1.28q80.94-.06,161.88,0,102.5,0,205,0c3.11,0,6.4-.58,9.19,1.28l0,189.39c-5.19,20.21-21.11,31.12-45.5,31.12q-147.92,0-295.83,0c-19.26,0-33-7.85-41.46-22.5C64.4,369.83,63.44,366.94,64.45,363.87Z"/><path class="b" d="M405.83,65.12c23.64,0,42.83,15.95,42.95,36,.12,18.2-.07,36.41-.12,54.61-2.59,1.92-5.75,1.21-8.67,1.21q-140.7.06-281.41,0-43.64,0-87.28,0c-2.61,0-5.41.56-7.67-1.21,0-18.91-.52-37.83,0-56.72s20.13-33.89,42.79-33.93a3.35,3.35,0,0,1,1.59,3c.08,10.82.71,21.65-.33,32.45-1.31,2.36-2.27,1.49-3-.29s.09-3.64-.73-5.42c-6.32,4.71-9.94,17.22-4.07,27s15.39,15.1,28.63,14.82c12.8-.26,22-5.57,27.19-15.32,5.27-10,3.32-19.45-5.05-27.85-1.18-1.19-2.55-2.26-3-3.87-.84-7-.37-14.09-.3-21.13a3.69,3.69,0,0,1,1.61-3.4H363.36a3.36,3.36,0,0,1,1.58,3c.08,10.82.72,21.65-.32,32.45-1.31,2.36-2.27,1.49-3-.29s.08-3.64-.73-5.42c-6.32,4.71-9.94,17.22-4.07,27s15.38,15.1,28.62,14.82c12.81-.26,22-5.57,27.2-15.32,5.27-10,3.32-19.45-5.05-27.85-1.19-1.19-2.56-2.26-3-3.87-.84-7-.38-14.08-.31-21.13A3.69,3.69,0,0,1,405.83,65.12Z"/><path class="c" d="M64.45,363.87c1.42,12.6,16.78,26.43,32.08,29a71.88,71.88,0,0,0,11.91.89c98.06,0,196.13-.22,294.19.14,21.77.08,40.25-11.44,45-28.16a8.44,8.44,0,0,1,1.09-1.82c-.18,6.11.63,12.21-.75,18.32-3.94,17.3-20.7,29.52-41.31,29.53q-150.49.08-301,0c-23.59,0-42.21-16-42.15-36.21C63.56,371.67,62.26,367.65,64.45,363.87Z"/><path class="d" d="M448.77,174.53c-1.17,0-2.34.09-3.51.09H67c-1.17,0-2.34-.06-3.51-.09q.06-8.92.11-17.84c1.71-.87,3.6-.43,5.39-.43q187.13,0,374.25,0c1.79,0,3.68-.44,5.39.43Q448.72,165.61,448.77,174.53Z"/><path class="c" d="M148.93,65.12q.12,12.85.26,25.71c2,9.52,2.53,18.8-7.38,25.79-6.58,4.63-14.14,5.57-22.06,3-7.56-2.4-12.14-7.25-14.07-13.9a4.06,4.06,0,0,1,.55-4.09q.1-18.29.22-36.56c0-6.27,0-12.54.09-18.81.16-9.92,9.64-17.93,21.15-18s21,8,21.15,18C148.94,52.58,148.9,58.85,148.93,65.12Z"/><path class="c" d="M405.83,65.12l.26,25.71c1.58,7.67,2.53,15.31-3.46,22.08a22.86,22.86,0,0,1-20.92,7.79c-9.36-1.19-15.65-6-18.73-13.69-.7-1.74-1.22-3.58.15-5.33q.11-18.29.23-36.56c0-6.4,0-12.81.09-19.22.15-9.88,9.78-17.74,21.39-17.54s20.74,7.79,20.9,17.54C405.84,52.31,405.81,58.72,405.83,65.12Z"/><path class="e" d="M448.66,156.69h-385v-.92h385Z"/><path class="d" d="M363.13,101.68C365.51,117.35,383.2,125,397,116.14c5.63-3.6,8.83-8.45,8.85-14.63,0-3.56.16-7.12.25-10.68,13.23,8.86,14.63,28.51.71,39.7-13.29,10.66-34.52,9.83-46.85-2.19-10.64-10.37-9.68-28.6,2.17-36.23C363.31,95.32,361.68,98.65,363.13,101.68Z"/><path class="d" d="M106.23,101.68c1.91,13.39,14,20.88,28,17.27,8.23-2.13,14.33-8.8,14.69-16.17.19-4,.22-8,.31-12,13.24,8.86,14.64,28.51.71,39.7-13.28,10.66-34.51,9.83-46.85-2.19C92.41,118,93.37,99.72,105.21,92.12,106.41,95.32,104.77,98.65,106.23,101.68Z"/><path class="f" d="M200.07,127.91a3.79,3.79,0,0,1-2.37-.69,4.53,4.53,0,0,1-1.4-2.17L187,98.93a3.07,3.07,0,0,1,.21-3,3.31,3.31,0,0,1,2.92-1.22,3.55,3.55,0,0,1,2.34.69,4.44,4.44,0,0,1,1.29,2.16l7.54,22.59h-2l8-22.59a4.71,4.71,0,0,1,1.33-2.16,3.25,3.25,0,0,1,2.16-.69,3,3,0,0,1,2.07.69,5.06,5.06,0,0,1,1.29,2.21l7.68,22.54h-1.7l7.68-22.59a4.72,4.72,0,0,1,1.34-2.16,3.4,3.4,0,0,1,2.25-.69A2.94,2.94,0,0,1,234.11,96a3.1,3.1,0,0,1,.19,3L225,125.05a5.24,5.24,0,0,1-1.45,2.17,3.58,3.58,0,0,1-2.32.69,3.79,3.79,0,0,1-2.37-.69,4.39,4.39,0,0,1-1.4-2.17l-7.27-20.56h1.1l-7.41,20.56a4.84,4.84,0,0,1-1.4,2.17A3.68,3.68,0,0,1,200.07,127.91Z"/><path class="f" d="M243.36,127.54a3.7,3.7,0,0,1-2.76-1,3.77,3.77,0,0,1-1-2.8V98.88a3.79,3.79,0,0,1,1-2.81,3.74,3.74,0,0,1,2.76-1h16.05a2.84,2.84,0,0,1,2.09.71,2.77,2.77,0,0,1,.72,2.05,2.51,2.51,0,0,1-2.81,2.8H246.49v7.59H258.4a2.82,2.82,0,0,1,2.12.72,2.88,2.88,0,0,1,.69,2.09,2.47,2.47,0,0,1-2.81,2.76H246.49V122h12.92a2.52,2.52,0,0,1,2.81,2.81,2.77,2.77,0,0,1-.72,2,2.84,2.84,0,0,1-2.09.71Z"/><path class="f" d="M271.19,127.54a3.7,3.7,0,0,1-2.76-1,3.77,3.77,0,0,1-1-2.8V98.88a3.79,3.79,0,0,1,1-2.81,3.74,3.74,0,0,1,2.76-1h16.05a2.84,2.84,0,0,1,2.09.71,2.77,2.77,0,0,1,.72,2.05,2.51,2.51,0,0,1-2.81,2.8H274.32v7.59h11.91a2.82,2.82,0,0,1,2.12.72,2.88,2.88,0,0,1,.69,2.09,2.47,2.47,0,0,1-2.81,2.76H274.32V122h12.92a2.52,2.52,0,0,1,2.81,2.81,2.77,2.77,0,0,1-.72,2,2.84,2.84,0,0,1-2.09.71Z"/><path class="f" d="M298.83,127.91a3.51,3.51,0,0,1-2.62-1,3.69,3.69,0,0,1-.92-2.69V98.33a3.62,3.62,0,0,1,.92-2.67,3.57,3.57,0,0,1,2.62-.92,3.62,3.62,0,0,1,2.67.92,3.58,3.58,0,0,1,.92,2.67v10.9h.09l12.24-12.79a5.84,5.84,0,0,1,1.66-1.26,4.25,4.25,0,0,1,1.93-.44,2.91,2.91,0,0,1,2.32.83,2.5,2.5,0,0,1,.62,1.93,3.19,3.19,0,0,1-1,2L308,112.08l0-3,12.84,13.71a3.43,3.43,0,0,1,1.13,2.32,2.59,2.59,0,0,1-.79,2,3.22,3.22,0,0,1-2.37.79,3.57,3.57,0,0,1-2.11-.56,13.68,13.68,0,0,1-1.8-1.56l-12.42-13.06h-.09v11.54a3.76,3.76,0,0,1-.89,2.69A3.56,3.56,0,0,1,298.83,127.91Z"/><path class="g" d="M276.71,353.92q-6.15,0-9.65-3.38t-3.49-9.76v-16H212.86q-6.36,0-10.16-2.67t-3.8-8.42a17.66,17.66,0,0,1,1.75-7.18,65.57,65.57,0,0,1,6.26-10.27l56.25-81.51a22.65,22.65,0,0,1,6.37-6.57,14.42,14.42,0,0,1,8-2.25,12.61,12.61,0,0,1,8.82,3.18q3.5,3.18,3.49,10v84h10.06q6,0,8.93,2.77t3,8.11q0,5.34-3,8.11t-8.93,2.77H289.85v16q0,6.38-3.49,9.76T276.71,353.92ZM263.57,303V239h6l-48.45,71v-7Z"/></svg>