<svg xmlns="http://www.w3.org/2000/svg" viewBox="0 0 512 452.12"><defs><style>.a{fill:#e8edee;}.b{fill:#ffa939;}.c{fill:#b3babe;}.d{fill:#ce852e;}.e{fill:#ba752b;}.f{fill:#515151;}.g{fill:#595959;}</style></defs><path class="a" d="M64.45,363.88a22.54,22.54,0,0,1-1-7.15q.1-91.1.1-182.2c2.78-1.86,6.07-1.27,9.18-1.28q80.94,0,161.89,0,102.48,0,205,0c3.11,0,6.4-.58,9.19,1.28l0,189.39c-5.19,20.22-21.1,31.12-45.5,31.12q-147.92,0-295.82,0c-19.27,0-33-7.85-41.47-22.51C64.4,369.83,63.45,367,64.45,363.88Z"/><path class="b" d="M405.83,65.13c23.64,0,42.83,15.94,42.95,36,.12,18.21-.07,36.41-.12,54.62-2.59,1.91-5.75,1.2-8.67,1.2q-140.7.06-281.41,0-43.64,0-87.28,0c-2.61,0-5.41.55-7.67-1.21,0-18.91-.52-37.83,0-56.73S83.8,65.17,106.45,65.13a3.32,3.32,0,0,1,1.59,3c.08,10.82.71,21.65-.33,32.45-1.31,2.37-2.27,1.5-3-.28s.09-3.65-.73-5.43c-6.32,4.72-9.94,17.23-4.07,27S115.26,137,128.5,136.7c12.8-.26,22-5.58,27.19-15.33,5.27-10,3.32-19.45-5-27.84-1.19-1.19-2.56-2.26-3-3.87-.84-7-.38-14.09-.31-21.13a3.67,3.67,0,0,1,1.61-3.4H363.36a3.33,3.33,0,0,1,1.58,3c.09,10.82.72,21.65-.32,32.45-1.31,2.36-2.27,1.5-3-.28s.09-3.65-.73-5.43c-6.32,4.71-9.94,17.23-4.07,27S372.16,137,385.4,136.7c12.81-.26,22-5.58,27.2-15.33,5.27-10,3.32-19.45-5.05-27.84-1.19-1.19-2.56-2.26-3-3.87-.84-7-.38-14.09-.31-21.13A3.67,3.67,0,0,1,405.83,65.13Z"/><path class="c" d="M64.45,363.88c1.42,12.59,16.78,26.43,32.08,29a71.88,71.88,0,0,0,11.91.89c98.06,0,196.13-.22,294.19.14,21.78.08,40.25-11.44,45-28.17a8.14,8.14,0,0,1,1.09-1.81c-.18,6.11.64,12.21-.75,18.32-3.93,17.3-20.7,29.52-41.31,29.53q-150.48.06-301,0c-23.58,0-42.2-16-42.15-36.22C63.56,371.68,62.27,367.66,64.45,363.88Z"/><path class="d" d="M448.77,174.53c-1.17,0-2.34.1-3.51.1H67c-1.17,0-2.34-.07-3.5-.1q0-8.91.1-17.83c1.71-.87,3.6-.44,5.4-.44q187.11,0,374.24,0c1.8,0,3.68-.43,5.4.44Q448.72,165.61,448.77,174.53Z"/><path class="c" d="M148.93,65.13q.12,12.86.26,25.7c2,9.53,2.53,18.81-7.38,25.79-6.58,4.64-14.14,5.57-22.06,3.06-7.56-2.4-12.14-7.26-14.07-13.91a4,4,0,0,1,.55-4.08q.1-18.28.22-36.56c0-6.27,0-12.54.09-18.81.16-9.93,9.65-17.94,21.15-17.95s21,8,21.15,17.94C148.94,52.58,148.9,58.86,148.93,65.13Z"/><path class="c" d="M405.83,65.13l.26,25.7c1.58,7.68,2.53,15.31-3.45,22.09a22.88,22.88,0,0,1-20.93,7.78c-9.36-1.19-15.65-6-18.73-13.68-.7-1.75-1.22-3.59.15-5.34q.12-18.27.23-36.55c0-6.41,0-12.82.09-19.22.15-9.89,9.79-17.75,21.39-17.54s20.75,7.79,20.9,17.54C405.84,52.31,405.81,58.72,405.83,65.13Z"/><path class="e" d="M448.67,156.7h-385v-.92h385Z"/><path class="d" d="M363.13,101.68C365.51,117.35,383.2,125,397,116.14c5.63-3.6,8.83-8.44,8.85-14.63,0-3.56.16-7.12.25-10.68,13.23,8.87,14.63,28.52.71,39.7-13.28,10.67-34.51,9.84-46.85-2.19-10.64-10.36-9.68-28.59,2.17-36.22C363.31,95.32,361.68,98.66,363.13,101.68Z"/><path class="d" d="M106.23,101.69c1.91,13.39,14,20.87,28,17.27,8.23-2.14,14.34-8.8,14.69-16.18.2-4,.22-8,.32-12,13.23,8.87,14.63,28.52.7,39.7-13.28,10.67-34.51,9.84-46.85-2.19C92.41,118,93.37,99.73,105.22,92.12,106.41,95.32,104.77,98.66,106.23,101.69Z"/><path class="f" d="M200.07,127.91a3.79,3.79,0,0,1-2.37-.69,4.54,4.54,0,0,1-1.4-2.16L187,98.93a3.07,3.07,0,0,1,.21-3,3.3,3.3,0,0,1,2.92-1.21,3.55,3.55,0,0,1,2.34.69,4.44,4.44,0,0,1,1.29,2.16l7.55,22.58h-2l8-22.58a4.71,4.71,0,0,1,1.33-2.16,3.25,3.25,0,0,1,2.16-.69,3,3,0,0,1,2.07.69,5,5,0,0,1,1.29,2.2l7.68,22.54h-1.7L227.9,97.6a4.72,4.72,0,0,1,1.34-2.16,3.4,3.4,0,0,1,2.25-.69A2.93,2.93,0,0,1,234.11,96a3.1,3.1,0,0,1,.19,3L225,125.06a5.27,5.27,0,0,1-1.45,2.16,3.58,3.58,0,0,1-2.32.69,3.79,3.79,0,0,1-2.37-.69,4.4,4.4,0,0,1-1.4-2.16l-7.27-20.56h1.1l-7.41,20.56a4.86,4.86,0,0,1-1.4,2.16A3.66,3.66,0,0,1,200.07,127.91Z"/><path class="f" d="M243.36,127.54a3.74,3.74,0,0,1-2.76-1,3.79,3.79,0,0,1-1-2.81V98.89a3.39,3.39,0,0,1,3.73-3.78h16.05a2.8,2.8,0,0,1,2.09.72,2.73,2.73,0,0,1,.72,2,2.51,2.51,0,0,1-2.81,2.81H246.49v7.59H258.4a2.86,2.86,0,0,1,2.12.71,2.92,2.92,0,0,1,.69,2.1,2.48,2.48,0,0,1-2.81,2.76H246.49V122h12.92a2.51,2.51,0,0,1,2.81,2.8,2.75,2.75,0,0,1-.72,2,2.8,2.8,0,0,1-2.09.71Z"/><path class="f" d="M271.19,127.54a3.74,3.74,0,0,1-2.76-1,3.79,3.79,0,0,1-1-2.81V98.89a3.39,3.39,0,0,1,3.73-3.78h16.05a2.85,2.85,0,0,1,2.1.72,2.76,2.76,0,0,1,.71,2,2.5,2.5,0,0,1-2.81,2.81H274.32v7.59h11.91a2.86,2.86,0,0,1,2.12.71,2.92,2.92,0,0,1,.69,2.1,2.48,2.48,0,0,1-2.81,2.76H274.32V122h12.92a2.5,2.5,0,0,1,2.81,2.8,2.79,2.79,0,0,1-.71,2,2.84,2.84,0,0,1-2.1.71Z"/><path class="f" d="M298.84,127.91a3.51,3.51,0,0,1-2.63-.94,3.72,3.72,0,0,1-.92-2.69V98.33a3.61,3.61,0,0,1,.92-2.66,3.57,3.57,0,0,1,6.21,2.66v10.91h.09l12.24-12.79a5.89,5.89,0,0,1,1.66-1.27,4.24,4.24,0,0,1,1.93-.43,2.91,2.91,0,0,1,2.32.82,2.54,2.54,0,0,1,.62,1.94,3.21,3.21,0,0,1-1,2L308,112.09l0-3,12.84,13.71a3.41,3.41,0,0,1,1.13,2.32,2.61,2.61,0,0,1-.79,2,3.25,3.25,0,0,1-2.37.78,3.57,3.57,0,0,1-2.11-.55,15.38,15.38,0,0,1-1.8-1.56l-12.42-13.07h-.09v11.55a3.79,3.79,0,0,1-.89,2.69A3.55,3.55,0,0,1,298.84,127.91Z"/><path class="g" d="M254.75,354.34a90,90,0,0,1-22.18-2.87,71.78,71.78,0,0,1-20.73-8.83,12.44,12.44,0,0,1-5.24-5.85A11.58,11.58,0,0,1,206,330a11.3,11.3,0,0,1,3.08-5.75,9.59,9.59,0,0,1,5.75-2.77,12.54,12.54,0,0,1,7.5,1.85,71.56,71.56,0,0,0,15.4,6.57,59.35,59.35,0,0,0,16.63,2.26,32.81,32.81,0,0,0,14.78-3.08,22.28,22.28,0,0,0,9.44-8.63,24.86,24.86,0,0,0,3.29-12.93q0-11.49-7-18.58t-19.1-7.08A38.2,38.2,0,0,0,243,284a36.4,36.4,0,0,0-12.11,7.5,25.08,25.08,0,0,1-4.72,3.18,12.94,12.94,0,0,1-6.16,1.54c-3.42,0-6-.89-7.8-2.67a10,10,0,0,1-2.67-7.39V219c0-3.7,1-6.53,3-8.52s4.83-3,8.53-3h67.54q5.55,0,8.52,2.78c2,1.84,3,4.55,3,8.1s-1,6.1-3,8-4.82,2.88-8.52,2.88H235.24v46h-6.77a34.69,34.69,0,0,1,14.16-11.09,47.25,47.25,0,0,1,19.3-3.9q13.76,0,23.92,5.85a41,41,0,0,1,15.81,16.22q5.64,10.37,5.65,24.12,0,14.17-6.37,24.95a43.68,43.68,0,0,1-18.17,16.83Q271,354.34,254.75,354.34Z"/></svg>