<svg xmlns="http://www.w3.org/2000/svg" viewBox="0 0 512 452.12"><defs><style>.cls-1{fill:#008cba;}.cls-2{fill:#e8edee;}.cls-3{fill:#ffa939;}.cls-4{fill:#b3babe;}.cls-5{fill:#ce852e;}.cls-6{fill:#ba752b;}</style></defs><g id="Layer_4" data-name="Layer 4"><rect class="cls-1" x="63.48" y="65.58" width="385.04" height="346.68" rx="33.19"/></g><g id="Layer_8" data-name="Layer 8"><path class="cls-2" d="M152.77,327.92a16.41,16.41,0,0,1-.53-4.42q0-56.38,0-112.77c1.46-1.15,3.2-.79,4.84-.79q42.74,0,85.46,0,54.11,0,108.2,0c1.64,0,3.38-.36,4.85.79q0,58.61,0,117.22c-2.74,12.51-11.14,19.26-24,19.26q-78.08,0-156.16,0c-10.17,0-17.42-4.86-21.89-13.93A7.39,7.39,0,0,1,152.77,327.92Z"/><path class="cls-3" d="M333,143a22.47,22.47,0,0,1,22.67,22.31c.06,11.27,0,22.53-.07,33.8-1.36,1.19-3,.75-4.57.75q-74.28,0-148.55,0-23,0-46.07,0c-1.38,0-2.86.34-4-.75,0-11.7-.27-23.41,0-35.11s10.62-21,22.58-21a2.16,2.16,0,0,1,.84,1.86c.05,6.7.38,13.4-.17,20.09-.69,1.46-1.2.92-1.6-.18s0-2.26-.39-3.36c-3.34,2.92-5.25,10.66-2.15,16.71s8.12,9.34,15.11,9.17c6.76-.16,11.64-3.45,14.36-9.48s1.75-12-2.67-17.24a6.05,6.05,0,0,1-1.59-2.39,116.5,116.5,0,0,1-.16-13.08,2.43,2.43,0,0,1,.85-2.11H310.56a2.18,2.18,0,0,1,.83,1.86c.05,6.7.38,13.4-.17,20.09-.69,1.46-1.2.92-1.6-.18s0-2.26-.39-3.36c-3.33,2.92-5.25,10.66-2.15,16.71s8.12,9.34,15.11,9.17c6.76-.16,11.64-3.45,14.36-9.48s1.75-12-2.67-17.24a6.05,6.05,0,0,1-1.59-2.39,118.93,118.93,0,0,1-.16-13.08A2.43,2.43,0,0,1,333,143Z"/><path class="cls-4" d="M152.77,327.92c.75,7.79,8.86,16.36,16.93,17.94a32.47,32.47,0,0,0,6.29.55c51.77,0,103.53-.13,155.3.09,11.49.05,21.24-7.08,23.76-17.43a5.19,5.19,0,0,1,.58-1.12c-.1,3.77.33,7.55-.4,11.33a22.08,22.08,0,0,1-21.8,18.28q-79.44,0-158.88,0a22.15,22.15,0,0,1-22.25-22.41C152.3,332.75,151.62,330.26,152.77,327.92Z"/><path class="cls-5" d="M355.64,210.73c-.62,0-1.23.06-1.85.06H154.14c-.62,0-1.24,0-1.85-.06q0-5.52.05-11c.9-.54,1.9-.27,2.85-.27H352.74c.95,0,1.94-.27,2.85.27C355.61,203.37,355.62,207.05,355.64,210.73Z"/><path class="cls-4" d="M197.37,143q.06,8,.13,15.91c1.05,5.9,1.34,11.64-3.89,16A11.21,11.21,0,0,1,182,176.78a11.6,11.6,0,0,1-7.42-8.61,2.88,2.88,0,0,1,.29-2.53L175,143c0-3.89,0-7.77,0-11.65a11.17,11.17,0,0,1,22.33,0C197.37,135.25,197.35,139.13,197.37,143Z"/><path class="cls-4" d="M333,143l.13,15.91c.84,4.75,1.34,9.48-1.82,13.67-2.76,3.66-6.5,5.5-11.05,4.82-4.94-.73-8.26-3.71-9.88-8.47a3.54,3.54,0,0,1,.07-3.3q.07-11.31.13-22.62c0-4,0-7.94,0-11.9a11.17,11.17,0,0,1,22.33,0C333,135.08,333,139.05,333,143Z"/><path class="cls-6" d="M355.59,199.69H152.34v-.57H355.58Z"/><path class="cls-4" d="M197.31,245c0,2.9-.06,5.81,0,8.72,0,1.53-.38,2.22-2.07,2.2q-9.11-.12-18.23,0c-1.69,0-2.08-.68-2.06-2.2.06-6,.08-12,0-18,0-1.81.69-2.21,2.33-2.19,5.91.07,11.81.1,17.71,0,1.94,0,2.4.71,2.33,2.47C197.23,239,197.31,242,197.31,245Z"/><path class="cls-4" d="M231.21,244.81c0,2.91-.07,5.82,0,8.72.06,1.64-.36,2.38-2.18,2.35q-9-.13-18,0c-1.79,0-2.23-.66-2.21-2.32q.12-8.87,0-17.71c0-1.64.36-2.38,2.18-2.35q9,.15,18,0c1.79,0,2.26.66,2.2,2.33C231.14,238.82,231.21,241.82,231.21,244.81Z"/><path class="cls-4" d="M265.12,244.69c0,3-.06,6,0,9,0,1.53-.37,2.22-2.06,2.2q-9.12-.12-18.24,0c-1.68,0-2.07-.67-2.06-2.2.06-6,.09-12,0-18,0-1.81.69-2.22,2.34-2.2,5.9.07,11.8.1,17.71,0,1.93,0,2.4.71,2.33,2.47C265,238.87,265.12,241.78,265.12,244.69Z"/><path class="cls-4" d="M299,244.84c0,2.91-.07,5.82,0,8.72.06,1.67-.42,2.35-2.21,2.32q-9-.13-18,0c-1.83,0-2.2-.72-2.18-2.35.07-5.9.08-11.81,0-17.71,0-1.66.42-2.35,2.21-2.32q9,.13,18,0c1.83,0,2.23.72,2.18,2.35C299,238.85,299,241.84,299,244.84Z"/><path class="cls-4" d="M321.9,233.54c2.91,0,5.82.07,8.72,0,1.66-.06,2.37.39,2.34,2.2q-.15,9,0,18c0,1.82-.7,2.22-2.34,2.2q-8.85-.12-17.71,0c-1.65,0-2.36-.4-2.33-2.21q.14-9,0-18c0-1.81.69-2.25,2.34-2.19C315.91,233.61,318.91,233.54,321.9,233.54Z"/><path class="cls-4" d="M186.29,267.44c2.91,0,5.82.07,8.72,0,1.66-.06,2.36.4,2.34,2.2q-.15,9,0,18c0,1.82-.7,2.22-2.34,2.2q-8.85-.12-17.71,0c-1.66,0-2.36-.4-2.33-2.2q.14-9,0-18c0-1.81.69-2.24,2.34-2.19C180.3,267.51,183.3,267.44,186.29,267.44Z"/><path class="cls-4" d="M231.21,278.86c0,2.91-.05,5.82,0,8.72,0,1.53-.38,2.22-2.06,2.2q-9.12-.12-18.24,0c-1.69,0-2.08-.67-2.06-2.2.06-6,.08-12,0-18,0-1.82.69-2.22,2.34-2.2,5.9.07,11.8.1,17.7,0,1.94,0,2.4.71,2.33,2.47C231.13,272.87,231.21,275.86,231.21,278.86Z"/><path class="cls-4" d="M253.81,289.75c-2.91,0-5.82-.08-8.72,0-1.68.06-2.34-.44-2.32-2.22.09-6,.07-12,0-18,0-1.56.42-2.2,2.08-2.18q9.12.12,18.24,0c1.71,0,2,.71,2,2.22-.06,6-.08,12,0,18,0,1.84-.73,2.23-2.36,2.18C259.8,289.68,256.8,289.75,253.81,289.75Z"/><path class="cls-4" d="M299,278.59c0,3-.06,6,0,9,0,1.52-.36,2.22-2.05,2.2q-9.12-.12-18.24,0c-1.68,0-2.08-.66-2.06-2.2.06-6,.08-12,0-18,0-1.8.68-2.22,2.34-2.2,5.9.07,11.8.1,17.71,0,1.93,0,2.4.7,2.33,2.47C298.94,272.77,299,275.68,299,278.59Z"/><path class="cls-4" d="M321.7,289.75c-3.09,0-6.17-.05-9.25,0-1.37,0-1.86-.5-1.85-1.86q.06-9.39,0-18.77c0-1.24.49-1.72,1.72-1.71,6.35,0,12.69,0,19,0,1.12,0,1.58.47,1.58,1.58,0,6.34,0,12.68,0,19,0,1.49-.76,1.73-2,1.71C327.87,289.72,324.78,289.75,321.7,289.75Z"/><path class="cls-4" d="M186.29,301.34c2.91,0,5.82.07,8.72,0,1.65-.05,2.36.39,2.34,2.2q-.15,9,0,18c0,1.81-.69,2.22-2.34,2.2q-8.85-.1-17.71,0c-1.64,0-2.36-.38-2.33-2.2q.14-9,0-18c0-1.81.68-2.25,2.33-2.2C180.29,301.41,183.29,301.34,186.29,301.34Z"/><path class="cls-4" d="M220.19,301.34c2.91,0,5.82.07,8.73,0,1.65-.05,2.36.4,2.33,2.2q-.13,9,0,18c0,1.81-.69,2.21-2.34,2.19q-8.85-.1-17.71,0c-1.65,0-2.36-.39-2.33-2.2q.13-9,0-18c0-1.82.69-2.25,2.34-2.2C214.2,301.41,217.2,301.34,220.19,301.34Z"/><path class="cls-4" d="M265.12,312.77c0,2.9-.06,5.81,0,8.72.05,1.53-.38,2.21-2.06,2.19q-9.12-.12-18.24,0c-1.69,0-2.07-.68-2.06-2.2.06-6,.09-12,0-18,0-1.82.7-2.22,2.34-2.2,5.9.08,11.81.1,17.71,0,1.94,0,2.39.73,2.33,2.48C265,306.77,265.12,309.77,265.12,312.77Z"/><path class="cls-4" d="M287.7,323.65c-3,0-6,0-9,0-1.46,0-2-.44-2-2q.07-9.25,0-18.5c0-1.33.43-1.9,1.83-1.89q9.38.07,18.77,0c1.46,0,1.75.69,1.74,1.95,0,6.17,0,12.34,0,18.51,0,1.59-.72,1.91-2.09,1.88C293.86,323.61,290.78,323.65,287.7,323.65Z"/><path class="cls-4" d="M332.92,312.51c0,3-.06,6,0,9,0,1.55-.41,2.2-2.08,2.18q-9.12-.12-18.24,0c-1.7,0-2.06-.7-2-2.21.06-6,.08-12,0-18,0-1.83.72-2.21,2.35-2.19,5.9.08,11.81.1,17.71,0,1.95,0,2.38.75,2.31,2.49C332.85,306.69,332.92,309.6,332.92,312.51Z"/><path class="cls-5" d="M310.43,165.64c1.26,9.7,10.6,14.4,17.88,9a10.92,10.92,0,0,0,4.67-9.06c0-2.2.09-4.4.13-6.6,7,5.48,7.73,17.64.38,24.57a17.19,17.19,0,0,1-24.73-1.36c-5.62-6.42-5.11-17.7,1.14-22.42C310.53,161.7,309.67,163.77,310.43,165.64Z"/><path class="cls-5" d="M174.83,165.64c1,8.29,7.4,12.92,14.75,10.69a11.13,11.13,0,0,0,7.76-10c.1-2.46.11-4.93.16-7.39,7,5.48,7.73,17.64.37,24.57a17.19,17.19,0,0,1-24.73-1.36c-5.61-6.42-5.1-17.71,1.15-22.42C174.92,161.7,174.06,163.77,174.83,165.64Z"/></g></svg>