<svg xmlns="http://www.w3.org/2000/svg" xmlns:xlink="http://www.w3.org/1999/xlink" viewBox="0 0 512 452.12"><defs><style>.cls-1{fill:none;}.cls-2{clip-path:url(#clip-path);}.cls-3{fill:#ffa939;}.cls-4{fill:#008cba;}.cls-5{fill:#fdfdfd;}</style><clipPath id="clip-path"><rect class="cls-1" y="-11.51" width="512" height="512"/></clipPath></defs><g id="Layer_2" data-name="Layer 2"><g class="cls-2"><circle class="cls-3" cx="218.76" cy="188.63" r="18.62"/></g><rect class="cls-4" x="63.48" y="65.58" width="385.04" height="346.68" rx="33.19"/><g id="bNNYpZ.tif"><path class="cls-3" d="M256,116.47A122.46,122.46,0,1,1,133.54,238.8,122.3,122.3,0,0,1,256,116.47Z"/><path class="cls-5" d="M240.52,281.48H200c-13.65,0-23.89-10.22-23.9-23.82q0-28,0-56c0-3.9,1.38-5.27,5.34-5.27q41.28,0,82.56,0c13.66,0,23.88,10.22,23.88,23.83q0,28,0,56c0,3.94-1.34,5.27-5.32,5.27Z"/><path class="cls-5" d="M333.18,239q0,19,0,37.94c0,1.54.35,3.39-1.3,4.26s-3.11-.4-4.42-1.35q-16.44-12-32.88-24a2.8,2.8,0,0,1-1.29-2.6q.06-14.35,0-28.7a2.93,2.93,0,0,1,1.47-2.7q16.69-12.12,33.35-24.31c1.13-.83,2.34-1.73,3.75-1s1.33,2.17,1.33,3.49Q333.19,219.56,333.18,239Z"/></g></g></svg>