<svg xmlns="http://www.w3.org/2000/svg" viewBox="0 0 512 452.12"><defs><style>.a{fill:#e8edee;}.b{fill:#ffa939;}.c{fill:#b3babe;}.d{fill:#ce852e;}.e{fill:#ba752b;}.f{fill:#515151;}.g{fill:#595959;}</style></defs><path class="a" d="M64.45,363.86a22.5,22.5,0,0,1-1-7.15q.1-91.09.1-182.19c2.78-1.86,6.07-1.28,9.18-1.28q80.94-.06,161.89,0,102.48,0,205,0c3.11,0,6.4-.58,9.19,1.28l0,189.38c-5.19,20.22-21.1,31.13-45.5,31.13q-147.92,0-295.82,0c-19.27,0-33-7.85-41.47-22.5C64.4,369.81,63.45,366.93,64.45,363.86Z"/><path class="b" d="M405.83,65.11c23.64,0,42.83,16,42.95,36,.12,18.2-.07,36.41-.12,54.61-2.59,1.92-5.75,1.21-8.67,1.21q-140.7.06-281.41,0-43.64,0-87.28,0c-2.61,0-5.41.56-7.67-1.21,0-18.91-.52-37.83,0-56.72S83.8,65.15,106.45,65.11a3.35,3.35,0,0,1,1.59,3c.08,10.82.71,21.65-.33,32.45-1.31,2.36-2.27,1.49-3-.29s.09-3.64-.73-5.42c-6.32,4.71-9.94,17.22-4.07,27s15.39,15.1,28.63,14.82c12.8-.26,22-5.57,27.19-15.32,5.27-10,3.32-19.45-5-27.85-1.19-1.19-2.56-2.26-3-3.87-.84-7-.38-14.09-.31-21.13a3.69,3.69,0,0,1,1.61-3.4H363.36a3.36,3.36,0,0,1,1.58,3c.09,10.82.72,21.65-.32,32.45-1.31,2.36-2.27,1.49-3-.29s.09-3.64-.73-5.42c-6.32,4.71-9.94,17.22-4.07,27s15.38,15.1,28.62,14.82c12.81-.26,22-5.57,27.2-15.32,5.27-10,3.32-19.45-5.05-27.85-1.19-1.19-2.56-2.26-3-3.87-.84-7-.38-14.09-.31-21.13A3.69,3.69,0,0,1,405.83,65.11Z"/><path class="c" d="M64.45,363.86c1.42,12.6,16.78,26.43,32.08,29a71.88,71.88,0,0,0,11.91.89c98.06,0,196.13-.22,294.19.14,21.78.08,40.25-11.44,45-28.16a8.44,8.44,0,0,1,1.09-1.82c-.18,6.11.64,12.21-.75,18.32-3.93,17.3-20.7,29.52-41.31,29.53q-150.48.08-301,0c-23.58,0-42.2-16-42.15-36.21C63.56,371.66,62.27,367.64,64.45,363.86Z"/><path class="d" d="M448.77,174.52c-1.17,0-2.34.09-3.51.09H67c-1.17,0-2.34-.06-3.5-.1q0-8.91.1-17.83c1.71-.87,3.6-.43,5.4-.43q187.11,0,374.24,0c1.8,0,3.68-.44,5.4.43Q448.72,165.61,448.77,174.52Z"/><path class="c" d="M148.93,65.11q.12,12.86.26,25.71c2,9.52,2.53,18.8-7.38,25.79-6.58,4.63-14.14,5.57-22.06,3-7.56-2.4-12.14-7.25-14.07-13.9a4.06,4.06,0,0,1,.55-4.09q.1-18.28.22-36.56c0-6.27,0-12.54.09-18.81.16-9.92,9.65-17.93,21.15-17.95s21,8,21.15,17.95C148.94,52.57,148.9,58.84,148.93,65.11Z"/><path class="c" d="M405.83,65.11l.26,25.71c1.58,7.67,2.53,15.31-3.45,22.08a22.91,22.91,0,0,1-20.93,7.79c-9.36-1.19-15.65-6-18.73-13.69-.7-1.74-1.22-3.58.15-5.33q.12-18.28.23-36.56c0-6.4,0-12.81.09-19.22.15-9.88,9.79-17.75,21.39-17.54s20.75,7.79,20.9,17.54C405.84,52.3,405.81,58.7,405.83,65.11Z"/><path class="e" d="M448.67,156.68h-385v-.92h385Z"/><path class="d" d="M363.13,101.67c2.38,15.67,20.07,23.26,33.86,14.46,5.63-3.6,8.83-8.45,8.85-14.63,0-3.56.16-7.12.25-10.68,13.23,8.86,14.63,28.51.71,39.7-13.28,10.66-34.51,9.83-46.85-2.19-10.64-10.37-9.68-28.6,2.17-36.23C363.31,95.31,361.68,98.64,363.13,101.67Z"/><path class="d" d="M106.23,101.67c1.91,13.39,14,20.88,28,17.27,8.23-2.13,14.34-8.8,14.69-16.17.2-4,.22-8,.32-12,13.23,8.86,14.63,28.51.7,39.7-13.28,10.66-34.51,9.83-46.85-2.2C92.41,118,93.37,99.71,105.22,92.11,106.41,95.31,104.77,98.64,106.23,101.67Z"/><path class="f" d="M200.07,127.9a3.74,3.74,0,0,1-2.36-.69A4.47,4.47,0,0,1,196.3,125L187,98.92a3.07,3.07,0,0,1,.21-3,3.31,3.31,0,0,1,2.92-1.22,3.55,3.55,0,0,1,2.34.69,4.36,4.36,0,0,1,1.29,2.16l7.55,22.59h-2l8-22.59a4.71,4.71,0,0,1,1.33-2.16,3.25,3.25,0,0,1,2.16-.69,3,3,0,0,1,2.07.69,5.06,5.06,0,0,1,1.29,2.21l7.68,22.54h-1.7l7.68-22.59a4.8,4.8,0,0,1,1.34-2.16,3.4,3.4,0,0,1,2.25-.69A2.94,2.94,0,0,1,234.11,96a3.1,3.1,0,0,1,.19,3L225,125a5.24,5.24,0,0,1-1.45,2.17,3.58,3.58,0,0,1-2.32.69,3.79,3.79,0,0,1-2.37-.69,4.39,4.39,0,0,1-1.4-2.17l-7.27-20.56h1.1L203.85,125a4.93,4.93,0,0,1-1.41,2.17A3.64,3.64,0,0,1,200.07,127.9Z"/><path class="f" d="M243.36,127.53a3.7,3.7,0,0,1-2.76-1,3.81,3.81,0,0,1-1-2.8V98.87a3.83,3.83,0,0,1,1-2.81,3.74,3.74,0,0,1,2.76-1h16.05a2.88,2.88,0,0,1,2.1.71,2.81,2.81,0,0,1,.71,2,2.5,2.5,0,0,1-2.81,2.8H246.49v7.59H258.4a2.82,2.82,0,0,1,2.12.72,2.88,2.88,0,0,1,.69,2.09,2.47,2.47,0,0,1-2.81,2.76H246.49V122h12.92a2.51,2.51,0,0,1,2.81,2.81,2.81,2.81,0,0,1-.71,2,2.88,2.88,0,0,1-2.1.71Z"/><path class="f" d="M271.19,127.53a3.7,3.7,0,0,1-2.76-1,3.81,3.81,0,0,1-1-2.8V98.87a3.83,3.83,0,0,1,1-2.81,3.74,3.74,0,0,1,2.76-1h16.05a2.88,2.88,0,0,1,2.1.71,2.81,2.81,0,0,1,.71,2,2.5,2.5,0,0,1-2.81,2.8H274.32v7.59h11.91a2.82,2.82,0,0,1,2.12.72,2.88,2.88,0,0,1,.69,2.09,2.47,2.47,0,0,1-2.81,2.76H274.32V122h12.92a2.51,2.51,0,0,1,2.81,2.81,2.81,2.81,0,0,1-.71,2,2.88,2.88,0,0,1-2.1.71Z"/><path class="f" d="M298.84,127.9a3.52,3.52,0,0,1-2.63-1,3.69,3.69,0,0,1-.92-2.69V98.32a3.62,3.62,0,0,1,.92-2.67,3.57,3.57,0,0,1,6.21,2.67v10.9h.1l12.23-12.79a5.84,5.84,0,0,1,1.66-1.26,4.25,4.25,0,0,1,1.93-.44,2.91,2.91,0,0,1,2.32.83,2.46,2.46,0,0,1,.62,1.93,3.14,3.14,0,0,1-1,2L308,112.07l.05-3,12.83,13.71a3.39,3.39,0,0,1,1.13,2.32,2.59,2.59,0,0,1-.79,2,3.21,3.21,0,0,1-2.36.79,3.6,3.6,0,0,1-2.12-.56,13.79,13.79,0,0,1-1.79-1.56l-12.42-13.06h-.1v11.54a3.76,3.76,0,0,1-.89,2.69A3.55,3.55,0,0,1,298.84,127.9Z"/><path class="g" d="M219.23,352.27q-6.57,0-9.55-3c-2-2-3-4.89-3-8.72a13.68,13.68,0,0,1,1.85-6.78,36.83,36.83,0,0,1,5.34-7l41.27-43.93q9.43-9.86,13.55-18a35.86,35.86,0,0,0,4.1-16.32q0-10.26-6.46-15.6t-18.79-5.34a51.68,51.68,0,0,0-14,1.95,50.86,50.86,0,0,0-14.17,6.67c-2.46,1.64-4.75,2.33-6.88,2a9.6,9.6,0,0,1-5.54-2.66,11.38,11.38,0,0,1-3.18-5.55,11.63,11.63,0,0,1,.31-6.67,11.46,11.46,0,0,1,4.82-5.85,68.15,68.15,0,0,1,19.82-9,81.52,81.52,0,0,1,22.07-3.08q15.6,0,26.28,4.73A35,35,0,0,1,293.34,224q5.55,9,5.55,22a52.29,52.29,0,0,1-2.77,16.84,70.78,70.78,0,0,1-8.42,16.63A136.73,136.73,0,0,1,273,297.25l-38.6,40.24v-7h60.36c3.7,0,6.5.89,8.42,2.67s2.87,4.45,2.87,8-.95,6.3-2.87,8.22-4.72,2.87-8.42,2.87Z"/></svg>