<svg xmlns="http://www.w3.org/2000/svg" xmlns:xlink="http://www.w3.org/1999/xlink" viewBox="0 0 512 452.12"><defs><style>.a{fill:none;}.b{fill:#008cba;}.c{fill:#fff;}.d{clip-path:url(#a);}.e{fill:#f98888;}.f{fill:#515151;}</style><clipPath id="a"><path class="a" d="M415.33,413.93H96.67c-18.33,0-33.19-15.79-33.19-35.27V80.81c0-19.48,14.86-35.28,33.19-35.28H415.33c18.33,0,33.19,15.8,33.19,35.28V378.66C448.52,398.14,433.66,413.93,415.33,413.93Z"/></clipPath></defs><rect class="b" x="63.46" y="65.58" width="385.04" height="346.68" rx="33.19"/><path class="c" d="M274.85,166.1l-26.42-45.61c6.92,0,13.54,0,20.15,0,26.62.17,20.83-2.69,34.21,19.52,1.38,2.3,2.79,4.59,4.34,7.13l16-8.89.83.57c-3.6,6.24-7.14,12.5-10.8,18.7s-6.05,14.65-11.48,17.69c-5.67,3.17-14.3,1.13-21.64,1.23a129.26,129.26,0,0,1-20.77-1Z"/><path class="c" d="M291.57,237.3c0,4.25.23,8.52-.07,12.75s1.45,5.3,5.4,5.26c15.65-.16,31.3-.06,47.61-.06C338,266.13,332,277.16,325,287.49c-1.85,2.69-6.84,4.12-10.55,4.47-7.26.68-14.64.2-22.59.2v17.7l-1.4.5c-2.07-3.51-4.17-7-6.22-10.54-4.37-7.53-8.84-15-13-22.65-.88-1.61-1.47-4.33-.7-5.71,6.4-11.64,13.16-23.09,19.8-34.6Z"/><path class="c" d="M179.89,271.2c-5.95-10.5-11.74-20.56-17.34-30.72-2.41-4.39-2.21-8.83.48-13.24,3.83-6.26,7.41-12.67,11.43-19.6L159,198.42l0-1.23c1.95,0,3.89,0,5.83,0,10.66-.11,21.33-.12,32-.41,3.51-.1,5.66,1,7.42,4.14,6,10.93,12.41,21.68,17.72,33.52l-15.75-8.84C197.35,240.93,188.76,255.82,179.89,271.2Z"/><path class="c" d="M295.91,202l31.71-18.51c8.19,14.57,16.62,28.65,24.1,43.22,3.79,7.36-1.09,16-9.12,18.27-1.65.47-3.43.44-5.13.76-12.37,2.29-20.49-1.65-25.4-14.11C308.07,221.5,301.63,212.3,295.91,202Z"/><path class="c" d="M249.36,255.85v36.31h-10c-11.61,0-23.21.14-34.82,0-13.18-.21-18.43-10.58-13-22.61,5.11-11.33,12.09-16.18,24.82-14.52,10.08,1.32,20.47.31,30.72.35A15.29,15.29,0,0,1,249.36,255.85Z"/><path class="c" d="M227.32,189.17,196.05,171c3-5.19,5.8-10.16,8.65-15.12,4.72-8.22,9.36-16.5,14.23-24.64,6.4-10.69,18.72-10.59,25.23.09,8.64,14.19,8.65,14.2.36,28.66q-8,13.84-15.93,27.68A16.88,16.88,0,0,1,227.32,189.17Z"/><g class="d"><rect class="e" x="55.49" y="323.88" width="397.13" height="90.95"/></g><path class="f" d="M128.49,387.21a29.92,29.92,0,0,1-4-.27,23.8,23.8,0,0,1-3.8-.83,16.07,16.07,0,0,1-3.2-1.38,3.18,3.18,0,0,1-1.47-1.45,3.21,3.21,0,0,1-.27-1.82,3.61,3.61,0,0,1,.66-1.63,2.41,2.41,0,0,1,1.45-.92,2.89,2.89,0,0,1,2,.34,17.07,17.07,0,0,0,4.16,1.52,19.91,19.91,0,0,0,4.44.51,8.75,8.75,0,0,0,4.79-1,3,3,0,0,0,1.47-2.58,2.51,2.51,0,0,0-1-2.14,9.49,9.49,0,0,0-3.56-1.26l-5.2-1.11a12.48,12.48,0,0,1-6.53-3.19,8.2,8.2,0,0,1-2.12-5.87,9.34,9.34,0,0,1,3.61-7.48,12.15,12.15,0,0,1,4.17-2.06,18.93,18.93,0,0,1,5.38-.72,21.19,21.19,0,0,1,5,.6,15.23,15.23,0,0,1,4.42,1.79,3,3,0,0,1,1.22,1.38,3.41,3.41,0,0,1,.23,1.73,2.74,2.74,0,0,1-.69,1.52,2.71,2.71,0,0,1-1.45.8,3.33,3.33,0,0,1-2.12-.41,11.62,11.62,0,0,0-3.19-1.13,18,18,0,0,0-3.52-.34,9.61,9.61,0,0,0-3.29.5,4.47,4.47,0,0,0-2,1.41,3.38,3.38,0,0,0-.69,2.13,2.72,2.72,0,0,0,.94,2.12,7.54,7.54,0,0,0,3.34,1.33l5.15,1.11a13.82,13.82,0,0,1,6.79,3.1,7.49,7.49,0,0,1,2.23,5.64,9,9,0,0,1-1,4.16,9.29,9.29,0,0,1-2.69,3.17,12.7,12.7,0,0,1-4.14,2A19.62,19.62,0,0,1,128.49,387.21Z"/><path class="f" d="M157,387.12a3.51,3.51,0,0,1-2.63-.94,3.72,3.72,0,0,1-.92-2.69V360.21h-8.09a3,3,0,0,1-2.25-.78,3,3,0,0,1-.79-2.21,2.82,2.82,0,0,1,.79-2.14,3.12,3.12,0,0,1,2.25-.76H168.7a3.09,3.09,0,0,1,2.21.76,2.86,2.86,0,0,1,.78,2.14,2.72,2.72,0,0,1-3,3h-8.15v23.28a3.75,3.75,0,0,1-.89,2.69A3.55,3.55,0,0,1,157,387.12Z"/><path class="f" d="M172,387.12a3.52,3.52,0,0,1-2.09-.57,2.41,2.41,0,0,1-1-1.59,3.86,3.86,0,0,1,.36-2.26l11.83-25.85a5.41,5.41,0,0,1,1.77-2.21,4.3,4.3,0,0,1,4.67,0,5.53,5.53,0,0,1,1.74,2.21l11.83,25.85a4,4,0,0,1,.43,2.28,2.32,2.32,0,0,1-1,1.57,3.4,3.4,0,0,1-2,.57,3.69,3.69,0,0,1-2.42-.71,5.85,5.85,0,0,1-1.49-2.28l-2.76-6.39,2.85,2H175.6l2.85-2-2.72,6.39a8,8,0,0,1-1.47,2.28A3.15,3.15,0,0,1,172,387.12Zm13.15-25.21L179.23,376,178,374.15h14.4l-1.2,1.84-5.93-14.08Z"/><path class="f" d="M209.41,387.12a3.59,3.59,0,0,1-2.7-1,3.81,3.81,0,0,1-.94-2.76v-25.3a3.77,3.77,0,0,1,1-2.8,3.7,3.7,0,0,1,2.76-1h15.68a3,3,0,0,1,2.17.72,2.69,2.69,0,0,1,.73,2,2.81,2.81,0,0,1-.73,2.1,3,3,0,0,1-2.17.71H212.9v7.86h11.32a2.89,2.89,0,0,1,2.11.72,2.77,2.77,0,0,1,.74,2.09,2.8,2.8,0,0,1-.74,2.07,2.85,2.85,0,0,1-2.11.74H212.9v10Q212.9,387.13,209.41,387.12Z"/><path class="f" d="M235.63,387.12a3.59,3.59,0,0,1-2.7-1,3.81,3.81,0,0,1-.94-2.76v-25.3a3.77,3.77,0,0,1,1-2.8,3.7,3.7,0,0,1,2.76-1H251.4a3,3,0,0,1,2.17.72,2.69,2.69,0,0,1,.73,2,2.81,2.81,0,0,1-.73,2.1,3,3,0,0,1-2.17.71H239.12v7.86h11.32a2.89,2.89,0,0,1,2.11.72,2.77,2.77,0,0,1,.74,2.09,2.8,2.8,0,0,1-.74,2.07,2.85,2.85,0,0,1-2.11.74H239.12v10Q239.12,387.13,235.63,387.12Z"/><path class="f" d="M286.09,387.21a16.77,16.77,0,0,1-8.4-2.07,14.09,14.09,0,0,1-5.63-5.84,18.62,18.62,0,0,1-2-8.79,19.89,19.89,0,0,1,1.13-6.85,15,15,0,0,1,3.24-5.29,14,14,0,0,1,5.08-3.36,18.18,18.18,0,0,1,6.56-1.15,16.88,16.88,0,0,1,8.44,2.05,14.13,14.13,0,0,1,5.61,5.8,18.27,18.27,0,0,1,2,8.76,20.06,20.06,0,0,1-1.12,6.9,15.31,15.31,0,0,1-3.27,5.31,13.94,13.94,0,0,1-5.08,3.38A17.93,17.93,0,0,1,286.09,387.21Zm0-6a8,8,0,0,0,4.62-1.29,8.39,8.39,0,0,0,3-3.68,14.35,14.35,0,0,0,1-5.71q0-5.06-2.28-7.84a7.71,7.71,0,0,0-6.32-2.78,8.31,8.31,0,0,0-4.6,1.24,7.82,7.82,0,0,0-2.95,3.61,14.79,14.79,0,0,0-1,5.77c0,3.35.76,6,2.28,7.85A7.64,7.64,0,0,0,286.09,381.19Z"/><path class="f" d="M311,387.12a3.33,3.33,0,0,1-2.46-.85,3.39,3.39,0,0,1-.85-2.51V357.5a3.7,3.7,0,0,1,.85-2.65,3,3,0,0,1,2.28-.9,3.41,3.41,0,0,1,1.91.46,8.6,8.6,0,0,1,1.54,1.52l16.15,20.61H329.1V357.27a3.29,3.29,0,0,1,.87-2.44,3.44,3.44,0,0,1,2.53-.88,3.25,3.25,0,0,1,2.42.88,3.37,3.37,0,0,1,.85,2.44v26.58a3.48,3.48,0,0,1-.78,2.4,2.72,2.72,0,0,1-2.12.87,3.82,3.82,0,0,1-2.05-.48,8.62,8.62,0,0,1-1.68-1.54L313,364.49h1.25v19.27a3.39,3.39,0,0,1-.86,2.51A3.3,3.3,0,0,1,311,387.12Z"/><path class="f" d="M345.89,386.75a3.55,3.55,0,0,1-2.65-1,3.67,3.67,0,0,1-.94-2.67V357.86a3.65,3.65,0,0,1,.92-2.71,3.56,3.56,0,0,1,2.62-.92,3.65,3.65,0,0,1,2.67.92,3.69,3.69,0,0,1,.92,2.71v22.87h12.33a3,3,0,0,1,2.25.78,3,3,0,0,1,.78,2.21,2.73,2.73,0,0,1-3,3Z"/><path class="f" d="M374.41,387.12a3.47,3.47,0,0,1-2.62-.94,3.74,3.74,0,0,1-.92-2.74V370.15l1.47,4.09-10.81-15.46a3,3,0,0,1-.65-2.09,2.91,2.91,0,0,1,.95-1.93,3.28,3.28,0,0,1,2.37-.81,3.91,3.91,0,0,1,2,.53,5.88,5.88,0,0,1,1.72,1.73l7.36,10.62h-1.52l7.41-10.62a6.69,6.69,0,0,1,1.72-1.73,3.76,3.76,0,0,1,2-.53,3.37,3.37,0,0,1,2.31.74,2.53,2.53,0,0,1,.87,1.86,4,4,0,0,1-.74,2.33l-10.76,15.36,1.43-4.09v13.29Q378,387.12,374.41,387.12Z"/></svg>