<svg xmlns="http://www.w3.org/2000/svg" xmlns:xlink="http://www.w3.org/1999/xlink" viewBox="0 0 512 452.12"><defs><style>.cls-1{fill:none;}.cls-2{fill:#008cba;}.cls-3{clip-path:url(#clip-path);}.cls-4{fill:#dddfe0;}.cls-5{fill:#fff;}.cls-6{fill:#ce852e;}.cls-7{fill:#ffa939;}</style><clipPath id="clip-path"><rect class="cls-1" x="88.01" y="76.49" width="335.99" height="335.99"/></clipPath></defs><g id="Layer_3" data-name="Layer 3"><rect class="cls-2" x="63.48" y="65.58" width="385.04" height="346.68" rx="33.19"/><g class="cls-3"><path class="cls-4" d="M322.79,326.81l-21.28-5.7-5.7-21.27,15.58-15.58,21.27,5.7,5.7,21.28ZM343,279.62a36.59,36.59,0,0,0-35.38-9.46l-66.39-66.39a42.69,42.69,0,0,0-54.59-54.55l31.61,31.61v17.28l-8.64,8.64H192.34l-31.6-31.61a42.69,42.69,0,0,0,54.6,54.57l66.37,66.36A36.64,36.64,0,1,0,343,279.62Z"/></g><g class="cls-3"><path class="cls-5" d="M307.63,270.16l-66.39-66.39a42.69,42.69,0,0,0-54.59-54.55l31.61,31.61v17.28l-4.14,4.14,89.64,89.64,7.63-7.63,21.27,5.7,5.7,21.28-7.62,7.62,12.42,12.42a36.62,36.62,0,0,0-35.53-61.12Z"/></g><g class="cls-3"><path class="cls-6" d="M252.3,284.44a9.18,9.18,0,0,0,2.37-8.86,9.18,9.18,0,0,1,2.38-8.85l8.64-8.64a3.06,3.06,0,0,0,0-4.32l-17.28-17.28a3.06,3.06,0,0,0-4.32,0l-8.64,8.64a9.16,9.16,0,0,1-8.86,2.37,9.2,9.2,0,0,0-8.85,2.38L162,305.61c-10.81,10.8,23.75,45.35,34.55,34.55Z"/></g><g class="cls-3"><polygon class="cls-4" points="342.1 151.44 305.38 170.88 303.22 186 250.57 238.65 263.53 251.61 316.18 198.96 331.08 197.02 350.98 160.33 342.1 151.44"/></g><g class="cls-3"><polygon class="cls-5" points="342.1 151.44 305.38 170.88 303.22 186 250.57 238.65 257.73 245.81 347.1 156.45 342.1 151.44"/></g><g class="cls-3"><path class="cls-7" d="M248.41,236.49a3.06,3.06,0,0,0-4.32,0l-8.64,8.64a9.16,9.16,0,0,1-8.86,2.37,9.2,9.2,0,0,0-8.85,2.38L162,305.61c-5.55,5.54.86,17.33,9.87,26l85.84-85.84Z"/></g></g></svg>