<svg xmlns="http://www.w3.org/2000/svg" xmlns:xlink="http://www.w3.org/1999/xlink" viewBox="0 0 512 452.12"><defs><style>.a{fill:none;}.b{fill:#008cba;}.c{fill:#edeeee;}.d{fill:#fff;}.e{fill:#b3babe;}.f{fill:#c1c5c6;}.g{fill:#f98888;}.h{fill:#ba752b;}.i{fill:#ffa939;}.j{fill:#00a795;}.k{fill:#31bbad;}.l{fill:#7b3e2c;}.m{fill:#935740;}.n{fill:#24c0df;}.o{fill:#363637;}.p{fill:#515254;}.q{fill:#f4ad34;}.r{fill:#fcc43d;}.s{clip-path:url(#a);}.t{fill:#515151;}</style><clipPath id="a"><path class="a" d="M415.33,409.65H96.67a33.19,33.19,0,0,1-33.19-33.19V96.17A33.19,33.19,0,0,1,96.67,63H415.33a33.19,33.19,0,0,1,33.19,33.2V376.46A33.19,33.19,0,0,1,415.33,409.65Z"/></clipPath></defs><path class="b" d="M415.33,409.36H96.67a33.19,33.19,0,0,1-33.19-33.19V95.87A33.19,33.19,0,0,1,96.67,62.68H415.33a33.19,33.19,0,0,1,33.19,33.19v280.3A33.19,33.19,0,0,1,415.33,409.36Z"/><path class="c" d="M354.46,124.11a14.54,14.54,0,0,0-10.74-4.76H168.28A14.61,14.61,0,0,0,153.66,134V338.66a14.62,14.62,0,0,0,14.62,14.62H343.72a14.62,14.62,0,0,0,14.62-14.62V134A14.53,14.53,0,0,0,354.46,124.11Z"/><path class="d" d="M241.38,137.62A3.66,3.66,0,0,1,245,134h36.56a3.66,3.66,0,0,1,3.65,3.65v36.55a3.66,3.66,0,0,1-3.65,3.66H245a3.66,3.66,0,0,1-3.65-3.66Zm-73.1,3.66a7.31,7.31,0,0,1,7.31-7.31h43.86a7.31,7.31,0,0,1,7.31,7.31V251.81L243,235.59a3.58,3.58,0,0,1-1.59-2.93V196.11a3.66,3.66,0,0,1,3.65-3.66h36.56a3.58,3.58,0,0,1,2.93,1.59l16.93-16.93a3.61,3.61,0,0,1-1.59-2.94V137.62a3.66,3.66,0,0,1,3.66-3.65h36.55a3.58,3.58,0,0,1,2.93,1.59l11.45-11.45a14.5,14.5,0,0,0-10.73-4.76H168.28A14.61,14.61,0,0,0,153.66,134V324.91l14.62-14.62Z"/><path class="e" d="M219.45,134H175.59a7.31,7.31,0,0,0-7.31,7.31V331.35a7.31,7.31,0,0,0,7.31,7.31h43.86a7.31,7.31,0,0,0,7.31-7.31V141.28A7.31,7.31,0,0,0,219.45,134Z"/><path class="f" d="M219.45,134H175.59a7.31,7.31,0,0,0-7.31,7.31v169l58.48-58.48V141.28A7.31,7.31,0,0,0,219.45,134Z"/><rect class="g" x="241.38" y="133.97" width="43.86" height="43.86" rx="3.66"/><path class="h" d="M343,135.56a3.58,3.58,0,0,0-2.93-1.59H303.52a3.66,3.66,0,0,0-3.66,3.65v36.55a3.59,3.59,0,0,0,1.6,2.94,3.52,3.52,0,0,0,2.06.72h36.55a3.65,3.65,0,0,0,3.65-3.66V137.62A3.57,3.57,0,0,0,343,135.56Z"/><path class="i" d="M340.07,134H303.52a3.66,3.66,0,0,0-3.66,3.65v36.55a3.59,3.59,0,0,0,1.6,2.94L343,135.56A3.61,3.61,0,0,0,340.07,134Z"/><path class="j" d="M284.52,194a3.58,3.58,0,0,0-2.93-1.59H245a3.66,3.66,0,0,0-3.65,3.66v36.55a3.84,3.84,0,0,0,3.65,3.65h36.56a3.66,3.66,0,0,0,3.65-3.65V196.11A3.57,3.57,0,0,0,284.52,194Z"/><path class="k" d="M281.59,192.45H245a3.66,3.66,0,0,0-3.65,3.66v36.55a3.58,3.58,0,0,0,1.59,2.93L284.52,194A3.58,3.58,0,0,0,281.59,192.45Z"/><path class="l" d="M197.52,192.45H182.9v14.62l6.85,109.74a7.72,7.72,0,0,0,7.69,7.23h.15a7.71,7.71,0,0,0,7.69-7.23l6.86-109.74V192.45Z"/><path class="m" d="M182.9,192.45v14.62l6.85,109.74a7.72,7.72,0,0,0,7.69,7.23h.08V192.45Z"/><rect class="k" x="299.86" y="192.45" width="43.86" height="43.86" rx="3.66"/><rect class="n" x="241.38" y="250.93" width="43.86" height="43.86" rx="3.66"/><rect class="n" x="299.86" y="250.93" width="43.86" height="43.86" rx="3.66"/><rect class="h" x="241.38" y="309.42" width="102.34" height="29.24" rx="3.66"/><path class="o" d="M197.52,144.93h0s-18.28,20.79-18.28,32.9c0,6.77,2.61,11.61,6.62,14.62h23.31c4-3,6.62-7.85,6.62-14.62C215.79,165.72,197.52,144.94,197.52,144.93Z"/><path class="p" d="M179.24,177.83c0,6.77,2.61,11.61,6.62,14.62h11.66V144.93S179.24,165.72,179.24,177.83Z"/><polygon class="q" points="197.52 192.45 182.9 192.45 182.9 207.07 197.52 207.07 212.14 207.07 212.14 192.45 197.52 192.45"/><polygon class="r" points="185.86 192.45 182.9 192.45 182.9 207.07 197.52 207.07 197.52 192.45 185.86 192.45"/><g class="s"><rect class="g" x="55.49" y="324.91" width="397.13" height="85.59"/></g><path class="t" d="M128.49,384.38a28.24,28.24,0,0,1-4-.28,22.75,22.75,0,0,1-3.8-.83,14.69,14.69,0,0,1-3.19-1.38,3.07,3.07,0,0,1-1.75-3.26,3.6,3.6,0,0,1,.66-1.64,2.46,2.46,0,0,1,1.45-.92,2.9,2.9,0,0,1,2,.35,17.5,17.5,0,0,0,4.16,1.52,20.49,20.49,0,0,0,4.44.5,8.64,8.64,0,0,0,4.79-1,3,3,0,0,0,1.47-2.57,2.48,2.48,0,0,0-1-2.14,9.4,9.4,0,0,0-3.56-1.27l-5.2-1.1a12.49,12.49,0,0,1-6.53-3.2,8.17,8.17,0,0,1-2.12-5.86,9.33,9.33,0,0,1,1-4.21,9.22,9.22,0,0,1,2.66-3.27,12.34,12.34,0,0,1,4.17-2.07,18.93,18.93,0,0,1,5.38-.71,21.71,21.71,0,0,1,5,.59,15,15,0,0,1,4.42,1.8,3,3,0,0,1,1.22,1.38,3.37,3.37,0,0,1,.23,1.72,2.67,2.67,0,0,1-2.14,2.33,3.41,3.41,0,0,1-2.12-.42,11.61,11.61,0,0,0-3.19-1.12,18,18,0,0,0-3.52-.35,9.36,9.36,0,0,0-3.29.51,4.38,4.38,0,0,0-2,1.4,3.41,3.41,0,0,0-.69,2.14,2.67,2.67,0,0,0,.94,2.11,7.53,7.53,0,0,0,3.34,1.34l5.15,1.1a13.82,13.82,0,0,1,6.79,3.11,7.46,7.46,0,0,1,2.23,5.63,9,9,0,0,1-1,4.17,9.29,9.29,0,0,1-2.69,3.17,12.69,12.69,0,0,1-4.14,2A19.24,19.24,0,0,1,128.49,384.38Z"/><path class="t" d="M157,384.29a3.52,3.52,0,0,1-2.63-1,3.7,3.7,0,0,1-.92-2.69V357.37h-8.09a3,3,0,0,1-2.26-.78,3,3,0,0,1-.78-2.21,2.82,2.82,0,0,1,.78-2.13,3.12,3.12,0,0,1,2.26-.76H168.7a3,3,0,0,1,2.2.76,2.78,2.78,0,0,1,.79,2.13,2.73,2.73,0,0,1-3,3h-8.15v23.28a3.73,3.73,0,0,1-.89,2.69A3.55,3.55,0,0,1,157,384.29Z"/><path class="t" d="M172,384.29a3.52,3.52,0,0,1-2.09-.58,2.37,2.37,0,0,1-1-1.59,3.84,3.84,0,0,1,.36-2.25L181.12,354a5.34,5.34,0,0,1,1.77-2.21,4.3,4.3,0,0,1,4.67,0A5.46,5.46,0,0,1,189.3,354l11.83,25.85a4,4,0,0,1,.43,2.28,2.28,2.28,0,0,1-1,1.56,3.4,3.4,0,0,1-2,.58,3.64,3.64,0,0,1-2.42-.72,5.7,5.7,0,0,1-1.49-2.28l-2.76-6.39,2.85,2H175.6l2.85-2-2.72,6.39a7.72,7.72,0,0,1-1.47,2.28A3.1,3.1,0,0,1,172,384.29Zm13.15-25.21-5.93,14.07L178,371.31h14.4l-1.2,1.84-5.93-14.07Z"/><path class="t" d="M209.41,384.29a3.62,3.62,0,0,1-2.7-1,3.84,3.84,0,0,1-.94-2.76v-25.3a3.79,3.79,0,0,1,1-2.81,3.74,3.74,0,0,1,2.76-1h15.68a3,3,0,0,1,2.17.71,2.73,2.73,0,0,1,.73,2.05,2.77,2.77,0,0,1-.73,2.09,3,3,0,0,1-2.17.71H212.9v7.87h11.32a2.93,2.93,0,0,1,2.11.71,2.83,2.83,0,0,1-2.11,4.9H212.9v10C212.9,383,211.74,384.29,209.41,384.29Z"/><path class="t" d="M235.63,384.29a3.62,3.62,0,0,1-2.7-1,3.84,3.84,0,0,1-.94-2.76v-25.3a3.79,3.79,0,0,1,1-2.81,3.74,3.74,0,0,1,2.76-1H251.4a3,3,0,0,1,2.17.71,2.73,2.73,0,0,1,.73,2.05,2.77,2.77,0,0,1-.73,2.09,3,3,0,0,1-2.17.71H239.12v7.87h11.32a2.93,2.93,0,0,1,2.11.71,2.83,2.83,0,0,1-2.11,4.9H239.12v10C239.12,383,238,384.29,235.63,384.29Z"/><path class="t" d="M286.09,384.38a16.77,16.77,0,0,1-8.4-2.07,14.05,14.05,0,0,1-5.63-5.85,18.61,18.61,0,0,1-2-8.78,19.57,19.57,0,0,1,1.13-6.85,14.89,14.89,0,0,1,3.24-5.29,13.77,13.77,0,0,1,5.08-3.36,18,18,0,0,1,6.56-1.15,16.88,16.88,0,0,1,8.44,2,14.19,14.19,0,0,1,5.61,5.8,18.27,18.27,0,0,1,2,8.76,20,20,0,0,1-1.12,6.9,15.26,15.26,0,0,1-3.27,5.32,14.19,14.19,0,0,1-5.08,3.38A18.14,18.14,0,0,1,286.09,384.38Zm0-6a8,8,0,0,0,4.62-1.29,8.24,8.24,0,0,0,2.94-3.68,14.09,14.09,0,0,0,1-5.7c0-3.37-.76-6-2.28-7.84a7.69,7.69,0,0,0-6.32-2.79,8.39,8.39,0,0,0-4.6,1.24,7.85,7.85,0,0,0-2.95,3.62,14.75,14.75,0,0,0-1,5.77c0,3.34.76,6,2.28,7.84A7.61,7.61,0,0,0,286.09,378.35Z"/><path class="t" d="M311,384.29a3,3,0,0,1-3.31-3.36V354.66a3.68,3.68,0,0,1,.85-2.64,3,3,0,0,1,2.28-.9,3.33,3.33,0,0,1,1.91.46,8.27,8.27,0,0,1,1.54,1.52l16.15,20.6H329.1V354.43A3.32,3.32,0,0,1,330,352a3.44,3.44,0,0,1,2.53-.87,3.25,3.25,0,0,1,2.42.87,3.4,3.4,0,0,1,.85,2.44V381a3.41,3.41,0,0,1-.79,2.39,2.69,2.69,0,0,1-2.11.88,3.81,3.81,0,0,1-2.05-.49,8.32,8.32,0,0,1-1.68-1.54L313,361.65h1.24v19.28a3.37,3.37,0,0,1-.85,2.5A3.3,3.3,0,0,1,311,384.29Z"/><path class="t" d="M345.89,383.92a3.55,3.55,0,0,1-2.65-1,3.64,3.64,0,0,1-.94-2.67V355a3.63,3.63,0,0,1,.92-2.71,3.51,3.51,0,0,1,2.62-.93,3.61,3.61,0,0,1,2.67.93,3.67,3.67,0,0,1,.92,2.71v22.86h12.33a3,3,0,0,1,2.25.78,3,3,0,0,1,.78,2.21,3,3,0,0,1-.78,2.25,3,3,0,0,1-2.25.79Z"/><path class="t" d="M374.41,384.29a3.52,3.52,0,0,1-2.63-1,3.77,3.77,0,0,1-.92-2.73v-13.3l1.48,4.1L361.53,356a3,3,0,0,1-.65-2.09,2.91,2.91,0,0,1,.95-1.94,3.31,3.31,0,0,1,2.36-.8,3.92,3.92,0,0,1,2,.53,5.83,5.83,0,0,1,1.72,1.72L375.28,364h-1.52l7.41-10.63a6.63,6.63,0,0,1,1.72-1.72,3.76,3.76,0,0,1,2-.53,3.33,3.33,0,0,1,2.3.74,2.5,2.5,0,0,1,.88,1.86,4,4,0,0,1-.74,2.32l-10.76,15.37,1.42-4.1v13.3Q378,384.29,374.41,384.29Z"/></svg>