<svg xmlns="http://www.w3.org/2000/svg" viewBox="0 0 512 452.12"><defs><style>.cls-1{fill:#008cba;}.cls-2{fill:#b3babe;}.cls-3{fill:#fff;}.cls-4{fill:#595959;}.cls-5{fill:#ffa939;}.cls-6{fill:#fdfdfd;}</style></defs><g id="Layer_30" data-name="Layer 30"><rect class="cls-1" x="63.48" y="62.97" width="385.04" height="346.68" rx="33.19"/><path class="cls-2" d="M159.18,261.93c-.8-4.22-1.78-8.41-2.35-12.68a114.25,114.25,0,0,1,1.85-41.33c.06-.28.09-.56.13-.84.34-1.43.68-2.87,1-4.3l0-.08a2.31,2.31,0,0,0,.53-1.59l.11-.36c.53-1.51,1-3,1.59-4.52,1.22-3.22,2.47-6.42,3.71-9.62h0a1.33,1.33,0,0,0,.42-.83l4.71-9.09a.52.52,0,0,0,.32-.49l.22-.37,0,0a1,1,0,0,0,.5-.82.22.22,0,0,0,.11-.22l.24-.36h0l.2-.28.1-.27a10.08,10.08,0,0,0,1.77-2.79h0l.27-.32h0l.23-.33a54.37,54.37,0,0,0,3.51-5l4.73-5.8a1.32,1.32,0,0,0,.6-.82l.28-.29a46.1,46.1,0,0,0,4.28-4.56.24.24,0,0,0,.26-.27l.28-.3h0l.28-.27h0l.28-.28a.27.27,0,0,0,.29-.26,47.21,47.21,0,0,0,4.56-4.27,2.43,2.43,0,0,0,1.11-.89l5.8-4.72a53.15,53.15,0,0,0,5-3.52.66.66,0,0,0,.64-.49v0a9.85,9.85,0,0,0,2.78-1.76h0a.5.5,0,0,0,.54-.3,8.38,8.38,0,0,0,2.3-1.41l11.35-5.73,4.84-2a.55.55,0,0,0,.59-.23h0a29.63,29.63,0,0,0,4.82-1.69l.55-.14c2-.55,4-1.09,6-1.65,3.9-1.09,7.9-1.71,11.86-2.55h.06a1.45,1.45,0,0,0,1.21-.2,12.58,12.58,0,0,0,3.35-.38c.52,0,1,0,1.56,0a116.61,116.61,0,0,1,17.13-.31c3.54.19,7.05.67,10.58.94h.05l.06.09.08-.06.69.15.81.09a12.94,12.94,0,0,0,3.43.61l6.25,1.41a53.11,53.11,0,0,0,6.3,1.78l.06,0a15.39,15.39,0,0,0,4.67,1.73L315,129.5l11.67,5.94,10.75,7.17,5.67,4.54a.83.83,0,0,0,.61.55l.3.27.3.26,4.56,4.21.33.34.23.22.37.35.2.24.32.31,4.15,4.43a2.17,2.17,0,0,0,.88,1l.3.3h0l4.55,5.68,7.5,11.32,6.18,12.24h0a.57.57,0,0,0,.27.6l0,0a1.89,1.89,0,0,0,.58,1.3v.1c.86,2.37,1.73,4.73,2.59,7.1a48.08,48.08,0,0,0,1.91,6.44l.09.41c.67,3.48,1.53,6.91,2.07,10.42a125.73,125.73,0,0,1,1.35,14.1,116.48,116.48,0,0,1-1.11,21.2,91.48,91.48,0,0,1-2,10l-.1,1.07-1.92,6.61h0a.47.47,0,0,0-.22.55l-.06.34a35.23,35.23,0,0,0-1.69,4.78,45.14,45.14,0,0,0-2.07,5.11l-5.71,11.34a15.31,15.31,0,0,0-1.92,3.17,9.59,9.59,0,0,0-1.65,2.56.14.14,0,0,0-.1.17.43.43,0,0,0-.34.42l-3.56,5.11-4.55,5.68v0a.54.54,0,0,0-.36.53l0-.05a.86.86,0,0,0-.61.6l-.23.25a44.3,44.3,0,0,0-4,4.32.61.61,0,0,0-.52.55l-.3.31-.27.26-.31.3-.27.25a29.06,29.06,0,0,0-3.41,3.15l-.28.28v0a11.94,11.94,0,0,0-2.58,2.23h0l-.35.28a.24.24,0,0,0-.21.15l-.2.18-.35.3a.65.65,0,0,0-.6.51h0l-.47.34-.35.27-.29.26h0l-.31.26h0l-.37.27-.46.35a8.55,8.55,0,0,0-2.28,1.69,7.33,7.33,0,0,0-2,1.42,54.69,54.69,0,0,0-5.11,3.41h0l-.4.23a.14.14,0,0,0-.16.09,1.07,1.07,0,0,0-.84.53h0l-.39.22a1.81,1.81,0,0,0-1,.62l-.33.24h0l-7.86,4.12a1.38,1.38,0,0,0-.95.47.15.15,0,0,0-.22.08l-.36.21a.14.14,0,0,0-.21.07l-.4.21-.1,0-.06.08a.54.54,0,0,0-.56.25h0l-12.73,4.74-.35.1a2.28,2.28,0,0,0-1.58.55l-.09,0L291.94,345a13.19,13.19,0,0,0-1.41.13,113.6,113.6,0,0,1-24.69,2c-4.87-.12-9.7-.71-14.54-1.25l-.61-.15-.81-.1a12,12,0,0,0-3.42-.6,44.39,44.39,0,0,0-5.69-1.35l-.67-.16-.45-.15-5.13-1.45a.49.49,0,0,0-.59-.23,34,34,0,0,0-5.09-1.76l-.07-.07-.08,0-.4-.2a1,1,0,0,0-.89-.32,1,1,0,0,0-.86-.36l-.09,0a.43.43,0,0,0-.45-.25l-.07-.07-.09,0a.77.77,0,0,0-.7-.3l0,0a.57.57,0,0,0-.6-.27h0c-4.31-2.12-8.64-4.18-12.83-6.52L201,324.43l-6.28-5.08h0l-.29-.26-.33-.28-4.53-4.22-.33-.33L189,314l-.34-.34-.23-.25,0,0c0-.17-.09-.25-.25-.25l0,0-4.22-4.54a1,1,0,0,0-.54-.61l-.28-.31h0l-.29-.3h0l-4.53-5.7-7.48-11.3q-2.88-5.73-5.77-11.46,0-.15-.12-.18a2.17,2.17,0,0,0-.6-1.33l0-.06-.05-.05a6.2,6.2,0,0,0-.88-2.2c-.79-2.66-1.74-5.26-2.74-7.84-.81-1.29-.43-2.91-1.2-4.2a.79.79,0,0,0-.21-.73Zm19.28-28.24a90.84,90.84,0,1,0,90.7-90.91A90.87,90.87,0,0,0,178.46,233.69Z"/><path class="cls-3" d="M178.46,233.69a90.84,90.84,0,1,1,90.78,90.75A90.71,90.71,0,0,1,178.46,233.69ZM275,191.82c0-10.24,0-20.47,0-30.7,0-1.12-.29-1.47-1.42-1.44-2.75.07-5.49,0-8.24,0-1.82,0-1.82,0-1.82,1.86q0,30.41,0,60.83a2,2,0,0,1-.83,1.91,11.35,11.35,0,0,0,7.17,20.62,3,3,0,0,1,2.47,1q14,14.12,28.11,28.17c.73.74,1.14.83,1.9,0,2.36-2.46,4.77-4.88,7.24-7.23.93-.88,1-1.38,0-2.32-9.41-9.34-18.77-18.74-28.17-28.1a2.49,2.49,0,0,1-.83-2.11,10.87,10.87,0,0,0-4.54-9.87,2.43,2.43,0,0,1-1.11-2.22C275,212.09,275,202,275,191.82Z"/><path class="cls-4" d="M277.18,194.46c0,10.82,0,21.64,0,32.45a2.53,2.53,0,0,0,1.34,2.38c3.95,2.62,5.83,6.16,5.51,10.52a2.48,2.48,0,0,0,1,2.25c11.4,10,22.74,20,34.16,30,1.14,1,1.09,1.53,0,2.47q-4.5,3.76-8.77,7.72c-.93.85-1.42.75-2.31,0Q291,267.15,274,252.15a3.84,3.84,0,0,0-3-1c-6.41.23-11.82-3-13.82-8.18s0-10.53,5.13-13.82a2,2,0,0,0,1-2q0-32.45,0-64.9c0-2,0-2,2.2-2,3.34,0,6.67.06,10,0,1.36,0,1.73.35,1.72,1.54C277.16,172.63,277.18,183.54,277.18,194.46Z"/><circle class="cls-4" cx="270.18" cy="234.73" r="23.8"/><g id="bNNYpZ.tif"><path class="cls-5" d="M185.39,236a63.95,63.95,0,1,1-63.93,63.88A63.85,63.85,0,0,1,185.39,236Z"/><path class="cls-6" d="M177.32,322.18H156.18a12.16,12.16,0,0,1-12.48-12.43q0-14.64,0-29.26c0-2,.72-2.75,2.79-2.75H189.6a12.16,12.16,0,0,1,12.47,12.44v29.25c0,2.06-.7,2.76-2.78,2.76Z"/><path class="cls-6" d="M225.71,300v19.82c0,.8.18,1.77-.69,2.22s-1.62-.21-2.31-.71q-8.58-6.25-17.16-12.51a1.46,1.46,0,0,1-.68-1.35c0-5,0-10,0-15a1.52,1.52,0,0,1,.77-1.41q8.72-6.33,17.41-12.7c.59-.43,1.22-.9,2-.51s.7,1.13.7,1.82Z"/></g></g></svg>