<svg xmlns="http://www.w3.org/2000/svg" viewBox="0 0 512 452.12"><defs><style>.cls-1{fill:#e8edee;}.cls-2{fill:#ffa939;}.cls-3{fill:#b3babe;}.cls-4{fill:#ce852e;}.cls-5{fill:#ba752b;}.cls-6{font-size:46px;fill:#515151;}.cls-6,.cls-7{font-family:ArialRoundedMTBold, Arial Rounded MT Bold;}.cls-7{font-size:205.31px;fill:#595959;}</style></defs><g id="Layer_11" data-name="Layer 11"><path class="cls-1" d="M72.76,361.43a22.21,22.21,0,0,1-1-7.15q.09-91.09.09-182.2c2.78-1.86,6.08-1.27,9.18-1.27q80.94-.06,161.89,0,102.5,0,205,0c3.11,0,6.41-.59,9.19,1.27l0,189.39c-5.19,20.22-21.1,31.13-45.5,31.13q-147.9,0-295.82,0c-19.27,0-33-7.85-41.47-22.5C72.71,367.38,71.76,364.5,72.76,361.43Z"/><path class="cls-2" d="M414.14,62.68c23.64,0,42.83,15.95,43,36,.11,18.2-.07,36.41-.13,54.61-2.59,1.91-5.74,1.2-8.67,1.21q-140.7,0-281.41,0-43.63,0-87.28,0c-2.61,0-5.41.55-7.67-1.21,0-18.91-.52-37.83,0-56.73s20.14-33.88,42.79-33.92a3.34,3.34,0,0,1,1.59,3c.08,10.83.72,21.65-.33,32.46-1.31,2.36-2.27,1.49-3-.29s.08-3.64-.74-5.43c-6.32,4.72-9.94,17.23-4.06,27s15.38,15.09,28.62,14.82c12.8-.26,22-5.57,27.2-15.32,5.27-10,3.31-19.45-5-27.85-1.19-1.19-2.56-2.26-3-3.87-.84-7-.38-14.09-.31-21.13a3.68,3.68,0,0,1,1.61-3.4H371.67a3.3,3.3,0,0,1,1.58,3c.09,10.83.72,21.65-.32,32.46-1.31,2.36-2.27,1.49-3-.29s.09-3.64-.73-5.43c-6.32,4.72-9.94,17.23-4.07,27s15.38,15.09,28.62,14.82c12.81-.26,22.05-5.57,27.2-15.32,5.27-10,3.32-19.45-5.05-27.85-1.18-1.19-2.56-2.26-3-3.87-.84-7-.37-14.09-.31-21.13A3.71,3.71,0,0,1,414.14,62.68Z"/><path class="cls-3" d="M72.76,361.43c1.42,12.6,16.78,26.43,32.08,29a71.88,71.88,0,0,0,11.91.89c98.07,0,196.13-.22,294.19.14,21.78.08,40.25-11.44,45-28.16a8.6,8.6,0,0,1,1.09-1.82c-.18,6.11.64,12.21-.75,18.32-3.93,17.3-20.7,29.52-41.31,29.53q-150.48.07-301,0c-23.58,0-42.2-16-42.15-36.21C71.87,369.23,70.58,365.21,72.76,361.43Z"/><path class="cls-4" d="M457.08,172.08c-1.17,0-2.34.1-3.51.1H75.34c-1.17,0-2.33-.06-3.5-.1q0-8.91.1-17.83c1.72-.87,3.6-.43,5.4-.43q187.11,0,374.24,0c1.8,0,3.68-.44,5.4.43Q457,163.16,457.08,172.08Z"/><path class="cls-3" d="M157.24,62.68q.13,12.85.26,25.71c2,9.52,2.54,18.8-7.38,25.79-6.58,4.63-14.14,5.56-22.06,3-7.56-2.4-12.13-7.25-14.07-13.9a4.06,4.06,0,0,1,.55-4.09q.12-18.28.22-36.56c0-6.27,0-12.54.1-18.81C115,34,124.5,25.94,136,25.92s21,8,21.15,17.95C157.25,50.14,157.22,56.41,157.24,62.68Z"/><path class="cls-3" d="M414.14,62.68l.26,25.71c1.58,7.67,2.53,15.31-3.45,22.08A22.88,22.88,0,0,1,390,118.25c-9.36-1.18-15.65-6-18.73-13.68-.7-1.75-1.22-3.58.15-5.33q.12-18.28.23-36.56c0-6.41,0-12.81.09-19.22.15-9.88,9.79-17.75,21.4-17.54s20.74,7.79,20.89,17.54C414.15,49.87,414.12,56.27,414.14,62.68Z"/><path class="cls-5" d="M457,154.25h-385v-.92H457Z"/><path class="cls-4" d="M371.44,99.24c2.39,15.67,20.07,23.26,33.86,14.46,5.63-3.6,8.84-8.45,8.85-14.63,0-3.56.16-7.12.25-10.68,13.24,8.86,14.64,28.51.71,39.69-13.28,10.67-34.51,9.84-46.85-2.18-10.64-10.37-9.68-28.6,2.17-36.23C371.62,92.88,370,96.21,371.44,99.24Z"/><path class="cls-4" d="M114.54,99.24c1.91,13.39,14,20.88,28,17.27,8.22-2.13,14.33-8.8,14.68-16.17.2-4,.22-8,.32-12,13.23,8.86,14.63,28.51.7,39.7-13.28,10.66-34.51,9.83-46.85-2.2-10.63-10.36-9.67-28.61,2.18-36.21C114.72,92.88,113.08,96.21,114.54,99.24Z"/><text class="cls-6" transform="translate(193.16 125.79)">WEEK</text><text class="cls-7" transform="translate(200.23 352.92)">1</text></g></svg>