<?xml version="1.0" encoding="UTF-8"?>
<svg id="Layer_8" data-name="Layer 8" xmlns="http://www.w3.org/2000/svg" viewBox="0 0 512 452.12">
  <defs>
    <style>
      .cls-1 {
        fill: #fff;
        font-size: 50px;
      }

      .cls-2 {
        fill: #bc782e;
      }

      .cls-3 {
        fill: #821717;
      }

      .cls-4 {
        letter-spacing: 0em;
      }

      .cls-5 {
        fill: #ce852e;
      }

      .cls-6 {
        fill: #595959;
      }
    </style>
  </defs>
  <g>
    <path class="cls-6" d="M123.81,391.69c-6.66,.06-13.33,.08-19.99,.19-6.35,.1-11.66,2.07-15.95,5.95-1.8,1.63-1.96,2.89-.08,4.63,4.14,3.81,9.24,5.8,15.4,6.07,1.43,.06,2.86,.02,4.29,.02,99.25,0,198.49-.03,297.74,.05,11.22,0,19.25-3.39,23.18-12.53,1.58,15.62,2.05,22.87-14.66,29.08H98.06c-7.39-2.72-13.32-6.61-14.76-13.51-.63-3.03-.42-6.19-.42-9.3-.02-119.21,0-238.42-.04-357.64,0-8.92,5.85-14.27,15.22-17.72h25.75c0,121.57,0,243.14,0,364.72Z"/>
    <path class="cls-5" d="M123.81,26.97H412.78c12.11,3.33,16.37,10.31,16.35,20.53-.22,108.22-.24,216.43,.03,324.65,.03,10.77-8.05,19.6-24.12,19.54-92-.34-183.99-.16-275.99-.17-1.74,0-3.48-.11-5.23-.17,0-121.46,0-242.92,0-364.38Z"/>
    <path class="cls-2" d="M428.06,42.98c0,9.07-.24,219.27,.03,328.91,.03,10.91-8.05,19.86-24.13,19.8-92-.34-184-.17-276-.17-1.74,0-5.23-.17-5.23-.17,0,0,305.33-357.43,305.32-348.37Z"/>
  </g>
  <text class="cls-1" transform="translate(141.44 223.32)"><tspan x="0" y="0">Imme</tspan><tspan class="cls-4" x="129.95" y="0">r</tspan><tspan x="149.75" y="0">sion</tspan></text>
  <polygon class="cls-3" points="361.86 26.97 361.86 95.29 384.8 75.65 407.74 95.47 407.74 26.97 361.86 26.97"/>
</svg>