<svg xmlns="http://www.w3.org/2000/svg" viewBox="0 0 512 452.12"><defs><style>.cls-1{fill:#008cba;}.cls-2{fill:#dddfe0;}.cls-3{fill:#c1c5c6;}.cls-4{fill:#fff;}.cls-5{fill:#ffa939;}.cls-6{fill:#f4c99b;}.cls-7{fill:#24d3ea;}.cls-8{fill:#fcc43d;}.cls-9{fill:#f79392;}.cls-10{fill:#0db1cc;}.cls-11{fill:#363637;}</style></defs><g id="Layer_26" data-name="Layer 26"><rect class="cls-1" x="63.48" y="62.25" width="385.04" height="346.68" rx="33.19"/><path class="cls-2" d="M216.31,135.25A12.68,12.68,0,0,1,229,122.57h93L374.84,167v154.3a12.68,12.68,0,0,1-12.68,12.68H229a12.68,12.68,0,0,1-12.68-12.68Z"/><path class="cls-3" d="M322,122.57v31.7A12.68,12.68,0,0,0,334.68,167h40.16Z"/><path class="cls-4" d="M153.7,163.1a12.68,12.68,0,0,1,12.68-12.68h93l52.85,44.39v154.3a12.68,12.68,0,0,1-12.69,12.68H166.38a12.67,12.67,0,0,1-12.68-12.68Z"/><path class="cls-3" d="M259.38,150.42v31.71a12.69,12.69,0,0,0,12.69,12.68h40.16Z"/><path class="cls-5" d="M241.05,290H226.31V268.19H204.43v-15h21.88V231.34h14.74v21.88h22v15h-22Z"/><path class="cls-6" d="M393.21,247.76l-81.7,92.35-22.64,4.66A15.43,15.43,0,0,0,275,332.52l1.87-23,81.7-92.34Z"/><path class="cls-7" d="M393.1,247.66a.15.15,0,0,1,0,.21l-79.84,90.25c-.13.15-.33,0-.24-.18a11.56,11.56,0,0,0-17.56-14.39.13.13,0,0,1-.2-.17,11.56,11.56,0,0,0-16.57-15.57.13.13,0,0,1-.18-.19l80-90.39a.15.15,0,0,1,.21,0Z"/><rect class="cls-8" x="374.6" y="206.44" width="7.71" height="46.24" transform="translate(-44.25 360.91) rotate(-48.5)"/><path class="cls-9" d="M396.49,209.51l-.35-.31a22.87,22.87,0,0,0-32.3,2l-.16.17L398.31,242l.16-.18A22.88,22.88,0,0,0,396.49,209.51Z"/><path class="cls-10" d="M393.11,247.87l-79.94,90.36c-.12.13-.3,0-.21-.16a11.56,11.56,0,0,0-17.46-14.54c-.08.05-.16,0-.1-.1l80.4-90.88a.13.13,0,0,1,.2,0l17.1,15.12A.15.15,0,0,1,393.11,247.87Z"/><path class="cls-11" d="M288.87,344.77l-15.1,3.11L275,332.52a15.4,15.4,0,0,1,13.86,12.25Z"/></g></svg>
