<?xml version="1.0" encoding="utf-8"?>
<!-- Generator: Adobe Illustrator 26.5.0, SVG Export Plug-In . SVG Version: 6.00 Build 0)  -->
<svg version="1.1" id="Layer_8" xmlns="http://www.w3.org/2000/svg" xmlns:xlink="http://www.w3.org/1999/xlink" x="0px" y="0px"
	 viewBox="0 0 512 452.1" style="enable-background:new 0 0 512 452.1;" xml:space="preserve">
<style type="text/css">
	.st0{fill:#595959;}
	.st1{fill:#CE852E;}
	.st2{fill:#BC782E;}
	.st3{fill:#FFFFFF;}
	.st4{font-family:'ArialMT';}
	.st5{font-size:50px;}
	.st6{fill:#821717;}
</style>
<g>
	<path class="st0" d="M123.8,391.7c-6.7,0.1-13.3,0.1-20,0.2c-6.3,0.1-11.7,2.1-15.9,6c-1.8,1.6-2,2.9-0.1,4.6
		c4.1,3.8,9.2,5.8,15.4,6.1c1.4,0.1,2.9,0,4.3,0c99.3,0,198.5,0,297.7,0c11.2,0,19.2-3.4,23.2-12.5c1.6,15.6,2,22.9-14.7,29.1H98.1
		c-7.4-2.7-13.3-6.6-14.8-13.5c-0.6-3-0.4-6.2-0.4-9.3c0-119.2,0-238.4,0-357.6c0-8.9,5.8-14.3,15.2-17.7h25.8
		C123.8,148.5,123.8,270.1,123.8,391.7L123.8,391.7z"/>
	<path class="st1" d="M123.8,27h289c12.1,3.3,16.4,10.3,16.4,20.5c-0.2,108.2-0.2,216.4,0,324.6c0,10.8-8,19.6-24.1,19.5
		c-92-0.3-184-0.2-276-0.2c-1.7,0-3.5-0.1-5.2-0.2C123.8,269.9,123.8,148.4,123.8,27L123.8,27z"/>
	<path class="st2" d="M428.1,43c0,9.1-0.2,219.3,0,328.9c0,10.9-8,19.9-24.1,19.8c-92-0.3-184-0.2-276-0.2c-1.7,0-5.2-0.2-5.2-0.2
		S428.1,33.9,428.1,43L428.1,43z"/>
</g>
<text transform="matrix(1 0 0 1 150.44 223.32)" class="st3 st4 st5"> Immersion</text>
<polygon class="st6" points="361.9,27 361.9,95.3 384.8,75.7 407.7,95.5 407.7,27 "/>
</svg>
