<svg xmlns="http://www.w3.org/2000/svg" xmlns:xlink="http://www.w3.org/1999/xlink" viewBox="0 0 512 452.12"><defs><style>.cls-1{fill:none;}.cls-2{fill:#008cba;}.cls-3{clip-path:url(#clip-path);}.cls-4{fill:#ffa939;}.cls-5{fill:#f0f1f1;}.cls-6{fill:#fff;}</style><clipPath id="clip-path"><rect class="cls-1" x="65.31" y="57.76" width="377.16" height="377.16"/></clipPath></defs><g id="Layer_1" data-name="Layer 1"><rect class="cls-2" x="63.48" y="65.13" width="385.04" height="346.68" rx="33.19"/><g class="cls-3"><path class="cls-4" d="M199,287.48a13.71,13.71,0,0,0,13.71,13.72H295l41.14,41.14V301.2h13.72a13.71,13.71,0,0,0,13.71-13.72V177.77a13.71,13.71,0,0,0-13.71-13.72H212.74A13.71,13.71,0,0,0,199,177.77Z"/></g><g class="cls-3"><path class="cls-5" d="M308.75,260.06A13.72,13.72,0,0,1,295,273.77H212.74L171.6,314.91V273.77H157.88a13.71,13.71,0,0,1-13.71-13.71V150.34a13.71,13.71,0,0,1,13.71-13.72H295a13.72,13.72,0,0,1,13.72,13.72Z"/></g><g class="cls-3"><path class="cls-6" d="M306.47,142.79A13.71,13.71,0,0,0,295,136.62H157.88a13.71,13.71,0,0,0-13.71,13.72V260.06a13.71,13.71,0,0,0,13.71,13.71H171.6v3.89Z"/></g><g class="cls-3"><circle class="cls-4" cx="185.31" cy="205.2" r="13.71"/></g><g class="cls-3"><circle class="cls-4" cx="226.46" cy="205.2" r="13.71"/></g><g class="cls-3"><circle class="cls-4" cx="267.6" cy="205.2" r="13.71"/></g></g></svg>