<svg xmlns="http://www.w3.org/2000/svg" viewBox="0 0 512 452.12"><defs><style>.cls-1{fill:#008cba;}.cls-2{fill:#b3babe;}.cls-3{fill:#fff;}.cls-4{fill:#595959;}.cls-5{fill:#ffa939;}.cls-6{fill:#fdfdfd;}</style></defs><g id="Layer_30" data-name="Layer 30"><rect class="cls-1" x="63.48" y="62.97" width="385.04" height="346.68" rx="33.19"/><path class="cls-2" d="M133.4,266.39c-.9-4.79-2-9.53-2.66-14.36a129.4,129.4,0,0,1,2.1-46.78c.07-.31.1-.63.15-.94l1.14-4.88,0-.09a2.58,2.58,0,0,0,.6-1.79l.13-.41c.59-1.7,1.16-3.43,1.8-5.12,1.38-3.64,2.8-7.26,4.2-10.89h0c.33-.23.37-.6.48-.94l5.34-10.29a.58.58,0,0,0,.35-.56l.26-.42v0a1.1,1.1,0,0,0,.57-.93.25.25,0,0,0,.12-.25l.28-.41h0l.23-.32.11-.31a11.69,11.69,0,0,0,2-3.15h0l.31-.36h0l.26-.37a60.88,60.88,0,0,0,4-5.69l5.36-6.55a1.51,1.51,0,0,0,.68-.94c.1-.11.21-.21.32-.32a54.91,54.91,0,0,0,4.84-5.16.29.29,0,0,0,.3-.31l.31-.34h0l.32-.32h0l.33-.32a.29.29,0,0,0,.32-.3,53.64,53.64,0,0,0,5.17-4.83,2.8,2.8,0,0,0,1.25-1l6.56-5.34a56.23,56.23,0,0,0,5.68-4,.73.73,0,0,0,.73-.55v0a10.83,10.83,0,0,0,3.15-2h0a.56.56,0,0,0,.6-.35,9.57,9.57,0,0,0,2.61-1.59l12.85-6.48,5.48-2.25a.6.6,0,0,0,.66-.26h0A32.64,32.64,0,0,0,218,112l.63-.15,6.79-1.87c4.41-1.23,8.94-1.93,13.42-2.88h.07a1.63,1.63,0,0,0,1.37-.22,14.35,14.35,0,0,0,3.8-.43c.58,0,1.17,0,1.75,0a132.14,132.14,0,0,1,19.39-.35c4,.22,8,.76,12,1.06l0,0,.08.1.09-.07.77.17.92.11a15.13,15.13,0,0,0,3.89.69l7.06,1.59a63.08,63.08,0,0,0,7.14,2l.07-.06a17.52,17.52,0,0,0,5.28,2l7.12,2.87,13.21,6.72,12.16,8.11,6.43,5.15a.88.88,0,0,0,.68.61l.34.31.34.29,5.16,4.77.38.38.25.25.42.41.23.26.37.36,4.69,5a2.54,2.54,0,0,0,1,1.15l.33.33h0l5.15,6.43,8.49,12.82q3.49,6.91,7,13.84h0a.66.66,0,0,0,.3.67l0,0a2.06,2.06,0,0,0,.66,1.47l0,.11,2.94,8a52.6,52.6,0,0,0,2.16,7.29l.1.46c.76,3.94,1.73,7.83,2.34,11.8a142,142,0,0,1,1.53,16,131.79,131.79,0,0,1-1.26,24,99.25,99.25,0,0,1-2.26,11.31l-.12,1.2-2.17,7.48h0a.53.53,0,0,0-.24.62l-.08.39a40.83,40.83,0,0,0-1.91,5.41,51.74,51.74,0,0,0-2.34,5.78l-6.47,12.83a17.28,17.28,0,0,0-2.16,3.6,10.78,10.78,0,0,0-1.87,2.89.16.16,0,0,0-.12.19.49.49,0,0,0-.38.48l-4,5.78-5.15,6.43v0a.64.64,0,0,0-.41.6l0-.06a1,1,0,0,0-.69.69l-.25.28a49.87,49.87,0,0,0-4.54,4.88.7.7,0,0,0-.59.63l-.34.35-.31.3-.34.34-.31.27a31.83,31.83,0,0,0-3.86,3.57l-.31.32,0,0a13.23,13.23,0,0,0-2.91,2.52h0l-.4.32a.26.26,0,0,0-.23.17l-.23.21-.39.33a.76.76,0,0,0-.68.58h0l-.53.38-.4.31-.33.3h0l-.36.29h0l-.41.31-.53.39a10,10,0,0,0-2.58,1.91,8.14,8.14,0,0,0-2.24,1.61,62.63,62.63,0,0,0-5.79,3.86h0l-.44.27a.14.14,0,0,0-.19.1,1.17,1.17,0,0,0-1,.6h0l-.44.25a2,2,0,0,0-1.18.69l-.38.28h0l-8.9,4.66a1.54,1.54,0,0,0-1.08.53.18.18,0,0,0-.25.1l-.41.23a.15.15,0,0,0-.23.08l-.46.24-.11,0-.07.09a.61.61,0,0,0-.63.29h0l-14.41,5.36-.39.12a2.63,2.63,0,0,0-1.8.61l-.09,0-9.7,2.32a14,14,0,0,0-1.59.14,128.35,128.35,0,0,1-27.94,2.22c-5.52-.13-11-.81-16.46-1.42l-.68-.17-.92-.11a13.81,13.81,0,0,0-3.88-.68,48.83,48.83,0,0,0-6.43-1.52l-.77-.19-.5-.17-5.81-1.64a.54.54,0,0,0-.67-.25,36.69,36.69,0,0,0-5.76-2l-.07-.08-.1,0-.45-.24a1.08,1.08,0,0,0-1-.35,1.2,1.2,0,0,0-1-.41l-.1,0a.46.46,0,0,0-.5-.28l-.08-.08-.11,0a.86.86,0,0,0-.78-.33l0,0a.66.66,0,0,0-.68-.31h0c-4.87-2.4-9.78-4.73-14.52-7.37l-12.15-8.12-7.1-5.75h0l-.32-.3-.38-.31L167.82,326l-.37-.38-.26-.26-.38-.39-.27-.28,0,0c0-.2-.1-.28-.29-.29l0,0-4.78-5.14a1.13,1.13,0,0,0-.61-.69l-.31-.35h0l-.33-.33h0L155,311.37l-8.47-12.79-6.52-13c0-.12,0-.19-.13-.21a2.54,2.54,0,0,0-.69-1.51l0-.07-.05-.06a7.09,7.09,0,0,0-1-2.49c-.89-3-2-5.95-3.1-8.87-.91-1.45-.49-3.29-1.36-4.75a.85.85,0,0,0-.23-.82Zm21.83-32A102.8,102.8,0,1,0,257.87,131.53,102.83,102.83,0,0,0,155.23,234.42Z"/><path class="cls-3" d="M155.23,234.42A102.8,102.8,0,1,1,258,337.13,102.65,102.65,0,0,1,155.23,234.42ZM264.46,187c0-11.58,0-23.17,0-34.75,0-1.26-.34-1.66-1.61-1.62-3.11.08-6.22,0-9.33,0-2.06,0-2.06,0-2.06,2.1q0,34.42,0,68.85a2.26,2.26,0,0,1-.94,2.16,12.84,12.84,0,0,0,8.11,23.34,3.36,3.36,0,0,1,2.8,1.09q15.88,16,31.81,31.88c.83.83,1.29.94,2.15,0,2.67-2.79,5.39-5.53,8.19-8.19,1.05-1,1.1-1.56,0-2.62-10.66-10.58-21.25-21.22-31.89-31.81a2.77,2.77,0,0,1-.93-2.38A12.31,12.31,0,0,0,265.68,224a2.79,2.79,0,0,1-1.25-2.52C264.48,210,264.46,198.5,264.46,187Z"/><path class="cls-4" d="M267,190c0,12.25,0,24.49,0,36.73a2.87,2.87,0,0,0,1.52,2.69c4.47,3,6.59,7,6.23,11.91a2.81,2.81,0,0,0,1.14,2.54c12.89,11.31,25.73,22.66,38.65,33.94,1.3,1.13,1.24,1.74,0,2.8q-5.08,4.26-9.93,8.74c-1,1-1.61.85-2.61,0q-19.26-17-38.56-34a4.34,4.34,0,0,0-3.4-1.16c-7.25.26-13.37-3.42-15.64-9.26s0-11.92,5.81-15.64a2.31,2.31,0,0,0,1.14-2.31q0-36.74,0-73.46c0-2.23,0-2.23,2.5-2.23,3.77,0,7.54.06,11.31,0,1.54,0,1.95.38,1.95,1.73C266.93,165.31,267,177.67,267,190Z"/><circle class="cls-4" cx="259.03" cy="235.59" r="26.94"/><g id="bNNYpZ.tif"><path class="cls-5" d="M163.07,237a72.38,72.38,0,1,1-72.36,72.31A72.29,72.29,0,0,1,163.07,237Z"/><path class="cls-6" d="M153.94,334.57H130a13.79,13.79,0,0,1-14.12-14.08q0-16.56,0-33.11c0-2.31.82-3.12,3.16-3.12h48.79A13.78,13.78,0,0,1,182,298.34v33.11c0,2.33-.8,3.12-3.15,3.12Z"/><path class="cls-6" d="M208.7,309.47c0,7.48,0,14.95,0,22.43,0,.91.21,2-.77,2.52s-1.83-.24-2.61-.81q-9.72-7.08-19.43-14.15a1.67,1.67,0,0,1-.76-1.54c0-5.66,0-11.31,0-17a1.76,1.76,0,0,1,.87-1.6q9.87-7.16,19.71-14.37c.67-.49,1.38-1,2.22-.58s.78,1.28.79,2.06Z"/></g></g></svg>