<?xml version="1.0" encoding="UTF-8"?>
<svg id="Layer_11" data-name="Layer 11" xmlns="http://www.w3.org/2000/svg" viewBox="0 0 512 452.12">
  <defs>
    <style>
      .cls-1 {
        letter-spacing: -.04em;
      }

      .cls-2 {
        fill: #b3babe;
      }

      .cls-3 {
        fill: #e8edee;
      }

      .cls-4 {
        letter-spacing: -.06em;
      }

      .cls-5 {
        fill: #ce852e;
      }

      .cls-6 {
        fill: #ba752b;
      }

      .cls-7 {
        fill: #595959;
        font-size: 205.31px;
      }

      .cls-7, .cls-8 {
        font-family: ArialRoundedMTBold, 'Arial Rounded MT Bold';
      }

      .cls-9 {
        fill: #ffa939;
      }

      .cls-8 {
        fill: #515151;
        font-size: 46px;
      }
    </style>
  </defs>
  <path class="cls-3" d="M73.27,363.81c-.77-2.34-1.02-4.71-1.02-7.15,.06-60.73,.07-121.47,.09-182.2,2.78-1.86,6.08-1.28,9.19-1.28,53.96-.04,107.92-.03,161.88-.03,68.33,0,136.66,0,204.99,.03,3.11,0,6.4-.58,9.19,1.28,0,63.13-.02,126.26-.03,189.39-5.19,20.22-21.11,31.12-45.5,31.12-98.61,0-197.22,.04-295.83-.03-19.27-.01-33.01-7.85-41.47-22.5-1.55-2.68-2.5-5.57-1.5-8.64Z"/>
  <path class="cls-9" d="M414.65,65.06c23.64-.04,42.83,15.95,42.95,36.04,.11,18.2-.07,36.41-.12,54.61-2.59,1.91-5.75,1.2-8.67,1.21-93.8,.04-187.61,.03-281.41,.03-29.09,0-58.19,.02-87.28-.03-2.61,0-5.41,.55-7.67-1.21-.03-18.91-.52-37.83,.03-56.73,.55-18.78,20.13-33.89,42.79-33.92,1.21,.74,1.58,1.88,1.59,3.01,.08,10.82,.72,21.65-.32,32.45-1.31,2.36-2.27,1.49-3.04-.29-.74-1.73,.09-3.64-.73-5.42-6.32,4.71-9.94,17.22-4.07,26.99,5.92,9.85,15.38,15.1,28.62,14.83,12.81-.26,22.04-5.58,27.2-15.33,5.27-9.97,3.32-19.45-5.05-27.85-1.19-1.19-2.56-2.26-3.02-3.87-.84-7.04-.38-14.09-.31-21.13,.01-1.27,.27-2.55,1.61-3.4,71.48,0,142.95,0,214.43,0,1.21,.74,1.58,1.88,1.59,3.01,.08,10.82,.72,21.65-.32,32.45-1.31,2.36-2.27,1.5-3.04-.29-.74-1.73,.09-3.64-.73-5.42-6.32,4.71-9.94,17.22-4.07,26.99,5.92,9.85,15.38,15.1,28.62,14.83,12.81-.26,22.04-5.58,27.2-15.33,5.27-9.97,3.32-19.45-5.05-27.85-1.19-1.19-2.56-2.26-3.02-3.87-.84-7.04-.38-14.09-.31-21.13,.01-1.27,.27-2.55,1.61-3.4Z"/>
  <path class="cls-2" d="M73.27,363.81c1.41,12.59,16.78,26.43,32.07,28.99,3.95,.66,7.9,.89,11.91,.89,98.06-.02,196.13-.22,294.19,.14,21.77,.08,40.25-11.44,45.02-28.16,.18-.64,.72-1.21,1.09-1.81-.18,6.11,.63,12.21-.76,18.32-3.93,17.3-20.7,29.52-41.31,29.53-100.33,.05-200.65,.05-300.98,0-23.59-.01-42.21-16.04-42.15-36.21,.01-3.88-1.28-7.9,.9-11.67Z"/>
  <path class="cls-5" d="M457.58,174.46c-1.17,.03-2.34,.1-3.51,.1-126.08,0-252.15,0-378.23,0-1.17,0-2.34-.06-3.51-.1,.03-5.94,.07-11.89,.1-17.83,1.72-.87,3.6-.43,5.4-.43,124.75-.02,249.5-.02,374.24,0,1.8,0,3.68-.43,5.4,.43,.03,5.94,.07,11.89,.1,17.83Z"/>
  <path class="cls-2" d="M157.74,65.06c.09,8.57,.17,17.14,.26,25.71,1.99,9.53,2.54,18.81-7.38,25.79-6.58,4.64-14.14,5.57-22.06,3.05-7.56-2.4-12.14-7.25-14.07-13.9-.4-1.38-.55-2.82,.55-4.09,.08-12.19,.15-24.37,.22-36.56,.02-6.27-.01-12.54,.09-18.81,.16-9.92,9.64-17.93,21.15-17.95,11.47-.02,20.99,8.03,21.15,17.95,.1,6.27,.06,12.54,.09,18.81Z"/>
  <path class="cls-2" d="M414.65,65.06c.09,8.57,.17,17.14,.26,25.71,1.58,7.67,2.53,15.31-3.46,22.08-5.23,5.91-12.31,8.88-20.93,7.79-9.36-1.19-15.65-6-18.73-13.68-.7-1.75-1.22-3.59,.15-5.33,.08-12.18,.16-24.37,.23-36.56,.02-6.41-.01-12.81,.09-19.22,.15-9.88,9.79-17.75,21.4-17.54,11.66,.21,20.74,7.79,20.9,17.54,.1,6.41,.07,12.81,.09,19.22Z"/>
  <path class="cls-6" d="M457.48,156.63c-128.35,0-256.69,0-385.04,0,0-.31,0-.61,0-.92,128.34,0,256.69,0,385.03,0,0,.31,0,.61,0,.92Z"/>
  <path class="cls-5" d="M371.94,101.61c2.39,15.67,20.07,23.27,33.86,14.46,5.64-3.6,8.84-8.44,8.85-14.63,0-3.56,.16-7.12,.25-10.68,13.23,8.86,14.63,28.52,.71,39.7-13.28,10.67-34.51,9.84-46.85-2.19-10.64-10.37-9.68-28.6,2.17-36.22,1.19,3.2-.43,6.54,1.01,9.56Z"/>
  <path class="cls-5" d="M115.04,101.62c1.91,13.39,14.03,20.88,27.95,17.27,8.23-2.13,14.33-8.8,14.69-16.17,.19-3.98,.21-7.97,.31-11.95,13.23,8.86,14.63,28.52,.71,39.7-13.28,10.67-34.52,9.83-46.85-2.19-10.63-10.37-9.67-28.62,2.17-36.22,1.2,3.2-.45,6.54,1.01,9.56Z"/>
  <text class="cls-8" transform="translate(156.06 126.5)"><tspan x="0" y="0" xml:space="preserve">    </tspan><tspan class="cls-1" x="46" y="0">D</tspan><tspan class="cls-4" x="78.3" y="0">A</tspan><tspan x="108.49" y="0">Y</tspan></text>
  <text id="_0" data-name="0" class="cls-7" transform="translate(200.73 355.3)"><tspan x="0" y="0">0</tspan></text>
</svg>