<svg xmlns="http://www.w3.org/2000/svg" xmlns:xlink="http://www.w3.org/1999/xlink" viewBox="0 0 512 452.12"><defs><style>.cls-1{fill:none;}.cls-2{fill:#008cba;}.cls-3{clip-path:url(#clip-path);}.cls-4{fill:#fff;}.cls-5{fill:#f0f1f1;}.cls-6{fill:#f4d0a1;}.cls-7{fill:#edbc7c;}.cls-8{fill:#f79392;}.cls-9{fill:#e2e4e5;}.cls-10{fill:#ffa939;}.cls-11{fill:#facb1b;}.cls-12{fill:#fbe158;}.cls-13{fill:#3e3e3f;}.cls-14{fill:#0db1cc;}.cls-15{fill:#24d3ea;}.cls-16{fill:#f7b4b4;}</style><clipPath id="clip-path"><rect class="cls-1" x="87.76" y="61.83" width="364.97" height="364.97"/></clipPath></defs><g id="Layer_6" data-name="Layer 6"><rect class="cls-2" x="63.48" y="65.13" width="385.04" height="346.68" rx="33.19"/><g class="cls-3"><path class="cls-4" d="M164.07,150.88a12.74,12.74,0,0,1,12.74-12.74h93.43l53.09,44.59v155a12.74,12.74,0,0,1-12.74,12.74H176.81a12.74,12.74,0,0,1-12.74-12.74Z"/></g><g class="cls-3"><path class="cls-5" d="M270.24,138.14V170A12.74,12.74,0,0,0,283,182.73h40.35Z"/></g><g class="cls-3"><polygon class="cls-6" points="343.24 199.52 359.82 164.68 376.41 199.52 376.41 327.26 343.24 327.26 343.24 199.52"/></g><g class="cls-3"><polygon class="cls-7" points="376.41 217.77 376.41 199.52 359.82 164.68 359.82 217.77 376.41 217.77"/></g><g class="cls-3"><path class="cls-8" d="M376.41,340.53a9.94,9.94,0,0,1-10,10H353.19a10,10,0,0,1-10-10v-6.64h33.18Z"/></g><g class="cls-3"><path class="cls-9" d="M293.47,211.13a3.33,3.33,0,0,1-3.32,3.32H240.38a3.32,3.32,0,0,1,0-6.64h49.77A3.34,3.34,0,0,1,293.47,211.13Z"/></g><g class="cls-3"><path class="cls-9" d="M273.56,227.72a3.32,3.32,0,0,1-3.32,3.32H240.38a3.32,3.32,0,0,1,0-6.64h29.86A3.33,3.33,0,0,1,273.56,227.72Z"/></g><g class="cls-3"><path class="cls-9" d="M293.47,254.26a3.33,3.33,0,0,1-3.32,3.32H240.38a3.32,3.32,0,1,1,0-6.63h49.77A3.33,3.33,0,0,1,293.47,254.26Z"/></g><g class="cls-3"><path class="cls-9" d="M273.56,270.85a3.32,3.32,0,0,1-3.32,3.32H240.38a3.32,3.32,0,0,1,0-6.64h29.86A3.33,3.33,0,0,1,273.56,270.85Z"/></g><g class="cls-3"><path class="cls-9" d="M293.47,297.4a3.33,3.33,0,0,1-3.32,3.31H240.38a3.32,3.32,0,1,1,0-6.63h49.77A3.33,3.33,0,0,1,293.47,297.4Z"/></g><g class="cls-3"><path class="cls-9" d="M273.56,314a3.32,3.32,0,0,1-3.32,3.32H240.38a3.32,3.32,0,1,1,0-6.63h29.86A3.32,3.32,0,0,1,273.56,314Z"/></g><g class="cls-3"><path class="cls-10" d="M204.11,234.36l-12.52-12.53a3.32,3.32,0,0,1,4.69-4.69l7.38,7.39,14.27-17.12a3.32,3.32,0,1,1,5.09,4.25Z"/></g><g class="cls-3"><path class="cls-10" d="M204.11,277.49,191.59,265a3.32,3.32,0,0,1,4.69-4.69l7.38,7.38,14.27-17.12a3.32,3.32,0,1,1,5.09,4.25Z"/></g><g class="cls-3"><path class="cls-10" d="M204.11,320.62,191.59,308.1a3.32,3.32,0,1,1,4.69-4.69l7.38,7.38,14.27-17.11a3.31,3.31,0,1,1,5.09,4.24Z"/></g><g class="cls-3"><rect class="cls-11" x="343.23" y="323.94" width="33.18" height="9.95"/></g><g class="cls-3"><rect class="cls-12" x="343.23" y="327.26" width="16.59" height="6.64"/></g><g class="cls-3"><path class="cls-13" d="M359.87,164.63l-6.16,12.93c1.69,2.25,3.82,3.66,6.16,3.66s4.46-1.4,6.16-3.66Z"/></g><g class="cls-3"><path class="cls-14" d="M368.12,204.5a8.31,8.31,0,0,1-8-6.13.29.29,0,0,0-.57,0,8.29,8.29,0,0,1-15.71.91.31.31,0,0,0-.6.12V327.26h33.18V199.4a.3.3,0,0,0-.59-.11A8.3,8.3,0,0,1,368.12,204.5Z"/></g><g class="cls-3"><path class="cls-15" d="M343.23,327.26V199.5a.33.33,0,0,1,.64-.12,8.29,8.29,0,0,0,15.68-1,.14.14,0,1,1,.27,0v128.9Z"/></g><g class="cls-3"><path class="cls-16" d="M343.23,333.89v6.64a10,10,0,0,0,10,10h6.63V333.89Z"/></g></g></svg>