<?xml version="1.0" encoding="utf-8"?>
<!-- Generator: Adobe Illustrator 22.1.0, SVG Export Plug-In . SVG Version: 6.00 Build 0)  -->
<svg version="1.1" id="Layer_1" xmlns="http://www.w3.org/2000/svg" xmlns:xlink="http://www.w3.org/1999/xlink" x="0px" y="0px"
	 viewBox="0 0 250 250" style="enable-background:new 0 0 250 250;" xml:space="preserve">
<style type="text/css">
	.st0{fill:#076CAC;}
	.st1{fill:url(#SVGID_1_);}
	.st2{fill:#E1E328;}
	.st3{fill:#FFFFFF;}
	.st4{fill:#262262;}
</style>
<rect class="st0" width="250" height="250"/>
<image style="overflow:visible;" width="3745" height="5617" xlink:href="../../../Downloads/pexels-mart-production-7709287.jpg"  transform="matrix(5.131637e-02 0 0 5.131637e-02 127 -35)">
</image>
<image style="overflow:visible;opacity:7.000000e-02;" width="3745" height="5617" xlink:href="../../../Downloads/pexels-mart-production-7709287.jpg"  transform="matrix(5.131637e-02 0 0 5.131637e-02 127 -35)">
</image>
<linearGradient id="SVGID_1_" gradientUnits="userSpaceOnUse" x1="112.7051" y1="114.6171" x2="239.9414" y2="135.7373">
	<stop  offset="0.1498" style="stop-color:#076CAC"/>
	<stop  offset="1" style="stop-color:#076CAC;stop-opacity:0"/>
</linearGradient>
<rect x="104.5" y="-0.5" class="st1" width="138.6" height="250.5"/>
<path d="M63.2,219.1c-0.2-0.4,0-0.7,0.4-0.8l0.5-0.1c0.4-0.1,0.6,0.1,0.8,0.4c0.3,0.6,1.1,1,2,1c1.2,0,1.9-0.6,1.9-1.3
	c0-0.7-0.5-1.1-1.3-1.4l-1.5-0.5c-1.6-0.5-2.6-1.6-2.6-2.9c0-1.9,1.6-3,3.6-3c1.6,0,2.8,0.8,3.3,1.9c0.2,0.4,0,0.7-0.4,0.8l-0.5,0.1
	c-0.4,0.1-0.6,0-0.8-0.4c-0.3-0.6-0.9-0.8-1.6-0.8c-0.9,0-1.6,0.4-1.6,1.3c0,0.4,0.2,0.9,1.2,1.3l1.5,0.5c1.9,0.6,2.7,1.8,2.7,3
	c0,2-1.6,3.1-3.8,3.1C65.1,221.3,63.8,220.4,63.2,219.1"/>
<path d="M72.5,218.6V215h-0.8c-0.2,0-0.3-0.1-0.3-0.3v-0.8c0-0.2,0.1-0.3,0.3-0.3h0.9l0.3-1.6c0-0.3,0.2-0.4,0.5-0.4H74
	c0.3,0,0.5,0.2,0.5,0.5v1.6h1.9c0.2,0,0.3,0.1,0.3,0.3v0.8c0,0.2-0.1,0.3-0.3,0.3h-1.9v3.7c0,0.7,0.3,1,0.7,1c0.4,0,0.8-0.3,0.8-0.7
	c0-0.1,0-0.2,0-0.3c0-0.2,0-0.4,0.3-0.4H77c0.2,0,0.3,0.1,0.4,0.3c0.1,0.3,0.1,0.5,0.1,0.6c0,1.4-1,2.2-2.4,2.2
	C73.8,221.3,72.5,220.7,72.5,218.6"/>
<path d="M78.6,217.8v-3.7c0-0.4,0.2-0.6,0.6-0.6h0.7c0.4,0,0.6,0.2,0.6,0.6v3.6c0,1.3,0.6,1.9,1.4,1.9c0.8,0,2-0.6,2-2.4v-3.1
	c0-0.4,0.2-0.6,0.6-0.6h0.7c0.4,0,0.6,0.2,0.6,0.6v6.3c0,0.4-0.2,0.6-0.6,0.6h-0.7c-0.4,0-0.6-0.2-0.6-0.6v-0.7
	c-0.3,1-1.2,1.5-2.4,1.5C79.5,221.3,78.6,219.9,78.6,217.8"/>
<path d="M87.2,217.3c0-2.2,1.5-4,3.7-4c1,0,1.9,0.4,2.6,1.3v-3.7c0-0.4,0.2-0.6,0.6-0.6h0.7c0.4,0,0.6,0.2,0.6,0.6v9.6
	c0,0.4-0.2,0.6-0.6,0.6h-0.7c-0.4,0-0.6-0.2-0.6-0.6V220c-0.6,0.9-1.6,1.3-2.6,1.3C88.7,221.3,87.2,219.5,87.2,217.3 M93.5,217.3
	c0-1.4-0.9-2.4-2.2-2.4c-1.4,0-2.1,1.1-2.1,2.4c0,1.3,0.8,2.4,2.1,2.4C92.6,219.7,93.5,218.7,93.5,217.3"/>
<path d="M97.3,220.5v-6.3c0-0.4,0.2-0.6,0.6-0.6h0.7c0.4,0,0.6,0.2,0.6,0.6v6.3c0,0.4-0.2,0.6-0.6,0.6H98
	C97.6,221.1,97.3,220.9,97.3,220.5"/>
<path d="M100.7,217.3c0-2.2,1.8-4,4.1-4c2.3,0,4.1,1.8,4.1,4c0,2.2-1.8,4-4.1,4C102.4,221.3,100.7,219.5,100.7,217.3 M107,217.3
	c0-1.3-1-2.4-2.2-2.4c-1.3,0-2.2,1-2.2,2.4c0,1.3,1,2.3,2.2,2.3C106,219.6,107,218.6,107,217.3"/>
<path d="M109.9,219.8c-0.2-0.4,0-0.7,0.4-0.8l0.4-0.1c0.4-0.1,0.5,0.1,0.8,0.4c0.3,0.3,0.7,0.5,1.3,0.5c0.7,0,1.1-0.4,1.1-0.8
	c0-0.4-0.3-0.6-0.8-0.8l-1-0.3c-1-0.3-2-0.9-2-2.1c0-1.3,1.1-2.3,2.7-2.3c1,0,1.8,0.3,2.4,1.2c0.3,0.4,0,0.7-0.4,0.8l-0.3,0.1
	c-0.4,0.1-0.6,0-0.8-0.3c-0.2-0.3-0.5-0.3-0.8-0.3c-0.6,0-0.9,0.4-0.9,0.8c0,0.4,0.4,0.6,0.8,0.7l1,0.4c1.5,0.5,2,1.4,2,2.2
	c0,1.5-1.3,2.3-2.9,2.3C111.4,221.3,110.4,220.8,109.9,219.8"/>
<path d="M117,220.5v-6.3c0-0.4,0.2-0.6,0.6-0.6h0.7c0.4,0,0.6,0.2,0.6,0.6v6.3c0,0.4-0.2,0.6-0.6,0.6h-0.7
	C117.2,221.1,117,220.9,117,220.5"/>
<path d="M121.1,218.6V215h-0.8c-0.2,0-0.3-0.1-0.3-0.3v-0.8c0-0.2,0.1-0.3,0.3-0.3h0.9l0.3-1.6c0-0.3,0.2-0.4,0.5-0.4h0.5
	c0.3,0,0.5,0.2,0.5,0.5v1.6h1.9c0.2,0,0.3,0.1,0.3,0.3v0.8c0,0.2-0.1,0.3-0.3,0.3h-1.9v3.7c0,0.7,0.3,1,0.7,1c0.4,0,0.8-0.3,0.8-0.7
	c0-0.1,0-0.2,0-0.3c0-0.2,0-0.4,0.3-0.4h0.8c0.2,0,0.3,0.1,0.4,0.3c0.1,0.3,0.1,0.5,0.1,0.6c0,1.4-1,2.2-2.4,2.2
	C122.4,221.3,121.1,220.7,121.1,218.6"/>
<path d="M128.1,223.7l1.2-3l-2.9-6.5c-0.2-0.4,0-0.7,0.5-0.7h0.8c0.4,0,0.6,0.2,0.7,0.5l1.8,4.6l1.8-4.6c0.1-0.3,0.4-0.5,0.7-0.5
	h0.8c0.5,0,0.7,0.3,0.5,0.7l-4.2,9.7c-0.1,0.3-0.4,0.5-0.7,0.5h-0.6C128.1,224.5,127.9,224.2,128.1,223.7"/>
<rect x="98.2" y="208.3" transform="matrix(0.9851 -0.172 0.172 0.9851 -34.4169 21.7194)" class="st2" width="19.9" height="2.4"/>
<path d="M99.5,211.1c0,0.7-0.5,1.2-1.2,1.2c-0.7,0-1.2-0.5-1.2-1.2c0-0.7,0.5-1.2,1.2-1.2C99,210,99.5,210.5,99.5,211.1"/>
<path d="M119.2,207.7c0,0.7-0.5,1.2-1.2,1.2c-0.7,0-1.2-0.5-1.2-1.2s0.5-1.2,1.2-1.2C118.7,206.5,119.2,207.1,119.2,207.7"/>
<g>
	<path class="st3" d="M14.4,219.2v-6.9h1.8c0.1,0,0.2,0,0.3,0s0.2,0,0.4,0c0.2,0,0.3,0.1,0.4,0.1c0.1,0,0.2,0.1,0.4,0.2
		s0.3,0.2,0.3,0.4c0.1,0.1,0.2,0.3,0.2,0.5s0.1,0.5,0.1,0.7c0,0.6-0.2,1.1-0.5,1.5s-0.9,0.5-1.5,0.5h-1.1v2.9H14.4z M15.3,213v2.6h1
		c0.3,0,0.6-0.1,0.8-0.3c0.2-0.2,0.3-0.6,0.3-1c0-0.8-0.4-1.3-1.2-1.3H15.3z"/>
	<path class="st3" d="M20.7,219.3c-1.2,0-1.9-0.9-1.9-2.7s0.6-2.7,1.9-2.7c1.2,0,1.9,0.9,1.9,2.7S21.9,219.3,20.7,219.3z
		 M20.7,218.7c0.4,0,0.7-0.2,0.8-0.6c0.1-0.4,0.2-0.9,0.2-1.5c0-0.3,0-0.6,0-0.8c0-0.2-0.1-0.4-0.2-0.7c-0.1-0.2-0.2-0.4-0.3-0.5
		c-0.1-0.1-0.3-0.2-0.5-0.2c-0.2,0-0.4,0.1-0.5,0.2c-0.1,0.1-0.2,0.3-0.3,0.5c-0.1,0.2-0.1,0.4-0.1,0.7c0,0.2,0,0.5,0,0.8
		c0,0.3,0,0.6,0,0.8c0,0.2,0.1,0.4,0.1,0.7c0.1,0.2,0.2,0.4,0.3,0.5C20.3,218.6,20.5,218.7,20.7,218.7z"/>
	<path class="st3" d="M24.2,219.2l-1.2-5.2h0.9l0.8,4.3h0l0.9-4.3h1l0.9,4.3h0l0.8-4.3H29l-1.2,5.2h-0.9l-0.9-4.3h0l-0.9,4.3H24.2z"
		/>
	<path class="st3" d="M33.1,216.7h-2.7c0,0.2,0,0.3,0,0.4c0,0.1,0,0.3,0,0.4s0,0.3,0.1,0.4c0,0.1,0.1,0.2,0.2,0.3
		c0.1,0.1,0.2,0.2,0.3,0.3c0.1,0.1,0.3,0.1,0.4,0.1c0.2,0,0.4-0.1,0.6-0.2c0.1-0.2,0.2-0.3,0.3-0.5c0-0.2,0-0.3,0-0.5h0.8
		c0,0.2,0,0.3-0.1,0.5c-0.1,0.2-0.1,0.4-0.3,0.6c-0.1,0.2-0.3,0.4-0.5,0.5c-0.2,0.1-0.5,0.2-0.9,0.2c-0.6,0-1.1-0.2-1.4-0.7
		c-0.3-0.4-0.4-1.1-0.4-2c0-0.3,0-0.6,0-0.8c0-0.2,0.1-0.5,0.2-0.7c0.1-0.3,0.2-0.5,0.3-0.7c0.1-0.2,0.3-0.3,0.5-0.4
		c0.2-0.1,0.5-0.2,0.8-0.2c0.3,0,0.6,0.1,0.8,0.2c0.2,0.1,0.4,0.2,0.5,0.4c0.1,0.2,0.2,0.4,0.3,0.6s0.1,0.5,0.1,0.7
		c0,0.2,0,0.4,0,0.7V216.7z M30.4,216h1.9v-0.3c0-0.3-0.1-0.6-0.2-0.9c-0.1-0.2-0.4-0.4-0.7-0.4c-0.2,0-0.4,0.1-0.5,0.2
		c-0.1,0.1-0.2,0.2-0.3,0.4c-0.1,0.2-0.1,0.3-0.1,0.4c0,0.1,0,0.2,0,0.4V216z"/>
	<path class="st3" d="M34,219.2V214h0.8v0.8h0c0.3-0.6,0.7-0.9,1.1-0.9c0.2,0,0.3,0,0.4,0.1v0.8c-0.2,0-0.4,0-0.4,0
		c-0.2,0-0.5,0.1-0.7,0.3c-0.2,0.2-0.3,0.5-0.3,0.9v3.3H34z"/>
	<path class="st3" d="M40.3,216.7h-2.7c0,0.2,0,0.3,0,0.4c0,0.1,0,0.3,0,0.4s0,0.3,0.1,0.4c0,0.1,0.1,0.2,0.2,0.3
		c0.1,0.1,0.2,0.2,0.3,0.3c0.1,0.1,0.3,0.1,0.4,0.1c0.2,0,0.4-0.1,0.6-0.2c0.1-0.2,0.2-0.3,0.3-0.5c0-0.2,0-0.3,0-0.5h0.8
		c0,0.2,0,0.3-0.1,0.5c-0.1,0.2-0.1,0.4-0.3,0.6c-0.1,0.2-0.3,0.4-0.5,0.5c-0.2,0.1-0.5,0.2-0.9,0.2c-0.6,0-1.1-0.2-1.4-0.7
		c-0.3-0.4-0.4-1.1-0.4-2c0-0.3,0-0.6,0-0.8c0-0.2,0.1-0.5,0.2-0.7c0.1-0.3,0.2-0.5,0.3-0.7c0.1-0.2,0.3-0.3,0.5-0.4
		c0.2-0.1,0.5-0.2,0.8-0.2c0.3,0,0.6,0.1,0.8,0.2c0.2,0.1,0.4,0.2,0.5,0.4c0.1,0.2,0.2,0.4,0.3,0.6s0.1,0.5,0.1,0.7
		c0,0.2,0,0.4,0,0.7V216.7z M37.6,216h1.9v-0.3c0-0.3-0.1-0.6-0.2-0.9c-0.1-0.2-0.4-0.4-0.7-0.4c-0.2,0-0.4,0.1-0.5,0.2
		c-0.1,0.1-0.2,0.2-0.3,0.4c-0.1,0.2-0.1,0.3-0.1,0.4c0,0.1,0,0.2,0,0.4V216z"/>
	<path class="st3" d="M44.6,212.3v6.9h-0.8v-0.6h0c-0.1,0.2-0.2,0.4-0.4,0.5c-0.2,0.2-0.5,0.2-0.7,0.2c-1.1,0-1.7-0.9-1.7-2.7
		s0.5-2.7,1.6-2.7c0.2,0,0.5,0.1,0.7,0.2c0.2,0.1,0.4,0.3,0.5,0.5h0v-2.3H44.6z M42.1,215.1c-0.1,0.3-0.2,0.9-0.2,1.5
		c0,0.7,0.1,1.2,0.2,1.5c0.1,0.3,0.4,0.5,0.7,0.5c0.4,0,0.7-0.2,0.8-0.5c0.1-0.3,0.2-0.9,0.2-1.5c0-1.4-0.3-2-1-2
		C42.4,214.6,42.2,214.7,42.1,215.1z"/>
	<path class="st3" d="M48,219.2v-6.9h0.8v2.3h0c0.1-0.2,0.2-0.4,0.5-0.5c0.2-0.1,0.5-0.2,0.7-0.2c1.1,0,1.6,0.9,1.6,2.7
		c0,0.8-0.1,1.5-0.4,2c-0.3,0.5-0.7,0.8-1.3,0.8c-0.3,0-0.5-0.1-0.7-0.2c-0.2-0.2-0.3-0.3-0.4-0.5h0v0.6H48z M48.8,216.6
		c0,0.4,0,0.7,0.1,1c0,0.3,0.2,0.5,0.3,0.7c0.2,0.2,0.4,0.3,0.7,0.3c0.4,0,0.6-0.2,0.7-0.5s0.2-0.9,0.2-1.5c0-0.7-0.1-1.2-0.2-1.5
		c-0.1-0.3-0.4-0.5-0.7-0.5C49.1,214.6,48.8,215.2,48.8,216.6z"/>
	<path class="st3" d="M53.6,219.3l-1.5-5.3H53l1,4.2h0l0.9-4.2h0.9l-1.5,5.6c-0.1,0.2-0.1,0.4-0.2,0.5s-0.1,0.3-0.2,0.4
		c-0.1,0.1-0.2,0.3-0.4,0.3c-0.2,0.1-0.4,0.1-0.6,0.1c-0.1,0-0.3,0-0.6,0v-0.6c0.1,0,0.3,0,0.5,0c0.3,0,0.5-0.2,0.6-0.5L53.6,219.3z
		"/>
</g>
<g>
	<path class="st3" d="M15.1,75.4V62.5H19l1.8,9.1h0l1.9-9.1h3.8v12.9h-2.4V65.1h0l-2.3,10.3h-2l-2.3-10.3h0v10.3H15.1z"/>
	<path class="st3" d="M28,70.5c0-1.7,0.3-3,0.9-3.8s1.6-1.3,2.9-1.3c1.4,0,2.4,0.4,3,1.2c0.6,0.8,0.8,2.1,0.8,3.9
		c0,1.7-0.3,3-0.9,3.8c-0.6,0.8-1.6,1.3-2.9,1.3c-1.4,0-2.4-0.4-3-1.2C28.3,73.6,28,72.3,28,70.5z M30.5,69.1c0,0.3,0,0.8,0,1.4
		c0,0.6,0,1,0,1.4s0.1,0.7,0.2,1s0.2,0.6,0.4,0.7s0.4,0.2,0.7,0.2c0.5,0,0.8-0.3,1-0.8c0.2-0.5,0.3-1.4,0.3-2.6
		c0-1.2-0.1-2.1-0.3-2.6c-0.2-0.5-0.5-0.8-1-0.8c-0.3,0-0.5,0.1-0.7,0.2c-0.2,0.2-0.3,0.4-0.4,0.7C30.6,68.4,30.6,68.8,30.5,69.1z"
		/>
	<path class="st3" d="M37,75.4v-9.7h2.4v1.1h0c0.5-0.9,1.3-1.4,2.5-1.4c1.6,0,2.5,0.9,2.5,2.8v7.2h-2.5v-6.7c0-0.5-0.1-0.8-0.3-1
		c-0.2-0.2-0.4-0.3-0.8-0.3c-0.9,0-1.3,0.5-1.3,1.6v6.4H37z"/>
	<path class="st3" d="M48.2,68.7H46v-0.2c0-1,0.3-1.8,0.9-2.3c0.6-0.5,1.4-0.7,2.5-0.7c1.4,0,2.3,0.2,2.8,0.7
		c0.5,0.5,0.7,1.2,0.7,2.2v5.1c0,0.8,0.1,1.4,0.3,1.9h-2.4c-0.1-0.2-0.2-0.5-0.3-1h0c-0.3,0.5-0.6,0.8-1,1c-0.4,0.2-0.9,0.3-1.5,0.3
		c-0.8,0-1.4-0.3-1.8-0.8c-0.4-0.6-0.6-1.2-0.6-1.9c0-0.9,0.2-1.6,0.6-2c0.4-0.4,1-0.8,1.9-1l1.4-0.4c0.4-0.1,0.6-0.2,0.8-0.4
		s0.2-0.4,0.2-0.7c0-0.8-0.4-1.2-1.2-1.2c-0.4,0-0.7,0.1-0.9,0.3c-0.2,0.2-0.3,0.5-0.3,0.9V68.7z M50.5,72.4v-1.9
		c-0.3,0.2-0.7,0.4-1.1,0.5c-0.5,0.1-0.8,0.3-1.1,0.5c-0.2,0.3-0.3,0.6-0.3,1c0,0.4,0.1,0.7,0.2,1c0.2,0.3,0.4,0.4,0.7,0.4
		c0.4,0,0.7-0.1,1.1-0.4C50.3,73.3,50.5,72.9,50.5,72.4z"/>
	<path class="st3" d="M54.2,72.2h2.2v0.3c0,0.4,0.1,0.8,0.3,1c0.2,0.3,0.5,0.4,1,0.4c0.4,0,0.7-0.1,0.9-0.3c0.2-0.2,0.3-0.5,0.3-0.9
		c0-0.5-0.3-0.9-0.9-1.1l-1.7-0.6c-1.4-0.5-2.1-1.4-2.1-2.7c0-0.9,0.3-1.6,0.9-2.1s1.5-0.8,2.7-0.8c2.2,0,3.3,0.9,3.3,2.8v0.4h-2.2
		c0-0.5-0.1-0.9-0.3-1.1s-0.4-0.4-0.8-0.4c-0.3,0-0.6,0.1-0.8,0.3s-0.3,0.4-0.3,0.8c0,0.5,0.4,0.9,1.1,1.1l1.5,0.5
		c0.8,0.3,1.3,0.6,1.7,1c0.3,0.4,0.5,1,0.5,1.7c0,1-0.3,1.7-1,2.3c-0.7,0.5-1.5,0.8-2.6,0.8c-1.3,0-2.2-0.3-2.8-0.8
		c-0.5-0.5-0.8-1.3-0.8-2.3V72.2z"/>
	<path class="st3" d="M62.6,75.4V62.5h2.5v4.2h0c0.5-0.8,1.3-1.2,2.4-1.2c1.6,0,2.5,0.9,2.5,2.8v7.2h-2.5v-6.7c0-0.5-0.1-0.8-0.3-1
		c-0.2-0.2-0.4-0.3-0.8-0.3c-0.9,0-1.3,0.5-1.3,1.6v6.4H62.6z"/>
	<path class="st3" d="M75.5,72.2h2.2v0.3c0,0.4,0.1,0.8,0.3,1c0.2,0.3,0.5,0.4,1,0.4c0.4,0,0.7-0.1,0.9-0.3c0.2-0.2,0.3-0.5,0.3-0.9
		c0-0.5-0.3-0.9-0.9-1.1l-1.7-0.6c-1.4-0.5-2.1-1.4-2.1-2.7c0-0.9,0.3-1.6,0.9-2.1s1.5-0.8,2.7-0.8c2.2,0,3.3,0.9,3.3,2.8v0.4h-2.2
		c0-0.5-0.1-0.9-0.3-1.1s-0.4-0.4-0.8-0.4c-0.3,0-0.6,0.1-0.8,0.3S78,67.8,78,68.2c0,0.5,0.4,0.9,1.1,1.1l1.5,0.5
		c0.8,0.3,1.3,0.6,1.7,1c0.3,0.4,0.5,1,0.5,1.7c0,1-0.3,1.7-1,2.3c-0.7,0.5-1.5,0.8-2.6,0.8c-1.3,0-2.2-0.3-2.8-0.8
		c-0.5-0.5-0.8-1.3-0.8-2.3V72.2z"/>
	<path class="st3" d="M84.5,65.7v-2.8H87v2.8h1.4v1.7H87v5.2c0,0.4,0.1,0.7,0.2,0.8c0.1,0.2,0.4,0.2,0.7,0.2c0.2,0,0.3,0,0.6,0v1.7
		c-0.7,0.1-1.3,0.1-1.6,0.1c-0.9,0-1.6-0.2-1.9-0.5c-0.3-0.3-0.4-1-0.4-2v-5.5h-1.3v-1.7H84.5z"/>
	<path class="st3" d="M94.2,75.4v-1.1h0c-0.5,0.9-1.3,1.4-2.5,1.4c-1.6,0-2.5-0.9-2.5-2.8v-7.2h2.5v6.7c0,0.5,0.1,0.8,0.3,1
		s0.4,0.3,0.8,0.3c0.9,0,1.3-0.5,1.3-1.6v-6.4h2.5v9.7H94.2z"/>
	<path class="st3" d="M103.2,75.4v-1h0c-0.5,0.9-1.2,1.3-2.2,1.3c-1,0-1.8-0.4-2.2-1.2S98,72.3,98,70.5s0.2-3.1,0.7-3.9
		c0.5-0.8,1.2-1.2,2.2-1.2c0.9,0,1.6,0.4,2.1,1.2h0v-4.1h2.5v12.9H103.2z M100.8,68.1c-0.2,0.5-0.3,1.3-0.3,2.4s0.1,1.9,0.3,2.4
		c0.2,0.5,0.5,0.7,1,0.7c0.5,0,0.9-0.2,1-0.7c0.2-0.5,0.3-1.3,0.3-2.4s-0.1-1.9-0.3-2.4s-0.5-0.7-1-0.7
		C101.3,67.3,100.9,67.6,100.8,68.1z"/>
	<path class="st3" d="M114.3,70.9h-4.9v0.8c0,0.6,0.1,1.2,0.3,1.6c0.2,0.4,0.5,0.6,0.9,0.6c0.4,0,0.7-0.1,0.9-0.4
		c0.2-0.3,0.3-0.8,0.4-1.4h2.2c-0.1,2.3-1.3,3.5-3.5,3.5c-0.5,0-1-0.1-1.3-0.2c-0.4-0.1-0.7-0.3-1-0.4c-0.3-0.2-0.5-0.4-0.7-0.7
		s-0.3-0.6-0.4-0.8c-0.1-0.3-0.2-0.6-0.2-1c-0.1-0.4-0.1-0.7-0.1-1c0-0.3,0-0.6,0-1.1c0-0.6,0-1.1,0.1-1.5c0-0.4,0.2-0.9,0.3-1.4
		s0.4-0.8,0.7-1.1c0.3-0.3,0.7-0.5,1.1-0.7c0.5-0.2,1-0.3,1.7-0.3c1.4,0,2.3,0.4,2.8,1.2c0.5,0.8,0.8,2,0.8,3.7V70.9z M109.4,69.4
		h2.5c0-0.8-0.1-1.4-0.3-1.8c-0.2-0.4-0.5-0.5-1-0.5c-0.5,0-0.8,0.2-1,0.6c-0.2,0.4-0.3,0.8-0.3,1.4V69.4z"/>
	<path class="st3" d="M115.6,75.4v-9.7h2.4v1.1h0c0.5-0.9,1.3-1.4,2.5-1.4c1.6,0,2.5,0.9,2.5,2.8v7.2h-2.5v-6.7c0-0.5-0.1-0.8-0.3-1
		c-0.2-0.2-0.4-0.3-0.8-0.3c-0.9,0-1.3,0.5-1.3,1.6v6.4H115.6z"/>
	<path class="st3" d="M125.1,65.7v-2.8h2.5v2.8h1.4v1.7h-1.4v5.2c0,0.4,0.1,0.7,0.2,0.8s0.4,0.2,0.7,0.2c0.2,0,0.3,0,0.6,0v1.7
		c-0.7,0.1-1.3,0.1-1.6,0.1c-0.9,0-1.6-0.2-1.9-0.5c-0.3-0.3-0.4-1-0.4-2v-5.5h-1.3v-1.7H125.1z"/>
	<path class="st3" d="M129.5,72.2h2.2v0.3c0,0.4,0.1,0.8,0.3,1s0.5,0.4,1,0.4c0.4,0,0.7-0.1,0.9-0.3c0.2-0.2,0.3-0.5,0.3-0.9
		c0-0.5-0.3-0.9-0.9-1.1l-1.7-0.6c-1.4-0.5-2.1-1.4-2.1-2.7c0-0.9,0.3-1.6,0.9-2.1s1.5-0.8,2.7-0.8c2.2,0,3.3,0.9,3.3,2.8v0.4h-2.2
		c0-0.5-0.1-0.9-0.3-1.1s-0.5-0.4-0.8-0.4c-0.3,0-0.6,0.1-0.8,0.3c-0.2,0.2-0.3,0.4-0.3,0.8c0,0.5,0.4,0.9,1.1,1.1l1.5,0.5
		c0.8,0.3,1.3,0.6,1.7,1s0.5,1,0.5,1.7c0,1-0.3,1.7-1,2.3c-0.7,0.5-1.5,0.8-2.6,0.8c-1.3,0-2.2-0.3-2.8-0.8
		c-0.5-0.5-0.8-1.3-0.8-2.3V72.2z"/>
	<path class="st3" d="M149.3,69.2h-2.4c0-1.3-0.4-1.9-1.1-1.9c-0.6,0-1,0.2-1.1,0.7c-0.2,0.5-0.3,1.4-0.3,2.6c0,1.3,0.1,2.1,0.3,2.6
		s0.5,0.7,1.1,0.7c0.8,0,1.2-0.8,1.2-2.3h2.4c0,1.3-0.3,2.3-0.9,3s-1.5,1-2.8,1s-2.2-0.4-2.8-1.1c-0.6-0.8-0.9-2.1-0.9-4
		c0-1.9,0.3-3.2,1-4c0.7-0.8,1.6-1.1,2.9-1.1c1.1,0,2,0.3,2.6,1S149.3,68,149.3,69.2z"/>
	<path class="st3" d="M152.8,68.7h-2.2v-0.2c0-1,0.3-1.8,0.9-2.3c0.6-0.5,1.4-0.7,2.5-0.7c1.4,0,2.3,0.2,2.8,0.7
		c0.5,0.5,0.7,1.2,0.7,2.2v5.1c0,0.8,0.1,1.4,0.3,1.9h-2.4c-0.1-0.2-0.2-0.5-0.3-1h0c-0.3,0.5-0.6,0.8-1,1c-0.4,0.2-0.9,0.3-1.5,0.3
		c-0.8,0-1.4-0.3-1.8-0.8c-0.4-0.6-0.6-1.2-0.6-1.9c0-0.9,0.2-1.6,0.6-2c0.4-0.4,1-0.8,1.9-1l1.4-0.4c0.4-0.1,0.6-0.2,0.8-0.4
		c0.1-0.2,0.2-0.4,0.2-0.7c0-0.8-0.4-1.2-1.2-1.2c-0.4,0-0.7,0.1-0.9,0.3s-0.3,0.5-0.3,0.9V68.7z M155.1,72.4v-1.9
		c-0.3,0.2-0.7,0.4-1.1,0.5c-0.5,0.1-0.8,0.3-1.1,0.5c-0.2,0.3-0.3,0.6-0.3,1c0,0.4,0.1,0.7,0.2,1c0.2,0.3,0.4,0.4,0.7,0.4
		c0.4,0,0.7-0.1,1.1-0.4C154.9,73.3,155.1,72.9,155.1,72.4z"/>
	<path class="st3" d="M159.2,75.4v-9.7h2.4v1.1h0c0.5-0.9,1.3-1.4,2.5-1.4c1.6,0,2.5,0.9,2.5,2.8v7.2h-2.5v-6.7c0-0.5-0.1-0.8-0.3-1
		c-0.2-0.2-0.4-0.3-0.8-0.3c-0.9,0-1.3,0.5-1.3,1.6v6.4H159.2z"/>
	<path class="st3" d="M174.8,68.7h-2.2v-0.2c0-1,0.3-1.8,0.9-2.3c0.6-0.5,1.4-0.7,2.5-0.7c1.4,0,2.3,0.2,2.8,0.7
		c0.5,0.5,0.7,1.2,0.7,2.2v5.1c0,0.8,0.1,1.4,0.3,1.9h-2.4c-0.1-0.2-0.2-0.5-0.3-1h0c-0.3,0.5-0.6,0.8-1,1c-0.4,0.2-0.9,0.3-1.5,0.3
		c-0.8,0-1.4-0.3-1.8-0.8c-0.4-0.6-0.6-1.2-0.6-1.9c0-0.9,0.2-1.6,0.6-2c0.4-0.4,1-0.8,1.9-1l1.4-0.4c0.4-0.1,0.6-0.2,0.8-0.4
		c0.1-0.2,0.2-0.4,0.2-0.7c0-0.8-0.4-1.2-1.2-1.2c-0.4,0-0.7,0.1-0.9,0.3s-0.3,0.5-0.3,0.9V68.7z M177.1,72.4v-1.9
		c-0.3,0.2-0.7,0.4-1.1,0.5c-0.5,0.1-0.8,0.3-1.1,0.5c-0.2,0.3-0.3,0.6-0.3,1c0,0.4,0.1,0.7,0.2,1c0.2,0.3,0.4,0.4,0.7,0.4
		c0.4,0,0.7-0.1,1.1-0.4C176.9,73.3,177.1,72.9,177.1,72.4z"/>
	<path class="st3" d="M180.8,72.2h2.2v0.3c0,0.4,0.1,0.8,0.3,1c0.2,0.3,0.5,0.4,1,0.4c0.4,0,0.7-0.1,0.9-0.3
		c0.2-0.2,0.3-0.5,0.3-0.9c0-0.5-0.3-0.9-0.9-1.1l-1.7-0.6c-1.4-0.5-2.1-1.4-2.1-2.7c0-0.9,0.3-1.6,0.9-2.1s1.5-0.8,2.7-0.8
		c2.2,0,3.3,0.9,3.3,2.8v0.4h-2.2c0-0.5-0.1-0.9-0.3-1.1s-0.4-0.4-0.8-0.4c-0.3,0-0.6,0.1-0.8,0.3c-0.2,0.2-0.3,0.4-0.3,0.8
		c0,0.5,0.4,0.9,1.1,1.1l1.5,0.5c0.8,0.3,1.3,0.6,1.7,1c0.3,0.4,0.5,1,0.5,1.7c0,1-0.3,1.7-1,2.3c-0.7,0.5-1.5,0.8-2.6,0.8
		c-1.3,0-2.2-0.3-2.8-0.8c-0.5-0.5-0.8-1.3-0.8-2.3V72.2z"/>
	<path class="st3" d="M189.3,62.5h2.5v6.8h0l2.5-3.6h2.7l-2.8,3.8l3.2,5.9h-2.7l-2.1-4l-0.9,1.2v2.8h-2.5V62.5z"/>
	<path class="st3" d="M15.6,98.4v-8h-1.3v-1.7h1.3v-1.1c0-0.8,0.2-1.4,0.7-1.8c0.4-0.4,1.1-0.5,1.9-0.5c0.4,0,0.9,0,1.3,0.1v1.8
		c-0.1,0-0.3,0-0.5,0c-0.3,0-0.6,0.1-0.7,0.2S18,87.6,18,87.8v0.8h1.4v1.7H18v8H15.6z"/>
	<path class="st3" d="M20,93.5c0-1.7,0.3-3,0.9-3.8s1.6-1.3,2.9-1.3c1.4,0,2.4,0.4,3,1.2c0.6,0.8,0.8,2.1,0.8,3.9
		c0,1.7-0.3,3-0.9,3.8c-0.6,0.8-1.6,1.3-2.9,1.3c-1.4,0-2.4-0.4-3-1.2C20.3,96.6,20,95.3,20,93.5z M22.5,92.1c0,0.3,0,0.8,0,1.4
		s0,1,0,1.4c0,0.3,0.1,0.7,0.2,1s0.2,0.6,0.4,0.7s0.4,0.2,0.7,0.2c0.5,0,0.8-0.3,1-0.8c0.2-0.5,0.3-1.4,0.3-2.6
		c0-1.2-0.1-2.1-0.3-2.6c-0.2-0.5-0.5-0.8-1-0.8c-0.3,0-0.5,0.1-0.7,0.2s-0.3,0.4-0.4,0.7C22.6,91.4,22.6,91.8,22.5,92.1z"/>
	<path class="st3" d="M29,98.4v-9.7h2.4V90h0c0.6-1,1.3-1.5,2.2-1.5c0.1,0,0.3,0,0.4,0v2.4c-0.3,0-0.6,0-0.8,0
		c-0.5,0-0.9,0.1-1.3,0.4s-0.5,0.7-0.5,1.3v5.8H29z"/>
	<path class="st3" d="M38.9,95.2h2.2v0.3c0,0.4,0.1,0.8,0.3,1c0.2,0.3,0.5,0.4,1,0.4c0.4,0,0.7-0.1,0.9-0.3c0.2-0.2,0.3-0.5,0.3-0.9
		c0-0.5-0.3-0.9-0.9-1.1L41,94.1c-1.4-0.5-2.1-1.4-2.1-2.7c0-0.9,0.3-1.6,0.9-2.1s1.5-0.8,2.7-0.8c2.2,0,3.3,0.9,3.3,2.8v0.4h-2.2
		c0-0.5-0.1-0.9-0.3-1.1c-0.2-0.2-0.4-0.4-0.8-0.4c-0.3,0-0.6,0.1-0.8,0.3c-0.2,0.2-0.3,0.4-0.3,0.8c0,0.5,0.4,0.9,1.1,1.1l1.5,0.5
		c0.8,0.3,1.3,0.6,1.7,1c0.3,0.4,0.5,1,0.5,1.7c0,1-0.3,1.7-1,2.3c-0.7,0.5-1.5,0.8-2.6,0.8c-1.3,0-2.2-0.3-2.8-0.8
		c-0.5-0.5-0.8-1.3-0.8-2.3V95.2z"/>
	<path class="st3" d="M47.8,88.7v-2.8h2.5v2.8h1.4v1.7h-1.4v5.2c0,0.4,0.1,0.7,0.2,0.8c0.1,0.2,0.4,0.2,0.7,0.2c0.2,0,0.3,0,0.6,0
		v1.7c-0.7,0.1-1.3,0.1-1.6,0.1c-0.9,0-1.6-0.2-1.9-0.5c-0.3-0.3-0.4-1-0.4-2v-5.5h-1.3v-1.7H47.8z"/>
	<path class="st3" d="M57.6,98.4v-1.1h0c-0.5,0.9-1.3,1.4-2.5,1.4c-1.6,0-2.5-0.9-2.5-2.8v-7.2h2.5v6.7c0,0.5,0.1,0.8,0.3,1
		s0.4,0.3,0.8,0.3c0.9,0,1.3-0.5,1.3-1.6v-6.4H60v9.7H57.6z"/>
	<path class="st3" d="M66.6,98.4v-1h0c-0.5,0.9-1.2,1.3-2.2,1.3c-1,0-1.8-0.4-2.2-1.2s-0.7-2.1-0.7-3.9s0.2-3.1,0.7-3.9
		c0.5-0.8,1.2-1.2,2.2-1.2c0.9,0,1.6,0.4,2.1,1.2h0v-4.1H69v12.9H66.6z M64.1,91.1c-0.2,0.5-0.3,1.3-0.3,2.4s0.1,1.9,0.3,2.4
		c0.2,0.5,0.5,0.7,1,0.7c0.5,0,0.9-0.2,1-0.7c0.2-0.5,0.3-1.3,0.3-2.4s-0.1-1.9-0.3-2.4s-0.5-0.7-1-0.7
		C64.6,90.3,64.3,90.6,64.1,91.1z"/>
	<path class="st3" d="M70.6,101.5v-1.9c0.2,0,0.4,0.1,0.6,0.1c0.8,0,1.3-0.5,1.3-1.4l-2.7-9.7h2.6l1.4,6.7h0l1.3-6.7h2.5l-2.3,9
		c-0.2,0.9-0.4,1.5-0.6,2s-0.4,0.8-0.7,1.1s-0.6,0.5-1,0.5s-0.8,0.1-1.4,0.1H70.6z"/>
	<path class="st3" d="M82.9,98.4V85.5h2.5v4.2h0c0.5-0.8,1.3-1.2,2.4-1.2c1.6,0,2.5,0.9,2.5,2.8v7.2h-2.5v-6.7c0-0.5-0.1-0.8-0.3-1
		c-0.2-0.2-0.4-0.3-0.8-0.3c-0.9,0-1.3,0.5-1.3,1.6v6.4H82.9z"/>
	<path class="st3" d="M99,93.9H94v0.8c0,0.6,0.1,1.2,0.3,1.6c0.2,0.4,0.5,0.6,0.9,0.6c0.4,0,0.7-0.1,0.9-0.4
		c0.2-0.3,0.3-0.8,0.4-1.4h2.2c-0.1,2.3-1.3,3.5-3.5,3.5c-0.5,0-1-0.1-1.3-0.2c-0.4-0.1-0.7-0.3-1-0.4c-0.3-0.2-0.5-0.4-0.7-0.7
		s-0.3-0.6-0.4-0.8c-0.1-0.3-0.2-0.6-0.2-1c-0.1-0.4-0.1-0.7-0.1-1c0-0.3,0-0.6,0-1.1c0-0.6,0-1.1,0.1-1.5c0-0.4,0.2-0.9,0.3-1.3
		s0.4-0.8,0.7-1.1c0.3-0.3,0.7-0.5,1.1-0.7c0.5-0.2,1-0.3,1.7-0.3c1.4,0,2.3,0.4,2.8,1.2c0.5,0.8,0.8,2,0.8,3.7V93.9z M94,92.4h2.5
		c0-0.8-0.1-1.4-0.3-1.8c-0.2-0.4-0.5-0.5-1-0.5c-0.5,0-0.8,0.2-1,0.6c-0.2,0.4-0.3,0.8-0.3,1.4V92.4z"/>
	<path class="st3" d="M100.3,98.4V85.5h2.5v12.9H100.3z"/>
	<path class="st3" d="M104.6,101.5V88.7h2.4v1h0c0.5-0.9,1.2-1.3,2.2-1.3c1,0,1.8,0.4,2.2,1.2c0.5,0.8,0.7,2.1,0.7,3.9
		s-0.2,3.1-0.7,3.9s-1.2,1.2-2.2,1.2c-0.9,0-1.6-0.4-2.1-1.2h0v4.1H104.6z M107.3,91.1c-0.2,0.5-0.3,1.3-0.3,2.4s0.1,1.9,0.3,2.4
		c0.2,0.5,0.5,0.7,1,0.7c0.5,0,0.9-0.2,1-0.7c0.2-0.5,0.3-1.3,0.3-2.4s-0.1-1.9-0.3-2.4c-0.2-0.5-0.5-0.7-1-0.7
		C107.9,90.3,107.5,90.6,107.3,91.1z"/>
	<path class="st3" d="M125.2,96.4v2h-7.8c0-1.1,0.2-2.1,0.7-2.9c0.5-0.9,1.2-1.7,2.1-2.6l1-1c0.6-0.5,0.9-0.9,1.1-1.3
		s0.3-0.9,0.3-1.6c0-1.1-0.4-1.6-1.3-1.6c-0.6,0-1,0.2-1.2,0.6c-0.2,0.4-0.3,1-0.3,1.9h-2.5v-0.5c0-2.5,1.3-3.7,4-3.7
		c1.3,0,2.2,0.3,2.9,0.9c0.6,0.6,1,1.5,1,2.6c0,0.8-0.1,1.5-0.4,2.2c-0.3,0.6-0.8,1.2-1.5,1.9l-1.4,1.3c-0.7,0.6-1.2,1.3-1.3,1.9
		H125.2z"/>
	<path class="st3" d="M126,95.7v-2.1l4.2-8h2.7v8.1h1.2v2h-1.2v2.6h-2.4v-2.6H126z M130.5,93.7v-4.8h0l-2.5,4.8H130.5z"/>
	<path class="st3" d="M134.3,98.6l4.1-13.4h2l-4.1,13.4H134.3z"/>
	<path class="st3" d="M140.7,85.9h7.8v2c-1,1.4-1.8,3.1-2.5,4.9c-0.6,1.8-1.1,3.7-1.3,5.6h-2.7c0.5-3.9,1.8-7.4,4-10.3h-5.4V85.9z"
		/>
	<path class="st3" d="M149.9,95.6h2.4v2.3c0,1.1-0.2,1.9-0.5,2.4c-0.3,0.6-1,0.9-1.9,1v-1.3c0.3,0,0.5-0.2,0.7-0.5
		c0.2-0.3,0.2-0.6,0.2-0.9v-0.3h-0.9V95.6z"/>
	<path class="st3" d="M158,94.6h2.5c0,0.8,0.1,1.4,0.3,1.7c0.2,0.4,0.6,0.5,1.1,0.5c0.6,0,1-0.2,1.1-0.5c0.2-0.4,0.3-0.9,0.3-1.5
		c0-0.7-0.1-1.2-0.4-1.6c-0.2-0.4-0.7-0.6-1.3-0.6h-0.9V91h0.8c0.5,0,0.9-0.2,1.1-0.6c0.2-0.4,0.4-0.9,0.4-1.4c0-0.6-0.1-1-0.3-1.3
		c-0.2-0.3-0.5-0.4-0.9-0.4c-0.5,0-0.9,0.2-1,0.5c-0.2,0.3-0.3,0.9-0.3,1.5h-2.4c0-1.2,0.3-2.2,1-2.8c0.6-0.6,1.6-1,2.8-1
		c2.4,0,3.7,1.1,3.7,3.3c0,0.8-0.2,1.4-0.5,1.9s-0.8,0.8-1.4,0.9v0c1.5,0.2,2.3,1.2,2.3,3c0,0.5-0.1,0.9-0.2,1.3
		c-0.1,0.4-0.3,0.8-0.6,1.2s-0.7,0.7-1.3,1c-0.6,0.2-1.3,0.4-2.1,0.4c-1.2,0-2.1-0.3-2.8-1C158.3,96.9,158,95.9,158,94.6L158,94.6z"
		/>
	<path class="st3" d="M174.3,88.9h-2.5c0-1-0.4-1.5-1.2-1.5c-0.3,0-0.6,0.1-0.8,0.2c-0.2,0.2-0.4,0.4-0.5,0.7
		c-0.1,0.3-0.2,0.6-0.2,1c0,0.4-0.1,0.8-0.1,1.3v0.6h0c0.5-0.7,1.3-1.1,2.4-1.1c1.1,0,1.9,0.4,2.4,1.1s0.7,1.7,0.7,2.9
		c0,3-1.4,4.6-4.1,4.6c-0.7,0-1.3-0.1-1.8-0.3s-0.9-0.5-1.2-0.9c-0.3-0.3-0.5-0.8-0.7-1.3c-0.2-0.5-0.3-1.1-0.3-1.6
		c0-0.5-0.1-1.1-0.1-1.8c0-0.5,0-0.9,0-1.2c0-0.3,0-0.7,0-1.1s0.1-0.8,0.1-1.1s0.1-0.6,0.2-1c0.1-0.4,0.2-0.7,0.4-0.9
		s0.3-0.5,0.5-0.7s0.5-0.4,0.7-0.6c0.3-0.1,0.6-0.2,1-0.3c0.4-0.1,0.8-0.1,1.3-0.1c0.5,0,0.9,0.1,1.3,0.2c0.4,0.1,0.8,0.3,1.1,0.5
		s0.6,0.6,0.8,1C174.2,87.8,174.3,88.3,174.3,88.9z M169.2,94.4c0,0.8,0.1,1.5,0.3,1.9c0.2,0.4,0.6,0.6,1.1,0.6c0.6,0,1-0.2,1.1-0.6
		c0.2-0.4,0.3-1,0.3-1.9c0-0.9-0.1-1.5-0.3-1.9c-0.2-0.4-0.6-0.6-1.1-0.6c-0.5,0-0.9,0.2-1.1,0.6C169.3,92.9,169.2,93.5,169.2,94.4z
		"/>
	<path class="st3" d="M182.5,85.9v2h-4.7l-0.3,2.9h0c0.5-0.6,1.2-1,2.3-1c0.6,0,1.1,0.1,1.5,0.3c0.4,0.2,0.7,0.5,1,0.9
		c0.2,0.4,0.4,0.8,0.5,1.3c0.1,0.5,0.2,1,0.2,1.5c0,1.5-0.3,2.7-0.9,3.5s-1.7,1.2-3.2,1.2c-0.8,0-1.4-0.1-1.9-0.3
		c-0.5-0.2-0.9-0.5-1.2-0.9s-0.4-0.8-0.5-1.1c-0.1-0.4-0.1-0.8-0.1-1.2v-0.3h2.5c0,1.4,0.4,2.1,1.3,2.1c1,0,1.5-0.8,1.5-2.5
		c0-1.1-0.1-1.8-0.3-2.1s-0.6-0.6-1.2-0.6c-0.7,0-1.1,0.4-1.2,1.2h-2.3l0.5-6.9H182.5z"/>
	<path class="st3" d="M184.5,95.6h2.4v2.8h-2.4V95.6z"/>
	<path class="st3" d="M14.8,119.5h1.5v6.7c0,1.1,0.5,1.7,1.4,1.7c0.9,0,1.4-0.6,1.4-1.7v-6.7h1.5v6.5c0,1-0.2,1.8-0.7,2.2
		s-1.2,0.7-2.1,0.7c-0.9,0-1.6-0.2-2.1-0.7s-0.7-1.2-0.7-2.2V119.5z"/>
	<path class="st3" d="M21.8,131.1v-9.3h1.3v0.9h0c0.3-0.7,0.8-1,1.6-1c1.5,0,2.2,1.3,2.2,3.8c0,0.7-0.1,1.3-0.2,1.8
		c-0.1,0.5-0.3,0.9-0.5,1.1c-0.2,0.2-0.5,0.4-0.7,0.5c-0.2,0.1-0.5,0.2-0.7,0.2c-0.8,0-1.3-0.3-1.6-1h0v3.1H21.8z M23.2,125.2
		c0,0.9,0.1,1.6,0.2,2c0.2,0.4,0.5,0.6,0.9,0.6c0.4,0,0.7-0.2,0.9-0.6c0.2-0.4,0.3-1,0.3-2c0-0.9-0.1-1.5-0.2-1.9
		c-0.2-0.4-0.5-0.6-0.9-0.6c-0.5,0-0.8,0.2-0.9,0.6S23.2,124.4,23.2,125.2z"/>
	<path class="st3" d="M28.2,128.8v-9.3h1.4v9.3H28.2z"/>
	<path class="st3" d="M30.7,125.3c0-1.2,0.2-2.1,0.6-2.7c0.4-0.6,1.1-1,2-1c1,0,1.6,0.3,2,1c0.4,0.6,0.6,1.5,0.6,2.7
		c0,2.5-0.9,3.7-2.6,3.7C31.6,129,30.7,127.7,30.7,125.3z M32.1,125.3c0,1,0.1,1.6,0.2,2c0.2,0.4,0.5,0.6,1,0.6c0.5,0,0.8-0.2,1-0.6
		c0.2-0.4,0.2-1.1,0.2-2c0-0.9-0.1-1.5-0.2-2c-0.2-0.4-0.5-0.7-1-0.7c-0.5,0-0.8,0.2-0.9,0.7C32.2,123.7,32.1,124.4,32.1,125.3z"/>
	<path class="st3" d="M41.6,123.3v4c0,0.1,0,0.2,0.1,0.3c0.1,0.1,0.2,0.1,0.3,0.1s0.2,0,0.2,0v0.9c-0.2,0.1-0.5,0.2-0.7,0.2
		c-0.8,0-1.1-0.3-1.2-0.9h0c-0.4,0.7-1,1-1.7,1c-0.6,0-1-0.2-1.3-0.5c-0.3-0.3-0.5-0.8-0.5-1.5c0-0.7,0.1-1.2,0.4-1.5
		c0.3-0.3,0.7-0.5,1.2-0.7l1.1-0.3c0.3-0.1,0.5-0.2,0.6-0.3c0.1-0.1,0.2-0.3,0.2-0.6c0-0.3-0.1-0.6-0.2-0.8s-0.4-0.3-0.7-0.3
		c-0.4,0-0.7,0.1-0.9,0.4s-0.2,0.6-0.2,1h-1.3c0-0.8,0.2-1.3,0.6-1.7c0.4-0.4,1-0.6,1.9-0.6c0.7,0,1.2,0.1,1.6,0.4
		S41.6,122.7,41.6,123.3z M40.3,126.2v-1.2c-0.1,0.1-0.4,0.2-0.8,0.4s-0.7,0.2-0.7,0.3c-0.4,0.2-0.6,0.6-0.6,1.1
		c0,0.3,0.1,0.6,0.2,0.8c0.2,0.2,0.4,0.3,0.6,0.3c0.4,0,0.7-0.1,0.9-0.4C40.2,127.2,40.3,126.8,40.3,126.2z"/>
	<path class="st3" d="M46.6,128.8v-0.9h0c-0.3,0.7-0.8,1-1.5,1c-0.8,0-1.4-0.3-1.7-1c-0.4-0.6-0.5-1.6-0.5-2.8
		c0-0.7,0.1-1.4,0.2-1.9c0.1-0.5,0.3-0.9,0.5-1.1s0.4-0.4,0.7-0.5c0.2-0.1,0.5-0.1,0.8-0.1c0.8,0,1.3,0.3,1.6,1h0v-3.1h1.4v9.3H46.6
		z M46.6,125.4c0-0.9-0.1-1.6-0.3-2c-0.2-0.4-0.5-0.6-1-0.6c-0.4,0-0.7,0.2-0.9,0.6c-0.2,0.4-0.2,1-0.2,2c0,0.9,0.1,1.5,0.2,1.9
		c0.2,0.4,0.5,0.6,0.9,0.6c0.5,0,0.8-0.2,0.9-0.6S46.6,126.2,46.6,125.4z"/>
	<path class="st3" d="M57,123.3v4c0,0.1,0,0.2,0.1,0.3c0.1,0.1,0.2,0.1,0.3,0.1s0.2,0,0.2,0v0.9c-0.2,0.1-0.5,0.2-0.7,0.2
		c-0.8,0-1.1-0.3-1.2-0.9h0c-0.4,0.7-1,1-1.7,1c-0.6,0-1-0.2-1.3-0.5c-0.3-0.3-0.5-0.8-0.5-1.5c0-0.7,0.1-1.2,0.4-1.5
		c0.3-0.3,0.7-0.5,1.2-0.7l1.1-0.3c0.3-0.1,0.5-0.2,0.6-0.3c0.1-0.1,0.2-0.3,0.2-0.6c0-0.3-0.1-0.6-0.2-0.8s-0.4-0.3-0.7-0.3
		c-0.4,0-0.7,0.1-0.9,0.4s-0.2,0.6-0.2,1h-1.3c0-0.8,0.2-1.3,0.6-1.7c0.4-0.4,1-0.6,1.9-0.6c0.7,0,1.2,0.1,1.6,0.4
		S57,122.7,57,123.3z M55.7,126.2v-1.2c-0.1,0.1-0.4,0.2-0.8,0.4s-0.7,0.2-0.7,0.3c-0.4,0.2-0.6,0.6-0.6,1.1c0,0.3,0.1,0.6,0.2,0.8
		c0.2,0.2,0.4,0.3,0.6,0.3c0.4,0,0.7-0.1,0.9-0.4C55.5,127.2,55.7,126.8,55.7,126.2z"/>
	<path class="st3" d="M58.4,128.8v-7h1.3v0.8h0c0.2-0.3,0.4-0.6,0.7-0.7s0.7-0.3,1.1-0.3c0.6,0,1,0.1,1.3,0.4
		c0.3,0.3,0.4,0.8,0.4,1.5v5.3h-1.4V124c0-0.5-0.1-0.8-0.2-1c-0.1-0.2-0.4-0.3-0.8-0.3c-0.3,0-0.6,0.1-0.8,0.4
		c-0.2,0.2-0.3,0.6-0.3,1v4.7H58.4z"/>
	<path class="st3" d="M64.1,121.8h1.5l1.2,5.3h0l1.1-5.3h1.5l-1.9,7.3c-0.3,0.9-0.6,1.5-0.9,1.8s-0.8,0.4-1.6,0.4
		c-0.1,0-0.3,0-0.6-0.1V130c0.2,0,0.4,0.1,0.5,0.1c0.3,0,0.5,0,0.6-0.1c0.1-0.1,0.3-0.2,0.3-0.4l0.2-0.6L64.1,121.8z"/>
	<path class="st3" d="M76.9,128.8v-0.9h0c-0.3,0.7-0.8,1-1.5,1c-0.8,0-1.4-0.3-1.7-1c-0.4-0.6-0.5-1.6-0.5-2.8
		c0-0.7,0.1-1.4,0.2-1.9c0.1-0.5,0.3-0.9,0.5-1.1s0.4-0.4,0.7-0.5c0.2-0.1,0.5-0.1,0.8-0.1c0.8,0,1.3,0.3,1.6,1h0v-3.1h1.4v9.3H76.9
		z M76.9,125.4c0-0.9-0.1-1.6-0.3-2c-0.2-0.4-0.5-0.6-1-0.6c-0.4,0-0.7,0.2-0.9,0.6c-0.2,0.4-0.2,1-0.2,2c0,0.9,0.1,1.5,0.2,1.9
		c0.2,0.4,0.5,0.6,0.9,0.6c0.5,0,0.8-0.2,0.9-0.6S76.9,126.2,76.9,125.4z"/>
	<path class="st3" d="M79.6,128.8v-7H81v1.1h0c0.3-0.8,0.9-1.3,1.6-1.3c0.1,0,0.2,0,0.3,0.1v1.4c-0.2-0.1-0.4-0.1-0.6-0.1
		c-0.4,0-0.7,0.1-1,0.4c-0.3,0.2-0.4,0.6-0.4,1.2v4.2H79.6z"/>
	<path class="st3" d="M88.3,123.3v4c0,0.1,0,0.2,0.1,0.3c0.1,0.1,0.2,0.1,0.3,0.1s0.2,0,0.2,0v0.9c-0.2,0.1-0.5,0.2-0.7,0.2
		c-0.8,0-1.1-0.3-1.2-0.9h0c-0.4,0.7-1,1-1.7,1c-0.6,0-1-0.2-1.3-0.5c-0.3-0.3-0.5-0.8-0.5-1.5c0-0.7,0.1-1.2,0.4-1.5
		c0.3-0.3,0.7-0.5,1.2-0.7l1.1-0.3c0.3-0.1,0.5-0.2,0.6-0.3c0.1-0.1,0.2-0.3,0.2-0.6c0-0.3-0.1-0.6-0.2-0.8s-0.4-0.3-0.7-0.3
		c-0.4,0-0.7,0.1-0.9,0.4s-0.2,0.6-0.2,1h-1.3c0-0.8,0.2-1.3,0.6-1.7c0.4-0.4,1-0.6,1.9-0.6c0.7,0,1.2,0.1,1.6,0.4
		S88.3,122.7,88.3,123.3z M86.9,126.2v-1.2c-0.1,0.1-0.4,0.2-0.8,0.4s-0.7,0.2-0.7,0.3c-0.4,0.2-0.6,0.6-0.6,1.1
		c0,0.3,0.1,0.6,0.2,0.8c0.2,0.2,0.4,0.3,0.6,0.3c0.4,0,0.7-0.1,0.9-0.4C86.8,127.2,86.9,126.8,86.9,126.2z"/>
	<path class="st3" d="M90.1,128.8v-6h-1v-1h1v-0.6c0-0.6,0.1-1.1,0.4-1.4s0.7-0.4,1.3-0.4c0.3,0,0.6,0,0.8,0v1.1h-0.4
		c-0.5,0-0.8,0.2-0.8,0.7v0.6h1.1v1h-1.1v6H90.1z"/>
	<path class="st3" d="M92.7,122.8v-1h1v-2H95v2h1.1v1H95v4.2c0,0.3,0,0.5,0.1,0.6c0.1,0.1,0.3,0.2,0.5,0.2c0.2,0,0.4,0,0.5,0v1
		c-0.3,0.1-0.7,0.1-1.1,0.1c-0.5,0-0.9-0.1-1.1-0.3s-0.3-0.7-0.3-1.4v-4.3H92.7z"/>
	<path class="st3" d="M100.5,128.8v-6h-1v-1h1v-0.6c0-0.6,0.1-1.1,0.4-1.4s0.7-0.4,1.3-0.4c0.3,0,0.6,0,0.8,0v1.1h-0.4
		c-0.5,0-0.8,0.2-0.8,0.7v0.6h1.1v1h-1.1v6H100.5z"/>
	<path class="st3" d="M103.4,125.3c0-1.2,0.2-2.1,0.6-2.7c0.4-0.6,1.1-1,2-1c1,0,1.6,0.3,2,1c0.4,0.6,0.6,1.5,0.6,2.7
		c0,2.5-0.9,3.7-2.6,3.7C104.2,129,103.4,127.7,103.4,125.3z M104.8,125.3c0,1,0.1,1.6,0.2,2c0.2,0.4,0.5,0.6,1,0.6
		c0.5,0,0.8-0.2,1-0.6c0.2-0.4,0.2-1.1,0.2-2c0-0.9-0.1-1.5-0.2-2c-0.2-0.4-0.5-0.7-1-0.7c-0.5,0-0.8,0.2-0.9,0.7
		C104.9,123.7,104.8,124.4,104.8,125.3z"/>
	<path class="st3" d="M109.7,128.8v-7h1.4v1.1h0c0.3-0.8,0.9-1.3,1.6-1.3c0.1,0,0.2,0,0.3,0.1v1.4c-0.2-0.1-0.4-0.1-0.6-0.1
		c-0.4,0-0.7,0.1-1,0.4c-0.3,0.2-0.4,0.6-0.4,1.2v4.2H109.7z"/>
	<path class="st3" d="M117.3,128.8v-6h-1v-1h1v-0.6c0-0.6,0.1-1.1,0.4-1.4s0.7-0.4,1.3-0.4c0.3,0,0.6,0,0.8,0v1.1h-0.4
		c-0.5,0-0.8,0.2-0.8,0.7v0.6h1.1v1h-1.1v6H117.3z"/>
	<path class="st3" d="M125.4,125.5h-3.7v0.4c0,0.3,0,0.5,0,0.7c0,0.2,0.1,0.4,0.1,0.7c0.1,0.2,0.2,0.4,0.4,0.5
		c0.2,0.1,0.4,0.2,0.6,0.2c0.2,0,0.4-0.1,0.6-0.2c0.2-0.1,0.3-0.3,0.3-0.5c0.1-0.2,0.1-0.4,0.1-0.5c0-0.1,0-0.3,0-0.4h1.3
		c0,0.8-0.2,1.4-0.7,1.8c-0.4,0.5-1,0.7-1.8,0.7c-0.3,0-0.5,0-0.7-0.1c-0.2,0-0.4-0.1-0.7-0.3c-0.2-0.1-0.4-0.3-0.6-0.6
		s-0.3-0.6-0.4-1c-0.1-0.5-0.2-1-0.2-1.6c0-0.5,0-1,0.1-1.4c0.1-0.4,0.2-0.8,0.4-1.2c0.2-0.4,0.4-0.7,0.8-0.9
		c0.4-0.2,0.8-0.3,1.3-0.3c0.9,0,1.6,0.3,1.9,0.8c0.4,0.5,0.5,1.3,0.5,2.3V125.5z M121.7,124.5h2.2v-0.4c0-1-0.4-1.6-1.1-1.6
		c-0.4,0-0.7,0.2-0.9,0.5c-0.2,0.3-0.3,0.8-0.3,1.3V124.5z"/>
	<path class="st3" d="M131.4,125.5h-3.7v0.4c0,0.3,0,0.5,0,0.7c0,0.2,0.1,0.4,0.2,0.7c0.1,0.2,0.2,0.4,0.4,0.5
		c0.2,0.1,0.4,0.2,0.6,0.2c0.2,0,0.4-0.1,0.6-0.2c0.2-0.1,0.3-0.3,0.3-0.5s0.1-0.4,0.1-0.5c0-0.1,0-0.3,0-0.4h1.3
		c0,0.8-0.2,1.4-0.7,1.8c-0.4,0.5-1,0.7-1.8,0.7c-0.3,0-0.5,0-0.7-0.1c-0.2,0-0.4-0.1-0.7-0.3c-0.2-0.1-0.4-0.3-0.6-0.6
		s-0.3-0.6-0.4-1c-0.1-0.5-0.2-1-0.2-1.6c0-0.5,0-1,0.1-1.4c0.1-0.4,0.2-0.8,0.4-1.2c0.2-0.4,0.4-0.7,0.8-0.9
		c0.4-0.2,0.8-0.3,1.3-0.3c0.9,0,1.6,0.3,1.9,0.8c0.4,0.5,0.5,1.3,0.5,2.3V125.5z M127.7,124.5h2.2v-0.4c0-1-0.4-1.6-1.1-1.6
		c-0.4,0-0.7,0.2-0.9,0.5s-0.3,0.8-0.3,1.3V124.5z"/>
	<path class="st3" d="M136.1,128.8v-0.9h0c-0.3,0.7-0.8,1-1.5,1c-0.8,0-1.4-0.3-1.7-1c-0.4-0.6-0.5-1.6-0.5-2.8
		c0-0.7,0.1-1.4,0.2-1.9c0.1-0.5,0.3-0.9,0.5-1.1c0.2-0.2,0.4-0.4,0.7-0.5c0.2-0.1,0.5-0.1,0.8-0.1c0.8,0,1.3,0.3,1.6,1h0v-3.1h1.4
		v9.3H136.1z M136.1,125.4c0-0.9-0.1-1.6-0.3-2c-0.2-0.4-0.5-0.6-1-0.6c-0.4,0-0.7,0.2-0.9,0.6c-0.2,0.4-0.2,1-0.2,2
		c0,0.9,0.1,1.5,0.2,1.9c0.2,0.4,0.5,0.6,0.9,0.6c0.5,0,0.8-0.2,0.9-0.6S136.1,126.2,136.1,125.4z"/>
	<path class="st3" d="M138.8,128.8v-9.3h1.4v3.1h0c0.3-0.7,0.8-1,1.6-1c0.3,0,0.6,0,0.8,0.1s0.5,0.2,0.7,0.5
		c0.2,0.2,0.4,0.6,0.5,1.1c0.1,0.5,0.2,1.1,0.2,1.9c0,1.2-0.2,2.2-0.5,2.8s-0.9,1-1.7,1c-0.7,0-1.3-0.3-1.5-1h0v0.9H138.8z
		 M140.1,125.4c0,0.8,0.1,1.4,0.3,1.9s0.5,0.6,0.9,0.6c0.5,0,0.8-0.2,0.9-0.6c0.2-0.4,0.2-1.1,0.2-1.9c0-0.9-0.1-1.6-0.2-2
		c-0.2-0.4-0.4-0.6-0.9-0.6c-0.5,0-0.8,0.2-1,0.6C140.2,123.8,140.1,124.4,140.1,125.4z"/>
	<path class="st3" d="M149.6,123.3v4c0,0.1,0,0.2,0.1,0.3c0.1,0.1,0.2,0.1,0.3,0.1c0.1,0,0.2,0,0.2,0v0.9c-0.2,0.1-0.5,0.2-0.7,0.2
		c-0.8,0-1.1-0.3-1.2-0.9h0c-0.4,0.7-1,1-1.7,1c-0.6,0-1-0.2-1.3-0.5c-0.3-0.3-0.5-0.8-0.5-1.5c0-0.7,0.1-1.2,0.4-1.5
		c0.3-0.3,0.7-0.5,1.2-0.7l1.1-0.3c0.3-0.1,0.5-0.2,0.6-0.3c0.1-0.1,0.2-0.3,0.2-0.6c0-0.3-0.1-0.6-0.2-0.8
		c-0.1-0.2-0.4-0.3-0.7-0.3c-0.4,0-0.7,0.1-0.9,0.4c-0.1,0.2-0.2,0.6-0.2,1H145c0-0.8,0.2-1.3,0.6-1.7c0.4-0.4,1-0.6,1.9-0.6
		c0.7,0,1.2,0.1,1.6,0.4S149.6,122.7,149.6,123.3z M148.3,126.2v-1.2c-0.1,0.1-0.4,0.2-0.8,0.4c-0.4,0.1-0.7,0.2-0.7,0.3
		c-0.4,0.2-0.6,0.6-0.6,1.1c0,0.3,0.1,0.6,0.2,0.8s0.4,0.3,0.6,0.3c0.4,0,0.7-0.1,0.9-0.4C148.2,127.2,148.3,126.8,148.3,126.2z"/>
	<path class="st3" d="M154.5,126.2h1.3c-0.1,0.9-0.3,1.6-0.6,2c-0.4,0.5-1,0.7-1.8,0.7c-1,0-1.6-0.3-2-1s-0.6-1.5-0.6-2.7
		c0-1.2,0.2-2.1,0.6-2.7s1.1-1,2-1c0.4,0,0.8,0,1.1,0.2c0.3,0.1,0.5,0.3,0.7,0.4c0.2,0.2,0.3,0.4,0.4,0.6c0.1,0.2,0.2,0.5,0.2,0.7
		s0,0.4,0,0.6h-1.4c0-0.4-0.1-0.8-0.2-1c-0.1-0.3-0.4-0.4-0.8-0.4c-0.5,0-0.8,0.2-0.9,0.7c-0.2,0.4-0.2,1.1-0.2,2
		c0,0.9,0.1,1.5,0.2,2c0.2,0.4,0.5,0.7,0.9,0.7c0.4,0,0.6-0.1,0.8-0.4S154.5,126.8,154.5,126.2z"/>
	<path class="st3" d="M156.8,128.8v-9.3h1.4v5.2h0l2.1-2.9l1.6,0l-2.1,2.7l2.4,4.3h-1.5l-1.7-3.2l-0.8,1v2.2H156.8z"/>
	<path class="st3" d="M166,120.8v-1.4h1.4v1.4H166z M166,128.8v-7h1.4v7H166z"/>
	<path class="st3" d="M168.9,128.8v-7h1.3v0.8h0c0.2-0.3,0.4-0.6,0.7-0.7s0.7-0.3,1.1-0.3c0.6,0,1,0.1,1.3,0.4
		c0.3,0.3,0.4,0.8,0.4,1.5v5.3h-1.4V124c0-0.5-0.1-0.8-0.2-1s-0.4-0.3-0.8-0.3c-0.3,0-0.6,0.1-0.8,0.4s-0.3,0.6-0.3,1v4.7H168.9z"/>
	<path class="st3" d="M14.9,144.8v-9.3h1.4v9.3H14.9z"/>
	<path class="st3" d="M22.6,141.5H19v0.4c0,0.3,0,0.5,0,0.7c0,0.2,0.1,0.4,0.1,0.7c0.1,0.2,0.2,0.4,0.4,0.5c0.2,0.1,0.4,0.2,0.6,0.2
		c0.2,0,0.4-0.1,0.6-0.2c0.2-0.1,0.3-0.3,0.3-0.5c0.1-0.2,0.1-0.4,0.1-0.5c0-0.1,0-0.3,0-0.4h1.3c0,0.8-0.2,1.4-0.7,1.8
		c-0.4,0.5-1,0.7-1.8,0.7c-0.3,0-0.5,0-0.7-0.1c-0.2,0-0.4-0.1-0.7-0.3c-0.2-0.1-0.4-0.3-0.6-0.6s-0.3-0.6-0.4-1
		c-0.1-0.5-0.2-1-0.2-1.6c0-0.5,0-1,0.1-1.4c0.1-0.4,0.2-0.8,0.4-1.2c0.2-0.4,0.4-0.7,0.8-0.9c0.4-0.2,0.8-0.3,1.3-0.3
		c0.9,0,1.6,0.3,1.9,0.8c0.4,0.5,0.5,1.3,0.5,2.3V141.5z M19,140.5h2.2v-0.4c0-1-0.4-1.6-1.1-1.6c-0.4,0-0.7,0.2-0.9,0.5
		c-0.2,0.3-0.3,0.8-0.3,1.3V140.5z"/>
	<path class="st3" d="M28.1,139.8h-1.3v-0.2c0-0.7-0.3-1.1-0.9-1.1c-0.3,0-0.5,0.1-0.7,0.2s-0.3,0.4-0.3,0.7c0,0.3,0.1,0.5,0.2,0.6
		s0.4,0.3,0.8,0.4l0.9,0.3c0.5,0.2,0.9,0.4,1.2,0.7s0.4,0.7,0.4,1.3c0,0.7-0.2,1.2-0.7,1.6c-0.5,0.4-1.1,0.5-1.8,0.5
		c-0.8,0-1.4-0.2-1.8-0.5c-0.3-0.4-0.5-0.9-0.5-1.6v-0.3h1.2v0.2c0,0.4,0.1,0.7,0.3,0.9c0.2,0.2,0.4,0.3,0.8,0.3
		c0.8,0,1.1-0.3,1.1-1c0-0.5-0.3-0.9-0.8-1l-1.1-0.4c-0.5-0.2-0.9-0.4-1.2-0.7c-0.2-0.3-0.3-0.7-0.3-1.3c0-0.6,0.2-1.1,0.6-1.4
		c0.4-0.3,1-0.5,1.8-0.5c0.8,0,1.4,0.2,1.7,0.6c0.3,0.4,0.5,0.8,0.5,1.4V139.8z"/>
	<path class="st3" d="M33.6,139.8h-1.3v-0.2c0-0.7-0.3-1.1-0.9-1.1c-0.3,0-0.5,0.1-0.7,0.2s-0.3,0.4-0.3,0.7c0,0.3,0.1,0.5,0.2,0.6
		s0.4,0.3,0.8,0.4l0.9,0.3c0.5,0.2,0.9,0.4,1.2,0.7s0.4,0.7,0.4,1.3c0,0.7-0.2,1.2-0.7,1.6c-0.5,0.4-1.1,0.5-1.8,0.5
		c-0.8,0-1.4-0.2-1.8-0.5c-0.3-0.4-0.5-0.9-0.5-1.6v-0.3h1.2v0.2c0,0.4,0.1,0.7,0.3,0.9c0.2,0.2,0.4,0.3,0.8,0.3
		c0.8,0,1.1-0.3,1.1-1c0-0.5-0.3-0.9-0.8-1l-1.1-0.4c-0.5-0.2-0.9-0.4-1.2-0.7c-0.2-0.3-0.3-0.7-0.3-1.3c0-0.6,0.2-1.1,0.6-1.4
		c0.4-0.3,1-0.5,1.8-0.5c0.8,0,1.4,0.2,1.7,0.6c0.3,0.4,0.5,0.8,0.5,1.4V139.8z"/>
	<path class="st3" d="M37.3,138.8v-1h1v-2h1.4v2h1.1v1h-1.1v4.2c0,0.3,0,0.5,0.1,0.6c0.1,0.1,0.3,0.2,0.5,0.2c0.2,0,0.4,0,0.5,0v1
		c-0.3,0.1-0.7,0.1-1.1,0.1c-0.5,0-0.9-0.1-1.1-0.3s-0.3-0.7-0.3-1.4v-4.3H37.3z"/>
	<path class="st3" d="M41.6,144.8v-9.3H43v3l0,0c0.4-0.6,1-1,1.7-1c0.6,0,1,0.1,1.3,0.4c0.3,0.3,0.4,0.8,0.4,1.5v5.3h-1.4V140
		c0-0.5-0.1-0.8-0.2-1c-0.1-0.2-0.4-0.3-0.8-0.3c-0.3,0-0.6,0.1-0.8,0.4c-0.2,0.2-0.3,0.6-0.3,1v4.7H41.6z"/>
	<path class="st3" d="M52.4,139.3v4c0,0.1,0,0.2,0.1,0.3c0.1,0.1,0.2,0.1,0.3,0.1s0.2,0,0.2,0v0.9c-0.2,0.1-0.5,0.2-0.7,0.2
		c-0.8,0-1.1-0.3-1.2-0.9h0c-0.4,0.7-1,1-1.7,1c-0.6,0-1-0.2-1.3-0.5c-0.3-0.3-0.5-0.8-0.5-1.5c0-0.7,0.1-1.2,0.4-1.5
		c0.3-0.3,0.7-0.5,1.2-0.7l1.1-0.3c0.3-0.1,0.5-0.2,0.6-0.3c0.1-0.1,0.2-0.3,0.2-0.6c0-0.3-0.1-0.6-0.2-0.8s-0.4-0.3-0.7-0.3
		c-0.4,0-0.7,0.1-0.9,0.4s-0.2,0.6-0.2,1h-1.3c0-0.8,0.2-1.3,0.6-1.7c0.4-0.4,1-0.6,1.9-0.6c0.7,0,1.2,0.1,1.6,0.4
		S52.4,138.7,52.4,139.3z M51.1,142.2v-1.2c-0.1,0.1-0.4,0.2-0.8,0.4s-0.7,0.2-0.7,0.3c-0.4,0.2-0.6,0.6-0.6,1.1
		c0,0.3,0.1,0.6,0.2,0.8c0.2,0.2,0.4,0.3,0.6,0.3c0.4,0,0.7-0.1,0.9-0.4C51,143.2,51.1,142.8,51.1,142.2z"/>
	<path class="st3" d="M53.8,144.8v-7h1.3v0.8h0c0.2-0.3,0.4-0.6,0.7-0.7s0.7-0.3,1.1-0.3c0.6,0,1,0.1,1.3,0.4
		c0.3,0.3,0.4,0.8,0.4,1.5v5.3h-1.4V140c0-0.5-0.1-0.8-0.2-1c-0.1-0.2-0.4-0.3-0.8-0.3c-0.3,0-0.6,0.1-0.8,0.4
		c-0.2,0.2-0.3,0.6-0.3,1v4.7H53.8z"/>
	<path class="st3" d="M68.4,143.5v1.2H63c0-0.5,0.1-1,0.2-1.5s0.3-0.8,0.6-1.1c0.2-0.3,0.5-0.6,0.7-0.8c0.3-0.3,0.5-0.5,0.8-0.7
		s0.5-0.5,0.8-0.7c0.2-0.2,0.4-0.5,0.6-0.8c0.1-0.3,0.2-0.7,0.2-1.1c0-0.4-0.1-0.7-0.3-1c-0.2-0.3-0.5-0.4-0.9-0.4
		c-0.9,0-1.3,0.6-1.3,1.9H63c0-2,0.9-3,2.7-3c0.9,0,1.5,0.2,2,0.7c0.4,0.5,0.6,1,0.6,1.8c0,0.6-0.1,1.1-0.3,1.5
		c-0.2,0.4-0.5,0.8-0.8,1.1c-0.3,0.3-0.6,0.6-1,0.8c-0.3,0.3-0.7,0.6-1,0.9s-0.5,0.7-0.6,1.1H68.4z"/>
	<path class="st3" d="M69.1,142.7v-1.3l3.2-5.9h1.5v6h1v1.2h-1v2.1h-1.4v-2.1H69.1z M72.3,141.5v-3.8h0l-2.1,3.8H72.3z"/>
	<path class="st3" d="M78.8,144.8v-9.3h1.4v3l0,0c0.4-0.6,1-1,1.7-1c0.6,0,1,0.1,1.3,0.4c0.3,0.3,0.4,0.8,0.4,1.5v5.3h-1.4V140
		c0-0.5-0.1-0.8-0.2-1c-0.1-0.2-0.4-0.3-0.8-0.3c-0.3,0-0.6,0.1-0.8,0.4c-0.2,0.2-0.3,0.6-0.3,1v4.7H78.8z"/>
	<path class="st3" d="M84.8,141.3c0-1.2,0.2-2.1,0.6-2.7c0.4-0.6,1.1-1,2-1c1,0,1.6,0.3,2,1c0.4,0.6,0.6,1.5,0.6,2.7
		c0,2.5-0.9,3.7-2.6,3.7C85.7,145,84.8,143.7,84.8,141.3z M86.2,141.3c0,1,0.1,1.6,0.2,2c0.2,0.4,0.5,0.6,1,0.6c0.5,0,0.8-0.2,1-0.6
		c0.2-0.4,0.2-1.1,0.2-2c0-0.9-0.1-1.5-0.2-2c-0.2-0.4-0.5-0.7-1-0.7c-0.5,0-0.8,0.2-0.9,0.7C86.3,139.7,86.2,140.4,86.2,141.3z"/>
	<path class="st3" d="M94.7,144.8V144h0c-0.2,0.3-0.4,0.6-0.7,0.7c-0.3,0.2-0.7,0.3-1.1,0.3c-0.6,0-1-0.2-1.3-0.5s-0.4-0.9-0.4-1.8
		v-4.9h1.4v5c0,0.4,0.1,0.6,0.2,0.8c0.2,0.2,0.4,0.2,0.7,0.2c0.3,0,0.6-0.1,0.8-0.3c0.2-0.2,0.3-0.5,0.3-0.9v-4.9H96v7H94.7z"/>
	<path class="st3" d="M97.3,144.8v-7h1.4v1.1h0c0.3-0.8,0.9-1.3,1.6-1.3c0.1,0,0.2,0,0.3,0.1v1.4c-0.2-0.1-0.4-0.1-0.6-0.1
		c-0.4,0-0.7,0.1-1,0.4c-0.3,0.2-0.4,0.6-0.4,1.2v4.2H97.3z"/>
	<path class="st3" d="M105.8,139.8h-1.3v-0.2c0-0.7-0.3-1.1-0.9-1.1c-0.3,0-0.5,0.1-0.7,0.2s-0.3,0.4-0.3,0.7c0,0.3,0.1,0.5,0.2,0.6
		s0.4,0.3,0.8,0.4l0.9,0.3c0.5,0.2,0.9,0.4,1.2,0.7s0.4,0.7,0.4,1.3c0,0.7-0.2,1.2-0.7,1.6c-0.5,0.4-1.1,0.5-1.8,0.5
		c-0.8,0-1.4-0.2-1.8-0.5c-0.3-0.4-0.5-0.9-0.5-1.6v-0.3h1.2v0.2c0,0.4,0.1,0.7,0.3,0.9c0.2,0.2,0.4,0.3,0.8,0.3
		c0.8,0,1.1-0.3,1.1-1c0-0.5-0.3-0.9-0.8-1l-1.1-0.4c-0.5-0.2-0.9-0.4-1.2-0.7c-0.2-0.3-0.3-0.7-0.3-1.3c0-0.6,0.2-1.1,0.6-1.4
		c0.4-0.3,1-0.5,1.8-0.5c0.8,0,1.4,0.2,1.7,0.6c0.3,0.4,0.5,0.8,0.5,1.4V139.8z"/>
	<path class="st3" d="M107.1,144.8v-1.7h1.5v1.7c0,0.6-0.1,1-0.3,1.3s-0.6,0.6-1.1,0.7V146c0.4-0.1,0.7-0.5,0.7-1.1v-0.2H107.1z"/>
	<path class="st3" d="M112.9,141.3c0-1.2,0.2-2.1,0.6-2.7c0.4-0.6,1.1-1,2-1c1,0,1.6,0.3,2,1c0.4,0.6,0.6,1.5,0.6,2.7
		c0,2.5-0.9,3.7-2.6,3.7C113.8,145,112.9,143.7,112.9,141.3z M114.3,141.3c0,1,0.1,1.6,0.2,2c0.2,0.4,0.5,0.6,1,0.6
		c0.5,0,0.8-0.2,1-0.6c0.2-0.4,0.2-1.1,0.2-2c0-0.9-0.1-1.5-0.2-2c-0.2-0.4-0.5-0.7-1-0.7c-0.5,0-0.8,0.2-0.9,0.7
		C114.4,139.7,114.3,140.4,114.3,141.3z"/>
	<path class="st3" d="M119.2,144.8v-7h1.4v1.1h0c0.3-0.8,0.9-1.3,1.6-1.3c0.1,0,0.2,0,0.3,0.1v1.4c-0.2-0.1-0.4-0.1-0.6-0.1
		c-0.4,0-0.7,0.1-1,0.4c-0.3,0.2-0.4,0.6-0.4,1.2v4.2H119.2z"/>
	<path class="st3" d="M129.8,142.2h1.3c-0.1,0.9-0.3,1.6-0.6,2c-0.4,0.5-1,0.7-1.8,0.7c-1,0-1.6-0.3-2-1s-0.6-1.5-0.6-2.7
		s0.2-2.1,0.6-2.7s1.1-1,2-1c0.4,0,0.8,0,1.1,0.2c0.3,0.1,0.5,0.3,0.7,0.4c0.2,0.2,0.3,0.4,0.4,0.6c0.1,0.2,0.2,0.5,0.2,0.7
		s0,0.4,0,0.6h-1.4c0-0.4-0.1-0.8-0.2-1c-0.1-0.3-0.4-0.4-0.8-0.4c-0.5,0-0.8,0.2-0.9,0.7c-0.2,0.4-0.2,1.1-0.2,2
		c0,0.9,0.1,1.5,0.2,2c0.2,0.4,0.5,0.7,0.9,0.7c0.4,0,0.6-0.1,0.8-0.4S129.8,142.8,129.8,142.2z"/>
	<path class="st3" d="M132.2,144.8v-9.3h1.4v3l0,0c0.4-0.6,1-1,1.7-1c0.6,0,1,0.1,1.3,0.4c0.3,0.3,0.4,0.8,0.4,1.5v5.3h-1.4V140
		c0-0.5-0.1-0.8-0.2-1c-0.1-0.2-0.4-0.3-0.8-0.3c-0.3,0-0.6,0.1-0.8,0.4c-0.2,0.2-0.3,0.6-0.3,1v4.7H132.2z"/>
	<path class="st3" d="M143.1,139.3v4c0,0.1,0,0.2,0.1,0.3c0.1,0.1,0.2,0.1,0.3,0.1c0.1,0,0.2,0,0.2,0v0.9c-0.2,0.1-0.5,0.2-0.7,0.2
		c-0.8,0-1.1-0.3-1.2-0.9h0c-0.4,0.7-1,1-1.7,1c-0.6,0-1-0.2-1.3-0.5c-0.3-0.3-0.5-0.8-0.5-1.5c0-0.7,0.1-1.2,0.4-1.5
		c0.3-0.3,0.7-0.5,1.2-0.7l1.1-0.3c0.3-0.1,0.5-0.2,0.6-0.3c0.1-0.1,0.2-0.3,0.2-0.6c0-0.3-0.1-0.6-0.2-0.8
		c-0.1-0.2-0.4-0.3-0.7-0.3c-0.4,0-0.7,0.1-0.9,0.4c-0.1,0.2-0.2,0.6-0.2,1h-1.3c0-0.8,0.2-1.3,0.6-1.7c0.4-0.4,1-0.6,1.9-0.6
		c0.7,0,1.2,0.1,1.6,0.4S143.1,138.7,143.1,139.3z M141.7,142.2v-1.2c-0.1,0.1-0.4,0.2-0.8,0.4c-0.4,0.1-0.7,0.2-0.7,0.3
		c-0.4,0.2-0.6,0.6-0.6,1.1c0,0.3,0.1,0.6,0.2,0.8s0.4,0.3,0.6,0.3c0.4,0,0.7-0.1,0.9-0.4C141.6,143.2,141.7,142.8,141.7,142.2z"/>
	<path class="st3" d="M143.9,138.8v-1h1v-2h1.4v2h1.1v1h-1.1v4.2c0,0.3,0,0.5,0.1,0.6s0.3,0.2,0.5,0.2c0.2,0,0.4,0,0.5,0v1
		c-0.3,0.1-0.7,0.1-1.1,0.1c-0.5,0-0.9-0.1-1.1-0.3s-0.3-0.7-0.3-1.4v-4.3H143.9z"/>
	<path class="st3" d="M151.3,144.8v-9.3h1.4v9.3H151.3z"/>
	<path class="st3" d="M154.2,136.8v-1.4h1.4v1.4H154.2z M154.2,144.8v-7h1.4v7H154.2z"/>
	<path class="st3" d="M158.3,144.8l-1.9-7h1.5l1.2,5.5h0l1.1-5.5h1.5l-1.8,7H158.3z"/>
	<path class="st3" d="M167.4,141.5h-3.7v0.4c0,0.3,0,0.5,0,0.7c0,0.2,0.1,0.4,0.2,0.7c0.1,0.2,0.2,0.4,0.4,0.5
		c0.2,0.1,0.4,0.2,0.6,0.2c0.2,0,0.4-0.1,0.6-0.2c0.2-0.1,0.3-0.3,0.3-0.5s0.1-0.4,0.1-0.5c0-0.1,0-0.3,0-0.4h1.3
		c0,0.8-0.2,1.4-0.7,1.8c-0.4,0.5-1,0.7-1.8,0.7c-0.3,0-0.5,0-0.7-0.1c-0.2,0-0.4-0.1-0.7-0.3c-0.2-0.1-0.4-0.3-0.6-0.6
		s-0.3-0.6-0.4-1c-0.1-0.5-0.2-1-0.2-1.6c0-0.5,0-1,0.1-1.4c0.1-0.4,0.2-0.8,0.4-1.2c0.2-0.4,0.4-0.7,0.8-0.9
		c0.4-0.2,0.8-0.3,1.3-0.3c0.9,0,1.6,0.3,1.9,0.8c0.4,0.5,0.5,1.3,0.5,2.3V141.5z M163.7,140.5h2.2v-0.4c0-1-0.4-1.6-1.1-1.6
		c-0.4,0-0.7,0.2-0.9,0.5s-0.3,0.8-0.3,1.3V140.5z"/>
	<path class="st3" d="M14.2,154.8v-1h1v-2h1.4v2h1.1v1h-1.1v4.2c0,0.3,0,0.5,0.1,0.6c0.1,0.1,0.3,0.2,0.5,0.2c0.2,0,0.4,0,0.5,0v1
		c-0.3,0.1-0.7,0.1-1.1,0.1c-0.5,0-0.9-0.1-1.1-0.3s-0.3-0.7-0.3-1.4v-4.3H14.2z"/>
	<path class="st3" d="M18.5,160.8v-9.3h1.4v3l0,0c0.4-0.6,1-1,1.7-1c0.6,0,1,0.1,1.3,0.4c0.3,0.3,0.4,0.8,0.4,1.5v5.3H22V156
		c0-0.5-0.1-0.8-0.2-1c-0.1-0.2-0.4-0.3-0.8-0.3c-0.3,0-0.6,0.1-0.8,0.4c-0.2,0.2-0.3,0.6-0.3,1v4.7H18.5z"/>
	<path class="st3" d="M24.7,160.8v-7h1.4v1.1h0c0.3-0.8,0.9-1.3,1.6-1.3c0.1,0,0.2,0,0.3,0.1v1.4c-0.2-0.1-0.4-0.1-0.6-0.1
		c-0.4,0-0.7,0.1-1,0.4c-0.3,0.2-0.4,0.6-0.4,1.2v4.2H24.7z"/>
	<path class="st3" d="M28.5,157.3c0-1.2,0.2-2.1,0.6-2.7c0.4-0.6,1.1-1,2-1c1,0,1.6,0.3,2,1c0.4,0.6,0.6,1.5,0.6,2.7
		c0,2.5-0.9,3.7-2.6,3.7C29.4,161,28.5,159.7,28.5,157.3z M30,157.3c0,1,0.1,1.6,0.2,2c0.2,0.4,0.5,0.6,1,0.6c0.5,0,0.8-0.2,1-0.6
		c0.2-0.4,0.2-1.1,0.2-2c0-0.9-0.1-1.5-0.2-2c-0.2-0.4-0.5-0.7-1-0.7c-0.5,0-0.8,0.2-0.9,0.7C30,155.7,30,156.4,30,157.3z"/>
	<path class="st3" d="M38.4,160.8V160h0c-0.2,0.3-0.4,0.6-0.7,0.7c-0.3,0.2-0.7,0.3-1.1,0.3c-0.6,0-1-0.2-1.3-0.5s-0.4-0.9-0.4-1.8
		v-4.9h1.4v5c0,0.4,0.1,0.6,0.2,0.8c0.2,0.2,0.4,0.2,0.7,0.2c0.3,0,0.6-0.1,0.8-0.3c0.2-0.2,0.3-0.5,0.3-0.9v-4.9h1.4v7H38.4z"/>
	<path class="st3" d="M41.2,161.4h1.3c0,0.2,0.1,0.4,0.3,0.6c0.2,0.2,0.4,0.2,0.7,0.2c0.4,0,0.7-0.1,0.9-0.4s0.3-0.6,0.3-1v-1.1h0
		c-0.1,0.3-0.3,0.5-0.6,0.7c-0.3,0.2-0.6,0.3-1,0.3c-1.4,0-2.1-1.2-2.1-3.5c0-0.5,0-0.9,0.1-1.2c0-0.4,0.1-0.7,0.3-1.1
		c0.1-0.4,0.4-0.7,0.7-0.9c0.3-0.2,0.7-0.3,1.2-0.3c0.4,0,0.7,0.1,1,0.3c0.3,0.2,0.5,0.5,0.5,0.7h0v-0.9h1.3v6.7
		c0,1.8-0.9,2.7-2.6,2.7c-0.5,0-0.9-0.1-1.2-0.2c-0.3-0.1-0.6-0.3-0.7-0.5s-0.2-0.4-0.3-0.6C41.2,161.7,41.2,161.6,41.2,161.4z
		 M42.4,157.1c0,0.3,0,0.5,0,0.7c0,0.2,0,0.4,0.1,0.7c0,0.3,0.1,0.5,0.2,0.6s0.2,0.3,0.3,0.4c0.1,0.1,0.3,0.2,0.5,0.2
		c0.3,0,0.5-0.1,0.6-0.2s0.3-0.4,0.4-0.6s0.1-0.5,0.1-0.8c0-0.2,0-0.5,0-0.9c0-1.6-0.4-2.4-1.1-2.4c-0.2,0-0.4,0.1-0.6,0.2
		c-0.2,0.1-0.3,0.3-0.4,0.5s-0.1,0.5-0.2,0.7C42.4,156.4,42.4,156.7,42.4,157.1z"/>
	<path class="st3" d="M47.3,160.8v-9.3h1.4v3l0,0c0.4-0.6,1-1,1.7-1c0.6,0,1,0.1,1.3,0.4c0.3,0.3,0.4,0.8,0.4,1.5v5.3h-1.4V156
		c0-0.5-0.1-0.8-0.2-1c-0.1-0.2-0.4-0.3-0.8-0.3c-0.3,0-0.6,0.1-0.8,0.4c-0.2,0.2-0.3,0.6-0.3,1v4.7H47.3z"/>
	<path class="st3" d="M56.1,153.8h1.5l1.2,5.3h0l1.1-5.3h1.5l-1.9,7.3c-0.3,0.9-0.6,1.5-0.9,1.8s-0.8,0.4-1.6,0.4
		c-0.1,0-0.3,0-0.6-0.1V162c0.2,0,0.4,0.1,0.5,0.1c0.3,0,0.5,0,0.6-0.1c0.1-0.1,0.3-0.2,0.3-0.4l0.2-0.6L56.1,153.8z"/>
	<path class="st3" d="M62,157.3c0-1.2,0.2-2.1,0.6-2.7c0.4-0.6,1.1-1,2-1c1,0,1.6,0.3,2,1c0.4,0.6,0.6,1.5,0.6,2.7
		c0,2.5-0.9,3.7-2.6,3.7C62.9,161,62,159.7,62,157.3z M63.4,157.3c0,1,0.1,1.6,0.2,2c0.2,0.4,0.5,0.6,1,0.6c0.5,0,0.8-0.2,1-0.6
		c0.2-0.4,0.2-1.1,0.2-2c0-0.9-0.1-1.5-0.2-2c-0.2-0.4-0.5-0.7-1-0.7c-0.5,0-0.8,0.2-0.9,0.7C63.5,155.7,63.4,156.4,63.4,157.3z"/>
	<path class="st3" d="M71.9,160.8V160h0c-0.2,0.3-0.4,0.6-0.7,0.7c-0.3,0.2-0.7,0.3-1.1,0.3c-0.6,0-1-0.2-1.3-0.5s-0.4-0.9-0.4-1.8
		v-4.9h1.4v5c0,0.4,0.1,0.6,0.2,0.8c0.2,0.2,0.4,0.2,0.7,0.2c0.3,0,0.6-0.1,0.8-0.3c0.2-0.2,0.3-0.5,0.3-0.9v-4.9h1.4v7H71.9z"/>
	<path class="st3" d="M74.5,160.8v-7h1.4v1.1h0c0.3-0.8,0.9-1.3,1.6-1.3c0.1,0,0.2,0,0.3,0.1v1.4c-0.2-0.1-0.4-0.1-0.6-0.1
		c-0.4,0-0.7,0.1-1,0.4c-0.3,0.2-0.4,0.6-0.4,1.2v4.2H74.5z"/>
	<path class="st3" d="M81.7,163.1v-9.3h1.3v0.9h0c0.3-0.7,0.8-1,1.6-1c1.5,0,2.2,1.3,2.2,3.8c0,0.7-0.1,1.3-0.2,1.8
		c-0.1,0.5-0.3,0.9-0.5,1.1c-0.2,0.2-0.5,0.4-0.7,0.5c-0.2,0.1-0.5,0.2-0.7,0.2c-0.8,0-1.3-0.3-1.6-1h0v3.1H81.7z M83.1,157.2
		c0,0.9,0.1,1.6,0.2,2c0.2,0.4,0.5,0.6,0.9,0.6c0.4,0,0.7-0.2,0.9-0.6c0.2-0.4,0.3-1,0.3-2c0-0.9-0.1-1.5-0.2-1.9
		c-0.2-0.4-0.5-0.6-0.9-0.6c-0.5,0-0.8,0.2-0.9,0.6S83.1,156.4,83.1,157.2z"/>
	<path class="st3" d="M88,160.8v-7h1.4v1.1h0c0.3-0.8,0.9-1.3,1.6-1.3c0.1,0,0.2,0,0.3,0.1v1.4c-0.2-0.1-0.4-0.1-0.6-0.1
		c-0.4,0-0.7,0.1-1,0.4c-0.3,0.2-0.4,0.6-0.4,1.2v4.2H88z"/>
	<path class="st3" d="M91.8,157.3c0-1.2,0.2-2.1,0.6-2.7c0.4-0.6,1.1-1,2-1c1,0,1.6,0.3,2,1c0.4,0.6,0.6,1.5,0.6,2.7
		c0,2.5-0.9,3.7-2.6,3.7C92.7,161,91.8,159.7,91.8,157.3z M93.2,157.3c0,1,0.1,1.6,0.2,2c0.2,0.4,0.5,0.6,1,0.6c0.5,0,0.8-0.2,1-0.6
		c0.2-0.4,0.2-1.1,0.2-2c0-0.9-0.1-1.5-0.2-2c-0.2-0.4-0.5-0.7-1-0.7c-0.5,0-0.8,0.2-0.9,0.7C93.3,155.7,93.2,156.4,93.2,157.3z"/>
	<path class="st3" d="M98.1,160.8v-9.3h1.4v3.1h0c0.3-0.7,0.8-1,1.6-1c0.3,0,0.6,0,0.8,0.1c0.2,0.1,0.5,0.2,0.7,0.5s0.4,0.6,0.5,1.1
		c0.1,0.5,0.2,1.1,0.2,1.9c0,1.2-0.2,2.2-0.5,2.8c-0.4,0.6-0.9,1-1.7,1c-0.7,0-1.3-0.3-1.5-1h0v0.9H98.1z M99.4,157.4
		c0,0.8,0.1,1.4,0.3,1.9s0.5,0.6,0.9,0.6c0.5,0,0.8-0.2,0.9-0.6c0.2-0.4,0.2-1.1,0.2-1.9c0-0.9-0.1-1.6-0.2-2
		c-0.2-0.4-0.4-0.6-0.9-0.6c-0.5,0-0.8,0.2-1,0.6C99.5,155.8,99.4,156.4,99.4,157.4z"/>
	<path class="st3" d="M104.4,160.8v-9.3h1.4v9.3H104.4z"/>
	<path class="st3" d="M112.1,157.5h-3.7v0.4c0,0.3,0,0.5,0,0.7c0,0.2,0.1,0.4,0.1,0.7c0.1,0.2,0.2,0.4,0.4,0.5
		c0.2,0.1,0.4,0.2,0.6,0.2c0.2,0,0.4-0.1,0.6-0.2c0.2-0.1,0.3-0.3,0.3-0.5c0.1-0.2,0.1-0.4,0.1-0.5c0-0.1,0-0.3,0-0.4h1.3
		c0,0.8-0.2,1.4-0.7,1.8c-0.4,0.5-1,0.7-1.8,0.7c-0.3,0-0.5,0-0.7-0.1c-0.2,0-0.4-0.1-0.7-0.3c-0.2-0.1-0.4-0.3-0.6-0.6
		s-0.3-0.6-0.4-1c-0.1-0.5-0.2-1-0.2-1.6c0-0.5,0-1,0.1-1.4c0.1-0.4,0.2-0.8,0.4-1.2c0.2-0.4,0.4-0.7,0.8-0.9
		c0.4-0.2,0.8-0.3,1.3-0.3c0.9,0,1.6,0.3,1.9,0.8c0.4,0.5,0.5,1.3,0.5,2.3V157.5z M108.5,156.5h2.2v-0.4c0-1-0.4-1.6-1.1-1.6
		c-0.4,0-0.7,0.2-0.9,0.5c-0.2,0.3-0.3,0.8-0.3,1.3V156.5z"/>
	<path class="st3" d="M113.3,160.8v-7h1.3v0.8h0c0.2-0.3,0.4-0.6,0.7-0.7s0.6-0.3,1-0.3c0.8,0,1.4,0.4,1.6,1.1
		c0.4-0.7,1-1.1,1.8-1.1c1.1,0,1.7,0.6,1.7,1.9v5.3h-1.4V156c0-0.5-0.1-0.8-0.2-1s-0.3-0.3-0.6-0.3c-0.3,0-0.6,0.1-0.8,0.4
		s-0.3,0.6-0.3,1v4.7h-1.4V156c0-0.5-0.1-0.8-0.2-1s-0.4-0.3-0.6-0.3c-0.3,0-0.6,0.1-0.8,0.4c-0.2,0.2-0.3,0.6-0.3,1v4.7H113.3z"/>
	<path class="st3" d="M123,160.8v-1.7h1.5v1.7H123z"/>
</g>
<g>
	<path class="st3" d="M44.3,27.1v5.1c0,2.1-0.9,3.1-2.7,3.1c-2.1,0-2.6-1.7-2.6-3.1v-5.1h-0.6v5.1c0,2.4,1.1,3.6,3.2,3.6
		c2.2,0,3.3-1.2,3.3-3.6v-5.1h-0.1H44.3L44.3,27.1L44.3,27.1z"/>
	<path class="st3" d="M49,29.3c-1,0-1.8,0.5-2.1,1.3c0-0.3,0-1.2,0-1.2h-0.6v6.2h0.6v-3.3c0-1.5,0.8-2.5,2.1-2.5
		c1.7,0,1.7,1.5,1.7,1.9v3.9h0.6v-3.8C51.2,31.1,51.2,29.3,49,29.3L49,29.3L49,29.3z"/>
	<polygon class="st3" points="52.5,29.5 52.5,35.6 53.1,35.6 53.1,29.5 53,29.5 52.5,29.5 52.5,29.5 	"/>
	<polygon class="st3" points="52.5,27.6 52.5,28.4 53.1,28.4 53.1,27.6 53,27.6 52.5,27.6 52.5,27.6 	"/>
	<path class="st3" d="M58.6,29.5c0,0-2,5.3-2,5.5c-0.1-0.2-2.2-5.5-2.2-5.5h-0.6l2.5,6.2h0.6l2.3-6.2h-0.1H58.6L58.6,29.5L58.6,29.5
		z"/>
	<path class="st3" d="M62.2,29.3c-0.7,0-1.3,0.3-1.8,0.7c-0.6,0.6-0.9,1.6-0.9,2.6c0,1,0.3,1.8,0.8,2.4c0.5,0.5,1.1,0.7,1.9,0.7
		c1.5,0,2.4-0.8,2.7-2.2l0-0.1h-0.6l0,0c-0.2,1.1-1,1.8-2.1,1.8c-0.6,0-1.1-0.2-1.5-0.6c-0.5-0.5-0.7-1.2-0.7-2c0,0,0,0,0,0
		c0.1,0,4.9,0,4.9,0l0-0.1c0-0.1,0-0.2,0-0.2c0-0.9-0.3-1.8-0.8-2.3C63.7,29.6,63,29.3,62.2,29.3L62.2,29.3L62.2,29.3z M62.2,29.8
		c1.4,0,2.1,1.2,2.2,2.3c-0.1,0-4.2,0-4.3,0C60.2,31,60.9,29.8,62.2,29.8L62.2,29.8L62.2,29.8z"/>
	<path class="st3" d="M66.5,30.7c0-0.3,0-1.2,0-1.2h-0.6v6.2h0.6v-3.4c0-0.9,0.2-1.3,0.7-1.7c0.7-0.6,1.4-0.6,1.6-0.6l0.1,0v-0.6
		l-0.1,0C67.8,29.4,66.8,29.9,66.5,30.7L66.5,30.7L66.5,30.7z"/>
	<path class="st3" d="M71.8,32.2c0,0-0.2,0-0.2,0c-0.9-0.2-1.8-0.4-1.8-1.2c0-0.8,0.9-1.1,1.7-1.1c0.6,0,1.7,0.2,1.7,1.5l0,0.1h0.6
		v-0.1c0-1.3-0.8-2-2.3-2c-0.5,0-2.2,0.1-2.2,1.6c0,1.3,1.2,1.6,2.1,1.8l0.2,0c1,0.2,1.9,0.4,1.9,1.3c0,1.1-1.3,1.2-1.9,1.2
		c-1.1,0-1.9-0.7-2-1.7l0,0H69l0,0.1c0,1.4,1,2.2,2.5,2.2c0.6,0,2.4-0.1,2.4-1.7C73.9,32.7,72.9,32.4,71.8,32.2L71.8,32.2L71.8,32.2
		z"/>
	<polygon class="st3" points="75.1,29.5 75.1,35.6 75.6,35.6 75.6,29.5 75.6,29.5 75.1,29.5 75.1,29.5 	"/>
	<path class="st3" d="M78,29.5c0-0.1,0-1.9,0-1.9H78h-0.5c0,0,0,1.8,0,1.9c-0.1,0-1.1,0-1.1,0v0.5c0,0,1,0,1.1,0c0,0.1,0,4.2,0,4.2
		c0,0,0,0.1,0,0.1c0,0.5,0.1,0.8,0.4,1.1c0.4,0.4,1,0.4,1.5,0.3l0,0v-0.5l-0.1,0c-0.5,0-0.8,0-1-0.2c-0.2-0.2-0.2-0.4-0.2-0.8
		c0,0,0-4.1,0-4.2c0.1,0,1.2,0,1.5,0c0.6,1.4,2.3,5.6,2.4,5.6c-0.3,0.8-0.4,1.2-0.6,1.4c-0.3,0.3-0.6,0.4-1.2,0.4H80v0.5h0.1
		c0.7,0,1.1,0,1.4-0.3c0.3-0.2,0.5-0.6,0.7-1.3c0,0,2.6-6.8,2.6-6.8h-0.1h-0.5c0,0-2,5.2-2,5.4c-0.1-0.2-2.2-5.4-2.2-5.4H78L78,29.5
		L78,29.5z"/>
	<polygon class="st3" points="75.1,27.6 75.1,28.4 75.6,28.4 75.6,27.6 75.6,27.6 75.1,27.6 75.1,27.6 	"/>
	<path class="st3" d="M52.3,25.7c-2.5-0.1-4.5-1.9-4.5-4.5c0.1-2,1.7-4.4,4.7-4.3c2.1,0,4.4,1.6,4.4,4.5
		C56.8,24.3,54.4,25.8,52.3,25.7L52.3,25.7L52.3,25.7z M52.3,17.4c-1.9,0-3.2,1.4-3.2,3.7c0,2.8,1.6,4,3.2,4c1.9,0,3.1-1.4,3.1-3.7
		C55.5,19,54.2,17.4,52.3,17.4L52.3,17.4L52.3,17.4z"/>
	<path class="st3" d="M88.3,17.1V17h-2.5v0.1c0.5,0,0.6,0.1,0.6,0.8v3h-4.4v-3c0-0.7,0.1-0.8,0.6-0.8V17h-2.5v0.1
		c0.5,0,0.6,0.1,0.6,0.8v6.7c0,0.7-0.1,0.8-0.6,0.8v0.1h2.5v-0.1c-0.5,0-0.6-0.1-0.6-0.8v-3.2h4.4v3.2c0,0.7-0.1,0.8-0.6,0.8v0.1
		h2.5v-0.1c-0.5,0-0.6-0.1-0.6-0.8v-6.7C87.7,17.2,87.8,17.2,88.3,17.1L88.3,17.1L88.3,17.1z"/>
	<path class="st3" d="M57.5,17v0.1c0.5,0,0.6,0.1,0.6,0.6v7c0,0.7-0.1,0.8-0.6,0.8v0.1h1.9v-0.1c-0.5,0-0.6-0.1-0.6-0.8v-6.3
		c0,0.1,4.8,5.9,5.8,7.2h0.2v-7.9c0-0.5,0.1-0.5,0.6-0.6V17h-1.8v0.1c0.5,0,0.6,0.1,0.6,0.6v5.5l-5-6.2H57.5L57.5,17L57.5,17z"/>
	<path class="st3" d="M69.6,17h-0.2c-0.4,1-2.4,5.8-3.1,7.4c-0.1,0.3-0.3,0.7-0.5,0.9c-0.1,0.1-0.2,0.1-0.3,0.1v0.1h1.6v-0.1
		c-0.1,0-0.4,0-0.4-0.2c0-0.1,0-0.2,0-0.3c0.1-0.2,0.4-1,0.8-1.9h3.3c0.3,0.8,0.6,1.5,0.8,1.8l0,0c0,0.1,0.1,0.3,0.1,0.4
		c0,0.2-0.2,0.2-0.4,0.2v0.1h2.3v-0.1c-0.3,0-0.4-0.1-0.6-0.6L69.6,17L69.6,17L69.6,17z M67.7,22.5c0.6-1.4,1.4-3.5,1.4-3.5
		s0.8,1.9,1.4,3.5H67.7L67.7,22.5L67.7,22.5z"/>
	<path class="st3" d="M37.8,17v0.1c0.3,0,0.4,0,0.5,0.1c0,0,0.1,0.1,0.1,0.1c0,0,0,0,0,0c0,0,0,0.1,0,0.1c0,0,0,0.1,0,0.2v7
		c0,0.7-0.1,0.8-0.6,0.8v0.1h1.8v-0.1c-0.5,0-0.6-0.1-0.6-0.8v-6c0-0.1,0-0.3,0-0.3l0.1,0.3l3,6.9h0.2l3-7.1l0.1-0.3
		c0,0,0,0.1,0,0.3v6.2c0,0.7-0.1,0.8-0.6,0.8v0.1h2.5v-0.1c-0.5,0-0.6-0.1-0.6-0.8v-7c0-0.5,0.1-0.5,0.6-0.6V17h-1.9l-2.7,6.5
		L39.7,17H37.8L37.8,17L37.8,17z"/>
	<path class="st3" d="M73.9,25c0.6,0.3,1.4,0.7,2.3,0.7c0,0,0,0,0.1,0c1.3,0,2.8-1,2.8-2.6c0-1.7-1.2-2.1-2.4-2.7
		c-1.2-0.6-1.7-0.9-1.7-1.7c0-0.5,0.3-1.3,1.4-1.3c0.3,0,0.6,0.1,0.9,0.2c0.9,0.5,0.9,1.2,1,1.6h0.1l-0.1-1.9
		c-0.6-0.2-1-0.3-1.3-0.4c-0.2,0-0.4,0-0.5,0c-1.2,0-2.6,0.7-2.6,2.2c0,1,0.6,1.7,1.8,2.3c1.2,0.6,2.1,0.9,2.1,2.1
		c0,0.6-0.4,1.7-1.7,1.7c-0.5,0-1-0.2-1.3-0.5c-0.8-0.8-0.8-1.4-0.9-1.6h-0.1L73.9,25"/>
	<path class="st3" d="M32.2,26.8L32.2,27c-0.1,0.3-0.2,0.5-0.2,0.7l-0.6-0.5l-0.1,0.2c-0.3,0.9-0.7,1.7-1.1,2.4
		c-1.2,1.9-2.9,3.3-4.9,4.1c0,0-0.1,0.1-0.2,0.1c-0.1,0-0.2-0.1-0.2-0.1c-2-0.7-3.7-2.1-4.9-4.1c-0.5-0.7-0.9-1.6-1.1-2.4l-0.1-0.2
		l-0.2,0.1l-0.4,0.4c-0.1-0.2-0.2-0.5-0.2-0.7l-0.1-0.2l-0.2,0.1l-1.4,1.2l0,0.1c0.3,1.1,0.9,2.1,1.3,2.9l0.1,0.2l0.6-0.5
		c0,0,0,0.1,0.1,0.1c1.4,2.3,3.5,4,5.9,4.8l0.9,0.3l0.9-0.3c2.4-0.9,4.4-2.6,5.9-4.8c0,0,0-0.1,0.1-0.1l0.6,0.5l0.1-0.2
		c0.4-0.7,0.9-1.8,1.3-2.9l0-0.1L32.2,26.8L32.2,26.8L32.2,26.8z M16.6,28.3c0.1-0.1,0.9-0.8,1.1-1c0.1,0.2,0.1,0.4,0.2,0.6
		l-0.8,0.7l0.3,1.6C17.2,29.6,16.9,29,16.6,28.3L16.6,28.3L16.6,28.3z M17.8,30.8l-0.2-1.2c0.2,0.3,0.3,0.6,0.5,0.9
		C18,30.6,17.9,30.7,17.8,30.8L17.8,30.8L17.8,30.8z M32.3,30.8c-0.1-0.1-0.2-0.2-0.3-0.3c0,0,0,0,0,0c0.2-0.3,0.3-0.6,0.5-0.9
		L32.3,30.8L32.3,30.8L32.3,30.8z M31.5,30.7c-1.4,2.2-3.4,3.9-5.7,4.7c0,0-0.7,0.2-0.8,0.3c-0.1,0-0.8-0.3-0.8-0.3
		C22,34.6,20,33,18.6,30.7c-0.4-0.6-0.7-1.3-1-2.1c0.1-0.1,0.9-0.8,1.1-1c0.3,0.8,0.7,1.6,1.1,2.3c1.2,2,3,3.4,5,4.2
		c0,0,0.3,0.1,0.3,0.1l0.3-0.1c2.1-0.8,3.8-2.2,5.1-4.2c0.4-0.7,0.8-1.5,1.1-2.3c0.2,0.2,0.9,0.9,1.1,1
		C32.3,29.4,31.9,30.1,31.5,30.7L31.5,30.7L31.5,30.7z M32.7,30.2l0.3-1.6l-0.8-0.7c0.1-0.2,0.2-0.4,0.2-0.6c0.2,0.2,1,0.9,1.1,1
		C33.3,29,32.9,29.7,32.7,30.2L32.7,30.2L32.7,30.2z"/>
	<path class="st3" d="M19,30l0.2-0.2l0-0.1c0,0-0.1-0.1-0.1-0.1c-0.2,0-0.6,0.1-0.8,0.1l0-0.1l0,0c0,0,0,0.1,0.1,0.1
		c0,0,0,0.1,0.1,0.1l0,0l0-0.1l0.2-0.1l0.1,0.2c0,0.1-0.1,0.1-0.2,0.2l0-0.1l0,0c0,0.1,0.1,0.1,0.1,0.2c0,0.1,0.1,0.1,0.1,0.2l0,0
		l0-0.1C18.8,30.3,18.9,30.1,19,30L19,30L19,30z M18.8,29.7l0.3-0.1l0,0l-0.2,0.2L18.8,29.7L18.8,29.7L18.8,29.7z"/>
	<path class="st3" d="M20.1,31.1L20.1,31.1c0-0.1,0-0.1,0-0.1c0,0-0.1-0.1-0.1-0.1l0,0l0,0.1c-0.1,0.1-0.4,0.3-0.4,0.3l0,0
		c0.1-0.2,0.2-0.4,0.2-0.7c0,0-0.1-0.1-0.1-0.1c0,0,0-0.1-0.1-0.1l0,0l0,0.1c-0.1,0-0.1,0.1-0.2,0.1l-0.2,0.1
		c-0.1,0-0.1,0.1-0.2,0.1L19,30.9l0,0c0,0,0.1,0.1,0.1,0.1c0,0,0.1,0.1,0.1,0.1l0,0l0-0.1c0.1-0.1,0.3-0.2,0.4-0.3l0,0
		c-0.1,0.2-0.2,0.4-0.2,0.7c0,0,0,0,0.1,0.1c0,0,0,0.1,0,0.1c0.1-0.1,0.1-0.1,0.2-0.2l0.2-0.1C19.9,31.2,20,31.1,20.1,31.1
		L20.1,31.1L20.1,31.1L20.1,31.1z"/>
	<path class="st3" d="M20.2,31.8c-0.2,0.2-0.2,0.4,0,0.6c0.1,0.1,0.2,0.2,0.4,0.2l0-0.1c-0.1,0-0.2-0.1-0.2-0.1
		c-0.1-0.1-0.1-0.3,0-0.4c0.1-0.1,0.3-0.1,0.4,0c0,0,0.1,0.1,0.1,0.2l0,0.1l0,0c0,0,0.1-0.1,0.2-0.1c0-0.1-0.1-0.2-0.2-0.2
		C20.6,31.7,20.4,31.6,20.2,31.8L20.2,31.8L20.2,31.8z"/>
	<path class="st3" d="M21.7,32.7c-0.2-0.2-0.5-0.2-0.6,0c-0.2,0.2-0.1,0.4,0.1,0.6c0.2,0.2,0.5,0.2,0.6,0C22,33.2,22,32.9,21.7,32.7
		L21.7,32.7L21.7,32.7z M21.7,33.2c-0.1,0.1-0.3,0.2-0.4,0.1c-0.1-0.1-0.1-0.3,0-0.4c0.1-0.1,0.3-0.2,0.4-0.1
		C21.8,32.9,21.8,33.1,21.7,33.2L21.7,33.2L21.7,33.2z"/>
	<path class="st3" d="M22.9,33.6c0,0-0.1-0.1-0.1-0.1c0,0-0.1-0.1-0.1-0.1c0,0-0.1-0.1-0.1-0.1l0,0l0.1,0c0,0.1-0.1,0.1-0.1,0.2
		l-0.1,0.2c0,0.1-0.1,0.1-0.1,0.2l-0.1,0l0,0c0.1,0,0.1,0.1,0.2,0.1c0.1,0,0.1,0.1,0.2,0.1l0,0l-0.1-0.1c0-0.1,0.1-0.1,0.1-0.2
		l0-0.1l0.1,0c0,0.1,0,0.3,0,0.5c0.1,0,0.1,0.1,0.2,0.1l0,0l0,0c0-0.1-0.1-0.3-0.1-0.4c0.1,0,0.2,0,0.3-0.1
		C23.1,33.8,23.1,33.7,22.9,33.6L22.9,33.6L22.9,33.6z M22.8,33.8c-0.1,0.1-0.1,0.1-0.2,0c0,0,0,0-0.1,0l0-0.1
		c0-0.1,0.1-0.1,0.1-0.1c0,0,0.1,0,0.1,0.1C22.9,33.7,22.9,33.7,22.8,33.8L22.8,33.8L22.8,33.8z"/>
	<path class="st3" d="M24.1,34.2L24.1,34.2c-0.1-0.1-0.2-0.1-0.2-0.1c-0.2,0.2-0.4,0.4-0.5,0.5l-0.1,0l0,0c0,0,0.1,0,0.1,0.1
		c0,0,0.1,0,0.1,0.1l0,0l-0.1,0l0.2-0.2l0.2,0.1c0,0.1,0,0.2,0,0.2l-0.1,0l0,0c0.1,0,0.1,0.1,0.2,0.1c0.1,0,0.1,0.1,0.2,0.1l0,0
		L24,35c0-0.1,0-0.3,0-0.5L24.1,34.2L24.1,34.2L24.1,34.2z M23.9,34.6l-0.2-0.1l0.2-0.2h0L23.9,34.6L23.9,34.6L23.9,34.6z"/>
	<path class="st3" d="M26.4,34.8c0-0.1-0.1-0.1-0.1-0.2l-0.1-0.2c0-0.1-0.1-0.1-0.1-0.2l0.1,0l0,0c-0.1,0-0.1,0.1-0.2,0.1
		c-0.1,0-0.1,0-0.2,0.1l0,0l0.1,0c0,0.1,0.1,0.1,0.1,0.2l0.1,0.2c0,0.1,0.1,0.1,0.1,0.2l-0.1,0l0,0c0.1,0,0.1-0.1,0.2-0.1
		C26.4,34.9,26.5,34.9,26.4,34.8L26.4,34.8L26.4,34.8L26.4,34.8L26.4,34.8z"/>
	<path class="st3" d="M27.9,34.1c0-0.1-0.1-0.1-0.1-0.2l-0.1-0.2c0-0.1-0.1-0.1-0.1-0.2l0.1-0.1l0,0c0,0-0.1,0.1-0.1,0.1
		c0,0-0.1,0.1-0.1,0.1c0,0.1,0.1,0.5,0.1,0.6c-0.1-0.1-0.4-0.3-0.5-0.4c0,0-0.1,0.1-0.1,0.1c0,0-0.1,0.1-0.1,0.1l0,0l0.1,0l0.1,0.1
		c0.1,0.1,0.2,0.4,0.3,0.5L27,34.6l0,0c0,0,0.1,0,0.1-0.1c0,0,0.1,0,0.1-0.1l0,0l-0.1,0c0-0.1-0.1-0.1-0.1-0.2L27,34.2
		C27,34.1,26.9,34,26.9,34l0,0c0.3,0.2,0.5,0.4,0.5,0.4l0.1-0.1l-0.1-0.7l0,0c0,0,0.1,0.1,0.1,0.2l0.1,0.1c0,0.1,0.1,0.1,0.1,0.2
		l-0.1,0.1l0,0c0.1,0,0.1-0.1,0.2-0.1c0.1,0,0.1-0.1,0.2-0.1L27.9,34.1L27.9,34.1L27.9,34.1L27.9,34.1z"/>
	<path class="st3" d="M28.7,33.5c0-0.1-0.1-0.1-0.1-0.2l-0.1-0.1c0-0.1-0.1-0.1-0.1-0.2c0,0,0,0,0.1-0.1c0.1-0.1,0.2-0.1,0.2,0
		c0.1,0.1,0.1,0.1,0,0.2c0,0,0,0,0,0l0,0.1c0,0,0.1,0,0.1-0.1c0.2-0.1,0.2-0.3,0.1-0.4c-0.1-0.1-0.2-0.1-0.4,0c0,0-0.1,0.1-0.1,0.1
		c-0.1,0-0.1,0.1-0.1,0.1c0,0-0.1,0.1-0.1,0.1l0,0l0.1,0c0,0,0.1,0.1,0.1,0.2l0.1,0.2c0.1,0.1,0.1,0.1,0.1,0.2l0,0.1l0,0
		c0,0,0.1-0.1,0.1-0.1c0,0,0.1-0.1,0.2-0.1L28.7,33.5L28.7,33.5L28.7,33.5L28.7,33.5z"/>
	<path class="st3" d="M30,32.3c-0.1,0-0.3-0.1-0.4-0.2l-0.3-0.1l-0.1,0c0,0-0.1,0.1-0.1,0.2c0.1,0.2,0.3,0.5,0.3,0.7l0,0.1l0,0
		c0,0,0.1-0.1,0.1-0.1c0,0,0.1-0.1,0.1-0.1l0,0l-0.1,0l-0.1-0.2l0.2-0.2c0.1,0,0.2,0.1,0.2,0.1l0,0.1l0,0c0,0,0.1-0.1,0.1-0.1
		C30,32.3,30,32.3,30,32.3L30,32.3L30,32.3L30,32.3L30,32.3z M29.4,32.4l-0.1-0.3l0,0l0.3,0.1L29.4,32.4L29.4,32.4L29.4,32.4z"/>
	<path class="st3" d="M30.9,31.1c-0.1,0-0.4,0-0.4,0c0.1-0.1,0-0.2,0-0.3c-0.1-0.1-0.2-0.1-0.3,0.1c0,0-0.1,0.1-0.1,0.1
		c0,0-0.1,0.1-0.1,0.1c0,0-0.1,0.1-0.1,0.1l0,0l0.1-0.1c0.1,0,0.1,0.1,0.2,0.1l0.2,0.1c0.1,0.1,0.1,0.1,0.2,0.1l0,0.1l0,0
		c0-0.1,0.1-0.1,0.1-0.2c0,0,0.1-0.1,0.1-0.1l0,0l-0.1,0c-0.1,0-0.1-0.1-0.2-0.1l-0.1,0l0,0c0.1,0,0.3,0,0.5,0
		C30.9,31.3,30.9,31.2,30.9,31.1L30.9,31.1L30.9,31.1L30.9,31.1L30.9,31.1z M30.3,31.3C30.3,31.3,30.2,31.3,30.3,31.3l-0.1,0
		c-0.1,0-0.1-0.1-0.1-0.1c0,0,0-0.1,0.1-0.1c0.1-0.1,0.1-0.1,0.2,0C30.4,31.1,30.3,31.2,30.3,31.3L30.3,31.3L30.3,31.3z"/>
	<path class="st3" d="M31.4,29.7c-0.2-0.1-0.5-0.1-0.6,0.2c-0.2,0.3-0.1,0.5,0.1,0.6c0.2,0.1,0.5,0.1,0.6-0.2
		C31.6,30.1,31.6,29.8,31.4,29.7L31.4,29.7L31.4,29.7z M31.4,30.3c-0.1,0.1-0.2,0.1-0.4,0.1c-0.2-0.1-0.2-0.2-0.1-0.4
		c0.1-0.1,0.2-0.1,0.4-0.1C31.4,30,31.5,30.1,31.4,30.3L31.4,30.3L31.4,30.3z"/>
	<path class="st3" d="M25.1,34.7c-0.1,0-0.2,0.1-0.2,0.2c0,0.1,0.1,0.2,0.2,0.2c0.1,0,0.2-0.1,0.2-0.2
		C25.2,34.8,25.2,34.7,25.1,34.7L25.1,34.7L25.1,34.7z"/>
	<path class="st3" d="M18.4,29c0.1,0,0.2-0.1,0.2-0.2c0-0.1-0.1-0.2-0.2-0.2c-0.1,0-0.2,0.1-0.2,0.2C18.2,29,18.3,29,18.4,29
		L18.4,29L18.4,29z"/>
	<path class="st3" d="M31.8,29c0.1,0,0.2-0.1,0.2-0.2c0-0.1-0.1-0.2-0.2-0.2c-0.1,0-0.2,0.1-0.2,0.2C31.6,29,31.7,29,31.8,29
		L31.8,29L31.8,29z"/>
	<path class="st3" d="M31.5,17.1l-12.8,0v0.1v6.4c0,1.1,0.2,2.2,0.5,3.2l0,0l0,0.1l0.1,0.2c0,0,0,0,0,0c0.2,0.6,0.4,1.2,0.7,1.8l0,0
		l0.1,0.1l0.1,0.2l0,0c1.2,2,2.9,3.6,4.9,4.3l0,0l0,0c2-0.7,3.8-2.3,4.9-4.3l0,0l0.1-0.2l0.1-0.1l0,0c0.3-0.6,0.5-1.2,0.7-1.8
		c0,0,0,0,0,0L31,27l0-0.1l0,0c0.3-1.1,0.5-2.1,0.5-3.2V17.1L31.5,17.1L31.5,17.1z M29.9,28.9c0,0-0.1,0.2-0.1,0.1
		c-1.1,2-2.8,3.4-4.7,4.2c-1.9-0.7-3.6-2.2-4.7-4.2c0,0-0.1-0.2-0.1-0.2c0,0,0-0.1,0-0.1c0,0,0,0,0,0c0,0,0,0,0-0.1l3.8-3.4
		c0.6-0.6,1.1-1,1.1-1l4.9,4.4C30,28.8,29.9,28.8,29.9,28.9C29.9,28.8,29.9,28.9,29.9,28.9L29.9,28.9L29.9,28.9z M31.2,23.7
		c0,1-0.2,2.1-0.5,3.1c0,0,0,0.1,0,0.1c0,0,0,0,0,0.1c-0.7-0.6-5.5-4.9-5.6-5.1c0,0,0,0-0.1,0.1c0,0,0,0-0.1,0c-0.7,0.7-4.4,4-5.5,5
		c0,0,0-0.1,0-0.1c0,0,0-0.1,0-0.1v0c-0.3-1-0.5-2.1-0.5-3.1c0,0,0-6.1,0-6.3c0.5,0,11.8,0,12.3,0C31.2,17.9,31.2,23.7,31.2,23.7
		L31.2,23.7L31.2,23.7z"/>
	<path class="st3" d="M23.3,29.1l0,0.4l-0.4-0.3l-0.4,0.3l0-0.4L22.1,29l0.3-0.3l-0.2-0.4l0.4,0.1l0.2-0.4l0.2,0.4l0.4-0.1l-0.2,0.4
		l0.3,0.3L23.3,29.1L23.3,29.1L23.3,29.1z M25.7,32.3l-0.4-0.2l-0.2,0.4l-0.2-0.4l-0.4,0.2l0.2-0.4l-0.4-0.2l0.4-0.2L24.4,31
		l0.4,0.2l0.2-0.4l0.2,0.4l0.4-0.2l-0.2,0.4l0.4,0.2l-0.4,0.2L25.7,32.3L25.7,32.3L25.7,32.3z M24.4,26.3l0.4,0.1l0.2-0.4l0.2,0.4
		l0.4-0.1l-0.2,0.4l0.3,0.3l-0.4,0.1l0,0.4l-0.4-0.3l-0.4,0.3l0-0.4L24.3,27l0.3-0.3L24.4,26.3L24.4,26.3L24.4,26.3z M26.2,29.9
		l-0.3-0.2l-0.3,0.2l0.1-0.4l-0.3-0.3l0.4-0.1l0.2-0.3l0.2,0.3l0.4,0.1l-0.3,0.3L26.2,29.9L26.2,29.9L26.2,29.9z M27.6,28.5l-0.4,0
		L27,28.8l-0.2-0.3l-0.4,0l0.2-0.3l-0.2-0.3l0.4,0l0.2-0.3l0.2,0.3l0.4,0l-0.2,0.3L27.6,28.5L27.6,28.5L27.6,28.5z"/>
	<path class="st3" d="M19.4,18.5h0.3l0,0.1c0,0,0,0,0,0v3.1c0.3,0,1.8,0,1.9,0c0,0.1,0.1,0.1,0.2,0.1c0.1,0,0.1,0,0.2-0.1
		c0.1,0,1.8,0,1.9,0v-3.1c0,0,0,0,0,0l0-0.1H24h0.1v3.4c0,0-2,0-2.1,0c0,0.1-0.1,0.2-0.3,0.2c-0.1,0-0.2-0.1-0.3-0.2
		c-0.1,0-2.1,0-2.1,0V18.5L19.4,18.5L19.4,18.5z"/>
	<path class="st3" d="M21.2,18.2c-0.2,0-0.4,0-0.6,0.1c-0.2,0.1-0.5,0.1-0.7,0.1c0,0,0,0,0,0.1c0,0.4,0,2.8,0,3c0.2,0,0.5,0,0.7-0.1
		c0.2-0.1,0.4-0.1,0.6-0.1c0.2,0,0.3,0,0.5,0.1v-2.9v-0.1C21.6,18.3,21.5,18.2,21.2,18.2L21.2,18.2L21.2,18.2z M21.5,20.9
		c-0.1,0-0.2-0.1-0.3-0.1c-0.2,0-0.4,0-0.6,0.1c-0.2,0-0.4,0.1-0.6,0.1v-0.1c0.2,0,0.4-0.1,0.5-0.1c0.2-0.1,0.4-0.1,0.6-0.1
		c0.1,0,0.2,0,0.3,0V20.9L21.5,20.9L21.5,20.9z M21.5,20.5c-0.1,0-0.2-0.1-0.3-0.1c-0.2,0-0.4,0-0.6,0.1c-0.2,0-0.4,0.1-0.6,0.1
		v-0.1c0.2,0,0.4-0.1,0.5-0.1c0.2-0.1,0.4-0.1,0.6-0.1c0.1,0,0.2,0,0.3,0V20.5L21.5,20.5L21.5,20.5z M21.5,20.2
		c-0.1,0-0.2,0-0.3-0.1c-0.2,0-0.4,0-0.6,0.1c-0.2,0-0.4,0.1-0.6,0.1v-0.1c0.2,0,0.4-0.1,0.5-0.1C20.8,20,21,20,21.2,20
		c0.1,0,0.2,0,0.3,0V20.2L21.5,20.2L21.5,20.2z M21.5,19.8c-0.1,0-0.2,0-0.3-0.1c-0.2,0-0.4,0-0.6,0.1c-0.2,0-0.4,0.1-0.6,0.1v-0.1
		c0.2,0,0.4-0.1,0.5-0.1c0.2-0.1,0.4-0.1,0.6-0.1c0.1,0,0.2,0,0.3,0V19.8L21.5,19.8L21.5,19.8z M21.5,19.5c-0.1,0-0.2,0-0.3-0.1
		c-0.2,0-0.4,0-0.6,0.1c-0.2,0-0.4,0.1-0.6,0.1v-0.1c0.2,0,0.4-0.1,0.5-0.1c0.2-0.1,0.4-0.1,0.6-0.1c0.1,0,0.2,0,0.3,0V19.5
		L21.5,19.5L21.5,19.5z M21.5,19.1c-0.1,0-0.2-0.1-0.3-0.1c-0.2,0-0.4,0-0.6,0.1c-0.2,0-0.4,0.1-0.6,0.1v-0.1c0.2,0,0.4-0.1,0.5-0.1
		c0.2-0.1,0.4-0.1,0.6-0.1c0.1,0,0.2,0,0.3,0V19.1L21.5,19.1L21.5,19.1z M21.5,18.8c-0.1,0-0.2-0.1-0.3-0.1c-0.2,0-0.4,0-0.6,0.1
		c-0.2,0-0.4,0.1-0.6,0.1v-0.1c0.2,0,0.4-0.1,0.5-0.1c0.2-0.1,0.4-0.1,0.6-0.1c0.1,0,0.2,0,0.3,0V18.8L21.5,18.8L21.5,18.8z"/>
	<path class="st3" d="M21.8,18.4v0.1v2.9c0.1-0.1,0.3-0.1,0.5-0.1c0.2,0,0.4,0,0.6,0.1c0.2,0.1,0.5,0.1,0.7,0.1c0-0.1,0-2.5,0-3
		c0,0,0-0.1,0-0.1c-0.3,0-0.5,0-0.7-0.1c-0.2-0.1-0.4-0.1-0.6-0.1C22.1,18.2,21.9,18.3,21.8,18.4L21.8,18.4L21.8,18.4z M22,20.7
		c0.1,0,0.2,0,0.3,0c0.2,0,0.4,0,0.6,0.1c0.2,0,0.4,0.1,0.5,0.1V21c-0.2,0-0.4-0.1-0.6-0.1c-0.2-0.1-0.4-0.1-0.6-0.1
		c-0.1,0-0.2,0-0.3,0.1V20.7L22,20.7L22,20.7z M22,20.4c0.1,0,0.2,0,0.3,0c0.2,0,0.4,0,0.6,0.1c0.2,0,0.4,0.1,0.5,0.1v0.1
		c-0.2,0-0.4-0.1-0.6-0.1c-0.2-0.1-0.4-0.1-0.6-0.1c-0.1,0-0.2,0-0.3,0.1V20.4L22,20.4L22,20.4z M22,20c0.1,0,0.2,0,0.3,0
		c0.2,0,0.4,0,0.6,0.1c0.2,0,0.4,0.1,0.5,0.1v0.1c-0.2,0-0.4-0.1-0.6-0.1c-0.2-0.1-0.4-0.1-0.6-0.1c-0.1,0-0.2,0-0.3,0.1V20L22,20
		L22,20z M22,19.7c0.1,0,0.2,0,0.3,0c0.2,0,0.4,0,0.6,0.1c0.2,0,0.4,0.1,0.5,0.1V20c-0.2,0-0.4-0.1-0.6-0.1
		c-0.2-0.1-0.4-0.1-0.6-0.1c-0.1,0-0.2,0-0.3,0.1V19.7L22,19.7L22,19.7z M22,19.3c0.1,0,0.2,0,0.3,0c0.2,0,0.4,0,0.6,0.1
		c0.2,0,0.4,0.1,0.5,0.1v0.1c-0.2,0-0.4-0.1-0.6-0.1c-0.2-0.1-0.4-0.1-0.6-0.1c-0.1,0-0.2,0-0.3,0.1V19.3L22,19.3L22,19.3z M22,19
		c0.1,0,0.2,0,0.3,0c0.2,0,0.4,0,0.6,0.1c0.2,0,0.4,0.1,0.5,0.1v0.1c-0.2,0-0.4-0.1-0.6-0.1c-0.2-0.1-0.4-0.1-0.6-0.1
		c-0.1,0-0.2,0-0.3,0.1V19L22,19L22,19z M22,18.6c0.1,0,0.2,0,0.3,0c0.2,0,0.4,0,0.6,0.1c0.2,0,0.4,0.1,0.5,0.1v0.1
		c-0.2,0-0.4-0.1-0.6-0.1c-0.2-0.1-0.4-0.1-0.6-0.1c-0.1,0-0.2,0-0.3,0.1V18.6L22,18.6L22,18.6z"/>
	<path class="st3" d="M30.4,20c0,0.1,0,0.2-0.1,0.3c0,0-0.1,0.1-0.1,0.1c-0.1,0-0.1,0.1-0.2,0.1c0,0,0,0,0-0.1c0-0.1,0-0.2,0.1-0.3
		C30.2,20.1,30.3,20,30.4,20C30.4,19.9,30.4,20,30.4,20L30.4,20L30.4,20z"/>
	<path class="st3" d="M29.4,21.7L29.4,21.7c0.1,0,0.2,0,0.3,0.1c-0.1,0.1-0.2,0.1-0.3,0.2c-0.1,0-0.2,0-0.3-0.1
		C29.1,21.8,29.2,21.8,29.4,21.7L29.4,21.7L29.4,21.7z"/>
	<path class="st3" d="M28.8,21.9C28.8,21.9,28.8,21.9,28.8,21.9c0-0.1,0-0.2,0.1-0.3h0c0.1-0.1,0.1-0.2,0.3-0.2c0,0,0,0,0,0
		c0,0.1,0,0.2-0.1,0.3C29,21.8,28.9,21.9,28.8,21.9L28.8,21.9L28.8,21.9z"/>
	<path class="st3" d="M29.2,21.3c0-0.1,0.1-0.1,0.2-0.2c0,0.1,0,0.1,0,0.2c0,0.1,0,0.1,0,0.2c0,0.1-0.1,0.1-0.1,0.2c0,0,0,0-0.1,0
		c0,0,0,0,0,0C29.2,21.6,29.3,21.4,29.2,21.3L29.2,21.3L29.2,21.3z"/>
	<path class="st3" d="M29.5,21c0-0.1,0.1-0.1,0.1-0.2c0,0.1,0.1,0.2,0.1,0.3c0,0,0,0,0,0c0,0.1,0,0.2-0.1,0.2c0,0,0,0-0.1,0
		c0,0,0,0,0,0C29.5,21.3,29.5,21.2,29.5,21L29.5,21L29.5,21z"/>
	<path class="st3" d="M29.6,20.7c0-0.1,0-0.2,0.1-0.2c0.1,0.1,0.1,0.2,0.2,0.3c0,0,0,0,0,0.1c0,0.1,0,0.1,0,0.2c0,0,0,0-0.1,0.1
		c0,0,0,0,0,0C29.8,20.9,29.7,20.8,29.6,20.7L29.6,20.7L29.6,20.7z"/>
	<path class="st3" d="M29.7,20.4c0,0,0-0.1,0-0.1c0,0,0-0.1,0-0.1c0.1,0.1,0.2,0.1,0.2,0.2c0,0.1,0,0.1,0,0.2c0,0,0,0,0,0
		c0,0,0,0,0,0.1c0,0,0,0,0,0C29.9,20.6,29.8,20.4,29.7,20.4L29.7,20.4L29.7,20.4z"/>
	<path class="st3" d="M29.7,20c0-0.1-0.1-0.2-0.1-0.2c0.1,0,0.2,0.1,0.3,0.2c0,0.1,0.1,0.1,0.1,0.2c0,0,0,0.1,0,0.1c0,0,0,0,0,0
		C29.9,20.1,29.8,20.1,29.7,20L29.7,20L29.7,20z"/>
	<path class="st3" d="M30,19.8C30,19.8,30,19.8,30,19.8c-0.1-0.1-0.2-0.1-0.3-0.2c0-0.1-0.1-0.1-0.1-0.2c0.1,0,0.2,0,0.3,0.1
		C29.9,19.6,30,19.7,30,19.8C30,19.8,30,19.8,30,19.8L30,19.8L30,19.8z"/>
	<path class="st3" d="M29.8,19.4c-0.1-0.1-0.2-0.1-0.3-0.1c-0.1,0-0.1-0.1-0.2-0.2c0.1,0,0.2,0,0.3,0.1
		C29.7,19.2,29.8,19.3,29.8,19.4C29.8,19.4,29.9,19.4,29.8,19.4C29.9,19.4,29.8,19.4,29.8,19.4L29.8,19.4L29.8,19.4z"/>
	<path class="st3" d="M29.6,21.7c-0.1,0-0.1,0-0.2,0c0.1-0.1,0.1-0.2,0.2-0.2h0c0.1,0,0.2,0,0.3,0c-0.1,0.1-0.1,0.2-0.3,0.2
		C29.7,21.6,29.7,21.7,29.6,21.7L29.6,21.7L29.6,21.7z"/>
	<path class="st3" d="M29.9,21.3c-0.1,0-0.1,0-0.2,0c0-0.1,0.1-0.2,0.2-0.3h0c0.1-0.1,0.2-0.1,0.3-0.1c0,0.1-0.1,0.2-0.2,0.3
		C30,21.2,30,21.3,29.9,21.3L29.9,21.3L29.9,21.3z"/>
	<path class="st3" d="M30.3,20.8c0,0-0.1,0.1-0.1,0.1c-0.1,0-0.1,0-0.2,0.1c0-0.1,0.1-0.2,0.1-0.3c0.1-0.1,0.2-0.1,0.3-0.2
		C30.4,20.6,30.3,20.7,30.3,20.8L30.3,20.8L30.3,20.8z"/>
	<path class="st3" d="M30.3,19.6c0,0,0,0.1,0,0.1c0,0.1,0,0.1-0.1,0.1c0,0-0.1,0.1-0.1,0.1c0-0.1,0-0.1,0-0.2c0,0,0-0.1,0-0.1
		c0-0.1,0.1-0.2,0.2-0.3C30.3,19.5,30.3,19.6,30.3,19.6L30.3,19.6L30.3,19.6z"/>
	<path class="st3" d="M29.9,19.3c0-0.1,0-0.2,0.1-0.3c0.1,0.1,0.1,0.2,0.1,0.3c0,0,0,0,0,0c0,0.1,0,0.1,0,0.2c0,0-0.1,0.1-0.1,0.1
		C30,19.5,29.9,19.4,29.9,19.3C29.9,19.3,29.9,19.3,29.9,19.3L29.9,19.3L29.9,19.3z"/>
	<path class="st3" d="M29.7,18.6c0.1,0.1,0.2,0.2,0.2,0.3c0,0,0,0.1,0,0.1c0,0,0,0,0,0c0,0.1,0,0.1-0.1,0.2
		c-0.1-0.1-0.1-0.2-0.2-0.3c0,0,0-0.1,0-0.1C29.7,18.7,29.7,18.6,29.7,18.6L29.7,18.6L29.7,18.6z"/>
	<path class="st3" d="M29.6,19.1C29.6,19.1,29.6,19.1,29.6,19.1c-0.1,0-0.2,0-0.4,0c-0.1,0-0.1-0.1-0.2-0.2c0.1,0,0.2,0,0.3,0
		C29.5,18.9,29.5,18.9,29.6,19.1C29.6,19,29.6,19,29.6,19.1L29.6,19.1L29.6,19.1z"/>
	<path class="st3" d="M29.3,18.2c0.1,0.1,0.2,0.1,0.2,0.2c0,0,0,0.1,0,0.1c0,0.1,0,0.1,0,0.2c-0.1-0.1-0.2-0.1-0.2-0.2
		C29.3,18.5,29.3,18.4,29.3,18.2C29.3,18.3,29.3,18.3,29.3,18.2L29.3,18.2L29.3,18.2z"/>
	<path class="st3" d="M29.2,18.5C29.2,18.5,29.2,18.5,29.2,18.5c0,0.1,0.1,0.1,0.1,0.2l0,0c0,0,0,0.1,0.1,0.1c-0.1,0-0.2,0-0.3-0.1
		c-0.1-0.1-0.2-0.2-0.2-0.3C29,18.4,29.1,18.4,29.2,18.5L29.2,18.5L29.2,18.5z"/>
	<path class="st3" d="M27.2,21.7C27.2,21.7,27.2,21.7,27.2,21.7C27.2,21.7,27.1,21.7,27.2,21.7c-0.1-0.1-0.2-0.1-0.2-0.2
		c0-0.1,0-0.1,0-0.2c0-0.1,0-0.1,0-0.2c0.1,0.1,0.1,0.1,0.2,0.2C27.1,21.4,27.2,21.6,27.2,21.7L27.2,21.7L27.2,21.7z"/>
	<path class="st3" d="M26.9,19.3c-0.1,0-0.2,0-0.3,0.1c0,0,0,0,0,0c0,0,0-0.1,0-0.1c0-0.1,0.1-0.1,0.2-0.2c0.1,0,0.2-0.1,0.3-0.1
		C27,19.2,27,19.3,26.9,19.3L26.9,19.3L26.9,19.3z"/>
	<path class="st3" d="M26.9,21.4C26.9,21.4,26.9,21.4,26.9,21.4C26.8,21.4,26.8,21.4,26.9,21.4c-0.1-0.1-0.1-0.2-0.2-0.3
		c0,0,0,0,0,0c0-0.1,0-0.2,0.1-0.3c0.1,0.1,0.1,0.1,0.1,0.2C26.9,21.2,26.9,21.3,26.9,21.4L26.9,21.4L26.9,21.4z"/>
	<path class="st3" d="M26.5,20.8c0-0.1,0.1-0.2,0.2-0.3c0,0.1,0.1,0.2,0.1,0.2c-0.1,0.1-0.1,0.2-0.1,0.3c0,0,0,0,0,0
		c0,0,0,0-0.1-0.1C26.5,21,26.5,20.9,26.5,20.8C26.5,20.8,26.5,20.8,26.5,20.8L26.5,20.8L26.5,20.8z"/>
	<path class="st3" d="M26.5,20.7C26.5,20.7,26.5,20.7,26.5,20.7C26.4,20.7,26.4,20.6,26.5,20.7C26.4,20.6,26.4,20.6,26.5,20.7
		c-0.1-0.2,0-0.2,0-0.3c0-0.1,0.1-0.2,0.2-0.2c0,0,0,0.1,0,0.1c0,0,0,0.1,0,0.1C26.6,20.4,26.5,20.6,26.5,20.7L26.5,20.7L26.5,20.7z
		"/>
	<path class="st3" d="M26.5,19.6c0.1-0.1,0.2-0.1,0.3-0.1c0,0.1-0.1,0.2-0.1,0.2c-0.1,0-0.2,0.1-0.3,0.2c0,0,0,0,0,0c0,0,0,0,0-0.1
		C26.4,19.7,26.5,19.6,26.5,19.6L26.5,19.6L26.5,19.6z"/>
	<path class="st3" d="M26.4,20c0.1-0.1,0.2-0.1,0.3-0.2c0,0.1,0,0.2-0.1,0.2c-0.1,0.1-0.2,0.1-0.3,0.2c0,0,0,0,0,0c0,0,0-0.1,0-0.1
		C26.4,20.1,26.4,20,26.4,20L26.4,20L26.4,20z"/>
	<path class="st3" d="M26.4,20.9c-0.1,0-0.1,0-0.2-0.1c0,0-0.1-0.1-0.1-0.1c-0.1-0.1-0.1-0.2-0.1-0.3c0.1,0,0.2,0.1,0.3,0.2
		C26.4,20.7,26.4,20.8,26.4,20.9L26.4,20.9L26.4,20.9z"/>
	<path class="st3" d="M26.4,21L26.4,21c0.1,0.1,0.1,0.2,0.2,0.3c-0.1,0-0.1,0-0.2,0c-0.1,0-0.1,0-0.1-0.1c-0.1-0.1-0.2-0.2-0.2-0.3
		C26.2,20.9,26.4,21,26.4,21L26.4,21L26.4,21z"/>
	<path class="st3" d="M26.7,21.4L26.7,21.4c0.1,0,0.2,0.1,0.2,0.2c-0.1,0-0.1,0-0.2,0c-0.1,0-0.1,0-0.2,0c-0.1,0-0.2-0.1-0.3-0.2
		C26.5,21.4,26.6,21.4,26.7,21.4L26.7,21.4L26.7,21.4z"/>
	<path class="st3" d="M27,21.7L27,21.7c0.1,0,0.2,0.1,0.3,0.2C27.2,21.9,27.1,22,27,22c-0.1,0-0.2-0.1-0.3-0.2
		C26.8,21.7,26.9,21.7,27,21.7L27,21.7L27,21.7z"/>
	<path class="st3" d="M27.3,21.7c-0.1-0.1-0.1-0.2-0.1-0.3c0,0,0,0,0,0c0.1,0,0.2,0.1,0.3,0.2v0c0.1,0.1,0.1,0.2,0.1,0.3
		c0,0,0,0,0,0C27.5,21.9,27.4,21.8,27.3,21.7L27.3,21.7L27.3,21.7z"/>
	<path class="st3" d="M27.1,18.6c0,0,0-0.1,0-0.1c0,0,0,0,0,0c0.1-0.1,0.2-0.1,0.3-0.1c0,0.1-0.1,0.2-0.2,0.3
		c-0.1,0.1-0.2,0.1-0.3,0.1C27.1,18.7,27.1,18.7,27.1,18.6L27.1,18.6L27.1,18.6L27.1,18.6z"/>
	<path class="st3" d="M26.9,18.5c0.1-0.1,0.1-0.2,0.2-0.2c0,0,0,0.1,0,0.1c0,0.1,0,0.2-0.1,0.2c-0.1,0.1-0.1,0.2-0.2,0.2
		c0-0.1,0-0.1,0-0.2C26.8,18.6,26.8,18.5,26.9,18.5L26.9,18.5L26.9,18.5z"/>
	<path class="st3" d="M26.8,19c0.1-0.1,0.1-0.1,0.2-0.1c0.1,0,0.2,0,0.3,0C27.3,19,27.2,19,27.1,19C27,19,26.9,19,26.8,19
		C26.8,19.1,26.8,19.1,26.8,19C26.8,19,26.8,19,26.8,19L26.8,19L26.8,19z"/>
	<path class="st3" d="M26.5,18.8c0-0.1,0.1-0.2,0.2-0.3c0,0.1,0,0.1,0,0.2c0,0,0,0.1,0,0.1c0,0.1-0.1,0.2-0.2,0.3
		c0-0.1,0-0.1-0.1-0.2c0,0,0,0,0,0C26.5,18.9,26.5,18.9,26.5,18.8L26.5,18.8L26.5,18.8z"/>
	<path class="st3" d="M26.2,19.3c0-0.1,0-0.2,0.1-0.3c0.1,0.1,0.1,0.2,0.1,0.3c0,0,0,0,0,0c0,0.1,0,0.2-0.1,0.3
		c0-0.1-0.1-0.1-0.1-0.1C26.2,19.4,26.2,19.3,26.2,19.3C26.2,19.3,26.2,19.3,26.2,19.3L26.2,19.3L26.2,19.3z"/>
	<path class="st3" d="M26.1,19.4c0.1,0.1,0.2,0.2,0.2,0.3c0,0,0,0.1,0,0.1c0,0.1,0,0.1,0,0.2c0,0-0.1-0.1-0.1-0.1
		c0,0-0.1-0.1-0.1-0.1c0,0,0-0.1,0-0.1C26.1,19.6,26.1,19.5,26.1,19.4L26.1,19.4L26.1,19.4z"/>
	<path class="st3" d="M26,19.9c0.1,0.1,0.2,0.1,0.2,0.2c0,0.1,0.1,0.2,0.1,0.3c0,0,0,0,0,0.1c0,0-0.1-0.1-0.2-0.1
		c0,0-0.1-0.1-0.1-0.1C26,20.2,26,20.1,26,19.9C26,20,26,19.9,26,19.9L26,19.9L26,19.9z"/>
	<path class="st3" d="M28.9,22L28.9,22c-0.2,0.1-0.3,0.1-0.5,0.2c0.1-0.1,0.1-0.3,0.1-0.5c0-0.2,0-0.3-0.1-0.4h0.3
		c0.2,0,0.2-0.1,0.2-0.2c0-0.1-0.1-0.1-0.1-0.1c-0.1,0-0.1,0.1-0.1,0.1c0,0,0,0,0,0.1c0,0,0,0,0,0h-0.2V19c0-0.3,0-0.6-0.2-1l0-0.1
		l0,0.1C28,18.3,28,18.7,28,19v2.2h-0.2c0,0,0,0,0,0c0,0,0,0,0-0.1c0-0.1-0.1-0.1-0.1-0.1c-0.1,0-0.1,0.1-0.1,0.1
		c0,0.1,0.1,0.2,0.2,0.2H28c0,0.1-0.1,0.3-0.1,0.4c0,0.2,0,0.4,0.1,0.5c-0.2,0-0.4-0.1-0.5-0.2l0,0l0,0.1l0,0
		c0.1,0.1,0.3,0.1,0.4,0.1c0,0,0.1,0,0.2,0c0,0,0,0.1,0,0.1c0,0.1,0.1,0.1,0.1,0.1c0.1,0,0.1-0.1,0.1-0.1c0,0,0-0.1,0-0.1
		c0.1,0,0.2,0,0.2,0C28.6,22.2,28.8,22.1,28.9,22L28.9,22L28.9,22L28.9,22L28.9,22z M28.3,21h-0.1v-2.9c0.1,0.3,0.1,0.6,0.1,0.8V21
		L28.3,21L28.3,21z"/>
</g>
<rect x="13.5" y="179" class="st4" width="90.5" height="20.7"/>
<g>
	<path class="st3" d="M21.5,193.6v-7.4h-2v-1.2h5.4v1.2h-2v7.4H21.5z"/>
	<path class="st3" d="M29.8,188.6v3.7c0,0.1,0,0.2,0.1,0.3c0.1,0.1,0.1,0.1,0.2,0.1c0.1,0,0.2,0,0.2,0v0.8c-0.2,0.1-0.4,0.2-0.6,0.2
		c-0.7,0-1.1-0.3-1.1-0.9h0c-0.3,0.6-0.9,0.9-1.6,0.9c-0.5,0-0.9-0.2-1.2-0.5s-0.4-0.8-0.4-1.4c0-0.7,0.1-1.1,0.4-1.4
		c0.2-0.3,0.6-0.5,1.1-0.6l1-0.3c0.3-0.1,0.5-0.2,0.6-0.3c0.1-0.1,0.2-0.3,0.2-0.6c0-0.3-0.1-0.5-0.2-0.7s-0.4-0.2-0.7-0.2
		c-0.4,0-0.7,0.1-0.8,0.3c-0.1,0.2-0.2,0.5-0.2,0.9h-1.2c0-0.7,0.2-1.2,0.5-1.6c0.3-0.4,0.9-0.5,1.8-0.5c0.6,0,1.1,0.1,1.5,0.4
		S29.8,188,29.8,188.6z M28.5,191.3v-1.1c-0.1,0.1-0.4,0.2-0.8,0.4c-0.4,0.1-0.6,0.2-0.7,0.2c-0.4,0.2-0.5,0.5-0.5,1
		c0,0.3,0.1,0.5,0.2,0.7c0.1,0.2,0.3,0.3,0.6,0.3c0.4,0,0.7-0.1,0.9-0.4C28.4,192.2,28.5,191.8,28.5,191.3z"/>
	<path class="st3" d="M31.1,193.6v-8.6h1.3v4.8h0l2-2.7l1.5,0l-1.9,2.5l2.2,4h-1.4l-1.6-2.9l-0.7,0.9v2.1H31.1z"/>
	<path class="st3" d="M41.1,190.6h-3.4v0.4c0,0.3,0,0.5,0,0.7s0.1,0.4,0.1,0.6c0.1,0.2,0.2,0.4,0.3,0.5c0.2,0.1,0.3,0.2,0.6,0.2
		c0.2,0,0.4-0.1,0.5-0.2c0.1-0.1,0.3-0.2,0.3-0.4s0.1-0.3,0.1-0.5c0-0.1,0-0.3,0-0.4h1.2c0,0.7-0.2,1.3-0.6,1.7
		c-0.4,0.4-1,0.6-1.7,0.6c-0.2,0-0.5,0-0.7-0.1s-0.4-0.1-0.6-0.3s-0.4-0.3-0.6-0.5c-0.1-0.2-0.3-0.5-0.4-1c-0.1-0.4-0.2-0.9-0.2-1.5
		c0-0.5,0-0.9,0.1-1.3s0.2-0.7,0.3-1.1c0.2-0.4,0.4-0.6,0.7-0.8s0.7-0.3,1.2-0.3c0.9,0,1.4,0.2,1.8,0.7s0.5,1.2,0.5,2.2V190.6z
		 M37.8,189.7h2.1v-0.3c0-1-0.3-1.4-1-1.4c-0.4,0-0.7,0.2-0.8,0.5c-0.2,0.3-0.3,0.7-0.3,1.2V189.7z"/>
	<path class="st3" d="M49.3,188.6v3.7c0,0.1,0,0.2,0.1,0.3c0.1,0.1,0.1,0.1,0.2,0.1c0.1,0,0.2,0,0.2,0v0.8c-0.2,0.1-0.4,0.2-0.6,0.2
		c-0.7,0-1.1-0.3-1.1-0.9h0c-0.3,0.6-0.9,0.9-1.6,0.9c-0.5,0-0.9-0.2-1.2-0.5s-0.4-0.8-0.4-1.4c0-0.7,0.1-1.1,0.4-1.4
		c0.2-0.3,0.6-0.5,1.1-0.6l1-0.3c0.3-0.1,0.5-0.2,0.6-0.3c0.1-0.1,0.2-0.3,0.2-0.6c0-0.3-0.1-0.5-0.2-0.7s-0.4-0.2-0.7-0.2
		c-0.4,0-0.7,0.1-0.8,0.3c-0.1,0.2-0.2,0.5-0.2,0.9H45c0-0.7,0.2-1.2,0.5-1.6c0.3-0.4,0.9-0.5,1.8-0.5c0.6,0,1.1,0.1,1.5,0.4
		S49.3,188,49.3,188.6z M48.1,191.3v-1.1c-0.1,0.1-0.4,0.2-0.8,0.4c-0.4,0.1-0.6,0.2-0.7,0.2c-0.4,0.2-0.5,0.5-0.5,1
		c0,0.3,0.1,0.5,0.2,0.7c0.1,0.2,0.3,0.3,0.6,0.3c0.4,0,0.7-0.1,0.9-0.4C48,192.2,48.1,191.8,48.1,191.3z"/>
	<path class="st3" d="M53.6,193.6v-8.6h1.3v8.6H53.6z"/>
	<path class="st3" d="M55.9,190.4c0-1.1,0.2-1.9,0.5-2.5c0.4-0.6,1-0.9,1.9-0.9c0.9,0,1.5,0.3,1.9,0.9s0.5,1.4,0.5,2.5
		c0,2.3-0.8,3.4-2.4,3.4C56.7,193.8,55.9,192.7,55.9,190.4z M57.2,190.4c0,0.9,0.1,1.5,0.2,1.9c0.1,0.4,0.4,0.6,0.9,0.6
		c0.4,0,0.7-0.2,0.9-0.6s0.2-1,0.2-1.9c0-0.8-0.1-1.4-0.2-1.8c-0.2-0.4-0.4-0.6-0.9-0.6c-0.4,0-0.7,0.2-0.9,0.6
		C57.3,189,57.2,189.6,57.2,190.4z"/>
	<path class="st3" d="M61.5,190.4c0-1.1,0.2-1.9,0.5-2.5c0.4-0.6,1-0.9,1.9-0.9c0.9,0,1.5,0.3,1.9,0.9s0.5,1.4,0.5,2.5
		c0,2.3-0.8,3.4-2.4,3.4C62.3,193.8,61.5,192.7,61.5,190.4z M62.8,190.4c0,0.9,0.1,1.5,0.2,1.9c0.1,0.4,0.4,0.6,0.9,0.6
		c0.4,0,0.7-0.2,0.9-0.6s0.2-1,0.2-1.9c0-0.8-0.1-1.4-0.2-1.8c-0.2-0.4-0.4-0.6-0.9-0.6c-0.4,0-0.7,0.2-0.9,0.6
		C62.9,189,62.8,189.6,62.8,190.4z"/>
	<path class="st3" d="M67.3,193.6v-8.6h1.3v4.8h0l2-2.7l1.5,0l-1.9,2.5l2.2,4h-1.4l-1.6-2.9l-0.7,0.9v2.1H67.3z"/>
	<path class="st3" d="M75.7,193.6v-6.5H77v0.8h0c0.2-0.3,0.4-0.5,0.7-0.7s0.6-0.2,1-0.2c0.5,0,0.9,0.1,1.2,0.4
		c0.3,0.3,0.4,0.7,0.4,1.3v4.9H79v-4.4c0-0.4-0.1-0.7-0.2-0.9s-0.4-0.3-0.7-0.3c-0.3,0-0.5,0.1-0.7,0.3c-0.2,0.2-0.3,0.5-0.3,0.9
		v4.3H75.7z"/>
	<path class="st3" d="M81.2,190.4c0-1.1,0.2-1.9,0.5-2.5c0.4-0.6,1-0.9,1.9-0.9c0.9,0,1.5,0.3,1.9,0.9s0.5,1.4,0.5,2.5
		c0,2.3-0.8,3.4-2.4,3.4C82,193.8,81.2,192.7,81.2,190.4z M82.5,190.4c0,0.9,0.1,1.5,0.2,1.9c0.1,0.4,0.4,0.6,0.9,0.6
		c0.4,0,0.7-0.2,0.9-0.6s0.2-1,0.2-1.9c0-0.8-0.1-1.4-0.2-1.8c-0.2-0.4-0.4-0.6-0.9-0.6c-0.4,0-0.7,0.2-0.9,0.6
		C82.6,189,82.5,189.6,82.5,190.4z"/>
	<path class="st3" d="M88.1,193.6l-1.5-6.5H88l0.9,5.1h0l1-5.1h1.5l1,5.1h0l0.9-5.1h1.3l-1.5,6.5h-1.5l-1-5h0l-0.9,5H88.1z"/>
	<path class="st3" d="M95.4,193.6V192h1.4v1.6H95.4z"/>
</g>
</svg>
