<svg enable-background="new 0 0 250 250" viewBox="0 0 250 250" xmlns="http://www.w3.org/2000/svg" xmlns:xlink="http://www.w3.org/1999/xlink"><linearGradient id="a" gradientUnits="userSpaceOnUse" x1="112.7051" x2="239.9414" y1="114.6171" y2="135.7373"><stop offset=".1498" stop-color="#076cac"/><stop offset="1" stop-color="#076cac" stop-opacity="0"/></linearGradient><path d="m0 0h250v250h-250z" fill="#076cac"/><image height="5617" overflow="visible" transform="matrix(.0513 0 0 .0513 127 -35)" width="3745" xlink:href="A49EA4DF5F6E9CC9.jpg"/><image height="5617" opacity=".07" overflow="visible" transform="matrix(.0513 0 0 .0513 127 -35)" width="3745" xlink:href="A49EA4DF5F6E9CCB.jpg"/><path d="m104.45-.5h138.6v250.5h-138.6z" fill="url(#a)"/><path d="m63.2 219.06c-.17-.39.04-.67.45-.76l.52-.13c.39-.09.58.06.79.42.34.6 1.08 1.03 2.04 1.03 1.2 0 1.93-.55 1.93-1.35 0-.66-.53-1.11-1.35-1.41l-1.45-.51c-1.62-.52-2.62-1.59-2.62-2.88 0-1.87 1.62-3.03 3.55-3.03 1.63 0 2.8.76 3.33 1.95.18.38 0 .69-.4.79l-.48.13c-.38.12-.61-.03-.81-.37-.3-.57-.85-.84-1.62-.84-.85 0-1.6.45-1.6 1.26 0 .4.16.9 1.21 1.29l1.47.54c1.9.61 2.7 1.75 2.71 2.97 0 1.96-1.62 3.1-3.83 3.1-1.92 0-3.29-.88-3.84-2.2"/><path d="m72.55 218.63v-3.67h-.84c-.22 0-.35-.12-.35-.35v-.78c0-.21.12-.34.35-.34h.93l.27-1.63c.05-.3.24-.45.52-.45h.52c.32 0 .5.18.5.49v1.59h1.89c.23 0 .34.13.34.34v.78c0 .23-.12.35-.34.35h-1.89v3.75c0 .69.34.96.75.96.42 0 .76-.29.76-.75 0-.08 0-.17-.01-.27-.03-.24.04-.38.28-.38h.79c.19 0 .35.07.39.27.06.25.08.51.08.57 0 1.41-.99 2.16-2.41 2.16-1.26-.01-2.53-.61-2.53-2.64"/><path d="m78.55 217.83v-3.7c0-.4.24-.64.64-.64h.66c.4 0 .63.24.63.64v3.61c0 1.3.57 1.9 1.36 1.9.78 0 1.96-.58 1.96-2.43v-3.09c0-.4.24-.64.64-.64h.66c.4 0 .63.24.63.64v6.34c0 .4-.22.63-.63.63h-.66c-.4 0-.64-.23-.64-.63v-.72c-.35.96-1.24 1.51-2.41 1.51-1.85.01-2.84-1.34-2.84-3.42"/><path d="m87.18 217.29c0-2.22 1.5-3.97 3.7-3.97 1.02 0 1.95.37 2.58 1.3v-3.73c0-.4.24-.63.65-.63h.66c.4 0 .63.22.63.63v9.57c0 .4-.22.63-.63.63h-.66c-.4 0-.65-.22-.65-.63v-.51c-.63.93-1.56 1.3-2.58 1.3-2.2.01-3.7-1.74-3.7-3.96m6.33 0c-.02-1.36-.91-2.37-2.25-2.37-1.36 0-2.14 1.08-2.14 2.37 0 1.3.78 2.37 2.14 2.37 1.33 0 2.23-1.01 2.25-2.37"/><path d="m97.33 220.47v-6.34c0-.4.22-.64.63-.64h.67c.4 0 .63.24.63.64v6.34c0 .4-.23.63-.63.63h-.67c-.4 0-.63-.23-.63-.63"/><path d="m100.65 217.29c0-2.19 1.78-3.97 4.11-3.97 2.32 0 4.12 1.8 4.12 3.97 0 2.2-1.8 3.97-4.12 3.97-2.33 0-4.11-1.77-4.11-3.97m6.35.02c0-1.32-.99-2.37-2.25-2.37s-2.25 1.05-2.25 2.37c0 1.3.99 2.34 2.25 2.34 1.27-.01 2.25-1.04 2.25-2.34"/><path d="m109.86 219.76c-.2-.4.01-.69.42-.79l.39-.09c.36-.09.54.07.79.36.27.33.74.54 1.26.54.66 0 1.12-.36 1.12-.84 0-.4-.31-.61-.81-.79l-.97-.35c-.97-.3-2.02-.9-2.02-2.14 0-1.35 1.11-2.34 2.68-2.34.96 0 1.84.32 2.37 1.21.25.39.04.7-.37.81l-.35.09c-.36.09-.55-.04-.79-.3-.22-.27-.53-.34-.82-.34-.58 0-.93.36-.93.79 0 .4.36.61.78.75l1.02.36c1.51.48 1.99 1.36 2.01 2.23 0 1.53-1.35 2.34-2.91 2.34-1.28 0-2.36-.51-2.87-1.5"/><path d="m116.96 220.47v-6.34c0-.4.22-.64.63-.64h.67c.4 0 .63.24.63.64v6.34c0 .4-.23.63-.63.63h-.67c-.41 0-.63-.23-.63-.63"/><path d="m121.15 218.63v-3.67h-.84c-.22 0-.35-.12-.35-.35v-.78c0-.21.12-.34.35-.34h.93l.27-1.63c.05-.3.24-.45.52-.45h.52c.32 0 .5.18.5.49v1.59h1.89c.23 0 .34.13.34.34v.78c0 .23-.12.35-.34.35h-1.89v3.75c0 .69.34.96.75.96.42 0 .76-.29.76-.75 0-.08 0-.17-.01-.27-.03-.24.04-.38.28-.38h.79c.19 0 .35.07.39.27.06.25.08.51.08.57 0 1.41-.99 2.16-2.41 2.16-1.26-.01-2.53-.61-2.53-2.64"/><path d="m128.12 223.72 1.21-3.03-2.86-6.46c-.19-.43.01-.75.49-.75h.81c.36 0 .6.16.72.51l1.83 4.63 1.75-4.63c.13-.35.37-.51.75-.51h.79c.46 0 .67.3.48.75l-4.2 9.74c-.15.34-.38.48-.73.48h-.55c-.48 0-.67-.3-.49-.73"/><path d="m98.15 208.26h19.92v2.36h-19.92z" fill="#e1e328" transform="matrix(.9851 -.172 .172 .9851 -34.4169 21.7194)"/><path d="m99.48 211.14c0 .65-.53 1.18-1.18 1.18s-1.18-.53-1.18-1.18.53-1.18 1.18-1.18 1.18.52 1.18 1.18"/><path d="m119.18 207.71c0 .65-.53 1.18-1.18 1.18s-1.18-.53-1.18-1.18.53-1.18 1.18-1.18 1.18.53 1.18 1.18"/><g fill="#fff"><path d="m14.43 219.2v-6.94h1.77.32s.2.02.37.04c.17.03.3.06.42.11.11.05.24.12.38.22s.26.22.34.35c.09.14.16.31.22.53s.09.46.09.73c0 .63-.18 1.13-.55 1.48s-.85.53-1.45.53h-1.06v2.93h-.85zm.85-6.24v2.6h1.02c.33 0 .6-.12.82-.34.22-.23.33-.57.33-1.01 0-.83-.4-1.25-1.2-1.25z"/><path d="m20.7 219.33c-1.25 0-1.87-.91-1.87-2.74s.62-2.74 1.87-2.74 1.88.91 1.88 2.74-.63 2.74-1.88 2.74zm-.02-.64c.39 0 .67-.19.82-.56s.22-.89.22-1.54c0-.31-.01-.58-.04-.81s-.08-.45-.15-.66-.18-.36-.32-.47-.32-.16-.52-.16-.37.05-.51.17c-.14.11-.24.27-.31.47s-.12.42-.15.66c-.03.23-.04.5-.04.81s.01.58.04.81.07.45.15.66c.07.21.17.36.31.47.13.1.3.15.5.15z"/><path d="m24.16 219.2-1.21-5.21h.85l.83 4.25h.02l.88-4.25h.96l.86 4.25h.02l.81-4.25h.85l-1.23 5.21h-.89l-.91-4.25h-.02l-.87 4.25z"/><path d="m33.1 216.69h-2.74v.43c0 .11.01.25.03.44s.05.33.09.44c.05.11.1.22.17.34s.16.2.28.26.26.09.42.09c.24 0 .43-.08.57-.24s.23-.32.26-.47c.03-.16.05-.32.05-.5h.82c0 .16-.03.34-.08.52-.05.19-.14.39-.26.6s-.3.38-.55.52-.53.2-.86.2c-.63 0-1.09-.22-1.37-.66-.29-.44-.43-1.11-.43-2.02 0-.29.01-.56.04-.8s.08-.49.16-.75.18-.48.32-.66c.13-.18.31-.32.54-.44.23-.11.5-.17.81-.17.3 0 .57.05.79.16s.39.24.51.39c.12.16.21.35.28.59s.12.46.13.66c.02.2.02.43.02.7zm-2.71-.64h1.86v-.28c0-.35-.07-.65-.21-.9s-.37-.37-.69-.37c-.2 0-.37.05-.5.16-.14.11-.23.24-.29.41s-.1.31-.12.44-.03.25-.03.35v.19z"/><path d="m33.99 219.2v-5.21h.82v.78h.02c.28-.61.66-.91 1.13-.91.16 0 .28.02.36.06v.8c-.21-.03-.35-.04-.44-.04-.25 0-.49.11-.72.33s-.35.52-.35.91v3.29h-.82z"/><path d="m40.29 216.69h-2.74v.43c0 .11.01.25.03.44s.05.33.09.44c.05.11.1.22.17.34s.16.2.28.26.26.09.42.09c.24 0 .43-.08.57-.24s.23-.32.26-.47c.03-.16.05-.32.05-.5h.82c0 .16-.03.34-.08.52-.05.19-.14.39-.26.6s-.3.38-.55.52-.53.2-.86.2c-.63 0-1.09-.22-1.37-.66-.29-.44-.43-1.11-.43-2.02 0-.29.01-.56.04-.8s.08-.49.16-.75.18-.48.32-.66c.13-.18.31-.32.54-.44.23-.11.5-.17.81-.17.3 0 .57.05.79.16s.39.24.51.39c.12.16.21.35.28.59s.12.46.13.66c.02.2.02.43.02.7zm-2.71-.64h1.86v-.28c0-.35-.07-.65-.21-.9s-.37-.37-.69-.37c-.2 0-.37.05-.5.16-.14.11-.23.24-.29.41s-.1.31-.12.44-.03.25-.03.35v.19z"/><path d="m44.61 212.26v6.94h-.78v-.64h-.02c-.06.21-.19.39-.4.54-.21.16-.45.23-.72.23-1.13 0-1.7-.91-1.7-2.74s.55-2.74 1.64-2.74c.24 0 .47.07.69.2s.37.31.46.53h.02v-2.32zm-2.56 2.81c-.14.34-.21.85-.21 1.52s.07 1.18.21 1.53c.14.34.39.51.74.51.41 0 .69-.17.83-.51s.21-.85.21-1.53c0-1.36-.35-2.04-1.05-2.04-.34 0-.59.17-.73.52z"/><path d="m48.01 219.2v-6.94h.82v2.32h.02c.09-.22.25-.4.47-.53s.47-.2.73-.2c1.06 0 1.58.91 1.58 2.74 0 .8-.14 1.45-.42 1.97s-.71.77-1.28.77c-.27 0-.51-.08-.72-.23-.21-.16-.34-.34-.4-.54h-.02v.64zm.77-2.61c0 .4.02.74.07 1.02s.15.51.32.72c.16.2.38.31.66.31.36 0 .6-.18.74-.53s.21-.86.21-1.51c0-.67-.07-1.18-.21-1.52s-.39-.52-.74-.52c-.7-.01-1.05.67-1.05 2.03z"/><path d="m53.6 219.3-1.53-5.31h.89l1.03 4.18h.02l.91-4.18h.89l-1.51 5.56c-.06.22-.11.39-.17.52s-.13.27-.23.41c-.1.15-.23.25-.4.32s-.36.1-.6.1c-.12 0-.32-.01-.59-.03v-.64c.12.02.28.03.48.03.31 0 .52-.17.64-.5z"/><path d="m15.14 75.37v-12.85h3.85l1.84 9.07h.04l1.85-9.07h3.83v12.85h-2.38v-10.26h-.04l-2.29 10.26h-2.02l-2.29-10.26h-.04v10.26z"/><path d="m28.01 70.53c0-1.72.29-2.99.87-3.83s1.56-1.26 2.94-1.26c1.43-.02 2.42.38 2.98 1.2s.84 2.12.84 3.9c0 1.72-.29 2.99-.87 3.83s-1.56 1.26-2.94 1.26c-1.43.02-2.42-.38-2.98-1.2-.56-.83-.84-2.12-.84-3.9zm2.52-1.39c-.02.35-.04.81-.04 1.39s.01 1.04.04 1.39.08.69.16 1.04.22.59.4.75.43.23.73.23c.49 0 .84-.26 1.04-.78s.3-1.4.3-2.62-.1-2.1-.3-2.62-.54-.78-1.04-.78c-.3 0-.54.08-.73.23-.19.16-.32.4-.4.75-.08.33-.14.67-.16 1.02z"/><path d="m36.97 75.37v-9.68h2.38v1.13h.04c.5-.92 1.33-1.39 2.47-1.39 1.64 0 2.47.92 2.47 2.75v7.18h-2.48v-6.68c0-.48-.08-.82-.25-1.03s-.44-.31-.81-.31c-.88 0-1.31.53-1.31 1.6v6.43z"/><path d="m48.19 68.66h-2.23v-.23c0-1.04.31-1.8.94-2.28.62-.47 1.45-.71 2.47-.71 1.37 0 2.29.25 2.78.75s.73 1.24.73 2.22v5.09c0 .79.1 1.42.31 1.87h-2.39c-.1-.18-.2-.52-.31-1.01h-.04c-.28.48-.6.81-.97.99s-.87.27-1.49.27c-.79 0-1.38-.28-1.76-.83s-.58-1.2-.58-1.94c0-.89.19-1.55.57-2 .38-.44 1-.79 1.88-1.03l1.4-.38c.37-.1.63-.23.77-.4s.22-.41.22-.74c0-.79-.38-1.19-1.15-1.19-.37 0-.66.11-.85.34-.2.23-.3.53-.3.92zm2.3 3.78v-1.91c-.31.23-.67.39-1.06.49-.49.11-.85.29-1.07.54s-.33.59-.33 1.03c0 .4.08.72.23.97.16.25.39.38.7.38.38 0 .73-.13 1.05-.38.32-.26.48-.63.48-1.12z"/><path d="m54.22 72.2h2.23v.32c0 .43.11.77.33 1.03.22.25.54.38.96.38.38 0 .69-.1.92-.3s.34-.48.34-.85c0-.5-.3-.87-.9-1.1l-1.75-.63c-1.38-.49-2.07-1.39-2.07-2.7 0-.86.29-1.57.87-2.11s1.48-.81 2.69-.81c2.21 0 3.31.92 3.31 2.75v.4h-2.23c0-.5-.08-.87-.25-1.11s-.45-.35-.85-.35c-.34 0-.62.09-.84.28s-.33.44-.33.76c0 .52.36.89 1.08 1.13l1.49.5c.78.26 1.33.61 1.66 1.04.32.43.49 1 .49 1.74 0 .98-.33 1.74-.99 2.26s-1.53.78-2.61.78c-1.32 0-2.24-.26-2.77-.78s-.79-1.29-.79-2.29v-.34z"/><path d="m62.62 75.37v-12.85h2.48v4.16h.04c.47-.83 1.25-1.24 2.36-1.24 1.64 0 2.47.92 2.47 2.75v7.18h-2.48v-6.68c0-.48-.08-.82-.25-1.03s-.44-.31-.81-.31c-.88 0-1.31.53-1.31 1.6v6.43h-2.5z"/><path d="m75.53 72.2h2.23v.32c0 .43.11.77.33 1.03.22.25.54.38.96.38.38 0 .69-.1.92-.3s.34-.48.34-.85c0-.5-.3-.87-.9-1.1l-1.75-.63c-1.38-.49-2.07-1.39-2.07-2.7 0-.86.29-1.57.87-2.11s1.48-.81 2.69-.81c2.21 0 3.31.92 3.31 2.75v.4h-2.23c0-.5-.08-.87-.25-1.11s-.45-.35-.85-.35c-.34 0-.62.09-.84.28s-.33.44-.33.76c0 .52.36.89 1.08 1.13l1.49.5c.78.26 1.33.61 1.66 1.04.32.43.49 1 .49 1.74 0 .98-.33 1.74-.99 2.26s-1.53.78-2.61.78c-1.32 0-2.24-.26-2.77-.78s-.79-1.29-.79-2.29v-.34z"/><path d="m84.47 65.69v-2.77h2.48v2.77h1.44v1.69h-1.44v5.24c0 .4.06.67.18.83s.35.23.7.23c.16 0 .34-.01.56-.04v1.73c-.72.07-1.26.11-1.62.11-.95 0-1.57-.17-1.86-.52s-.44-1.03-.44-2.03v-5.54h-1.26v-1.69h1.26z"/><path d="m94.23 75.37v-1.13h-.04c-.5.92-1.33 1.39-2.47 1.39-1.64 0-2.47-.92-2.47-2.75v-7.18h2.48v6.68c0 .48.08.83.25 1.04s.44.31.81.31c.88 0 1.31-.53 1.31-1.6v-6.43h2.48v9.68h-2.35z"/><path d="m103.23 75.37v-1.03h-.04c-.52.85-1.25 1.28-2.2 1.28-1.02 0-1.77-.4-2.25-1.21s-.72-2.1-.72-3.89.24-3.08.72-3.89c.48-.8 1.23-1.21 2.25-1.21.88 0 1.57.38 2.09 1.15h.04v-4.07h2.48v12.85h-2.37zm-2.46-7.28c-.17.5-.26 1.31-.26 2.44s.09 1.94.26 2.44.52.75 1.04.75.86-.25 1.04-.75.27-1.31.27-2.44-.09-1.94-.27-2.44-.53-.75-1.04-.75c-.52 0-.86.25-1.04.75z"/><path d="m114.3 70.91h-4.91v.77c0 .64.1 1.17.3 1.6s.51.65.93.65c.4 0 .7-.15.9-.44s.34-.75.41-1.38h2.23c-.1 2.34-1.27 3.51-3.51 3.51-.5 0-.95-.06-1.34-.17s-.71-.25-.97-.42-.48-.4-.67-.69-.33-.57-.42-.84c-.1-.26-.17-.59-.23-.99-.05-.4-.09-.73-.1-1.02-.01-.28-.02-.63-.02-1.05 0-.58.02-1.09.07-1.53s.15-.89.31-1.35.38-.83.66-1.12.65-.53 1.12-.72 1.03-.28 1.68-.28c1.36 0 2.29.41 2.79 1.23s.76 2.05.76 3.68v.56zm-4.91-1.48h2.54c-.02-.82-.12-1.4-.29-1.76s-.49-.54-.97-.54c-.46 0-.78.19-.98.57s-.3.83-.3 1.36z"/><path d="m115.6 75.37v-9.68h2.38v1.13h.04c.5-.92 1.33-1.39 2.47-1.39 1.64 0 2.47.92 2.47 2.75v7.18h-2.48v-6.68c0-.48-.08-.82-.25-1.03s-.44-.31-.81-.31c-.88 0-1.31.53-1.31 1.6v6.43z"/><path d="m125.14 65.69v-2.77h2.48v2.77h1.44v1.69h-1.44v5.24c0 .4.06.67.18.83s.35.23.7.23c.16 0 .34-.01.56-.04v1.73c-.72.07-1.26.11-1.62.11-.95 0-1.57-.17-1.86-.52s-.44-1.03-.44-2.03v-5.54h-1.26v-1.69h1.26z"/><path d="m129.51 72.2h2.23v.32c0 .43.11.77.33 1.03s.54.38.96.38c.38 0 .69-.1.92-.3s.34-.48.34-.85c0-.5-.3-.87-.9-1.1l-1.75-.63c-1.38-.49-2.07-1.39-2.07-2.7 0-.86.29-1.57.87-2.11s1.48-.81 2.69-.81c2.21 0 3.31.92 3.31 2.75v.4h-2.23c0-.5-.08-.87-.25-1.11s-.45-.35-.85-.35c-.34 0-.62.09-.84.28s-.33.44-.33.76c0 .52.36.89 1.08 1.13l1.49.5c.78.26 1.33.61 1.66 1.04s.49 1 .49 1.74c0 .98-.33 1.74-.99 2.26s-1.53.78-2.61.78c-1.32 0-2.24-.26-2.77-.78s-.79-1.29-.79-2.29v-.34z"/><path d="m149.27 69.18h-2.38c0-1.3-.37-1.94-1.12-1.94-.58 0-.96.25-1.14.75-.19.5-.28 1.35-.28 2.56 0 1.26.09 2.14.26 2.64s.53.75 1.07.75c.8 0 1.21-.76 1.21-2.27h2.38c0 1.31-.29 2.29-.88 2.96s-1.52 1-2.81 1-2.22-.38-2.82-1.13c-.59-.76-.89-2.08-.89-3.96 0-1.87.34-3.19 1.03-3.95.68-.76 1.65-1.14 2.9-1.14 1.13 0 1.99.33 2.58 1s.89 1.56.89 2.73z"/><path d="m152.78 68.66h-2.23v-.23c0-1.04.31-1.8.94-2.28.62-.47 1.45-.71 2.47-.71 1.37 0 2.29.25 2.78.75s.73 1.24.73 2.22v5.09c0 .79.1 1.42.31 1.87h-2.38c-.1-.18-.2-.52-.31-1.01h-.04c-.28.48-.6.81-.97.99s-.87.27-1.49.27c-.79 0-1.38-.28-1.76-.83s-.58-1.2-.58-1.94c0-.89.19-1.55.57-2 .38-.44 1-.79 1.88-1.03l1.4-.38c.37-.1.63-.23.77-.4s.22-.41.22-.74c0-.79-.38-1.19-1.15-1.19-.37 0-.66.11-.85.34s-.3.53-.3.92v.29zm2.31 3.78v-1.91c-.31.23-.67.39-1.06.49-.49.11-.85.29-1.07.54s-.33.59-.33 1.03c0 .4.08.72.23.97.16.25.39.38.7.38.38 0 .74-.13 1.05-.38.32-.26.48-.63.48-1.12z"/><path d="m159.23 75.37v-9.68h2.38v1.13h.04c.5-.92 1.33-1.39 2.47-1.39 1.64 0 2.47.92 2.47 2.75v7.18h-2.48v-6.68c0-.48-.08-.82-.25-1.03s-.44-.31-.81-.31c-.88 0-1.31.53-1.31 1.6v6.43z"/><path d="m174.76 68.66h-2.23v-.23c0-1.04.31-1.8.94-2.28.62-.47 1.45-.71 2.47-.71 1.37 0 2.29.25 2.78.75s.73 1.24.73 2.22v5.09c0 .79.1 1.42.31 1.87h-2.38c-.1-.18-.2-.52-.31-1.01h-.04c-.28.48-.6.81-.97.99s-.87.27-1.49.27c-.79 0-1.38-.28-1.76-.83s-.58-1.2-.58-1.94c0-.89.19-1.55.57-2 .38-.44 1-.79 1.88-1.03l1.4-.38c.37-.1.63-.23.77-.4s.22-.41.22-.74c0-.79-.38-1.19-1.15-1.19-.37 0-.66.11-.85.34s-.3.53-.3.92v.29zm2.3 3.78v-1.91c-.31.23-.67.39-1.06.49-.49.11-.85.29-1.07.54s-.33.59-.33 1.03c0 .4.08.72.23.97.16.25.39.38.7.38.38 0 .74-.13 1.05-.38.33-.26.48-.63.48-1.12z"/><path d="m180.79 72.2h2.23v.32c0 .43.11.77.33 1.03.22.25.54.38.96.38.38 0 .69-.1.92-.3s.34-.48.34-.85c0-.5-.3-.87-.9-1.1l-1.75-.63c-1.38-.49-2.07-1.39-2.07-2.7 0-.86.29-1.57.87-2.11s1.48-.81 2.69-.81c2.21 0 3.31.92 3.31 2.75v.4h-2.23c0-.5-.08-.87-.25-1.11s-.45-.35-.85-.35c-.34 0-.62.09-.84.28s-.33.44-.33.76c0 .52.36.89 1.08 1.13l1.49.5c.78.26 1.33.61 1.66 1.04.32.43.49 1 .49 1.74 0 .98-.33 1.74-.99 2.26s-1.53.78-2.61.78c-1.32 0-2.24-.26-2.77-.78s-.79-1.29-.79-2.29v-.34z"/><path d="m189.29 62.52h2.48v6.79h.04l2.5-3.62h2.74l-2.79 3.82 3.2 5.87h-2.74l-2.07-3.98-.88 1.15v2.83h-2.48z"/><path d="m15.55 98.37v-7.99h-1.26v-1.69h1.26v-1.1c0-.84.22-1.44.66-1.79s1.08-.53 1.94-.53c.43 0 .88.02 1.33.05v1.76c-.11-.01-.27-.02-.49-.02-.35 0-.59.06-.74.18s-.22.32-.22.59v.85h1.44v1.69h-1.44v7.99h-2.48z"/><path d="m20.02 93.53c0-1.72.29-2.99.87-3.83s1.56-1.26 2.94-1.26c1.43-.02 2.42.38 2.98 1.2s.84 2.12.84 3.9c0 1.72-.29 2.99-.87 3.83s-1.56 1.26-2.94 1.26c-1.43.02-2.42-.38-2.98-1.2-.56-.83-.84-2.12-.84-3.9zm2.52-1.39c-.02.35-.04.81-.04 1.39s.01 1.04.04 1.39c.02.35.08.69.16 1.04s.22.59.4.75.43.23.73.23c.49 0 .84-.26 1.04-.78s.3-1.4.3-2.62-.1-2.1-.3-2.62-.54-.78-1.04-.78c-.3 0-.54.08-.73.23s-.32.4-.4.75c-.09.33-.14.67-.16 1.02z"/><path d="m28.98 98.37v-9.68h2.38v1.3h.04c.55-1.03 1.3-1.55 2.23-1.55.11 0 .26.01.45.04v2.38c-.34-.02-.59-.04-.77-.04-.5 0-.94.14-1.3.42s-.54.72-.54 1.32v5.81z"/><path d="m38.88 95.2h2.23v.32c0 .43.11.77.33 1.03.22.25.54.38.96.38.38 0 .69-.1.92-.3s.34-.48.34-.85c0-.5-.3-.87-.9-1.1l-1.75-.63c-1.38-.49-2.07-1.39-2.07-2.7 0-.86.29-1.57.87-2.11s1.48-.81 2.69-.81c2.21 0 3.31.92 3.31 2.75v.4h-2.21c0-.5-.08-.87-.25-1.11-.17-.23-.45-.35-.85-.35-.34 0-.62.09-.84.28s-.33.44-.33.76c0 .52.36.89 1.08 1.13l1.49.5c.78.26 1.33.61 1.66 1.03.32.43.49 1.01.49 1.74 0 .98-.33 1.74-.99 2.26s-1.53.78-2.61.78c-1.32 0-2.24-.26-2.77-.78s-.79-1.29-.79-2.29v-.33z"/><path d="m47.83 88.69v-2.77h2.48v2.77h1.44v1.69h-1.44v5.24c0 .4.06.67.18.83s.35.23.7.23c.16 0 .34-.01.56-.04v1.73c-.72.07-1.26.11-1.62.11-.95 0-1.57-.17-1.86-.52s-.44-1.03-.44-2.03v-5.54h-1.26v-1.69h1.26z"/><path d="m57.58 98.37v-1.13h-.04c-.5.92-1.33 1.39-2.47 1.39-1.64 0-2.47-.92-2.47-2.75v-7.18h2.48v6.68c0 .48.08.83.25 1.04s.44.31.81.31c.88 0 1.31-.53 1.31-1.6v-6.43h2.48v9.68h-2.35z"/><path d="m66.58 98.37v-1.03h-.04c-.52.85-1.25 1.28-2.2 1.28-1.02 0-1.77-.4-2.25-1.21s-.72-2.1-.72-3.89.24-3.08.72-3.89c.48-.8 1.23-1.21 2.25-1.21.88 0 1.57.38 2.09 1.15h.04v-4.07h2.48v12.85h-2.37zm-2.46-7.28c-.17.5-.26 1.31-.26 2.44s.09 1.94.26 2.44.52.75 1.04.75.86-.25 1.04-.75.27-1.31.27-2.44-.09-1.94-.27-2.44-.53-.75-1.04-.75c-.52 0-.86.25-1.04.75z"/><path d="m70.61 101.54v-1.85c.22.04.43.05.65.05.82 0 1.26-.46 1.33-1.37l-2.72-9.68h2.59l1.44 6.7h.04l1.26-6.7h2.48l-2.34 9.04c-.23.88-.44 1.55-.62 2.02s-.42.85-.71 1.13-.61.47-.95.55-.83.12-1.44.12h-1.01z"/><path d="m82.93 98.37v-12.85h2.48v4.16h.04c.47-.83 1.25-1.24 2.36-1.24 1.64 0 2.47.92 2.47 2.75v7.18h-2.48v-6.68c0-.48-.08-.83-.25-1.04s-.44-.32-.81-.32c-.88 0-1.31.53-1.31 1.6v6.43h-2.5z"/><path d="m98.96 93.91h-4.91v.77c0 .64.1 1.17.3 1.6s.51.65.93.65c.4 0 .7-.15.9-.44s.34-.75.41-1.38h2.23c-.1 2.34-1.27 3.51-3.51 3.51-.5 0-.95-.06-1.34-.17s-.71-.25-.97-.42-.48-.4-.67-.69-.33-.58-.42-.84c-.1-.26-.17-.59-.23-.99-.05-.4-.09-.73-.1-1.02-.01-.28-.02-.63-.02-1.05 0-.58.02-1.09.07-1.53s.15-.89.31-1.35.38-.83.66-1.12.65-.53 1.12-.72 1.03-.28 1.68-.28c1.36 0 2.29.41 2.79 1.23s.76 2.05.76 3.68v.56zm-4.91-1.48h2.54c-.02-.82-.12-1.4-.29-1.76s-.49-.54-.97-.54c-.46 0-.78.19-.98.57s-.3.83-.3 1.36z"/><path d="m100.35 98.37v-12.85h2.48v12.85z"/><path d="m104.58 101.54v-12.85h2.38v1.03h.04c.52-.85 1.25-1.28 2.2-1.28 1.02 0 1.77.4 2.25 1.21.48.8.72 2.1.72 3.89s-.24 3.08-.72 3.89-1.23 1.21-2.25 1.21c-.88 0-1.57-.38-2.09-1.15h-.04v4.07h-2.49zm2.75-10.45c-.18.5-.27 1.31-.27 2.44s.09 1.94.27 2.44.53.75 1.04.75c.52 0 .86-.25 1.04-.75.17-.5.26-1.31.26-2.44s-.09-1.94-.26-2.44-.52-.75-1.04-.75c-.51 0-.86.25-1.04.75z"/><path d="m125.24 96.35v2.02h-7.85c0-1.1.22-2.08.67-2.94s1.16-1.74 2.13-2.64l1.04-.97c.55-.5.91-.95 1.08-1.33s.25-.91.25-1.58c0-1.06-.42-1.58-1.26-1.58-.59 0-.97.21-1.15.63s-.28 1.04-.29 1.85h-2.48v-.49c0-2.46 1.32-3.69 3.96-3.69 1.26 0 2.21.3 2.85.9s.96 1.46.96 2.57c0 .83-.15 1.54-.44 2.15s-.81 1.24-1.54 1.9l-1.44 1.33c-.72.65-1.16 1.27-1.31 1.87z"/><path d="m125.96 95.72v-2.12l4.23-7.97h2.68v8.08h1.22v2.02h-1.22v2.65h-2.38v-2.65h-4.53zm4.54-2.01v-4.84h-.04l-2.48 4.84z"/><path d="m134.3 98.62 4.07-13.36h2.02l-4.07 13.36z"/><path d="m140.72 85.88h7.85v1.98c-1.01 1.43-1.83 3.06-2.47 4.9s-1.06 3.71-1.28 5.61h-2.72c.5-3.94 1.83-7.36 3.98-10.26h-5.36z"/><path d="m149.94 95.56h2.38v2.34c0 1.06-.17 1.87-.51 2.45s-.96.91-1.86.99v-1.26c.3-.05.53-.21.69-.48s.24-.58.24-.95v-.29h-.94z"/><path d="m157.97 94.65h2.48c.02.8.13 1.39.32 1.75s.56.54 1.1.54c.58 0 .96-.18 1.14-.53.19-.35.28-.86.28-1.52 0-.67-.12-1.2-.35-1.59s-.67-.58-1.32-.58h-.86v-1.69h.85c.5 0 .88-.19 1.12-.58.24-.38.36-.86.36-1.44 0-.59-.1-1.01-.3-1.28-.2-.26-.51-.4-.94-.4-.52 0-.86.17-1.04.52s-.27.86-.27 1.55h-2.38c0-1.24.32-2.17.96-2.81s1.57-.95 2.78-.95c2.45 0 3.67 1.09 3.67 3.28 0 .76-.17 1.38-.51 1.87s-.82.8-1.43.94v.04c1.51.23 2.27 1.23 2.27 3.01 0 .48-.06.93-.18 1.34s-.32.82-.6 1.22-.72.72-1.3.95c-.59.23-1.3.35-2.14.35-1.21 0-2.13-.34-2.75-1.04-.62-.69-.94-1.65-.94-2.89v-.06z"/><path d="m174.33 88.87h-2.48c0-1.03-.39-1.55-1.17-1.55-.34 0-.61.08-.83.23-.22.16-.38.39-.49.7s-.18.65-.22 1-.05.79-.05 1.31v.63h.04c.48-.73 1.28-1.1 2.39-1.1 1.08 0 1.87.36 2.37 1.07s.75 1.68.75 2.91c0 3.04-1.37 4.55-4.12 4.55-.68 0-1.28-.11-1.78-.33s-.9-.51-1.18-.85c-.28-.35-.5-.79-.67-1.34-.16-.55-.27-1.08-.31-1.6-.05-.52-.07-1.13-.07-1.83 0-.5 0-.9.01-1.2.01-.29.02-.67.04-1.12s.06-.82.12-1.11.13-.61.23-.98.22-.67.36-.89.32-.46.53-.7.46-.43.75-.57c.28-.13.61-.24.99-.33s.79-.13 1.25-.13c.48 0 .92.05 1.32.16s.77.28 1.12.52.61.58.8 1.01c.18.42.29.94.3 1.54zm-5.11 5.54c.01.84.11 1.47.31 1.89.19.42.56.63 1.12.63.58 0 .95-.21 1.13-.63s.27-1.05.27-1.89c0-.86-.11-1.48-.32-1.85-.22-.37-.58-.56-1.08-.56-.52 0-.88.19-1.1.56s-.33.99-.33 1.85z"/><path d="m182.54 85.88v2.02h-4.7l-.27 2.9h.04c.47-.64 1.25-.95 2.34-.95.59 0 1.09.11 1.51.34s.74.54.96.95c.22.4.38.83.49 1.29.1.46.15.95.15 1.49 0 1.54-.3 2.71-.89 3.51s-1.66 1.21-3.2 1.21c-.77 0-1.42-.11-1.94-.34-.53-.23-.92-.53-1.16-.92s-.42-.76-.51-1.12c-.1-.36-.14-.75-.14-1.17v-.34h2.48c0 1.39.42 2.09 1.26 2.09 1.01 0 1.51-.83 1.51-2.48 0-1.06-.1-1.77-.31-2.14s-.6-.56-1.19-.56c-.72 0-1.13.39-1.22 1.17h-2.32l.47-6.93h6.64z"/><path d="m184.5 95.56h2.38v2.81h-2.38z"/><path d="m14.83 119.49h1.48v6.66c0 1.13.46 1.69 1.37 1.69.9 0 1.35-.56 1.35-1.69v-6.66h1.48v6.54c0 1.03-.24 1.78-.72 2.24s-1.19.69-2.11.69c-.93 0-1.63-.23-2.12-.69s-.73-1.21-.73-2.24z"/><path d="m21.84 131.06v-9.28h1.33v.86h.03c.32-.69.85-1.04 1.57-1.04 1.5 0 2.25 1.26 2.25 3.77 0 .7-.06 1.3-.2 1.79-.13.49-.31.87-.53 1.11-.23.25-.45.42-.68.53-.23.1-.48.16-.75.16-.78 0-1.31-.33-1.59-1h-.03v3.11h-1.4zm1.33-5.86c0 .91.08 1.58.25 2 .16.42.48.64.95.64.42 0 .71-.19.9-.56.18-.37.27-1.03.27-1.98 0-.87-.08-1.51-.25-1.94s-.48-.64-.94-.64c-.45 0-.76.21-.93.62s-.25 1.03-.25 1.86z"/><path d="m28.16 128.77v-9.28h1.4v9.28z"/><path d="m30.71 125.27c0-1.18.2-2.09.58-2.72.39-.64 1.06-.96 2.02-.96s1.64.32 2.03.96.59 1.54.59 2.72c0 2.45-.87 3.68-2.61 3.68-1.75 0-2.61-1.22-2.61-3.68zm1.4 0c0 .95.08 1.63.24 2.03s.48.6.96.6c.49 0 .81-.2.97-.6s.24-1.08.24-2.03c0-.88-.08-1.53-.25-1.98-.16-.44-.49-.66-.96-.66s-.78.22-.95.66c-.17.45-.25 1.11-.25 1.98z"/><path d="m41.59 123.31v4c0 .13.03.25.1.34.07.1.16.15.26.15s.18-.01.23-.04v.91c-.24.11-.47.17-.69.17-.75 0-1.15-.31-1.18-.92h-.03c-.37.68-.95 1.03-1.74 1.03-.57 0-1.02-.16-1.34-.49s-.48-.82-.48-1.47c0-.71.13-1.21.39-1.5s.67-.52 1.23-.7l1.09-.3c.29-.08.5-.18.63-.3s.19-.32.19-.6c0-.34-.07-.6-.21-.77s-.39-.27-.75-.27c-.42 0-.71.12-.85.36s-.21.57-.21.98h-1.33c0-.77.19-1.35.56-1.73s1.01-.57 1.9-.57c.67 0 1.2.14 1.61.42s.62.71.62 1.3zm-1.33 2.94v-1.17c-.14.11-.42.24-.84.39s-.66.23-.72.26c-.38.18-.57.56-.57 1.13 0 .31.08.57.23.76.15.2.37.29.64.29.42 0 .73-.14.94-.44.22-.28.32-.69.32-1.22z"/><path d="m46.59 128.77v-.86h-.03c-.28.69-.79 1.04-1.53 1.04-.8 0-1.38-.32-1.74-.96s-.55-1.58-.55-2.81c0-.75.06-1.37.18-1.87s.29-.87.51-1.11.45-.4.68-.49.5-.13.8-.13c.78 0 1.31.33 1.59 1h.03v-3.11h1.4v9.28h-1.34zm0-3.42c0-.92-.09-1.59-.26-2.01s-.51-.63-1.01-.63c-.41 0-.69.19-.85.56s-.24 1.03-.24 1.98c0 .87.08 1.52.25 1.94.16.43.48.64.94.64.45 0 .76-.21.93-.62s.24-1.03.24-1.86z"/><path d="m56.98 123.31v4c0 .13.03.25.1.34.07.1.16.15.26.15s.18-.01.23-.04v.91c-.24.11-.47.17-.69.17-.75 0-1.15-.31-1.18-.92h-.03c-.37.68-.95 1.03-1.74 1.03-.57 0-1.02-.16-1.34-.49s-.48-.82-.48-1.47c0-.71.13-1.21.39-1.5s.67-.52 1.23-.7l1.09-.3c.29-.08.5-.18.63-.3s.19-.32.19-.6c0-.34-.07-.6-.21-.77s-.39-.27-.75-.27c-.42 0-.71.12-.85.36s-.21.57-.21.98h-1.32c0-.77.19-1.35.56-1.73s1.01-.57 1.9-.57c.67 0 1.2.14 1.61.42s.61.71.61 1.3zm-1.33 2.94v-1.17c-.14.11-.42.24-.84.39s-.66.23-.72.26c-.38.18-.57.56-.57 1.13 0 .31.08.57.23.76.15.2.37.29.64.29.42 0 .73-.14.94-.44.22-.28.32-.69.32-1.22z"/><path d="m58.41 128.77v-6.99h1.33v.82h.04c.17-.31.42-.56.73-.73s.67-.27 1.06-.27c.56 0 .99.15 1.29.44s.45.78.45 1.46v5.28h-1.4v-4.8c0-.45-.07-.77-.22-.97s-.4-.29-.75-.29c-.31 0-.58.12-.79.36-.22.24-.32.57-.32 1.01v4.69h-1.42z"/><path d="m64.09 121.78h1.51l1.21 5.25h.03l1.12-5.25h1.47l-1.92 7.25c-.27.93-.56 1.52-.86 1.77s-.83.38-1.58.36c-.13 0-.32-.02-.56-.05v-1.12c.21.04.36.05.46.05.26 0 .46-.04.61-.12s.26-.22.34-.43l.18-.57z"/><path d="m76.9 128.77v-.86h-.03c-.28.69-.79 1.04-1.53 1.04-.8 0-1.38-.32-1.74-.96s-.55-1.58-.55-2.81c0-.75.06-1.37.18-1.87s.29-.87.51-1.11.45-.4.68-.49.5-.13.8-.13c.78 0 1.31.33 1.59 1h.03v-3.11h1.4v9.28h-1.34zm0-3.42c0-.92-.09-1.59-.26-2.01s-.51-.63-1.01-.63c-.41 0-.69.19-.85.56s-.24 1.03-.24 1.98c0 .87.08 1.52.25 1.94.16.43.48.64.94.64.45 0 .76-.21.93-.62s.24-1.03.24-1.86z"/><path d="m79.57 128.77v-6.99h1.4v1.09h.03c.34-.85.88-1.27 1.62-1.27.1 0 .22.02.34.05v1.43c-.21-.05-.4-.08-.58-.08-.39 0-.72.12-.99.35s-.41.65-.41 1.24v4.19h-1.41z"/><path d="m88.26 123.31v4c0 .13.03.25.1.34.07.1.16.15.26.15s.18-.01.23-.04v.91c-.24.11-.47.17-.69.17-.75 0-1.15-.31-1.18-.92h-.03c-.37.68-.95 1.03-1.74 1.03-.57 0-1.02-.16-1.34-.49s-.48-.82-.48-1.47c0-.71.13-1.21.39-1.5s.67-.52 1.23-.7l1.09-.3c.29-.08.5-.18.63-.3s.19-.32.19-.6c0-.34-.07-.6-.21-.77s-.39-.27-.75-.27c-.42 0-.71.12-.85.36s-.21.57-.21.98h-1.33c0-.77.19-1.35.56-1.73s1.01-.57 1.9-.57c.67 0 1.2.14 1.61.42s.62.71.62 1.3zm-1.33 2.94v-1.17c-.14.11-.42.24-.84.39s-.66.23-.72.26c-.38.18-.57.56-.57 1.13 0 .31.08.57.23.76.15.2.37.29.64.29.42 0 .73-.14.94-.44.22-.28.32-.69.32-1.22z"/><path d="m90.12 128.77v-5.95h-.98v-1.04h.98v-.65c0-.64.15-1.09.44-1.35s.74-.39 1.34-.39c.3 0 .56.01.77.04v1.08h-.39c-.5 0-.75.22-.75.66v.61h1.14v1.04h-1.14v5.95z"/><path d="m92.68 122.82v-1.04h.96v-1.99h1.4v1.99h1.14v1.04h-1.14v4.17c0 .28.05.47.14.58s.26.16.5.16c.21 0 .38-.01.51-.04v1.04c-.29.08-.67.12-1.13.12-.51 0-.88-.11-1.09-.34s-.32-.68-.32-1.35v-4.34z"/><path d="m100.46 128.77v-5.95h-.98v-1.04h.98v-.65c0-.64.15-1.09.44-1.35s.74-.39 1.34-.39c.3 0 .56.01.77.04v1.08h-.39c-.5 0-.75.22-.75.66v.61h1.14v1.04h-1.14v5.95z"/><path d="m103.38 125.27c0-1.18.2-2.09.58-2.72.39-.64 1.06-.96 2.02-.96s1.64.32 2.03.96.59 1.54.59 2.72c0 2.45-.87 3.68-2.61 3.68-1.75 0-2.61-1.22-2.61-3.68zm1.4 0c0 .95.08 1.63.24 2.03s.48.6.96.6c.49 0 .81-.2.97-.6s.24-1.08.24-2.03c0-.88-.08-1.53-.25-1.98-.16-.44-.49-.66-.96-.66s-.78.22-.95.66c-.17.45-.25 1.11-.25 1.98z"/><path d="m109.67 128.77v-6.99h1.4v1.09h.03c.34-.85.88-1.27 1.62-1.27.1 0 .22.02.34.05v1.43c-.21-.05-.4-.08-.58-.08-.39 0-.72.12-.99.35s-.41.65-.41 1.24v4.19h-1.41z"/><path d="m117.31 128.77v-5.95h-.98v-1.04h.98v-.65c0-.64.15-1.09.44-1.35s.74-.39 1.34-.39c.3 0 .56.01.77.04v1.08h-.39c-.5 0-.75.22-.75.66v.61h1.14v1.04h-1.14v5.95z"/><path d="m125.36 125.46h-3.65v.4c0 .28.01.52.04.74s.08.44.15.67.19.41.36.53c.16.13.37.19.62.19.23 0 .43-.06.59-.17.16-.12.27-.27.34-.46s.12-.35.14-.5c.03-.15.04-.29.04-.43h1.33c0 .77-.22 1.38-.66 1.84s-1.04.68-1.8.68c-.27 0-.51-.02-.71-.06-.21-.04-.43-.13-.68-.27-.24-.14-.44-.34-.6-.58s-.29-.6-.4-1.05-.16-.99-.16-1.61c0-.51.03-.97.1-1.38s.19-.8.36-1.19c.17-.38.44-.68.8-.9.36-.21.8-.32 1.32-.32.93 0 1.57.26 1.93.77.36.52.54 1.3.54 2.35zm-3.65-.97h2.25v-.38c0-1.04-.36-1.56-1.08-1.56-.42 0-.72.17-.9.51s-.27.77-.27 1.29z"/><path d="m131.38 125.46h-3.65v.4c0 .28.01.52.04.74s.08.44.15.67.19.41.36.53c.16.13.37.19.62.19.23 0 .43-.06.59-.17.16-.12.28-.27.34-.46s.12-.35.14-.5c.03-.15.04-.29.04-.43h1.33c0 .77-.22 1.38-.66 1.84s-1.04.68-1.8.68c-.27 0-.51-.02-.71-.06-.21-.04-.43-.13-.68-.27-.24-.14-.44-.34-.6-.58s-.29-.6-.4-1.05-.16-.99-.16-1.61c0-.51.03-.97.1-1.38s.19-.8.36-1.19c.17-.38.44-.68.8-.9.36-.21.8-.32 1.32-.32.93 0 1.57.26 1.93.77.36.52.54 1.3.54 2.35zm-3.66-.97h2.25v-.38c0-1.04-.36-1.56-1.08-1.56-.42 0-.72.17-.9.51s-.27.77-.27 1.29z"/><path d="m136.11 128.77v-.86h-.03c-.28.69-.79 1.04-1.53 1.04-.8 0-1.38-.32-1.74-.96s-.55-1.58-.55-2.81c0-.75.06-1.37.18-1.87s.29-.87.51-1.11.45-.4.68-.49.5-.13.8-.13c.78 0 1.31.33 1.59 1h.03v-3.11h1.4v9.28h-1.34zm0-3.42c0-.92-.09-1.59-.26-2.01s-.51-.63-1.01-.63c-.41 0-.69.19-.85.56s-.24 1.03-.24 1.98c0 .87.08 1.52.25 1.94.16.43.48.64.94.64.45 0 .76-.21.93-.62s.24-1.03.24-1.86z"/><path d="m138.79 128.77v-9.28h1.4v3.11h.03c.28-.67.81-1 1.59-1 .3 0 .57.04.8.13s.46.25.68.49.39.61.51 1.11.18 1.12.18 1.87c0 1.24-.18 2.18-.55 2.81s-.94.96-1.74.96c-.75 0-1.26-.35-1.53-1.04h-.03v.86h-1.34zm1.32-3.42c0 .82.08 1.44.25 1.86s.48.62.93.62c.46 0 .77-.21.94-.64.16-.43.25-1.08.25-1.94 0-.94-.08-1.6-.24-1.98-.16-.37-.44-.56-.85-.56-.5 0-.84.21-1.01.63-.18.42-.27 1.09-.27 2.01z"/><path d="m149.63 123.31v4c0 .13.03.25.1.34.07.1.16.15.26.15s.18-.01.23-.04v.91c-.24.11-.47.17-.69.17-.75 0-1.15-.31-1.18-.92h-.03c-.37.68-.95 1.03-1.74 1.03-.57 0-1.02-.16-1.34-.49s-.48-.82-.48-1.47c0-.71.13-1.21.39-1.5s.67-.52 1.23-.7l1.09-.3c.29-.08.5-.18.63-.3s.19-.32.19-.6c0-.34-.07-.6-.21-.77-.14-.18-.39-.27-.75-.27-.42 0-.71.12-.85.36s-.21.57-.21.98h-1.33c0-.77.19-1.35.56-1.73s1.01-.57 1.9-.57c.67 0 1.2.14 1.61.42s.62.71.62 1.3zm-1.33 2.94v-1.17c-.14.11-.42.24-.84.39s-.66.23-.72.26c-.38.18-.57.56-.57 1.13 0 .31.08.57.23.76s.37.29.64.29c.42 0 .73-.14.94-.44.22-.28.32-.69.32-1.22z"/><path d="m154.45 126.22h1.33c-.05.89-.26 1.57-.62 2.03s-.95.7-1.77.7c-.95 0-1.62-.32-2.01-.96s-.58-1.54-.58-2.72.2-2.09.58-2.72 1.06-.96 2.01-.96c.4-.01.75.05 1.05.17s.54.27.7.45c.17.18.3.39.4.63s.17.46.2.66.05.4.05.6h-1.4c0-.41-.07-.76-.22-1.05s-.41-.43-.78-.42c-.47 0-.78.22-.95.66s-.25 1.1-.25 1.98.08 1.53.25 1.98c.16.44.48.66.95.66.37.01.64-.13.81-.42s.25-.71.25-1.27z"/><path d="m156.83 128.77v-9.28h1.4v5.21h.03l2.12-2.92 1.62-.01-2.11 2.7 2.38 4.3h-1.53l-1.72-3.19-.79.96v2.22h-1.4z"/><path d="m166.04 120.79v-1.4h1.4v1.4zm0 7.98v-6.99h1.4v6.99z"/><path d="m168.86 128.77v-6.99h1.33v.82h.04c.17-.31.42-.56.73-.73s.67-.27 1.06-.27c.56 0 1 .15 1.29.44.3.29.45.78.45 1.46v5.28h-1.4v-4.8c0-.45-.07-.77-.22-.97s-.4-.29-.75-.29c-.31 0-.58.12-.79.36s-.33.57-.33 1.01v4.69h-1.41z"/><path d="m14.93 144.77v-9.28h1.4v9.28z"/><path d="m22.61 141.46h-3.65v.4c0 .28.01.52.04.74s.08.44.15.67.19.41.36.53c.16.13.37.19.62.19.23 0 .43-.06.59-.17.16-.12.27-.27.34-.46s.12-.35.14-.5c.03-.15.04-.29.04-.43h1.33c0 .77-.22 1.38-.66 1.84s-1.04.68-1.8.68c-.27 0-.51-.02-.71-.06-.21-.04-.43-.13-.68-.27-.24-.14-.44-.34-.6-.58s-.29-.6-.4-1.05-.16-.99-.16-1.61c0-.51.03-.97.1-1.38s.19-.8.36-1.19c.17-.38.44-.68.8-.9.36-.21.8-.32 1.32-.32.93 0 1.57.26 1.93.77.36.52.54 1.3.54 2.35zm-3.65-.97h2.25v-.38c0-1.04-.36-1.56-1.08-1.56-.42 0-.72.17-.9.51s-.27.77-.27 1.29z"/><path d="m28.11 139.82h-1.33v-.18c0-.72-.31-1.08-.92-1.08-.3 0-.55.07-.73.22s-.27.38-.27.69c0 .27.07.47.21.62s.4.28.78.41l.9.31c.53.18.91.43 1.16.73s.36.73.36 1.28c0 .71-.23 1.24-.69 1.6-.46.35-1.07.53-1.82.53-.84 0-1.43-.18-1.78-.55-.35-.36-.52-.91-.52-1.62v-.26h1.25v.22c0 .42.08.73.25.94s.45.31.84.31c.76 0 1.14-.34 1.14-1.03 0-.51-.26-.85-.77-1.03l-1.14-.4c-.54-.18-.92-.42-1.15-.73-.23-.3-.34-.73-.34-1.29 0-.64.21-1.12.64-1.44.42-.32 1.01-.48 1.75-.48.81 0 1.37.19 1.7.56s.49.82.49 1.35v.32z"/><path d="m33.65 139.82h-1.33v-.18c0-.72-.31-1.08-.92-1.08-.3 0-.55.07-.73.22s-.27.38-.27.69c0 .27.07.47.21.62s.4.28.78.41l.9.31c.53.18.91.43 1.16.73s.36.73.36 1.28c0 .71-.23 1.24-.69 1.6-.46.35-1.07.53-1.82.53-.84 0-1.43-.18-1.78-.55-.35-.36-.52-.91-.52-1.62v-.26h1.25v.22c0 .42.08.73.25.94s.45.31.84.31c.76 0 1.14-.34 1.14-1.03 0-.51-.26-.85-.77-1.03l-1.14-.4c-.54-.18-.92-.42-1.15-.73-.23-.3-.34-.73-.34-1.29 0-.64.21-1.12.64-1.44.42-.32 1.01-.48 1.75-.48.81 0 1.37.19 1.7.56s.49.82.49 1.35v.32z"/><path d="m37.34 138.82v-1.04h.96v-1.99h1.4v1.99h1.14v1.04h-1.14v4.17c0 .28.05.47.14.58s.26.16.5.16c.21 0 .38-.01.51-.04v1.04c-.29.08-.67.12-1.13.12-.51 0-.88-.11-1.09-.34s-.32-.68-.32-1.35v-4.34z"/><path d="m41.58 144.77v-9.28h1.4v3.04l.04.03c.42-.64.99-.96 1.72-.96.56 0 .99.15 1.29.44s.45.78.45 1.46v5.28h-1.4v-4.8c0-.45-.07-.77-.22-.97s-.4-.29-.75-.29c-.31 0-.58.12-.79.36-.22.24-.32.57-.32 1.01v4.69h-1.42z"/><path d="m52.42 139.31v4c0 .13.03.25.1.34.07.1.16.15.26.15s.18-.01.23-.04v.91c-.24.11-.47.17-.69.17-.75 0-1.15-.31-1.18-.92h-.03c-.37.68-.95 1.03-1.74 1.03-.57 0-1.02-.16-1.34-.49s-.48-.82-.48-1.47c0-.71.13-1.21.39-1.5s.67-.52 1.23-.7l1.09-.3c.29-.08.5-.18.63-.3s.19-.32.19-.6c0-.34-.07-.6-.21-.77s-.39-.27-.75-.27c-.42 0-.71.12-.85.36s-.21.57-.21.98h-1.33c0-.77.19-1.35.56-1.73s1.01-.57 1.9-.57c.67 0 1.2.14 1.61.42s.62.71.62 1.3zm-1.33 2.94v-1.17c-.14.11-.42.24-.84.39s-.66.23-.72.26c-.38.18-.57.56-.57 1.13 0 .31.08.57.23.76.15.2.37.29.64.29.42 0 .73-.14.94-.44.22-.28.32-.69.32-1.22z"/><path d="m53.85 144.77v-6.99h1.33v.82h.04c.17-.31.42-.56.73-.73s.67-.27 1.06-.27c.56 0 .99.15 1.29.44s.45.78.45 1.46v5.28h-1.4v-4.8c0-.45-.07-.77-.22-.97s-.4-.29-.75-.29c-.31 0-.58.12-.79.36-.22.24-.32.57-.32 1.01v4.69h-1.42z"/><path d="m68.36 143.52v1.25h-5.38c0-.54.07-1.03.21-1.48s.33-.82.55-1.12c.23-.3.47-.58.75-.85.27-.26.55-.5.83-.73s.53-.46.75-.7c.23-.24.41-.52.55-.85.14-.32.21-.68.21-1.06 0-.41-.09-.74-.28-1s-.47-.39-.86-.39c-.86 0-1.29.64-1.29 1.92h-1.4c0-1.98.91-2.96 2.72-2.96.89 0 1.55.23 1.97.68.42.46.63 1.05.63 1.77 0 .57-.1 1.08-.31 1.52s-.47.81-.79 1.1-.65.57-.98.83-.65.56-.96.91-.52.72-.65 1.13h3.73z"/><path d="m69.06 142.7v-1.27l3.19-5.86h1.51v5.95h1v1.18h-1v2.07h-1.4v-2.07zm3.29-1.18v-3.8h-.03l-2.07 3.8z"/><path d="m78.82 144.77v-9.28h1.4v3.04l.04.03c.42-.64.99-.96 1.72-.96.56 0 .99.15 1.29.44s.45.78.45 1.46v5.28h-1.4v-4.8c0-.45-.07-.77-.22-.97s-.4-.29-.75-.29c-.31 0-.58.12-.79.36-.22.24-.32.57-.32 1.01v4.69h-1.42z"/><path d="m84.8 141.27c0-1.18.2-2.09.58-2.72.39-.64 1.06-.96 2.02-.96s1.64.32 2.03.96.59 1.54.59 2.72c0 2.45-.87 3.68-2.61 3.68s-2.61-1.22-2.61-3.68zm1.4 0c0 .95.08 1.63.24 2.03s.48.6.96.6c.49 0 .81-.2.97-.6s.24-1.08.24-2.03c0-.88-.08-1.53-.25-1.98-.16-.44-.49-.66-.96-.66s-.78.22-.95.66c-.16.45-.25 1.11-.25 1.98z"/><path d="m94.67 144.77v-.82h-.04c-.17.31-.42.56-.73.73-.32.18-.67.27-1.06.27-.56 0-.99-.17-1.29-.51s-.45-.93-.45-1.78v-4.89h1.4v5.02c0 .37.08.64.24.8s.4.24.71.24c.32 0 .59-.1.81-.31.22-.2.33-.49.33-.87v-4.89h1.4v6.99h-1.32z"/><path d="m97.35 144.77v-6.99h1.4v1.09h.03c.34-.85.88-1.27 1.62-1.27.1 0 .22.02.34.05v1.43c-.21-.05-.4-.08-.58-.08-.39 0-.72.12-.99.35s-.41.65-.41 1.24v4.19h-1.41z"/><path d="m105.78 139.82h-1.33v-.18c0-.72-.31-1.08-.92-1.08-.3 0-.55.07-.73.22s-.27.38-.27.69c0 .27.07.47.21.62s.4.28.78.41l.9.31c.53.18.91.43 1.16.73s.36.73.36 1.28c0 .71-.23 1.24-.69 1.6-.46.35-1.07.53-1.82.53-.84 0-1.43-.18-1.78-.55-.35-.36-.52-.91-.52-1.62v-.26h1.25v.22c0 .42.08.73.25.94s.45.31.84.31c.76 0 1.14-.34 1.14-1.03 0-.51-.26-.85-.77-1.03l-1.14-.4c-.54-.18-.92-.42-1.15-.73-.23-.3-.34-.73-.34-1.29 0-.64.21-1.12.64-1.44.42-.32 1.01-.48 1.75-.48.81 0 1.37.19 1.7.56s.49.82.49 1.35v.32z"/><path d="m107.12 144.77v-1.72h1.48v1.72c0 .55-.11 1-.34 1.34s-.61.56-1.14.66v-.75c.43-.11.65-.46.65-1.05v-.2z"/><path d="m112.94 141.27c0-1.18.2-2.09.58-2.72.39-.64 1.06-.96 2.02-.96s1.64.32 2.03.96.59 1.54.59 2.72c0 2.45-.87 3.68-2.61 3.68s-2.61-1.22-2.61-3.68zm1.41 0c0 .95.08 1.63.24 2.03s.48.6.96.6c.49 0 .81-.2.97-.6s.24-1.08.24-2.03c0-.88-.08-1.53-.25-1.98-.16-.44-.49-.66-.96-.66s-.78.22-.95.66c-.17.45-.25 1.11-.25 1.98z"/><path d="m119.24 144.77v-6.99h1.4v1.09h.03c.34-.85.88-1.27 1.62-1.27.1 0 .22.02.34.05v1.43c-.21-.05-.4-.08-.58-.08-.39 0-.72.12-.99.35s-.41.65-.41 1.24v4.19h-1.41z"/><path d="m129.84 142.22h1.33c-.05.89-.26 1.57-.62 2.03s-.95.7-1.77.7c-.95 0-1.62-.32-2.01-.96s-.58-1.54-.58-2.72.2-2.09.58-2.72 1.06-.96 2.01-.96c.4-.01.75.05 1.05.17s.54.27.7.45c.17.18.3.39.4.63s.17.46.2.66.05.4.05.6h-1.4c0-.41-.07-.76-.22-1.05s-.41-.43-.78-.42c-.47 0-.78.22-.95.66s-.25 1.1-.25 1.98.08 1.53.25 1.98c.16.44.48.66.95.66.37.01.64-.13.81-.42s.25-.71.25-1.27z"/><path d="m132.22 144.77v-9.28h1.4v3.04l.04.03c.42-.64.99-.96 1.72-.96.56 0 .99.15 1.29.44s.45.78.45 1.46v5.28h-1.4v-4.8c0-.45-.07-.77-.22-.97s-.4-.29-.75-.29c-.31 0-.58.12-.79.36-.22.24-.32.57-.32 1.01v4.69h-1.42z"/><path d="m143.07 139.31v4c0 .13.03.25.1.34.07.1.16.15.26.15s.18-.01.23-.04v.91c-.24.11-.47.17-.69.17-.75 0-1.15-.31-1.18-.92h-.03c-.37.68-.95 1.03-1.74 1.03-.57 0-1.02-.16-1.34-.49s-.48-.82-.48-1.47c0-.71.13-1.21.39-1.5s.67-.52 1.23-.7l1.09-.3c.29-.08.5-.18.63-.3s.19-.32.19-.6c0-.34-.07-.6-.21-.77-.14-.18-.39-.27-.75-.27-.42 0-.71.12-.85.36s-.21.57-.21.98h-1.33c0-.77.19-1.35.56-1.73s1.01-.57 1.9-.57c.67 0 1.2.14 1.61.42s.62.71.62 1.3zm-1.33 2.94v-1.17c-.14.11-.42.24-.84.39s-.66.23-.72.26c-.38.18-.57.56-.57 1.13 0 .31.08.57.23.76s.37.29.64.29c.42 0 .73-.14.94-.44.21-.28.32-.69.32-1.22z"/><path d="m143.87 138.82v-1.04h.96v-1.99h1.4v1.99h1.14v1.04h-1.14v4.17c0 .28.05.47.14.58s.26.16.5.16c.21 0 .38-.01.51-.04v1.04c-.29.08-.67.12-1.13.12-.51 0-.88-.11-1.09-.34s-.32-.68-.32-1.35v-4.34z"/><path d="m151.29 144.77v-9.28h1.4v9.28z"/><path d="m154.18 136.79v-1.4h1.4v1.4zm0 7.98v-6.99h1.4v6.99z"/><path d="m158.29 144.77-1.87-6.99h1.51l1.22 5.51h.03l1.1-5.51h1.5l-1.85 6.99z"/><path d="m167.4 141.46h-3.65v.4c0 .28.01.52.04.74s.08.44.15.67.19.41.36.53c.16.13.37.19.62.19.23 0 .43-.06.59-.17.16-.12.28-.27.34-.46s.12-.35.14-.5c.03-.15.04-.29.04-.43h1.33c0 .77-.22 1.38-.66 1.84s-1.04.68-1.8.68c-.27 0-.51-.02-.71-.06-.21-.04-.43-.13-.68-.27-.24-.14-.44-.34-.6-.58s-.29-.6-.4-1.05-.16-.99-.16-1.61c0-.51.03-.97.1-1.38s.19-.8.36-1.19c.17-.38.44-.68.8-.9.36-.21.8-.32 1.32-.32.93 0 1.57.26 1.93.77.36.52.54 1.3.54 2.35zm-3.65-.97h2.25v-.38c0-1.04-.36-1.56-1.08-1.56-.42 0-.72.17-.9.51s-.27.77-.27 1.29z"/><path d="m14.24 154.82v-1.04h.96v-1.99h1.4v1.99h1.14v1.04h-1.14v4.17c0 .28.05.47.14.58s.26.16.5.16c.21 0 .38-.01.51-.04v1.04c-.29.08-.67.12-1.13.12-.51 0-.88-.11-1.09-.34s-.32-.68-.32-1.35v-4.34z"/><path d="m18.47 160.77v-9.28h1.4v3.04l.04.03c.42-.64.99-.96 1.72-.96.56 0 .99.15 1.29.44s.45.78.45 1.46v5.28h-1.4v-4.8c0-.45-.07-.77-.22-.97s-.4-.29-.75-.29c-.31 0-.58.12-.79.36-.22.24-.32.57-.32 1.01v4.69h-1.42z"/><path d="m24.73 160.77v-6.99h1.4v1.09h.03c.34-.85.88-1.27 1.62-1.27.1 0 .22.02.34.05v1.43c-.21-.05-.4-.08-.58-.08-.39 0-.72.12-.99.35s-.41.65-.41 1.24v4.19h-1.41z"/><path d="m28.55 157.27c0-1.18.2-2.09.58-2.72.39-.64 1.06-.96 2.02-.96s1.64.32 2.03.96.59 1.54.59 2.72c0 2.45-.87 3.68-2.61 3.68s-2.61-1.22-2.61-3.68zm1.4 0c0 .95.08 1.63.24 2.03s.48.6.96.6c.49 0 .81-.2.97-.6s.24-1.08.24-2.03c0-.88-.08-1.53-.25-1.98-.16-.44-.49-.66-.96-.66s-.78.22-.95.66c-.16.45-.25 1.11-.25 1.98z"/><path d="m38.42 160.77v-.82h-.04c-.17.31-.42.56-.73.73-.32.18-.67.27-1.06.27-.56 0-.99-.17-1.29-.51s-.45-.93-.45-1.78v-4.89h1.4v5.02c0 .37.08.64.24.8s.4.24.71.24c.32 0 .59-.1.81-.31.22-.2.33-.49.33-.87v-4.89h1.4v6.99h-1.32z"/><path d="m41.17 161.37h1.33c0 .23.09.42.28.58.19.17.43.25.73.25.36 0 .65-.12.86-.35s.32-.55.32-.96v-1.13h-.03c-.13.29-.34.53-.63.7s-.61.26-.96.26c-1.4 0-2.09-1.17-2.09-3.52 0-.46.02-.87.07-1.23s.14-.73.29-1.12c.14-.39.37-.7.69-.92s.71-.33 1.18-.33c.39 0 .73.1 1.01.31s.46.45.53.73h.03v-.86h1.33v6.66c0 1.82-.87 2.73-2.61 2.73-.49 0-.9-.06-1.23-.19-.33-.12-.57-.29-.71-.5s-.24-.4-.29-.57c-.07-.18-.1-.36-.1-.54zm1.22-4.32c0 .29 0 .54.01.73.01.2.03.42.07.67s.1.45.17.6.18.28.33.38c.14.11.31.16.51.16.26 0 .48-.07.65-.22s.3-.36.37-.62.12-.53.15-.77c.03-.25.04-.54.04-.87 0-1.6-.37-2.4-1.12-2.4-.24 0-.45.06-.61.17-.16.12-.29.29-.36.52s-.13.47-.16.72c-.03.26-.05.57-.05.93z"/><path d="m47.35 160.77v-9.28h1.4v3.04l.04.03c.42-.64.99-.96 1.72-.96.56 0 .99.15 1.29.44s.45.78.45 1.46v5.28h-1.4v-4.8c0-.45-.07-.77-.22-.97s-.4-.29-.75-.29c-.31 0-.58.12-.79.36-.22.24-.32.57-.32 1.01v4.69h-1.42z"/><path d="m56.15 153.78h1.51l1.21 5.25h.03l1.12-5.25h1.47l-1.92 7.25c-.27.93-.56 1.52-.86 1.77s-.83.38-1.58.36c-.13 0-.32-.02-.56-.05v-1.12c.21.04.36.05.46.05.26 0 .46-.04.61-.12s.26-.22.34-.43l.18-.57z"/><path d="m61.98 157.27c0-1.18.2-2.09.58-2.72.39-.64 1.06-.96 2.02-.96s1.64.32 2.03.96.59 1.54.59 2.72c0 2.45-.87 3.68-2.61 3.68s-2.61-1.22-2.61-3.68zm1.41 0c0 .95.08 1.63.24 2.03s.48.6.96.6c.49 0 .81-.2.97-.6s.24-1.08.24-2.03c0-.88-.08-1.53-.25-1.98-.16-.44-.49-.66-.96-.66s-.78.22-.95.66c-.17.45-.25 1.11-.25 1.98z"/><path d="m71.85 160.77v-.82h-.04c-.17.31-.42.56-.73.73-.32.18-.67.27-1.06.27-.56 0-.99-.17-1.29-.51s-.45-.93-.45-1.78v-4.89h1.4v5.02c0 .37.08.64.24.8s.4.24.71.24c.32 0 .59-.1.81-.31.22-.2.33-.49.33-.87v-4.89h1.4v6.99h-1.32z"/><path d="m74.53 160.77v-6.99h1.4v1.09h.03c.34-.85.88-1.27 1.62-1.27.1 0 .22.02.34.05v1.43c-.21-.05-.4-.08-.58-.08-.39 0-.72.12-.99.35s-.41.65-.41 1.24v4.19h-1.41z"/><path d="m81.74 163.06v-9.28h1.33v.86h.03c.32-.69.85-1.04 1.57-1.04 1.5 0 2.25 1.26 2.25 3.77 0 .7-.06 1.3-.2 1.79-.13.49-.31.87-.53 1.11-.23.25-.45.42-.68.53-.23.1-.48.16-.75.16-.78 0-1.31-.33-1.59-1h-.03v3.11h-1.4zm1.33-5.86c0 .91.08 1.58.25 2 .16.42.48.64.95.64.42 0 .71-.19.9-.56.18-.37.27-1.03.27-1.98 0-.87-.08-1.51-.25-1.94s-.48-.64-.94-.64c-.45 0-.76.21-.93.62s-.25 1.03-.25 1.86z"/><path d="m88 160.77v-6.99h1.4v1.09h.03c.34-.85.88-1.27 1.62-1.27.1 0 .22.02.34.05v1.43c-.21-.05-.4-.08-.58-.08-.39 0-.72.12-.99.35s-.41.65-.41 1.24v4.19h-1.41z"/><path d="m91.82 157.27c0-1.18.2-2.09.58-2.72.39-.64 1.06-.96 2.02-.96s1.64.32 2.03.96.59 1.54.59 2.72c0 2.45-.87 3.68-2.61 3.68s-2.61-1.22-2.61-3.68zm1.4 0c0 .95.08 1.63.24 2.03s.48.6.96.6c.49 0 .81-.2.97-.6s.24-1.08.24-2.03c0-.88-.08-1.53-.25-1.98-.16-.44-.49-.66-.96-.66s-.78.22-.95.66c-.16.45-.25 1.11-.25 1.98z"/><path d="m98.11 160.77v-9.28h1.4v3.11h.03c.28-.67.81-1 1.59-1 .3 0 .57.04.8.13s.45.25.68.49.39.61.51 1.11.18 1.12.18 1.87c0 1.24-.18 2.18-.55 2.81-.36.64-.94.96-1.74.96-.75 0-1.26-.35-1.53-1.04h-.03v.86h-1.34zm1.33-3.42c0 .82.08 1.44.25 1.86s.48.62.93.62c.46 0 .77-.21.94-.64.16-.43.25-1.08.25-1.94 0-.94-.08-1.6-.24-1.98-.16-.37-.44-.56-.85-.56-.5 0-.84.21-1.01.63-.19.42-.27 1.09-.27 2.01z"/><path d="m104.43 160.77v-9.28h1.4v9.28z"/><path d="m112.11 157.46h-3.65v.4c0 .28.01.52.04.74s.08.44.15.67.19.41.36.53c.16.13.37.19.62.19.23 0 .43-.06.59-.17.16-.12.27-.27.34-.46s.12-.35.14-.5c.03-.15.04-.29.04-.43h1.33c0 .77-.22 1.38-.66 1.84s-1.04.68-1.8.68c-.27 0-.51-.02-.71-.06-.21-.04-.43-.13-.68-.27-.24-.14-.44-.34-.6-.58s-.29-.6-.4-1.05-.16-.99-.16-1.61c0-.51.03-.97.1-1.38s.19-.8.36-1.19c.17-.38.44-.68.8-.9.36-.21.8-.32 1.32-.32.93 0 1.57.26 1.93.77.36.52.54 1.3.54 2.35zm-3.65-.97h2.25v-.38c0-1.04-.36-1.56-1.08-1.56-.42 0-.72.17-.9.51s-.27.77-.27 1.29z"/><path d="m113.33 160.77v-6.99h1.33v.82h.04c.17-.31.41-.56.71-.73s.62-.27.96-.27c.83 0 1.37.36 1.62 1.07.42-.71 1.01-1.07 1.77-1.07 1.14 0 1.7.62 1.7 1.86v5.32h-1.4v-4.8c0-.45-.07-.77-.2-.97s-.35-.29-.64-.29c-.31 0-.58.12-.79.36s-.32.57-.32 1.01v4.69h-1.4v-4.8c0-.45-.07-.77-.21-.97s-.36-.29-.65-.29c-.3 0-.56.12-.78.36s-.33.57-.33 1.01v4.69h-1.41z"/><path d="m123.03 160.77v-1.72h1.48v1.72z"/><path d="m44.29 27.09v5.1c0 2.1-.86 3.07-2.71 3.07-2.14 0-2.59-1.67-2.59-3.07v-5.1h-.62v5.1c0 2.41 1.08 3.63 3.22 3.63 2.21 0 3.33-1.22 3.33-3.63v-5.1h-.05z"/><path d="m48.95 29.31c-.96 0-1.79.51-2.14 1.3 0-.28 0-1.15 0-1.15h-.55v6.17h.55v-3.33c0-1.51.84-2.48 2.13-2.48 1.67 0 1.67 1.45 1.67 1.93v3.89h.55v-3.81c.01-.7.01-2.52-2.21-2.52z"/><path d="m52.54 29.45v6.17h.55v-6.17h-.05z"/><path d="m52.54 27.56v.84h.55v-.84h-.05z"/><path d="m58.58 29.45s-1.96 5.29-2.03 5.48c-.07-.19-2.17-5.48-2.17-5.48h-.63l2.49 6.17h.63l2.33-6.17h-.08z"/><path d="m62.21 29.31c-.72 0-1.34.25-1.82.73-.6.61-.93 1.55-.92 2.6-.01.97.29 1.81.84 2.38.48.48 1.13.74 1.89.74 1.48 0 2.43-.8 2.67-2.24l.01-.06h-.55l-.01.04c-.21 1.1-1 1.76-2.12 1.76-.58 0-1.07-.2-1.45-.58-.46-.47-.73-1.21-.73-2.03v-.01h4.9v-.05c0-.08.01-.16.01-.23 0-.94-.28-1.76-.8-2.3-.48-.49-1.13-.75-1.92-.75zm0 .5c1.37 0 2.12 1.17 2.16 2.35-.11 0-4.21 0-4.33 0 .11-1.18.88-2.35 2.17-2.35z"/><path d="m66.47 30.68c0-.26 0-1.23 0-1.23h-.55v6.17h.55v-3.37c.05-.92.25-1.27.67-1.71.65-.64 1.41-.6 1.63-.58l.06.01v-.56h-.05c-1.01-.04-1.98.51-2.31 1.27z"/><path d="m71.75 32.2s-.19-.04-.19-.04c-.92-.2-1.79-.38-1.79-1.24 0-.82.87-1.12 1.69-1.12.64 0 1.73.19 1.74 1.49v.05h.55v-.04c0-1.28-.81-1.99-2.29-1.99-.53 0-2.25.12-2.25 1.61 0 1.34 1.23 1.59 2.13 1.77l.16.03c.96.19 1.88.38 1.88 1.31 0 1.11-1.31 1.23-1.87 1.23-1.12 0-1.89-.68-1.95-1.72v-.05h-.55v.05c.03 1.36 1 2.21 2.51 2.21.57 0 2.42-.12 2.42-1.73 0-1.3-.99-1.59-2.19-1.82z"/><path d="m75.08 29.45v6.17h.55v-6.17h-.05z"/><path d="m78.01 29.45c0-.1 0-1.89 0-1.89h-.05-.5v1.89c-.09 0-1.12 0-1.12 0v.5h1.12v4.18.11c0 .47.12.82.36 1.05.37.36.97.37 1.46.34h.05v-.49h-.05c-.5.01-.83-.02-1.03-.21-.15-.15-.23-.4-.23-.79 0 0 0-4.08 0-4.18h1.54c.61 1.44 2.34 5.56 2.35 5.59-.27.77-.44 1.22-.61 1.39-.29.29-.57.37-1.23.37h-.05v.49h.05c.68 0 1.11-.02 1.45-.28.26-.2.46-.64.72-1.27 0 0 2.62-6.79 2.62-6.79h-.08-.54s-1.95 5.2-2.04 5.44c-.1-.24-2.22-5.44-2.22-5.44h-1.97z"/><path d="m75.08 27.56v.84h.55v-.84h-.05z"/><path d="m52.26 25.71c-2.45-.05-4.51-1.93-4.45-4.54.06-2.05 1.71-4.37 4.7-4.28 2.08.04 4.42 1.61 4.36 4.49-.06 2.87-2.5 4.39-4.61 4.33zm.09-8.29c-1.87 0-3.17 1.38-3.17 3.69 0 2.77 1.65 4.02 3.2 4.02 1.87 0 3.11-1.44 3.11-3.71.02-2.45-1.25-4-3.14-4z"/><path d="m88.3 17.12v-.12h-2.45v.12c.49.03.62.13.62.82v2.99h-4.4v-2.99c0-.69.13-.78.62-.82v-.12h-2.45v.12c.49.03.62.13.62.82v6.72c0 .69-.13.79-.62.82v.12h2.45v-.12c-.49-.03-.62-.13-.62-.82v-3.21h4.4v3.21c0 .69-.13.79-.62.82v.12h2.45v-.12c-.49-.03-.62-.13-.62-.82v-6.72c0-.69.13-.79.62-.82z"/><path d="m57.52 17v.12c.47.03.61.08.61.57v6.96c0 .69-.13.79-.62.82v.12h1.85v-.12c-.49-.03-.62-.13-.62-.82v-6.25c0 .11 4.79 5.94 5.82 7.19h.2v-7.9c0-.5.13-.55.61-.57v-.12h-1.82v.12c.47.03.61.08.61.57v5.46l-5-6.15z"/><path d="m69.58 17h-.17c-.44 1.03-2.45 5.79-3.15 7.44-.12.28-.32.74-.46.9-.11.12-.22.13-.33.14v.12h1.63v-.12c-.13 0-.41 0-.43-.24 0-.08.01-.16.05-.25.05-.15.38-.99.8-1.93h3.27c.32.8.62 1.48.75 1.79.04.09.12.3.12.4 0 .24-.21.24-.45.24v.12h2.28v-.12c-.28-.02-.37-.09-.57-.55zm-1.84 5.49c.56-1.36 1.42-3.54 1.42-3.54s.77 1.95 1.43 3.54z"/><path d="m37.81 17v.12c.26.01.42.04.51.14.03.04.05.08.07.13.02.04.02.09.02.14s.01.1.01.16v6.96c0 .69-.13.79-.62.82v.12h1.83v-.12c-.49-.03-.62-.13-.62-.82v-5.96c0-.11-.02-.33-.02-.33l.11.33 2.97 6.87h.18l3.03-7.07.09-.29s-.03.14-.03.27v6.19c0 .69-.13.79-.62.82v.12h2.45v-.12c-.49-.03-.62-.13-.62-.82v-6.96c0-.5.13-.55.61-.57v-.13h-1.91l-2.74 6.48-2.78-6.48z"/><path d="m73.94 25.01c.58.35 1.43.71 2.34.71h.05c1.34-.02 2.75-1.01 2.75-2.58 0-1.69-1.19-2.09-2.39-2.7-1.21-.59-1.72-.9-1.72-1.69 0-.54.33-1.34 1.4-1.34.34 0 .64.09.9.22.87.48.91 1.17 1.02 1.6h.13l-.07-1.91c-.55-.23-.99-.33-1.3-.38-.19-.02-.36-.03-.5-.03-1.2 0-2.62.72-2.62 2.24 0 1.04.62 1.68 1.85 2.29 1.21.62 2.13.86 2.13 2.07 0 .62-.35 1.69-1.72 1.69-.55 0-.98-.19-1.32-.47-.81-.76-.79-1.37-.85-1.6h-.12z"/><path d="m32.25 26.78-.06.22c-.07.25-.16.5-.24.74l-.56-.5-.07.2c-.29.88-.68 1.7-1.15 2.44-1.21 1.93-2.91 3.34-4.91 4.07 0 0-.14.05-.2.07-.06-.02-.2-.07-.2-.07-2-.73-3.7-2.14-4.91-4.07-.46-.74-.85-1.56-1.14-2.44l-.07-.2-.16.14-.39.35c-.09-.24-.17-.48-.25-.73l-.06-.21-.16.15-1.39 1.25.03.08c.33 1.06.87 2.14 1.27 2.86l.08.16.57-.52.06.12c1.44 2.29 3.47 3.97 5.87 4.84l.86.31.86-.31c2.4-.88 4.43-2.55 5.87-4.84.02-.04.04-.08.07-.12l.57.51.08-.16c.4-.71.94-1.79 1.27-2.86l.03-.08zm-15.6 1.48c.11-.1.87-.79 1.1-.99.07.22.15.44.22.65l-.76.68.26 1.63c-.29-.59-.6-1.27-.82-1.97zm1.19 2.52-.19-1.18c.15.31.31.61.49.91-.12.11-.23.21-.3.27zm14.44 0c-.07-.07-.18-.16-.3-.27 0 0 0 0 0-.01.17-.29.33-.59.48-.9zm-.73-.05c-1.4 2.24-3.38 3.87-5.72 4.73 0 0-.68.25-.76.28-.08-.03-.76-.28-.76-.28-2.34-.86-4.32-2.49-5.73-4.73-.4-.64-.74-1.34-1.03-2.06.12-.11.85-.77 1.07-.96.29.83.65 1.6 1.1 2.31 1.24 1.98 2.99 3.43 5.05 4.19 0 0 .3.11.3.11l.3-.11c2.06-.75 3.81-2.2 5.05-4.19.44-.71.81-1.48 1.1-2.31.22.19.95.85 1.07.96-.3.73-.64 1.43-1.04 2.06zm1.1-.49.26-1.64-.76-.68c.08-.21.15-.42.22-.65.22.2.99.89 1.1.99-.22.7-.52 1.39-.82 1.98z"/><path d="m19.02 30 .22-.25-.02-.07c-.04-.04-.08-.08-.12-.13-.24.04-.59.1-.76.11l-.04-.05-.05.03c.02.04.05.08.07.11.03.04.05.09.07.14l.05-.03-.02-.07.24-.05.13.23c-.04.06-.12.13-.17.18l-.05-.05-.05.02c.03.06.07.11.1.17.03.05.06.11.09.16l.05-.03-.02-.06c.03-.07.18-.24.28-.36zm-.26-.28.31-.06-.21.23z"/><path d="m20.12 31.15.04-.03c-.03-.04-.06-.07-.09-.11s-.05-.08-.08-.12l-.04.03.03.07c-.11.09-.4.31-.4.31.07-.21.16-.44.24-.65-.03-.04-.05-.07-.08-.11s-.05-.07-.07-.11l-.04.03.03.07c-.05.04-.11.09-.18.14l-.19.14c-.07.05-.13.09-.19.12l-.05-.05-.05.02c.03.04.06.08.09.12s.05.08.08.12l.04-.03-.03-.07c.11-.09.27-.21.4-.31-.08.21-.16.43-.24.66.02.03.04.05.06.07s.04.05.05.07c.06-.05.14-.11.24-.18l.19-.14c.07-.05.13-.09.19-.12z"/><path d="m20.17 31.79c-.19.17-.17.43-.02.59.1.11.22.18.4.19l.01-.1c-.11-.02-.18-.06-.24-.11-.12-.12-.12-.3.02-.43s.29-.09.38.01c.04.05.08.12.09.18l-.04.05.04.05c.04-.04.11-.08.17-.1-.04-.1-.09-.17-.16-.25-.19-.22-.46-.26-.65-.08z"/><path d="m21.75 32.73c-.23-.19-.48-.16-.63.02-.17.21-.13.44.09.62.23.19.48.16.63-.02.17-.2.13-.43-.09-.62zm-.08.49c-.11.13-.27.17-.39.08-.12-.1-.11-.26.01-.4.11-.14.27-.17.39-.08.11.1.1.26-.01.4z"/><path d="m22.91 33.58c-.05-.03-.1-.06-.15-.09s-.1-.06-.14-.09-.08-.05-.12-.08l-.03.05.06.05c-.03.06-.06.12-.11.2l-.12.2c-.05.07-.09.13-.13.18l-.07-.03-.03.05c.06.03.11.06.16.1.05.03.1.07.16.1l.03-.04-.05-.05c.03-.06.06-.12.11-.2l.04-.06.05.03c.01.12.03.32.03.47.07.03.15.07.22.12l.03-.05-.02-.03c-.01-.06-.05-.35-.06-.43.11.05.23.03.29-.07.04-.09.04-.2-.15-.33zm-.06.22c-.05.08-.13.08-.23.02-.02-.01-.04-.03-.06-.04l.03-.06c.04-.06.07-.11.09-.14.03.01.05.03.1.05.09.06.11.11.07.17z"/><path d="m24.11 34.22-.06-.05c-.06-.01-.11-.02-.17-.03-.16.17-.42.44-.55.54l-.06-.01-.02.05c.04.02.08.03.12.05.05.02.09.04.14.07l.02-.05-.06-.04.16-.19.24.11c0 .07-.02.18-.03.25l-.07-.02-.02.05c.06.03.12.05.18.08.06.02.11.05.17.08l.02-.05-.06-.04c0-.08.01-.3.03-.46zm-.24.35-.18-.08.21-.23z"/><path d="m26.43 34.85c-.03-.06-.07-.12-.1-.2l-.09-.21c-.03-.08-.06-.14-.08-.21l.06-.04-.02-.05c-.06.03-.11.05-.17.08-.06.02-.12.05-.17.07l.02.05.07-.02c.03.06.07.12.1.2l.09.21c.03.08.06.14.08.21l-.06.04.02.05c.06-.03.11-.05.17-.08s.11-.05.17-.07l-.02-.05z"/><path d="m27.89 34.05c-.04-.06-.08-.11-.12-.19l-.12-.2c-.04-.07-.08-.13-.11-.2l.06-.05-.03-.04c-.05.03-.09.06-.14.09s-.1.06-.15.08c.03.1.11.51.13.59-.09-.06-.38-.31-.47-.39-.05.03-.09.06-.14.09s-.1.05-.14.08l.03.05.07-.02.06.1c.06.09.24.4.28.49l-.06.05.03.04c.04-.02.08-.05.12-.07.04-.03.08-.05.12-.07l-.03-.05-.07.03c-.04-.06-.08-.11-.12-.19l-.07-.12c-.06-.1-.1-.17-.12-.2.3.25.46.38.54.45l.11-.06-.14-.69c.02.03.07.1.13.2l.07.12c.04.07.08.13.11.2l-.06.05.03.05c.05-.03.1-.07.16-.1.05-.03.11-.06.16-.09l-.03-.04z"/><path d="m28.68 33.47c-.05-.05-.09-.1-.15-.17l-.11-.13c-.04-.06-.1-.13-.14-.19.01-.02.04-.05.07-.07.08-.07.16-.06.21.01s.07.15-.01.21c-.02.01-.03.03-.05.03l.04.1c.03-.02.07-.04.1-.07.17-.14.18-.32.08-.43-.09-.11-.22-.12-.36 0-.03.03-.07.06-.12.1s-.1.08-.13.11c-.04.03-.08.06-.13.1l.03.04.07-.04c.05.05.09.1.15.17l.15.18c.05.07.09.12.13.18l-.05.06.03.04c.05-.04.1-.08.15-.12s.1-.08.17-.14l-.03-.04z"/><path d="m29.98 32.26c-.07-.02-.28-.11-.42-.18l-.3-.14-.07.04c-.03.05-.05.1-.09.15.11.21.27.54.32.7l-.04.06.04.04c.03-.03.06-.06.09-.09l.11-.11-.04-.04-.06.04-.12-.21.18-.19.22.11-.04.06.04.04c.04-.05.09-.1.13-.14s.09-.09.13-.13l-.04-.04zm-.62.16-.15-.28.28.14z"/><path d="m30.88 31.14c-.06.01-.35.02-.43.02.06-.11.05-.22-.04-.29s-.2-.08-.34.1c-.03.04-.07.09-.1.14s-.07.09-.1.14c-.03.04-.06.08-.09.11l.04.03.06-.05c.06.04.12.08.18.13l.19.14c.07.05.12.1.17.14l-.03.07.04.03c.04-.05.07-.1.11-.15s.08-.1.12-.15l-.04-.03-.06.05c-.06-.04-.12-.07-.18-.13l-.06-.05.04-.05c.12 0 .33.01.47.01.04-.07.09-.14.14-.21l-.04-.03zm-.61.14c-.02.02-.03.04-.05.05l-.05-.04c-.05-.04-.1-.08-.13-.1.02-.03.03-.05.06-.09.06-.08.12-.09.17-.04.08.05.07.13 0 .22z"/><path d="m31.37 29.7c-.23-.14-.45-.06-.6.19s-.08.5.12.62c.23.14.45.06.6-.19.16-.25.08-.5-.12-.62zm.03.57c-.08.13-.24.15-.39.06s-.22-.24-.14-.37.24-.15.39-.06c.15.08.22.23.14.37z"/><path d="m25.06 34.75c-.1 0-.18.08-.18.18s.08.18.18.18.18-.08.18-.18-.08-.18-.18-.18z"/><path d="m18.39 29.04c.1 0 .18-.08.18-.18s-.08-.18-.18-.18-.18.08-.18.18.08.18.18.18z"/><path d="m31.77 29.04c.1 0 .18-.08.18-.18s-.08-.18-.18-.18-.18.08-.18.18c-.01.1.08.18.18.18z"/><path d="m31.48 17.1h-12.84v.14 6.45c0 1.08.16 2.16.47 3.21l.03.08.06.21s.01 0 .01-.01c.2.61.45 1.21.75 1.77l.05.1.08.15c1.15 2.04 2.89 3.57 4.93 4.31l.05.02.05-.02c2.04-.74 3.78-2.27 4.93-4.31l.09-.15.05-.1c.3-.56.55-1.16.75-1.77 0 0 .01.01.01.01l.06-.21.03-.08c.31-1.05.47-2.13.47-3.21v-6.59zm-1.59 11.83s-.08.15-.09.15c-1.11 1.97-2.79 3.44-4.74 4.17-1.94-.72-3.62-2.2-4.74-4.16 0 0-.08-.15-.08-.15s-.05-.09-.05-.1c-.01-.02-.02-.04-.03-.06l3.84-3.46c.62-.56 1.07-.96 1.07-.96l4.9 4.41c-.01.02-.02.04-.03.05 0 .01-.06.11-.05.11zm1.32-5.24c0 1.04-.15 2.09-.45 3.13 0 0-.03.09-.03.09s-.01.04-.03.09c-.67-.6-5.47-4.93-5.64-5.08-.01.01-.04.03-.08.07-.01.01-.03.03-.05.05-.74.66-4.43 3.99-5.51 4.96-.01-.05-.03-.09-.03-.09s-.02-.08-.02-.09c-.3-1.03-.46-2.08-.46-3.13 0 0 0-6.06 0-6.31h12.3z"/><path d="m23.29 29.13-.01.44-.35-.27-.35.27-.01-.44-.43-.11.34-.28-.19-.41.44.09.2-.4.2.4.44-.09-.19.41.34.28zm2.42 3.13-.44-.17-.2.43-.19-.43-.44.17.16-.45-.43-.2.43-.19-.16-.45.44.16.19-.43.2.43.44-.16-.16.45.43.2-.43.2zm-1.28-5.95.44.09.2-.4.2.4.44-.09-.19.4.34.29-.43.11-.01.45-.35-.27-.35.27-.02-.46-.43-.1.35-.28zm1.75 3.59-.34-.17-.34.17.06-.38-.27-.27.38-.06.17-.34.18.34.38.06-.27.27zm1.4-1.4h-.39l-.19.34-.19-.34h-.39l.2-.33-.2-.34.39.01.19-.34.19.34.39-.01-.2.34z"/><path d="m19.43 18.46h.26l-.02.07v.02 3.11h1.93c.03.06.07.07.16.07s.13-.01.16-.07h1.92v-3.11c0-.01 0-.02 0-.02l-.02-.07h.19.07v3.43s-2.01 0-2.07 0c-.04.08-.13.15-.26.15s-.22-.07-.26-.15c-.06 0-2.07 0-2.07 0v-3.43z"/><path d="m21.22 18.2c-.18-.01-.38.04-.59.1-.24.06-.49.12-.75.11v.06 2.95c.24.02.48-.04.71-.1.22-.06.43-.11.63-.1.19.01.33.05.46.13v-2.88-.11c-.08-.08-.21-.15-.46-.16zm.29 2.67c-.07-.03-.17-.05-.29-.05-.18-.01-.38.04-.59.1-.18.05-.37.09-.57.11v-.14c.18-.01.36-.06.53-.1.22-.06.42-.11.63-.1.11 0 .2.02.29.04zm0-.35c-.07-.03-.17-.05-.29-.06-.18-.01-.38.04-.59.1-.18.05-.37.09-.56.11v-.14c.18-.01.36-.06.53-.1.22-.06.42-.11.63-.1.11 0 .2.02.29.05v.14zm0-.35c-.07-.03-.17-.05-.29-.05-.18-.01-.38.04-.59.1-.18.05-.37.1-.57.11v-.14c.18-.01.36-.06.53-.1.22-.06.42-.11.63-.1.11 0 .2.02.29.04zm0-.34c-.07-.03-.17-.05-.29-.05-.18-.01-.38.04-.59.1-.18.05-.37.09-.56.11v-.14c.18-.01.36-.06.53-.1.22-.06.42-.11.63-.1.11 0 .2.02.29.05v.13zm0-.36c-.07-.03-.17-.05-.29-.05-.18-.01-.38.04-.59.1-.18.05-.37.09-.57.11v-.14c.18-.01.36-.06.53-.1.22-.06.42-.11.63-.1.11 0 .2.02.29.04zm0-.34c-.07-.03-.17-.05-.29-.05-.18-.01-.38.04-.59.1-.18.05-.37.1-.56.11v-.15c.18-.01.35-.06.53-.1.22-.06.43-.11.63-.1.11 0 .2.02.29.05v.14zm0-.35c-.07-.03-.17-.05-.29-.06-.18-.01-.38.05-.59.1-.18.05-.37.09-.56.11v-.14c.18-.01.35-.06.53-.1.22-.06.43-.11.63-.1.11 0 .2.02.29.05v.14z"/><path d="m21.83 18.36v.11 2.88c.13-.08.27-.13.46-.13.2-.01.41.05.63.1.23.06.47.12.71.1 0-.12 0-2.52 0-2.95 0-.03 0-.05 0-.06-.26.02-.51-.05-.75-.11-.21-.05-.41-.11-.59-.1-.24.01-.37.08-.46.16zm.18 2.36c.09-.03.18-.04.29-.04.2-.01.41.04.63.1.17.04.35.09.53.1v.14c-.19-.01-.38-.06-.57-.11-.21-.05-.4-.1-.59-.1-.12 0-.22.02-.29.05zm0-.35c.09-.03.18-.04.29-.05.2-.01.41.05.63.1.17.04.35.09.53.1v.14c-.19-.01-.38-.06-.57-.11-.21-.05-.4-.1-.59-.1-.12 0-.22.02-.29.06zm0-.35c.09-.03.18-.04.29-.04.2-.01.41.05.63.1.17.04.35.09.53.1v.14c-.19-.01-.38-.06-.57-.11-.21-.05-.4-.1-.59-.1-.12 0-.22.02-.29.05zm0-.35c.08-.03.18-.04.29-.05.2-.01.41.05.63.1.17.05.35.09.53.1v.14c-.19-.01-.38-.06-.56-.11-.21-.05-.41-.1-.59-.1-.12 0-.22.03-.29.05v-.13zm0-.35c.08-.03.18-.04.29-.04.2-.01.41.04.63.1.18.04.35.09.53.1v.14c-.19-.01-.38-.06-.57-.11-.21-.05-.4-.1-.59-.1-.12.01-.22.03-.29.05zm0-.35c.09-.03.18-.04.29-.05.2-.01.41.05.63.1.17.04.35.09.53.1v.15c-.19-.01-.38-.06-.56-.11-.21-.05-.41-.1-.59-.1-.12 0-.22.03-.29.05v-.14zm0-.35c.08-.03.18-.04.29-.05.2-.01.41.05.63.1.17.04.35.09.53.1v.14c-.19-.01-.38-.06-.56-.11-.21-.05-.41-.1-.59-.1-.12 0-.22.03-.29.06v-.14z"/><path d="m30.41 20c0 .09-.02.18-.06.26-.02.05-.06.09-.1.13-.05.02-.11.06-.15.09 0-.02-.01-.04-.01-.06 0-.09.02-.18.06-.26.05-.1.14-.18.25-.23 0 .02.01.04.01.07z"/><path d="m29.36 21.74c.11-.02.22.01.33.06-.09.08-.19.14-.3.16s-.23-.01-.33-.06c.09-.09.19-.15.3-.16z"/><path d="m28.81 21.91c0-.01 0-.02 0-.03 0-.1.03-.2.08-.29.06-.1.15-.16.25-.21v.03c0 .1-.03.2-.08.29-.05.1-.14.17-.25.21z"/><path d="m29.24 21.32c.04-.07.09-.13.16-.18.01.05.03.1.03.16s-.01.11-.03.17c-.03.08-.07.14-.13.2-.02.01-.05.01-.07.02 0-.01 0-.01 0-.02.04-.11.05-.23.04-.35z"/><path d="m29.47 21.04c.02-.07.06-.15.12-.21.05.09.08.18.08.27v.04c-.01.08-.04.16-.08.23-.02.01-.05.03-.07.04 0 0 0-.01-.01-.01.02-.12.01-.24-.04-.36z"/><path d="m29.64 20.72c0-.08.03-.15.06-.23.08.09.13.18.15.29 0 .02.01.05.01.07 0 .06-.01.11-.03.17-.02.02-.04.04-.05.06 0 0-.01-.01-.01-.01-.01-.13-.05-.25-.13-.35z"/><path d="m29.73 20.36c-.01-.04-.01-.07-.01-.11s.01-.08.02-.12c.1.06.17.14.21.24.03.06.04.13.04.2v.03c-.02.02-.03.05-.04.07 0 0-.01-.01-.01-.01-.05-.11-.11-.21-.21-.3z"/><path d="m29.74 20.01c-.03-.07-.05-.15-.05-.24.11.04.21.1.27.19.05.06.07.14.09.22-.01.03-.02.05-.03.08 0 0-.01 0-.01-.01-.07-.1-.16-.19-.27-.24z"/><path d="m29.98 19.83c-.01 0-.01 0-.02 0-.08-.08-.19-.14-.31-.18-.05-.06-.08-.13-.1-.22.11.01.22.05.3.12.06.05.1.12.14.2 0 .03-.01.05-.01.08z"/><path d="m29.85 19.43c-.1-.06-.22-.1-.35-.1-.06-.05-.11-.12-.15-.19.11-.01.22 0 .32.05.07.04.13.09.18.16 0 .03.01.05.02.08-.02 0-.02 0-.02 0z"/><path d="m29.62 21.66c-.06-.02-.11-.03-.17-.03.06-.09.14-.17.24-.21.1-.04.22-.04.34-.02-.06.1-.15.18-.25.22-.05.03-.11.04-.16.04z"/><path d="m29.93 21.29c-.06 0-.12 0-.18.01.04-.11.1-.2.19-.26.09-.07.2-.1.32-.1-.04.12-.1.21-.19.28-.04.03-.09.05-.14.07z"/><path d="m30.27 20.75c-.04.04-.08.08-.13.1-.06.01-.11.03-.16.05.01-.11.05-.22.12-.3s.18-.14.29-.17c-.01.13-.05.24-.12.32z"/><path d="m30.32 19.63c0 .04 0 .08-.01.13s-.04.1-.06.15c-.05.04-.09.08-.13.13-.02-.07-.04-.13-.04-.2 0-.04.01-.09.02-.13.03-.11.1-.2.18-.29.03.06.04.14.04.21z"/><path d="m29.93 19.27c0-.11.04-.22.11-.32.07.1.11.21.11.32 0 .05-.01.11-.03.16-.04.05-.07.1-.09.15-.06-.1-.1-.2-.1-.31z"/><path d="m29.71 18.55c.09.08.16.18.18.29.01.04.01.08.01.12v.04c-.03.06-.05.11-.06.17-.08-.08-.14-.17-.17-.27-.01-.04-.01-.08-.01-.12 0-.08.02-.16.05-.23z"/><path d="m29.64 19.06s-.01 0-.01.01c-.11-.04-.24-.05-.36-.02-.07-.03-.14-.09-.19-.15.11-.04.22-.05.33-.02.08.02.15.06.21.12 0 .01.01.04.02.06z"/><path d="m29.29 18.25c.1.06.19.13.24.24.02.05.04.1.05.15-.01.06-.02.12-.01.18-.1-.06-.18-.13-.23-.23-.04-.08-.06-.16-.06-.25 0-.04.01-.07.01-.09z"/><path d="m29.17 18.46c.01.01.02.02.04.03.01.04.02.09.04.13.02.04.05.08.08.12-.11-.01-.2-.04-.29-.1-.09-.07-.16-.17-.2-.28.13.01.24.04.33.1z"/><path d="m27.2 21.67v.02c-.02-.01-.05-.02-.07-.02-.06-.06-.11-.13-.13-.2-.02-.05-.03-.11-.03-.17 0-.05.02-.1.03-.16.06.05.12.11.16.18-.02.12-.01.24.04.35z"/><path d="m26.89 19.32c-.13 0-.25.04-.35.1h-.01c.01-.03.01-.05.01-.08.05-.07.1-.12.18-.16.1-.05.21-.07.32-.05-.03.08-.09.14-.15.19z"/><path d="m26.88 21.4s-.01.01-.01.01c-.02-.02-.04-.03-.07-.04-.04-.07-.07-.15-.08-.23 0-.01 0-.03 0-.04 0-.09.03-.18.08-.27.05.07.1.14.12.21-.05.12-.06.24-.04.36z"/><path d="m26.54 20.77c.02-.11.07-.2.15-.29.04.08.06.15.06.23-.07.11-.11.22-.12.34 0 0-.01.01-.01.01-.02-.02-.03-.04-.05-.06-.02-.05-.03-.11-.03-.17-.01-.01-.01-.03 0-.06z"/><path d="m26.46 20.67s-.01.01-.01.01c-.01-.02-.03-.05-.04-.07 0-.01 0-.02 0-.03 0-.07.01-.14.04-.2.04-.1.12-.18.21-.24.01.04.02.08.02.12s0 .07-.01.11c-.1.08-.17.18-.21.3z"/><path d="m26.54 19.55c.08-.07.18-.11.3-.12-.02.08-.06.15-.1.21-.12.03-.23.09-.31.18-.01 0-.01 0-.02 0 0-.02 0-.05 0-.07.02-.08.07-.14.13-.2z"/><path d="m26.44 19.96c.06-.09.16-.15.27-.19 0 .09-.02.17-.05.24-.11.06-.2.14-.26.24-.01 0-.01.01-.02.01-.01-.03-.02-.06-.03-.08.02-.09.05-.16.09-.22z"/><path d="m26.41 20.91c-.05-.03-.11-.04-.16-.05-.05-.03-.09-.06-.13-.1-.07-.08-.11-.19-.13-.31.12.03.22.08.29.17.08.07.12.18.13.29z"/><path d="m26.45 21.04c.09.06.15.15.19.26-.06-.01-.12-.02-.18-.01-.05-.02-.1-.04-.14-.07-.09-.06-.15-.16-.19-.28.11 0 .22.03.32.1z"/><path d="m26.7 21.42c.1.04.18.12.24.21-.06 0-.11.01-.17.03-.05 0-.11-.01-.16-.04-.1-.04-.19-.12-.25-.22.12-.02.23-.02.34.02z"/><path d="m27.03 21.74c.11.02.21.08.3.16-.11.05-.22.08-.33.06s-.21-.08-.3-.16c.11-.06.22-.08.33-.06z"/><path d="m27.33 21.7c-.05-.08-.08-.18-.08-.29 0-.01 0-.02 0-.03.11.04.2.11.26.2.05.09.08.18.08.29v.03c-.12-.03-.21-.1-.26-.2z"/><path d="m27.14 18.62c.02-.04.03-.08.04-.13.01-.01.02-.02.04-.03.09-.07.2-.1.32-.1-.04.12-.11.21-.2.28-.08.06-.18.09-.29.1.04-.04.07-.07.09-.12z"/><path d="m26.85 18.48c.05-.1.14-.18.24-.24 0 .03.01.06.01.09 0 .09-.02.17-.06.25-.05.1-.13.17-.23.23 0-.06 0-.12-.02-.18.03-.05.04-.1.06-.15z"/><path d="m26.78 18.99c.06-.06.13-.1.21-.12.1-.02.22-.02.33.02-.06.06-.12.12-.19.15-.13-.02-.25-.02-.36.02-.01 0-.01 0-.02-.01.01-.01.03-.04.03-.06z"/><path d="m26.5 18.84c.03-.11.09-.2.18-.29.03.07.05.15.05.22 0 .04 0 .08-.01.12-.03.11-.09.2-.17.27-.01-.06-.03-.12-.06-.17 0-.01 0-.03 0-.04 0-.03 0-.07.01-.11z"/><path d="m26.24 19.27c0-.12.04-.22.11-.32.07.1.11.21.11.32v.01c0 .1-.04.21-.1.3-.02-.05-.05-.1-.09-.15-.02-.05-.03-.1-.03-.16z"/><path d="m26.11 19.41c.09.08.16.18.18.29.01.04.02.09.02.13 0 .06-.02.13-.04.2-.04-.05-.08-.09-.12-.13-.03-.04-.05-.09-.07-.15-.01-.04-.02-.08-.02-.13.01-.06.02-.14.05-.21z"/><path d="m25.99 19.92c.11.06.19.13.25.23.04.08.06.17.06.26 0 .02 0 .04-.01.06-.05-.04-.1-.07-.15-.09-.04-.04-.07-.08-.1-.13-.04-.07-.06-.16-.06-.25 0-.03.01-.05.01-.08z"/><path d="m28.87 21.97-.01.01c-.15.08-.31.13-.52.17.06-.11.1-.29.1-.49 0-.16-.02-.31-.06-.42h.28c.16 0 .23-.09.23-.18 0-.07-.06-.13-.13-.13s-.13.06-.13.13c0 .02.01.04.01.05.01.02.02.05-.03.05h-.17v-2.18c0-.3-.02-.65-.19-1l-.05-.1-.05.1c-.17.35-.19.7-.19 1v2.18h-.17c-.05 0-.04-.03-.03-.05.01-.01.01-.03.01-.05 0-.07-.05-.13-.13-.13-.07 0-.13.06-.13.13 0 .09.07.18.23.18h.28c-.04.11-.07.25-.07.42 0 .2.04.38.1.49-.22-.03-.38-.08-.53-.17l-.01-.01-.04.09.01.01c.13.07.27.11.42.14 0 0 .12.02.21.04-.02.02-.03.05-.03.09 0 .06.05.11.12.11s.12-.05.12-.11c0-.03-.01-.06-.03-.09.09-.02.2-.04.2-.04.16-.04.29-.07.43-.15l.01-.01zm-.54-.95h-.13v-2.87c.11.29.13.58.13.83z"/></g><path d="m13.5 178.99h90.51v20.66h-90.51z" fill="#262262"/><path d="m21.46 193.62v-7.42h-2.04v-1.15h5.41v1.15h-2v7.42z" fill="#fff"/><path d="m29.77 188.58v3.7c0 .12.03.23.1.32.06.09.14.14.24.14s.17-.01.22-.04v.84c-.22.1-.44.16-.64.16-.7 0-1.06-.28-1.09-.85h-.02c-.34.63-.88.95-1.61.95-.53 0-.94-.15-1.24-.46s-.44-.76-.44-1.36c0-.66.12-1.12.36-1.38s.62-.48 1.14-.65l1.01-.28c.27-.07.47-.16.58-.28.12-.11.17-.3.17-.55 0-.31-.07-.55-.2-.71s-.36-.25-.69-.25c-.39 0-.65.11-.79.33-.13.22-.2.52-.2.91h-1.22c0-.71.17-1.24.52-1.6.34-.35.93-.53 1.75-.53.62 0 1.11.13 1.49.38s.56.67.56 1.21zm-1.23 2.71v-1.08c-.13.1-.39.22-.77.36-.39.14-.61.22-.67.24-.35.17-.53.52-.53 1.04 0 .29.07.52.21.7s.34.27.59.27c.38 0 .67-.13.87-.4.21-.26.3-.64.3-1.13z" fill="#fff"/><path d="m31.09 193.62v-8.57h1.3v4.81h.02l1.96-2.7 1.5-.01-1.94 2.5 2.2 3.97h-1.43l-1.58-2.94-.73.89v2.05z" fill="#fff"/><path d="m41.13 190.56h-3.37v.37c0 .26.01.48.04.68s.07.41.14.62.18.38.33.49c.15.12.34.17.58.17.22 0 .4-.05.55-.16s.25-.25.32-.42.11-.33.13-.46c.02-.14.04-.27.04-.4h1.22c0 .71-.2 1.28-.61 1.7-.4.42-.96.63-1.66.63-.25 0-.47-.02-.66-.05s-.4-.12-.62-.25-.41-.31-.56-.54-.27-.55-.37-.97-.15-.91-.15-1.49c0-.47.03-.9.1-1.27s.18-.74.34-1.1.41-.63.74-.83.74-.29 1.22-.29c.86 0 1.45.24 1.78.71s.5 1.2.5 2.17v.69zm-3.37-.89h2.08v-.35c0-.96-.33-1.44-1-1.44-.38 0-.66.16-.83.47s-.25.71-.25 1.19z" fill="#fff"/><path d="m49.32 188.58v3.7c0 .12.03.23.1.32.06.09.14.14.24.14s.17-.01.22-.04v.84c-.22.1-.44.16-.64.16-.7 0-1.06-.28-1.09-.85h-.02c-.34.63-.88.95-1.61.95-.53 0-.94-.15-1.24-.46s-.44-.76-.44-1.36c0-.66.12-1.12.36-1.38s.62-.48 1.14-.65l1.01-.28c.27-.07.47-.16.58-.28.12-.11.17-.3.17-.55 0-.31-.07-.55-.2-.71s-.36-.25-.69-.25c-.39 0-.65.11-.79.33-.13.22-.2.52-.2.91h-1.22c0-.71.17-1.24.52-1.6.34-.35.93-.53 1.75-.53.62 0 1.11.13 1.49.38s.56.67.56 1.21zm-1.23 2.71v-1.08c-.13.1-.39.22-.77.36-.39.14-.61.22-.67.24-.35.17-.53.52-.53 1.04 0 .29.07.52.21.7s.34.27.59.27c.38 0 .67-.13.87-.4.2-.26.3-.64.3-1.13z" fill="#fff"/><path d="m53.58 193.62v-8.57h1.3v8.57z" fill="#fff"/><path d="m55.93 190.39c0-1.09.18-1.93.54-2.51.36-.59.98-.88 1.86-.88.89 0 1.51.29 1.87.88s.54 1.43.54 2.51c0 2.26-.8 3.4-2.41 3.4-1.6 0-2.4-1.13-2.4-3.4zm1.29 0c0 .88.07 1.51.22 1.88s.44.56.88.56c.45 0 .75-.19.89-.56s.22-1 .22-1.88c0-.81-.08-1.42-.23-1.82-.15-.41-.45-.61-.89-.61-.43 0-.72.2-.88.61-.13.41-.21 1.01-.21 1.82z" fill="#fff"/><path d="m61.48 190.39c0-1.09.18-1.93.54-2.51.36-.59.98-.88 1.86-.88.89 0 1.51.29 1.87.88s.54 1.43.54 2.51c0 2.26-.8 3.4-2.41 3.4-1.6 0-2.4-1.13-2.4-3.4zm1.3 0c0 .88.07 1.51.22 1.88s.44.56.88.56c.45 0 .75-.19.89-.56s.22-1 .22-1.88c0-.81-.08-1.42-.23-1.82-.15-.41-.45-.61-.89-.61-.43 0-.72.2-.88.61-.13.41-.21 1.01-.21 1.82z" fill="#fff"/><path d="m67.29 193.62v-8.57h1.3v4.81h.02l1.96-2.7 1.5-.01-1.94 2.5 2.2 3.97h-1.43l-1.58-2.94-.73.89v2.05z" fill="#fff"/><path d="m75.73 193.62v-6.46h1.22v.76h.04c.16-.29.39-.51.68-.68s.62-.25.98-.25c.52 0 .92.14 1.19.41.28.27.41.72.41 1.34v4.87h-1.3v-4.43c0-.42-.07-.71-.2-.89s-.37-.27-.7-.27c-.29 0-.53.11-.73.33s-.3.53-.3.93v4.33h-1.29z" fill="#fff"/><path d="m81.25 190.39c0-1.09.18-1.93.54-2.51.36-.59.98-.88 1.86-.88.89 0 1.51.29 1.87.88s.54 1.43.54 2.51c0 2.26-.8 3.4-2.41 3.4-1.6 0-2.4-1.13-2.4-3.4zm1.29 0c0 .88.07 1.51.22 1.88s.44.56.88.56c.45 0 .75-.19.89-.56s.22-1 .22-1.88c0-.81-.08-1.42-.23-1.82-.15-.41-.45-.61-.89-.61-.43 0-.72.2-.88.61-.13.41-.21 1.01-.21 1.82z" fill="#fff"/><path d="m88.08 193.62-1.46-6.46h1.34l.9 5.09h.02l.96-5.09h1.46l.96 5.09h.02l.89-5.09h1.3l-1.47 6.46h-1.45l-1.01-5.02h-.02l-.92 5.02z" fill="#fff"/><path d="m95.41 193.62v-1.58h1.37v1.58z" fill="#fff"/></svg>