<svg xmlns="http://www.w3.org/2000/svg" viewBox="0 0 512 452.12"><defs><style>.a{fill:#e8edee;}.b{fill:#ffa939;}.c{fill:#b3babe;}.d{fill:#ce852e;}.e{fill:#ba752b;}.f{fill:#515151;}.g{fill:#595959;}</style></defs><path class="a" d="M64.45,363.88a22.54,22.54,0,0,1-1-7.15q.1-91.1.1-182.2c2.78-1.86,6.07-1.27,9.18-1.28q80.94,0,161.89,0,102.48,0,205,0c3.11,0,6.4-.58,9.19,1.28l0,189.39c-5.19,20.22-21.1,31.12-45.5,31.12q-147.92,0-295.82,0c-19.27,0-33-7.85-41.47-22.51C64.4,369.83,63.45,367,64.45,363.88Z"/><path class="b" d="M405.83,65.13c23.64,0,42.83,15.94,42.95,36,.12,18.21-.07,36.41-.12,54.62-2.59,1.91-5.75,1.2-8.67,1.2q-140.7.06-281.41,0-43.64,0-87.28,0c-2.61,0-5.41.55-7.67-1.21,0-18.91-.52-37.83,0-56.73S83.8,65.17,106.45,65.13a3.32,3.32,0,0,1,1.59,3c.08,10.82.71,21.65-.33,32.45-1.31,2.37-2.27,1.5-3-.28s.09-3.65-.73-5.43c-6.32,4.72-9.94,17.23-4.07,27S115.26,137,128.5,136.7c12.8-.26,22-5.58,27.19-15.33,5.27-10,3.32-19.45-5-27.84-1.19-1.19-2.56-2.26-3-3.87-.84-7-.38-14.09-.31-21.13a3.67,3.67,0,0,1,1.61-3.4H363.36a3.33,3.33,0,0,1,1.58,3c.09,10.82.72,21.65-.32,32.45-1.31,2.36-2.27,1.5-3-.28s.09-3.65-.73-5.43c-6.32,4.71-9.94,17.23-4.07,27S372.16,137,385.4,136.7c12.81-.26,22-5.58,27.2-15.33,5.27-10,3.32-19.45-5.05-27.84-1.19-1.19-2.56-2.26-3-3.87-.84-7-.38-14.09-.31-21.13A3.67,3.67,0,0,1,405.83,65.13Z"/><path class="c" d="M64.45,363.88c1.42,12.59,16.78,26.43,32.08,29a71.88,71.88,0,0,0,11.91.89c98.06,0,196.13-.22,294.19.14,21.78.08,40.25-11.44,45-28.17a8.14,8.14,0,0,1,1.09-1.81c-.18,6.11.64,12.21-.75,18.32-3.93,17.3-20.7,29.52-41.31,29.53q-150.48.06-301,0c-23.58,0-42.2-16-42.15-36.22C63.56,371.68,62.27,367.66,64.45,363.88Z"/><path class="d" d="M448.77,174.53c-1.17,0-2.34.1-3.51.1H67c-1.17,0-2.34-.07-3.5-.1q0-8.91.1-17.83c1.71-.87,3.6-.44,5.4-.44q187.11,0,374.24,0c1.8,0,3.68-.43,5.4.44Q448.72,165.61,448.77,174.53Z"/><path class="c" d="M148.93,65.13q.12,12.86.26,25.7c2,9.53,2.53,18.81-7.38,25.79-6.58,4.64-14.14,5.57-22.06,3.06-7.56-2.4-12.14-7.26-14.07-13.91a4,4,0,0,1,.55-4.08q.1-18.28.22-36.56c0-6.27,0-12.54.09-18.81.16-9.93,9.65-17.94,21.15-17.95s21,8,21.15,17.94C148.94,52.58,148.9,58.86,148.93,65.13Z"/><path class="c" d="M405.83,65.13l.26,25.7c1.58,7.68,2.53,15.31-3.45,22.09a22.88,22.88,0,0,1-20.93,7.78c-9.36-1.19-15.65-6-18.73-13.68-.7-1.75-1.22-3.59.15-5.34q.12-18.27.23-36.55c0-6.41,0-12.82.09-19.22.15-9.89,9.79-17.75,21.39-17.54s20.75,7.79,20.9,17.54C405.84,52.31,405.81,58.72,405.83,65.13Z"/><path class="e" d="M448.67,156.7h-385v-.92h385Z"/><path class="d" d="M363.13,101.68C365.51,117.35,383.2,125,397,116.14c5.63-3.6,8.83-8.44,8.85-14.63,0-3.56.16-7.12.25-10.68,13.23,8.87,14.63,28.52.71,39.7-13.28,10.67-34.51,9.84-46.85-2.19-10.64-10.36-9.68-28.59,2.17-36.22C363.31,95.32,361.68,98.66,363.13,101.68Z"/><path class="d" d="M106.23,101.69c1.91,13.39,14,20.87,28,17.27,8.23-2.14,14.34-8.8,14.69-16.18.2-4,.22-8,.32-12,13.23,8.87,14.63,28.52.7,39.7-13.28,10.67-34.51,9.84-46.85-2.19C92.41,118,93.37,99.73,105.22,92.12,106.41,95.32,104.77,98.66,106.23,101.69Z"/><path class="f" d="M199.8,127.91a3.12,3.12,0,0,1-2-.6,3.92,3.92,0,0,1-1.22-1.88L187,98.24a2.62,2.62,0,0,1,.21-2.48,2.74,2.74,0,0,1,2.42-1,3,3,0,0,1,1.93.57,3.93,3.93,0,0,1,1.1,1.82l8.28,24.56h-1.84l8.65-24.52a4.41,4.41,0,0,1,1.15-1.84,2.68,2.68,0,0,1,1.79-.59,2.5,2.5,0,0,1,1.75.59,4.64,4.64,0,0,1,1.1,1.89l8.38,24.47h-1.61l8.41-24.56a4.14,4.14,0,0,1,1.11-1.8,2.82,2.82,0,0,1,1.88-.59,2.42,2.42,0,0,1,2.17,1,2.65,2.65,0,0,1,.18,2.48l-9.7,27.23a4.15,4.15,0,0,1-1.2,1.84,3.57,3.57,0,0,1-4,0,4,4,0,0,1-1.19-1.88l-8-22.82H211l-8.1,22.86a4.12,4.12,0,0,1-1.17,1.84A2.92,2.92,0,0,1,199.8,127.91Z"/><path class="f" d="M242.71,127.54a2.8,2.8,0,0,1-3.12-3.12V98.24a2.81,2.81,0,0,1,3.12-3.13h16.43a2.46,2.46,0,0,1,1.77.6,2.27,2.27,0,0,1,.62,1.7,2.18,2.18,0,0,1-2.39,2.4H245.25v8.92h12.87a2.44,2.44,0,0,1,1.8.6,2.37,2.37,0,0,1,.6,1.75,2.34,2.34,0,0,1-.6,1.74,2.44,2.44,0,0,1-1.8.6H245.25v9.43h13.89a2.46,2.46,0,0,1,1.77.6,2.78,2.78,0,0,1,0,3.5,2.51,2.51,0,0,1-1.77.59Z"/><path class="f" d="M270.17,127.54a3.13,3.13,0,0,1-2.32-.8,3.17,3.17,0,0,1-.8-2.32V98.24a3.17,3.17,0,0,1,.8-2.32,3.13,3.13,0,0,1,2.32-.81H286.6a2.46,2.46,0,0,1,1.77.6,2.27,2.27,0,0,1,.62,1.7,2.18,2.18,0,0,1-2.39,2.4H272.71v8.92h12.88a2.44,2.44,0,0,1,1.79.6,2.37,2.37,0,0,1,.6,1.75,2.34,2.34,0,0,1-.6,1.74,2.44,2.44,0,0,1-1.79.6H272.71v9.43H286.6a2.46,2.46,0,0,1,1.77.6,2.78,2.78,0,0,1,0,3.5,2.51,2.51,0,0,1-1.77.59Z"/><path class="f" d="M297.45,127.91a2.86,2.86,0,0,1-2.18-.8,3.11,3.11,0,0,1-.76-2.23V97.74a3,3,0,0,1,.76-2.24,3,3,0,0,1,2.18-.75,3,3,0,0,1,2.19.75,3.07,3.07,0,0,1,.76,2.24v11.73h.09l13.2-13.25a5.92,5.92,0,0,1,1.47-1.11,3.71,3.71,0,0,1,1.66-.36,2.37,2.37,0,0,1,1.91.69,2,2,0,0,1,.46,1.61,2.94,2.94,0,0,1-.9,1.7L304.86,112l.05-2.67,14,14.26a2.87,2.87,0,0,1,1,1.94,2.16,2.16,0,0,1-.62,1.68,2.69,2.69,0,0,1-2,.66,3,3,0,0,1-1.77-.46,11.36,11.36,0,0,1-1.54-1.33l-13.57-13.57h-.09v12.33a3.19,3.19,0,0,1-.74,2.23A2.87,2.87,0,0,1,297.45,127.91Z"/><path class="g" d="M254.75,354.34a90,90,0,0,1-22.18-2.87,71.78,71.78,0,0,1-20.73-8.83,12.44,12.44,0,0,1-5.24-5.85A11.58,11.58,0,0,1,206,330a11.3,11.3,0,0,1,3.08-5.75,9.59,9.59,0,0,1,5.75-2.77,12.54,12.54,0,0,1,7.5,1.85,71.56,71.56,0,0,0,15.4,6.57,59.35,59.35,0,0,0,16.63,2.26,32.81,32.81,0,0,0,14.78-3.08,22.28,22.28,0,0,0,9.44-8.63,24.86,24.86,0,0,0,3.29-12.93q0-11.49-7-18.58t-19.1-7.08A38.2,38.2,0,0,0,243,284a36.4,36.4,0,0,0-12.11,7.5,25.08,25.08,0,0,1-4.72,3.18,12.94,12.94,0,0,1-6.16,1.54c-3.42,0-6-.89-7.8-2.67a10,10,0,0,1-2.67-7.39V219c0-3.7,1-6.53,3-8.52s4.83-3,8.53-3h67.54q5.55,0,8.52,2.78c2,1.84,3,4.55,3,8.1s-1,6.1-3,8-4.82,2.88-8.52,2.88H235.24v46h-6.77a34.69,34.69,0,0,1,14.16-11.09,47.25,47.25,0,0,1,19.3-3.9q13.76,0,23.92,5.85a41,41,0,0,1,15.81,16.22q5.64,10.37,5.65,24.12,0,14.17-6.37,24.95a43.68,43.68,0,0,1-18.17,16.83Q271,354.34,254.75,354.34Z"/></svg>