<svg viewBox="0 0 512 452.12" xmlns="http://www.w3.org/2000/svg"><path d="m72.76 361.43a22.21 22.21 0 0 1 -1-7.15q.09-91.09.09-182.2c2.78-1.86 6.08-1.27 9.18-1.27q80.94-.06 161.89 0 102.5 0 205 0c3.11 0 6.41-.59 9.19 1.27v189.39c-5.19 20.22-21.1 31.13-45.5 31.13q-147.9 0-295.82 0c-19.27 0-33-7.85-41.47-22.5-1.61-2.72-2.56-5.6-1.56-8.67z" fill="#e8edee"/><path d="m414.14 62.68c23.64 0 42.83 15.95 43 36 .11 18.2-.07 36.41-.13 54.61-2.59 1.91-5.74 1.2-8.67 1.21q-140.7 0-281.41 0-43.63 0-87.28 0c-2.61 0-5.41.55-7.67-1.21 0-18.91-.52-37.83 0-56.73s20.14-33.88 42.79-33.92a3.34 3.34 0 0 1 1.59 3c.08 10.83.72 21.65-.33 32.46-1.31 2.36-2.27 1.49-3-.29s.08-3.64-.74-5.43c-6.32 4.72-9.94 17.23-4.06 27s15.38 15.09 28.62 14.82c12.8-.26 22-5.57 27.2-15.32 5.27-10 3.31-19.45-5-27.85-1.19-1.19-2.56-2.26-3-3.87-.84-7-.38-14.09-.31-21.13a3.68 3.68 0 0 1 1.61-3.4h214.32a3.3 3.3 0 0 1 1.58 3c.09 10.83.72 21.65-.32 32.46-1.31 2.36-2.27 1.49-3-.29s.09-3.64-.73-5.43c-6.32 4.72-9.94 17.23-4.07 27s15.38 15.09 28.62 14.82c12.81-.26 22.05-5.57 27.2-15.32 5.27-10 3.32-19.45-5.05-27.85-1.18-1.19-2.56-2.26-3-3.87-.84-7-.37-14.09-.31-21.13a3.71 3.71 0 0 1 1.55-3.34z" fill="#ffa939"/><path d="m72.76 361.43c1.42 12.6 16.78 26.43 32.08 29a71.88 71.88 0 0 0 11.91.89c98.07 0 196.13-.22 294.19.14 21.78.08 40.25-11.44 45-28.16a8.6 8.6 0 0 1 1.09-1.82c-.18 6.11.64 12.21-.75 18.32-3.93 17.3-20.7 29.52-41.31 29.53q-150.48.07-301 0c-23.58 0-42.2-16-42.15-36.21.05-3.89-1.24-7.91.94-11.69z" fill="#b3babe"/><path d="m457.08 172.08c-1.17 0-2.34.1-3.51.1h-378.23c-1.17 0-2.33-.06-3.5-.1q0-8.91.1-17.83c1.72-.87 3.6-.43 5.4-.43q187.11 0 374.24 0c1.8 0 3.68-.44 5.4.43q.02 8.91.1 17.83z" fill="#ce852e"/><path d="m157.24 62.68q.13 12.85.26 25.71c2 9.52 2.54 18.8-7.38 25.79-6.58 4.63-14.14 5.56-22.06 3-7.56-2.4-12.13-7.25-14.07-13.9a4.06 4.06 0 0 1 .55-4.09q.12-18.28.22-36.56c0-6.27 0-12.54.1-18.81.14-9.82 9.64-17.88 21.14-17.9s21 8 21.15 17.95c.1 6.27.07 12.54.09 18.81z" fill="#b3babe"/><path d="m414.14 62.68.26 25.71c1.58 7.67 2.53 15.31-3.45 22.08a22.88 22.88 0 0 1 -20.95 7.78c-9.36-1.18-15.65-6-18.73-13.68-.7-1.75-1.22-3.58.15-5.33q.12-18.28.23-36.56c0-6.41 0-12.81.09-19.22.15-9.88 9.79-17.75 21.4-17.54s20.74 7.79 20.89 17.54c.12 6.41.09 12.81.11 19.22z" fill="#b3babe"/><path d="m457 154.25h-385v-.92h385z" fill="#ba752b"/><path d="m371.44 99.24c2.39 15.67 20.07 23.26 33.86 14.46 5.63-3.6 8.84-8.45 8.85-14.63 0-3.56.16-7.12.25-10.68 13.24 8.86 14.64 28.51.71 39.69-13.28 10.67-34.51 9.84-46.85-2.18-10.64-10.37-9.68-28.6 2.17-36.23 1.19 3.21-.43 6.54 1.01 9.57z" fill="#ce852e"/><path d="m114.54 99.24c1.91 13.39 14 20.88 28 17.27 8.22-2.13 14.33-8.8 14.68-16.17.2-4 .22-8 .32-12 13.23 8.86 14.63 28.51.7 39.7-13.28 10.66-34.51 9.83-46.85-2.2-10.63-10.36-9.67-28.61 2.18-36.21 1.15 3.25-.49 6.58.97 9.61z" fill="#ce852e"/><g fill="#515151"><path d="m208.38 125.46a3.74 3.74 0 0 1 -2.36-.69 4.48 4.48 0 0 1 -1.41-2.16l-9.29-26.13a3.05 3.05 0 0 1 .21-3 3.32 3.32 0 0 1 2.92-1.22 3.55 3.55 0 0 1 2.34.69 4.36 4.36 0 0 1 1.29 2.16l7.55 22.59h-2l8-22.59a4.79 4.79 0 0 1 1.37-2.11 3.28 3.28 0 0 1 2.17-.69 3 3 0 0 1 2.07.69 4.91 4.91 0 0 1 1.28 2.21l7.69 22.54h-1.71l7.68-22.59a4.8 4.8 0 0 1 1.37-2.16 3.4 3.4 0 0 1 2.25-.69 2.94 2.94 0 0 1 2.62 1.22 3.08 3.08 0 0 1 .19 3l-9.34 26.13a5.27 5.27 0 0 1 -1.45 2.16 3.58 3.58 0 0 1 -2.32.69 3.79 3.79 0 0 1 -2.37-.69 4.4 4.4 0 0 1 -1.4-2.16l-7.27-20.56h1.1l-7.4 20.56a5 5 0 0 1 -1.41 2.16 3.64 3.64 0 0 1 -2.37.64z"/><path d="m251.67 125.1a3.74 3.74 0 0 1 -2.76-1 3.82 3.82 0 0 1 -1-2.81v-24.85a3.83 3.83 0 0 1 1-2.81 3.74 3.74 0 0 1 2.76-1h16.05a2.84 2.84 0 0 1 2.1.71 2.81 2.81 0 0 1 .71 2.05 2.5 2.5 0 0 1 -2.81 2.8h-12.92v7.59h11.91a2.82 2.82 0 0 1 2.12.72 2.88 2.88 0 0 1 .69 2.09 2.47 2.47 0 0 1 -2.81 2.76h-11.91v8.14h12.92a2.5 2.5 0 0 1 2.81 2.81 2.76 2.76 0 0 1 -.71 2 2.85 2.85 0 0 1 -2.1.72z"/><path d="m279.5 125.1a3.74 3.74 0 0 1 -2.76-1 3.82 3.82 0 0 1 -1-2.81v-24.85a3.83 3.83 0 0 1 1-2.81 3.74 3.74 0 0 1 2.76-1h16.05a2.84 2.84 0 0 1 2.1.71 2.81 2.81 0 0 1 .71 2.05 2.5 2.5 0 0 1 -2.81 2.8h-12.92v7.59h11.91a2.82 2.82 0 0 1 2.12.72 2.88 2.88 0 0 1 .69 2.09 2.47 2.47 0 0 1 -2.81 2.76h-11.91v8.14h12.92a2.5 2.5 0 0 1 2.81 2.81 2.76 2.76 0 0 1 -.71 2 2.85 2.85 0 0 1 -2.1.72z"/><path d="m307.15 125.46a3.51 3.51 0 0 1 -2.63-.94 3.7 3.7 0 0 1 -.92-2.69v-25.94a3.62 3.62 0 0 1 .92-2.67 3.58 3.58 0 0 1 6.22 2.67v10.9h.09l12.23-12.79a6 6 0 0 1 1.66-1.26 4.15 4.15 0 0 1 1.93-.44 2.88 2.88 0 0 1 2.32.83 2.46 2.46 0 0 1 .62 1.93 3.16 3.16 0 0 1 -1 2l-12.29 12.58.05-3 12.83 13.71a3.37 3.37 0 0 1 1.13 2.32 2.64 2.64 0 0 1 -.78 2 3.29 3.29 0 0 1 -2.37.78 3.6 3.6 0 0 1 -2.12-.55 14.61 14.61 0 0 1 -1.79-1.56l-12.42-13.06h-.09v11.54a3.74 3.74 0 0 1 -.9 2.69 3.55 3.55 0 0 1 -2.69.95z"/></g><path d="m232.26 349.84q-5.34 0-8.31-3a10.92 10.92 0 0 1 -3-8.11q0-5.33 3-8t8.31-2.67h23v-100.79h12.74l-30.2 18.27a11.13 11.13 0 0 1 -7.28 1.75 10 10 0 0 1 -5.75-2.88 11.77 11.77 0 0 1 -3.18-5.64 10.72 10.72 0 0 1 .51-6.68 11.51 11.51 0 0 1 5.23-5.64l28.34-17a65.8 65.8 0 0 1 8.21-4.21 19.64 19.64 0 0 1 7.6-1.75 11 11 0 0 1 7.18 2.36q2.88 2.37 2.88 7.7v114.53h20.94q5.34 0 8.31 2.67t3 8q0 5.34-3 8.22t-8.31 2.87z" fill="#595959"/></svg>