<svg xmlns="http://www.w3.org/2000/svg" viewBox="0 0 512 452.12"><defs><style>.a{fill:#e8edee;}.b{fill:#ffa939;}.c{fill:#b3babe;}.d{fill:#ce852e;}.e{fill:#ba752b;}.f{fill:#515151;}.g{fill:#595959;}</style></defs><path class="a" d="M64.45,363.87a22.54,22.54,0,0,1-1-7.15q.09-91.1.09-182.2c2.79-1.86,6.08-1.28,9.19-1.28q80.94,0,161.88,0,102.5,0,205,0c3.11,0,6.4-.58,9.19,1.28l0,189.39c-5.19,20.22-21.11,31.12-45.5,31.12q-147.92,0-295.83,0c-19.26,0-33-7.85-41.46-22.51C64.4,369.82,63.44,366.94,64.45,363.87Z"/><path class="b" d="M405.83,65.12c23.64,0,42.83,15.94,42.95,36,.12,18.21-.07,36.41-.12,54.62-2.59,1.91-5.75,1.2-8.67,1.2q-140.7.06-281.41,0-43.64,0-87.28,0c-2.61,0-5.41.55-7.67-1.21,0-18.91-.52-37.83,0-56.73s20.13-33.89,42.79-33.92a3.32,3.32,0,0,1,1.59,3c.08,10.82.71,21.65-.33,32.45-1.31,2.36-2.27,1.5-3-.28s.09-3.65-.73-5.43c-6.32,4.72-9.94,17.23-4.07,27s15.39,15.1,28.63,14.83c12.8-.26,22-5.58,27.19-15.33,5.27-10,3.32-19.45-5.05-27.84-1.18-1.19-2.55-2.26-3-3.87-.84-7-.37-14.09-.3-21.13a3.67,3.67,0,0,1,1.61-3.4H363.36a3.33,3.33,0,0,1,1.58,3c.08,10.82.72,21.65-.32,32.45-1.31,2.36-2.27,1.5-3-.28s.08-3.65-.73-5.43c-6.32,4.71-9.94,17.23-4.07,27s15.38,15.1,28.62,14.83c12.81-.26,22-5.58,27.2-15.33,5.27-10,3.32-19.45-5.05-27.84-1.19-1.19-2.56-2.26-3-3.87-.84-7-.38-14.09-.31-21.13A3.67,3.67,0,0,1,405.83,65.12Z"/><path class="c" d="M64.45,363.87c1.42,12.59,16.78,26.43,32.08,29a69.79,69.79,0,0,0,11.91.89c98.06,0,196.13-.21,294.19.14,21.77.08,40.25-11.43,45-28.16a8.14,8.14,0,0,1,1.09-1.81c-.18,6.11.63,12.21-.75,18.32-3.94,17.3-20.7,29.52-41.31,29.53q-150.49.06-301,0c-23.59,0-42.21-16.05-42.15-36.22C63.56,371.67,62.26,367.65,64.45,363.87Z"/><path class="d" d="M448.77,174.52c-1.17,0-2.34.1-3.51.1H67c-1.17,0-2.34-.07-3.51-.1q.06-8.91.11-17.83c1.71-.87,3.6-.44,5.39-.44q187.13,0,374.25,0c1.79,0,3.68-.43,5.39.44Q448.72,165.6,448.77,174.52Z"/><path class="c" d="M148.93,65.12q.12,12.84.26,25.7c2,9.53,2.53,18.81-7.38,25.79-6.58,4.64-14.14,5.57-22.06,3.06-7.56-2.4-12.14-7.26-14.07-13.91a4.06,4.06,0,0,1,.55-4.09q.1-18.27.22-36.55c0-6.27,0-12.54.09-18.81.16-9.93,9.64-17.94,21.15-18s21,8,21.15,17.94C148.94,52.57,148.9,58.84,148.93,65.12Z"/><path class="c" d="M405.83,65.12l.26,25.7c1.58,7.68,2.53,15.31-3.46,22.09a22.85,22.85,0,0,1-20.92,7.78c-9.36-1.19-15.65-6-18.73-13.68-.7-1.75-1.22-3.59.15-5.34q.11-18.27.23-36.55c0-6.41,0-12.82.09-19.22.15-9.89,9.78-17.75,21.39-17.54s20.74,7.79,20.9,17.54C405.84,52.3,405.81,58.71,405.83,65.12Z"/><path class="e" d="M448.66,156.69h-385v-.92h385Z"/><path class="d" d="M363.13,101.67c2.38,15.67,20.07,23.27,33.86,14.46,5.63-3.6,8.83-8.44,8.85-14.63,0-3.56.16-7.12.25-10.68,13.23,8.87,14.63,28.52.71,39.7-13.29,10.67-34.52,9.84-46.85-2.19-10.64-10.37-9.68-28.59,2.17-36.22C363.31,95.31,361.68,98.64,363.13,101.67Z"/><path class="d" d="M106.23,101.67c1.91,13.4,14,20.88,28,17.27,8.23-2.13,14.33-8.79,14.69-16.17.19-4,.22-8,.31-12,13.24,8.86,14.64,28.52.71,39.7-13.28,10.67-34.51,9.84-46.85-2.19C92.41,118,93.37,99.71,105.21,92.11,106.41,95.31,104.77,98.65,106.23,101.67Z"/><path class="f" d="M200.07,127.9a3.79,3.79,0,0,1-2.37-.69,4.54,4.54,0,0,1-1.4-2.16L187,98.92a3.07,3.07,0,0,1,.21-3,3.3,3.3,0,0,1,2.92-1.21,3.55,3.55,0,0,1,2.34.68,4.47,4.47,0,0,1,1.29,2.17l7.54,22.58h-2l8-22.58a4.74,4.74,0,0,1,1.33-2.17,3.25,3.25,0,0,1,2.16-.68,3,3,0,0,1,2.07.68,5.06,5.06,0,0,1,1.29,2.21l7.68,22.54h-1.7l7.68-22.58a4.75,4.75,0,0,1,1.34-2.17,3.4,3.4,0,0,1,2.25-.68A2.93,2.93,0,0,1,234.11,96a3.1,3.1,0,0,1,.19,3L225,125.05a5.27,5.27,0,0,1-1.45,2.16,3.58,3.58,0,0,1-2.32.69,3.79,3.79,0,0,1-2.37-.69,4.4,4.4,0,0,1-1.4-2.16l-7.27-20.56h1.1l-7.41,20.56a4.86,4.86,0,0,1-1.4,2.16A3.68,3.68,0,0,1,200.07,127.9Z"/><path class="f" d="M243.36,127.53a3.74,3.74,0,0,1-2.76-1,3.79,3.79,0,0,1-1-2.81V98.87a3.77,3.77,0,0,1,1-2.8,3.7,3.7,0,0,1,2.76-1h16.05a2.8,2.8,0,0,1,2.09.72,2.73,2.73,0,0,1,.72,2,2.51,2.51,0,0,1-2.81,2.81H246.49v7.59H258.4a2.86,2.86,0,0,1,2.12.71,2.92,2.92,0,0,1,.69,2.1,2.48,2.48,0,0,1-2.81,2.76H246.49V122h12.92a2.51,2.51,0,0,1,2.81,2.8,2.77,2.77,0,0,1-.72,2,2.8,2.8,0,0,1-2.09.71Z"/><path class="f" d="M271.19,127.53a3.74,3.74,0,0,1-2.76-1,3.79,3.79,0,0,1-1-2.81V98.87a3.77,3.77,0,0,1,1-2.8,3.7,3.7,0,0,1,2.76-1h16.05a2.8,2.8,0,0,1,2.09.72,2.73,2.73,0,0,1,.72,2,2.51,2.51,0,0,1-2.81,2.81H274.32v7.59h11.91a2.86,2.86,0,0,1,2.12.71,2.92,2.92,0,0,1,.69,2.1,2.48,2.48,0,0,1-2.81,2.76H274.32V122h12.92a2.51,2.51,0,0,1,2.81,2.8,2.77,2.77,0,0,1-.72,2,2.8,2.8,0,0,1-2.09.71Z"/><path class="f" d="M298.83,127.9a3.5,3.5,0,0,1-2.62-.94,3.72,3.72,0,0,1-.92-2.69V98.32a3.61,3.61,0,0,1,.92-2.66,3.53,3.53,0,0,1,2.62-.92,3.22,3.22,0,0,1,3.59,3.58v10.91h.09l12.24-12.79a5.71,5.71,0,0,1,1.66-1.27,4.24,4.24,0,0,1,1.93-.43,2.91,2.91,0,0,1,2.32.82,2.54,2.54,0,0,1,.62,1.94,3.21,3.21,0,0,1-1,2L308,112.08l0-3,12.84,13.7a3.45,3.45,0,0,1,1.13,2.33,2.61,2.61,0,0,1-.79,2,3.25,3.25,0,0,1-2.37.78,3.57,3.57,0,0,1-2.11-.55,15.38,15.38,0,0,1-1.8-1.56l-12.42-13.07h-.09v11.55a3.79,3.79,0,0,1-.89,2.69A3.56,3.56,0,0,1,298.83,127.9Z"/><path class="g" d="M250.64,354.33a98.29,98.29,0,0,1-23-2.87,66,66,0,0,1-20.73-8.63,13.67,13.67,0,0,1-5.54-6.16,10.81,10.81,0,0,1-.72-6.67,10.52,10.52,0,0,1,3.08-5.44,10,10,0,0,1,6-2.67,13.74,13.74,0,0,1,7.9,1.85,71.08,71.08,0,0,0,16.22,6.47,65.8,65.8,0,0,0,16,2A40.91,40.91,0,0,0,265,329.69a19.15,19.15,0,0,0,9.34-7.39,21.48,21.48,0,0,0,3.19-11.91q0-10.26-6.88-15.29t-20-5H237.5q-5.75,0-8.73-2.88t-3-8q0-5.13,3-8t8.73-2.88h10.68a31.62,31.62,0,0,0,13.34-2.56,20,20,0,0,0,8.62-7.29,20.55,20.55,0,0,0,3.08-11.5q0-9.44-6.26-14.37t-18.17-4.93a56.41,56.41,0,0,0-14.27,1.75,58.62,58.62,0,0,0-14.68,6.47,10.94,10.94,0,0,1-7.08,1.84,9.3,9.3,0,0,1-5.65-2.67A11.67,11.67,0,0,1,204,229.6a10.88,10.88,0,0,1,.41-6.57,11.93,11.93,0,0,1,5.14-5.85,69.69,69.69,0,0,1,19.5-8.72,81.21,81.21,0,0,1,22-3q15,0,25.66,4.62A36.23,36.23,0,0,1,293,223.24q5.64,8.52,5.64,20.63a37,37,0,0,1-3.28,15.71,34,34,0,0,1-9.24,12,35.37,35.37,0,0,1-14.37,7v-2.46q14.77,2.46,23,12.21T303,312.65a38.77,38.77,0,0,1-6.36,22.18,40.39,40.39,0,0,1-18.07,14.47Q266.86,354.32,250.64,354.33Z"/></svg>