<svg xmlns="http://www.w3.org/2000/svg" viewBox="0 0 512 452.12"><defs><style>.a{fill:#e8edee;}.b{fill:#ffa939;}.c{fill:#b3babe;}.d{fill:#ce852e;}.e{fill:#ba752b;}.f{fill:#515151;}.g{fill:#595959;}</style></defs><path class="a" d="M64.45,363.89a22.44,22.44,0,0,1-1-7.14q.1-91.11.1-182.2c2.78-1.86,6.07-1.28,9.18-1.28q80.94-.06,161.89,0,102.48,0,205,0c3.11,0,6.4-.58,9.19,1.28l0,189.39c-5.19,20.21-21.1,31.12-45.5,31.12q-147.92,0-295.82,0c-19.27,0-33-7.85-41.47-22.5C64.4,369.85,63.45,367,64.45,363.89Z"/><path class="b" d="M405.83,65.14c23.64,0,42.83,16,42.95,36,.12,18.2-.07,36.41-.12,54.61-2.59,1.92-5.75,1.21-8.67,1.21q-140.7.06-281.41,0-43.64,0-87.28,0c-2.61,0-5.41.56-7.67-1.21,0-18.91-.52-37.83,0-56.72S83.8,65.18,106.45,65.14a3.35,3.35,0,0,1,1.59,3c.08,10.82.71,21.65-.33,32.45-1.31,2.36-2.27,1.49-3-.29s.09-3.64-.73-5.42c-6.32,4.71-9.94,17.22-4.07,27s15.39,15.1,28.63,14.83c12.8-.27,22-5.58,27.19-15.33,5.27-10,3.32-19.45-5-27.85-1.19-1.19-2.56-2.26-3-3.87-.84-7-.38-14.08-.31-21.13a3.69,3.69,0,0,1,1.61-3.4H363.36a3.36,3.36,0,0,1,1.58,3c.09,10.82.72,21.65-.32,32.45-1.31,2.36-2.27,1.49-3-.29s.09-3.64-.73-5.42c-6.32,4.71-9.94,17.22-4.07,27s15.38,15.1,28.62,14.83c12.81-.27,22-5.58,27.2-15.33,5.27-10,3.32-19.45-5.05-27.85-1.19-1.19-2.56-2.26-3-3.87-.84-7-.38-14.08-.31-21.12A3.69,3.69,0,0,1,405.83,65.14Z"/><path class="c" d="M64.45,363.89c1.42,12.6,16.78,26.43,32.08,29a71.88,71.88,0,0,0,11.91.89c98.06,0,196.13-.22,294.19.14,21.78.08,40.25-11.44,45-28.16a8.14,8.14,0,0,1,1.09-1.81c-.18,6.1.64,12.21-.75,18.31-3.93,17.31-20.7,29.52-41.31,29.53q-150.48.08-301,0c-23.58,0-42.2-16-42.15-36.21C63.56,371.69,62.27,367.67,64.45,363.89Z"/><path class="d" d="M448.77,174.55c-1.17,0-2.34.09-3.51.09q-189.1,0-378.23,0c-1.17,0-2.34-.06-3.5-.09q0-8.93.1-17.84c1.71-.86,3.6-.43,5.4-.43q187.11,0,374.24,0c1.8,0,3.68-.43,5.4.43Q448.72,165.64,448.77,174.55Z"/><path class="c" d="M148.93,65.14q.12,12.85.26,25.71c2,9.53,2.53,18.8-7.38,25.79-6.58,4.63-14.14,5.57-22.06,3-7.56-2.4-12.14-7.25-14.07-13.9a4.06,4.06,0,0,1,.55-4.09q.1-18.27.22-36.56c0-6.27,0-12.54.09-18.81.16-9.92,9.65-17.93,21.15-17.95s21,8,21.15,18C148.94,52.6,148.9,58.87,148.93,65.14Z"/><path class="c" d="M405.83,65.14l.26,25.71c1.58,7.67,2.53,15.31-3.45,22.08a22.89,22.89,0,0,1-20.93,7.79c-9.36-1.19-15.65-6-18.73-13.69-.7-1.74-1.22-3.58.15-5.33q.12-18.28.23-36.56c0-6.4,0-12.81.09-19.22.15-9.88,9.79-17.74,21.39-17.54s20.75,7.79,20.9,17.54C405.84,52.33,405.81,58.74,405.83,65.14Z"/><path class="e" d="M448.67,156.71h-385v-.92h385Z"/><path class="d" d="M363.13,101.7C365.51,117.37,383.2,125,397,116.16c5.63-3.6,8.83-8.44,8.85-14.63,0-3.56.16-7.12.25-10.68,13.23,8.86,14.63,28.51.71,39.7-13.28,10.66-34.51,9.83-46.85-2.19-10.64-10.37-9.68-28.6,2.17-36.22C363.31,95.34,361.68,98.67,363.13,101.7Z"/><path class="d" d="M106.23,101.7c1.91,13.39,14,20.88,28,17.27,8.23-2.13,14.34-8.8,14.69-16.17.2-4,.22-8,.32-12,13.23,8.86,14.63,28.51.7,39.7-13.28,10.66-34.51,9.83-46.85-2.19C92.41,118,93.37,99.74,105.22,92.14,106.41,95.34,104.77,98.67,106.23,101.7Z"/><path class="f" d="M200.07,127.93a3.74,3.74,0,0,1-2.36-.69,4.48,4.48,0,0,1-1.41-2.16L187,99a3.07,3.07,0,0,1,.21-3,3.31,3.31,0,0,1,2.92-1.22,3.55,3.55,0,0,1,2.34.69,4.36,4.36,0,0,1,1.29,2.16l7.55,22.59h-2l8-22.59a4.71,4.71,0,0,1,1.33-2.16,3.25,3.25,0,0,1,2.16-.69,3,3,0,0,1,2.07.69,5.06,5.06,0,0,1,1.29,2.21l7.68,22.54h-1.7l7.68-22.59a4.8,4.8,0,0,1,1.34-2.16,3.4,3.4,0,0,1,2.25-.69A2.94,2.94,0,0,1,234.11,96a3.1,3.1,0,0,1,.19,3L225,125.08a5.27,5.27,0,0,1-1.45,2.16,3.58,3.58,0,0,1-2.32.69,3.79,3.79,0,0,1-2.37-.69,4.4,4.4,0,0,1-1.4-2.16l-7.27-20.57h1.1l-7.4,20.57a5,5,0,0,1-1.41,2.16A3.64,3.64,0,0,1,200.07,127.93Z"/><path class="f" d="M243.36,127.56a3.7,3.7,0,0,1-2.76-1,3.81,3.81,0,0,1-1-2.8V98.9a3.81,3.81,0,0,1,1-2.8,3.7,3.7,0,0,1,2.76-1h16.05a2.88,2.88,0,0,1,2.1.71,2.81,2.81,0,0,1,.71,2,2.51,2.51,0,0,1-2.81,2.81H246.49v7.59H258.4a2.82,2.82,0,0,1,2.12.71,2.88,2.88,0,0,1,.69,2.09,2.47,2.47,0,0,1-2.81,2.76H246.49V122h12.92a2.51,2.51,0,0,1,2.81,2.81,2.81,2.81,0,0,1-.71,2,2.88,2.88,0,0,1-2.1.71Z"/><path class="f" d="M271.19,127.56a3.7,3.7,0,0,1-2.76-1,3.81,3.81,0,0,1-1-2.8V98.9a3.81,3.81,0,0,1,1-2.8,3.7,3.7,0,0,1,2.76-1h16.05a2.88,2.88,0,0,1,2.1.71,2.81,2.81,0,0,1,.71,2,2.51,2.51,0,0,1-2.81,2.81H274.32v7.59h11.91a2.82,2.82,0,0,1,2.12.71,2.88,2.88,0,0,1,.69,2.09,2.47,2.47,0,0,1-2.81,2.76H274.32V122h12.92a2.51,2.51,0,0,1,2.81,2.81,2.81,2.81,0,0,1-.71,2,2.88,2.88,0,0,1-2.1.71Z"/><path class="f" d="M298.84,127.93a3.52,3.52,0,0,1-2.63-1,3.69,3.69,0,0,1-.92-2.69V98.35a3.62,3.62,0,0,1,.92-2.67,3.57,3.57,0,0,1,6.21,2.67v10.9h.1l12.23-12.79a5.84,5.84,0,0,1,1.66-1.26,4.25,4.25,0,0,1,1.93-.44,2.91,2.91,0,0,1,2.32.83,2.48,2.48,0,0,1,.62,1.93,3.19,3.19,0,0,1-1,2L308,112.1l.05-3,12.83,13.71a3.39,3.39,0,0,1,1.13,2.32,2.63,2.63,0,0,1-.79,2,3.25,3.25,0,0,1-2.36.78,3.68,3.68,0,0,1-2.12-.55,14,14,0,0,1-1.79-1.57l-12.42-13.06h-.1v11.54a3.76,3.76,0,0,1-.89,2.69A3.55,3.55,0,0,1,298.84,127.93Z"/><path class="g" d="M253.51,354.36q-16.83,0-28.84-4.83t-18.48-14.06q-6.47-9.24-6.47-22.18a38.15,38.15,0,0,1,4.21-18.17,35,35,0,0,1,11.6-12.83,39,39,0,0,1,16.84-6.16v4.31a36.1,36.1,0,0,1-21.05-12.62q-7.9-9.75-7.9-23.31,0-12.31,6.16-21T227,210.12q11.29-4.6,26.48-4.61,15.4,0,26.69,4.61t17.46,13.35q6.15,8.73,6.16,21a38.3,38.3,0,0,1-3.6,16.63,33.44,33.44,0,0,1-10.06,12.53,35.55,35.55,0,0,1-15.09,6.57v-4.11q14.37,2.06,23.3,12t8.94,25.15q0,12.94-6.47,22.18t-18.48,14.06Q270.35,354.36,253.51,354.36Zm0-20.53q14.58,0,22-5.65t7.39-16.73q0-11.1-7.39-16.63t-22-5.55q-14.37,0-21.86,5.55t-7.49,16.63q0,11.08,7.49,16.73T253.51,333.83Zm0-65.09a34,34,0,0,0,14-2.57,19.37,19.37,0,0,0,8.82-7.49,21.15,21.15,0,0,0,3.08-11.5q0-9.85-6.87-15.5t-19-5.64q-12.1,0-18.88,5.64t-6.78,15.5q0,10.06,6.78,15.81T253.51,268.74Z"/></svg>