<svg xmlns="http://www.w3.org/2000/svg" viewBox="0 0 512 452.12"><defs><style>.a{fill:#e8edee;}.b{fill:#ffa939;}.c{fill:#b3babe;}.d{fill:#ce852e;}.e{fill:#ba752b;}.f{fill:#515151;}.g{fill:#595959;}</style></defs><path class="a" d="M64.45,363.9a22.54,22.54,0,0,1-1-7.15q.1-91.1.1-182.2c2.78-1.86,6.07-1.27,9.18-1.28q80.94,0,161.89,0,102.48,0,205,0c3.11,0,6.4-.58,9.19,1.28l0,189.39c-5.19,20.22-21.1,31.12-45.5,31.13q-147.92,0-295.82,0c-19.27,0-33-7.85-41.47-22.5C64.4,369.85,63.45,367,64.45,363.9Z"/><path class="b" d="M405.83,65.15c23.64,0,42.83,15.95,42.95,36,.12,18.2-.07,36.4-.12,54.61-2.59,1.91-5.75,1.2-8.67,1.2q-140.7.06-281.41,0-43.64,0-87.28,0c-2.61,0-5.41.55-7.67-1.21,0-18.91-.52-37.83,0-56.73S83.8,65.19,106.45,65.15a3.33,3.33,0,0,1,1.59,3c.08,10.83.71,21.65-.33,32.46-1.31,2.36-2.27,1.49-3-.29s.09-3.65-.73-5.43c-6.32,4.72-9.94,17.23-4.07,27s15.39,15.1,28.63,14.83c12.8-.26,22-5.58,27.19-15.32,5.27-10,3.32-19.45-5-27.85-1.19-1.19-2.56-2.26-3-3.87-.84-7-.38-14.09-.31-21.13a3.67,3.67,0,0,1,1.61-3.4H363.36a3.35,3.35,0,0,1,1.58,3c.09,10.82.72,21.65-.32,32.46-1.31,2.36-2.27,1.49-3-.29s.09-3.65-.73-5.43c-6.32,4.72-9.94,17.23-4.07,27s15.38,15.1,28.62,14.83c12.81-.26,22-5.58,27.2-15.32,5.27-10,3.32-19.45-5.05-27.85-1.19-1.19-2.56-2.26-3-3.87-.84-7-.38-14.09-.31-21.13A3.68,3.68,0,0,1,405.83,65.15Z"/><path class="c" d="M64.45,363.9c1.42,12.59,16.78,26.43,32.08,29a71.88,71.88,0,0,0,11.91.89c98.06,0,196.13-.22,294.19.14,21.78.08,40.25-11.44,45-28.17a8.14,8.14,0,0,1,1.09-1.81c-.18,6.11.64,12.21-.75,18.32-3.93,17.3-20.7,29.52-41.31,29.53q-150.48.07-301,0c-23.58,0-42.2-16-42.15-36.22C63.56,371.7,62.27,367.68,64.45,363.9Z"/><path class="d" d="M448.77,174.55c-1.17,0-2.34.1-3.51.1H67c-1.17,0-2.34-.06-3.5-.1q0-8.91.1-17.83c1.71-.87,3.6-.43,5.4-.43q187.11,0,374.24,0c1.8,0,3.68-.44,5.4.43Q448.72,165.63,448.77,174.55Z"/><path class="c" d="M148.93,65.15q.12,12.85.26,25.7c2,9.53,2.53,18.81-7.38,25.8-6.58,4.63-14.14,5.56-22.06,3-7.56-2.4-12.14-7.26-14.07-13.91a4,4,0,0,1,.55-4.08q.1-18.28.22-36.56c0-6.27,0-12.54.09-18.81.16-9.93,9.65-17.94,21.15-18s21,8,21.15,17.94C148.94,52.6,148.9,58.88,148.93,65.15Z"/><path class="c" d="M405.83,65.15l.26,25.7c1.58,7.68,2.53,15.31-3.45,22.09a22.88,22.88,0,0,1-20.93,7.78c-9.36-1.19-15.65-6-18.73-13.68-.7-1.75-1.22-3.59.15-5.34q.12-18.27.23-36.55c0-6.41,0-12.81.09-19.22.15-9.89,9.79-17.75,21.39-17.54s20.75,7.79,20.9,17.54C405.84,52.33,405.81,58.74,405.83,65.15Z"/><path class="e" d="M448.67,156.72h-385v-.92h385Z"/><path class="d" d="M363.13,101.7C365.51,117.37,383.2,125,397,116.17c5.63-3.6,8.83-8.45,8.85-14.64,0-3.56.16-7.12.25-10.68,13.23,8.87,14.63,28.52.71,39.7-13.28,10.67-34.51,9.84-46.85-2.19-10.64-10.36-9.68-28.59,2.17-36.22C363.31,95.34,361.68,98.68,363.13,101.7Z"/><path class="d" d="M106.23,101.71c1.91,13.39,14,20.88,28,17.27,8.23-2.14,14.34-8.8,14.69-16.18.2-4,.22-8,.32-12,13.23,8.87,14.63,28.52.7,39.7-13.28,10.67-34.51,9.84-46.85-2.19C92.41,118,93.37,99.75,105.22,92.14,106.41,95.34,104.77,98.68,106.23,101.71Z"/><path class="f" d="M200.08,127.93a3.77,3.77,0,0,1-2.37-.69,4.48,4.48,0,0,1-1.41-2.16L187,99a3.05,3.05,0,0,1,.21-3,3.29,3.29,0,0,1,2.92-1.22,3.6,3.6,0,0,1,2.35.69,4.43,4.43,0,0,1,1.28,2.16l7.55,22.58h-2l8-22.58a4.79,4.79,0,0,1,1.33-2.16,3.3,3.3,0,0,1,2.17-.69,3,3,0,0,1,2.07.69,4.92,4.92,0,0,1,1.28,2.2l7.69,22.54h-1.71l7.69-22.58a4.71,4.71,0,0,1,1.33-2.16,3.4,3.4,0,0,1,2.25-.69A3,3,0,0,1,234.12,96a3.11,3.11,0,0,1,.18,3L225,125.08a5.27,5.27,0,0,1-1.45,2.16,3.57,3.57,0,0,1-2.32.69,3.79,3.79,0,0,1-2.37-.69,4.47,4.47,0,0,1-1.4-2.16l-7.27-20.56h1.11l-7.41,20.56a5,5,0,0,1-1.4,2.16A3.68,3.68,0,0,1,200.08,127.93Z"/><path class="f" d="M243.36,127.57a3.77,3.77,0,0,1-2.76-1,3.83,3.83,0,0,1-1-2.81V98.91a3.83,3.83,0,0,1,1-2.81,3.77,3.77,0,0,1,2.76-1h16.06a2.49,2.49,0,0,1,2.8,2.76,2.5,2.5,0,0,1-2.8,2.8H246.49v7.59H258.4a2.86,2.86,0,0,1,2.12.71,2.92,2.92,0,0,1,.69,2.1,2.48,2.48,0,0,1-2.81,2.76H246.49V122h12.93a2.5,2.5,0,0,1,2.8,2.81,2.76,2.76,0,0,1-.71,2,2.82,2.82,0,0,1-2.09.72Z"/><path class="f" d="M271.19,127.57a3.77,3.77,0,0,1-2.76-1,3.83,3.83,0,0,1-1-2.81V98.91a3.83,3.83,0,0,1,1-2.81,3.77,3.77,0,0,1,2.76-1h16.06a2.49,2.49,0,0,1,2.8,2.76,2.5,2.5,0,0,1-2.8,2.8H274.32v7.59h11.91a2.86,2.86,0,0,1,2.12.71,2.92,2.92,0,0,1,.69,2.1,2.48,2.48,0,0,1-2.81,2.76H274.32V122h12.93a2.5,2.5,0,0,1,2.8,2.81,2.76,2.76,0,0,1-.71,2,2.82,2.82,0,0,1-2.09.72Z"/><path class="f" d="M298.84,127.93a3.47,3.47,0,0,1-2.62-.94,3.68,3.68,0,0,1-.92-2.69V98.36a3.58,3.58,0,0,1,.92-2.67,3.5,3.5,0,0,1,2.62-.92,3.22,3.22,0,0,1,3.59,3.59v10.9h.09l12.23-12.79a6.39,6.39,0,0,1,1.66-1.27,4.27,4.27,0,0,1,1.93-.43,2.9,2.9,0,0,1,2.33.83,2.54,2.54,0,0,1,.62,1.93,3.23,3.23,0,0,1-1,2L308,112.11l.05-3,12.83,13.71a3.37,3.37,0,0,1,1.13,2.32,2.64,2.64,0,0,1-.78,2,3.29,3.29,0,0,1-2.37.78,3.6,3.6,0,0,1-2.12-.55,14.61,14.61,0,0,1-1.79-1.56l-12.42-13.07h-.09V124.3a3.75,3.75,0,0,1-.9,2.69A3.55,3.55,0,0,1,298.84,127.93Z"/><path class="g" d="M242.23,354.36A64.74,64.74,0,0,1,224,351.59a63.37,63.37,0,0,1-17.65-8.31,9.55,9.55,0,0,1-4.31-5.34,12.22,12.22,0,0,1-.31-6.47,12,12,0,0,1,2.87-5.54,9.05,9.05,0,0,1,5.44-2.88,11,11,0,0,1,7.19,1.75,53.37,53.37,0,0,0,13.14,5.75,47.8,47.8,0,0,0,12.32,1.64q11.9,0,20.12-5.55t12.42-16.73q4.2-11.19,4.21-27.61V266.9h2.46a40.33,40.33,0,0,1-6.77,17.86,35.2,35.2,0,0,1-13.56,11.6,41.84,41.84,0,0,1-55.63-18.48A50.65,50.65,0,0,1,200.34,254q0-14.16,6.06-25a44.24,44.24,0,0,1,16.94-17.15,48.92,48.92,0,0,1,24.84-6.26q18.06,0,30.59,8.42t19.09,24.53q6.57,16.13,6.57,38.91,0,18.48-4.2,32.75A68.53,68.53,0,0,1,288,334.24a52.1,52.1,0,0,1-19.61,15A64.06,64.06,0,0,1,242.23,354.36Zm7.59-74.94a24.94,24.94,0,0,0,13-3.38,22.92,22.92,0,0,0,8.73-9.45,33,33,0,0,0,0-27.82,22.37,22.37,0,0,0-8.73-9.24,25.56,25.56,0,0,0-13-3.28,25,25,0,0,0-12.93,3.28,23.16,23.16,0,0,0-8.73,9.24,32,32,0,0,0,0,27.82,23.73,23.73,0,0,0,8.73,9.45A24.34,24.34,0,0,0,249.82,279.42Z"/></svg>