<svg xmlns="http://www.w3.org/2000/svg" xmlns:xlink="http://www.w3.org/1999/xlink" viewBox="0 0 512 452.12"><defs><style>.cls-1{fill:none;}.cls-2{fill:#008cba;}.cls-3{fill:#fff;}.cls-4{clip-path:url(#clip-path);}.cls-5{fill:#f98888;}.cls-6{font-size:46px;fill:#515151;font-family:ArialRoundedMTBold, Arial Rounded MT Bold;}.cls-7{letter-spacing:-0.06em;}.cls-8{letter-spacing:-0.13em;}</style><clipPath id="clip-path"><path class="cls-1" d="M415.33,413.93H96.67c-18.33,0-33.19-15.79-33.19-35.27V80.81c0-19.48,14.86-35.28,33.19-35.28H415.33c18.33,0,33.19,15.8,33.19,35.28V378.66C448.52,398.14,433.66,413.93,415.33,413.93Z"/></clipPath></defs><g id="Layer_31" data-name="Layer 31"><rect class="cls-2" x="63.46" y="65.58" width="385.04" height="346.68" rx="33.19"/><path class="cls-3" d="M274.85,166.1l-26.42-45.61c6.92,0,13.54,0,20.15,0,26.62.17,20.83-2.69,34.21,19.52,1.38,2.3,2.79,4.59,4.34,7.13l16-8.89.83.57c-3.6,6.24-7.14,12.5-10.8,18.7s-6.05,14.65-11.48,17.69c-5.67,3.17-14.3,1.13-21.64,1.23a129.26,129.26,0,0,1-20.77-1Z"/><path class="cls-3" d="M291.57,237.3c0,4.25.23,8.52-.07,12.75s1.45,5.3,5.4,5.26c15.65-.16,31.3-.06,47.61-.06C338,266.13,332,277.16,325,287.49c-1.85,2.69-6.84,4.12-10.55,4.47-7.26.68-14.64.2-22.59.2v17.7l-1.4.5c-2.07-3.51-4.17-7-6.22-10.54-4.37-7.53-8.84-15-13-22.65-.88-1.61-1.47-4.33-.7-5.71,6.4-11.64,13.16-23.09,19.8-34.6Z"/><path class="cls-3" d="M179.89,271.2c-5.95-10.5-11.74-20.56-17.34-30.72-2.41-4.39-2.21-8.83.48-13.24,3.83-6.26,7.41-12.67,11.43-19.6L159,198.42l0-1.23c1.95,0,3.89,0,5.83,0,10.66-.11,21.33-.12,32-.41,3.51-.1,5.66,1,7.42,4.14,6,10.93,12.41,21.68,17.72,33.52l-15.75-8.84C197.35,240.93,188.76,255.82,179.89,271.2Z"/><path class="cls-3" d="M295.91,202l31.71-18.51c8.19,14.57,16.62,28.65,24.1,43.22,3.79,7.36-1.09,16-9.12,18.27-1.65.47-3.43.44-5.13.76-12.37,2.29-20.49-1.65-25.4-14.11C308.07,221.5,301.63,212.3,295.91,202Z"/><path class="cls-3" d="M249.36,255.85v36.31h-10c-11.61,0-23.21.14-34.82,0-13.18-.21-18.43-10.58-13-22.61,5.11-11.33,12.09-16.18,24.82-14.52,10.08,1.32,20.47.31,30.72.35A15.29,15.29,0,0,1,249.36,255.85Z"/><path class="cls-3" d="M227.32,189.17,196.05,171c3-5.19,5.8-10.16,8.65-15.12,4.72-8.22,9.36-16.5,14.23-24.64,6.4-10.69,18.72-10.59,25.23.09,8.64,14.19,8.65,14.2.36,28.66q-8,13.84-15.93,27.68A16.88,16.88,0,0,1,227.32,189.17Z"/><g class="cls-4"><rect class="cls-5" x="55.49" y="323.88" width="397.13" height="90.95"/></g><text class="cls-6" transform="translate(113.63 387.44)">S<tspan class="cls-7" x="30.68" y="0">T</tspan><tspan x="56.53" y="0">AFF ON</tspan><tspan class="cls-8" x="228.07" y="0">L</tspan><tspan x="250.06" y="0">Y</tspan></text></g></svg>
