<svg xmlns="http://www.w3.org/2000/svg" viewBox="0 0 512 452.12"><defs><style>.a{fill:#e8edee;}.b{fill:#ffa939;}.c{fill:#b3babe;}.d{fill:#ce852e;}.e{fill:#ba752b;}.f{fill:#515151;}.g{fill:#595959;}</style></defs><path class="a" d="M64.45,363.91a22.54,22.54,0,0,1-1-7.15q.1-91.11.1-182.2c2.78-1.86,6.07-1.28,9.18-1.28q80.94-.06,161.89,0,102.48,0,205,0c3.11,0,6.4-.58,9.19,1.28l0,189.39c-5.19,20.21-21.1,31.12-45.5,31.12q-147.92,0-295.82,0c-19.27,0-33-7.85-41.47-22.5C64.4,369.86,63.45,367,64.45,363.91Z"/><path class="b" d="M405.83,65.15c23.64,0,42.83,15.95,42.95,36,.12,18.2-.07,36.41-.12,54.61-2.59,1.92-5.75,1.21-8.67,1.21q-140.7.06-281.41,0-43.64,0-87.28,0c-2.61,0-5.41.55-7.67-1.22,0-18.91-.52-37.83,0-56.72S83.8,65.19,106.45,65.16a3.32,3.32,0,0,1,1.59,3c.08,10.82.71,21.65-.33,32.45-1.31,2.36-2.27,1.5-3-.29s.09-3.64-.73-5.42c-6.32,4.71-9.94,17.22-4.07,27s15.39,15.1,28.63,14.83c12.8-.27,22-5.58,27.19-15.33,5.27-10,3.32-19.45-5-27.85-1.19-1.19-2.56-2.26-3-3.87-.84-7-.38-14.08-.31-21.12a3.69,3.69,0,0,1,1.61-3.41H363.36a3.36,3.36,0,0,1,1.58,3c.09,10.82.72,21.65-.32,32.45-1.31,2.36-2.27,1.5-3-.29s.09-3.64-.73-5.42c-6.32,4.71-9.94,17.22-4.07,27s15.38,15.1,28.62,14.83c12.81-.27,22-5.58,27.2-15.33,5.27-10,3.32-19.45-5.05-27.84-1.19-1.2-2.56-2.27-3-3.88-.84-7-.38-14.08-.31-21.12A3.69,3.69,0,0,1,405.83,65.15Z"/><path class="c" d="M64.45,363.91c1.42,12.59,16.78,26.42,32.08,29a71.88,71.88,0,0,0,11.91.89c98.06,0,196.13-.22,294.19.14,21.78.08,40.25-11.44,45-28.16a8.14,8.14,0,0,1,1.09-1.81c-.18,6.1.64,12.21-.75,18.31-3.93,17.31-20.7,29.52-41.31,29.53q-150.48.07-301,0c-23.58,0-42.2-16-42.15-36.21C63.56,371.7,62.27,367.68,64.45,363.91Z"/><path class="d" d="M448.77,174.56c-1.17,0-2.34.09-3.51.09H67c-1.17,0-2.34-.06-3.5-.09q0-8.92.1-17.84c1.71-.86,3.6-.43,5.4-.43q187.11,0,374.24,0c1.8,0,3.68-.43,5.4.43Q448.72,165.65,448.77,174.56Z"/><path class="c" d="M148.93,65.15q.12,12.85.26,25.71c2,9.53,2.53,18.81-7.38,25.79-6.58,4.64-14.14,5.57-22.06,3-7.56-2.4-12.14-7.25-14.07-13.9a4.06,4.06,0,0,1,.55-4.09q.1-18.27.22-36.55c0-6.28,0-12.55.09-18.82.16-9.92,9.65-17.93,21.15-18s21,8,21.15,18C148.94,52.61,148.9,58.88,148.93,65.15Z"/><path class="c" d="M405.83,65.15l.26,25.71c1.58,7.67,2.53,15.31-3.45,22.08a22.89,22.89,0,0,1-20.93,7.79c-9.36-1.19-15.65-6-18.73-13.69-.7-1.74-1.22-3.58.15-5.33q.12-18.27.23-36.56c0-6.4,0-12.81.09-19.22.15-9.88,9.79-17.74,21.39-17.54s20.75,7.79,20.9,17.54C405.84,52.34,405.81,58.75,405.83,65.15Z"/><path class="e" d="M448.67,156.72h-385v-.92h385Z"/><path class="d" d="M363.13,101.71C365.51,117.38,383.2,125,397,116.17c5.63-3.6,8.83-8.44,8.85-14.63,0-3.56.16-7.12.25-10.68,13.23,8.86,14.63,28.52.71,39.7-13.28,10.66-34.51,9.83-46.85-2.19-10.64-10.37-9.68-28.6,2.17-36.22C363.31,95.35,361.68,98.68,363.13,101.71Z"/><path class="d" d="M106.23,101.71c1.91,13.39,14,20.88,28,17.27,8.23-2.13,14.34-8.8,14.69-16.17.2-4,.22-8,.32-12,13.23,8.86,14.63,28.52.7,39.7-13.28,10.66-34.51,9.83-46.85-2.19C92.41,118,93.37,99.75,105.22,92.15,106.41,95.35,104.77,98.69,106.23,101.71Z"/><path class="f" d="M200.07,127.94a3.79,3.79,0,0,1-2.37-.69,4.4,4.4,0,0,1-1.4-2.16L187,99a3.07,3.07,0,0,1,.2-3,3.32,3.32,0,0,1,2.92-1.22,3.56,3.56,0,0,1,2.35.69,4.51,4.51,0,0,1,1.29,2.16l7.54,22.59h-2l8-22.59a4.8,4.8,0,0,1,1.34-2.16,3.25,3.25,0,0,1,2.16-.69,3,3,0,0,1,2.07.69,5.06,5.06,0,0,1,1.29,2.21l7.68,22.54h-1.7l7.68-22.59a4.79,4.79,0,0,1,1.33-2.16,3.45,3.45,0,0,1,2.26-.69A3,3,0,0,1,234.11,96a3.12,3.12,0,0,1,.18,3L225,125.09a5.37,5.37,0,0,1-1.45,2.16,3.61,3.61,0,0,1-2.33.69,3.79,3.79,0,0,1-2.37-.69,4.54,4.54,0,0,1-1.4-2.16l-7.27-20.57h1.11l-7.41,20.57a4.94,4.94,0,0,1-1.4,2.16A3.68,3.68,0,0,1,200.07,127.94Z"/><path class="f" d="M243.36,127.57a3.7,3.7,0,0,1-2.76-1,3.75,3.75,0,0,1-1-2.8V98.91a3.77,3.77,0,0,1,1-2.8,3.7,3.7,0,0,1,2.76-1h16.05a2.84,2.84,0,0,1,2.09.71,2.76,2.76,0,0,1,.71,2.05,2.51,2.51,0,0,1-2.8,2.81H246.48v7.59H258.4a2.79,2.79,0,0,1,2.11.71,2.89,2.89,0,0,1,.69,2.09,2.47,2.47,0,0,1-2.8,2.76H246.48V122h12.93a2.51,2.51,0,0,1,2.8,2.81,2.76,2.76,0,0,1-.71,2,2.84,2.84,0,0,1-2.09.71Z"/><path class="f" d="M271.19,127.57a3.7,3.7,0,0,1-2.76-1,3.75,3.75,0,0,1-1-2.8V98.91a3.77,3.77,0,0,1,1-2.8,3.7,3.7,0,0,1,2.76-1h16.05a2.84,2.84,0,0,1,2.09.71A2.76,2.76,0,0,1,290,97.9a2.51,2.51,0,0,1-2.8,2.81H274.31v7.59h11.92a2.79,2.79,0,0,1,2.11.71,2.89,2.89,0,0,1,.69,2.09,2.47,2.47,0,0,1-2.8,2.76H274.31V122h12.93a2.51,2.51,0,0,1,2.8,2.81,2.76,2.76,0,0,1-.71,2,2.84,2.84,0,0,1-2.09.71Z"/><path class="f" d="M298.83,127.94a3.53,3.53,0,0,1-2.62-.94,3.73,3.73,0,0,1-.92-2.7V98.36a3.65,3.65,0,0,1,.92-2.67,3.56,3.56,0,0,1,2.62-.92,3.22,3.22,0,0,1,3.59,3.59v10.9h.09l12.24-12.79a6,6,0,0,1,1.65-1.26,4.31,4.31,0,0,1,1.93-.44,2.94,2.94,0,0,1,2.33.83,2.55,2.55,0,0,1,.62,1.93,3.24,3.24,0,0,1-1,2L308,112.11l0-3,12.84,13.71a3.37,3.37,0,0,1,1.12,2.33,2.58,2.58,0,0,1-.78,2,3.29,3.29,0,0,1-2.37.78,3.64,3.64,0,0,1-2.11-.55,14,14,0,0,1-1.8-1.57l-12.42-13.06h-.09V124.3a3.76,3.76,0,0,1-.9,2.7A3.57,3.57,0,0,1,298.83,127.94Z"/><path class="g" d="M164.4,352.31q-5.34,0-8.31-3a11,11,0,0,1-3-8.11q0-5.34,3-8t8.31-2.67h23V229.74h12.73L170,248a11.15,11.15,0,0,1-7.29,1.74,10,10,0,0,1-5.75-2.87,11.89,11.89,0,0,1-3.18-5.65,10.69,10.69,0,0,1,.51-6.67,11.47,11.47,0,0,1,5.24-5.65l28.33-17a67.91,67.91,0,0,1,8.21-4.21,19.62,19.62,0,0,1,7.6-1.74,11,11,0,0,1,7.18,2.36q2.88,2.36,2.88,7.7V330.55h20.94q5.34,0,8.32,2.67t3,8q0,5.34-3,8.21c-2,1.92-4.76,2.87-8.32,2.87Z"/><path class="g" d="M317.15,354.37q-25.66,0-39.21-19.4t-13.55-55.34q0-24.21,6.06-40.75t17.86-24.94q11.81-8.43,28.84-8.42,25.88,0,39.32,18.89t13.45,55q0,24-6.06,40.75T346.1,345.64Q334.4,354.37,317.15,354.37Zm0-21.56q14,0,20.64-12.94t6.67-40.44q0-27.51-6.67-39.93t-20.64-12.42q-13.75,0-20.53,12.42t-6.77,39.93q0,27.51,6.77,40.44T317.15,332.81Z"/></svg>